<svg viewBox="0 0 20 20" fill="none" xmlns="http://www.w3.org/2000/svg">
<path d="M15.056 15C14.7962 15 14.574 14.9159 14.3894 14.7478C14.2048 14.5797 14.1126 14.3774 14.1126 14.1411V5.85895C14.1126 5.62257 14.205 5.42032 14.3897 5.25219C14.5745 5.08406 14.7968 5 15.0566 5C15.3164 5 15.5385 5.08406 15.7231 5.25219C15.9077 5.42032 16 5.62257 16 5.85895V14.1411C16 14.3774 15.9076 14.5797 15.7228 14.7478C15.538 14.9159 15.3158 15 15.056 15ZM5.65111 13.9981C5.29883 14.2092 4.93557 14.2291 4.56134 14.0581C4.18711 13.887 4 13.6038 4 13.2084V6.79165C4 6.39428 4.18711 6.10927 4.56134 5.93661C4.93557 5.76396 5.29883 5.7857 5.65111 6.00185L10.9454 9.20252C11.2538 9.38748 11.408 9.65344 11.408 10.0004C11.408 10.3474 11.2538 10.6131 10.9454 10.7975L5.65111 13.9981Z" fill="#6265AD"/>
</svg>
