<svg viewBox="0 0 20 20" fill="none" xmlns="http://www.w3.org/2000/svg">
<path d="M4.94402 15C5.2038 15 5.42598 14.9159 5.61058 14.7478C5.79515 14.5797 5.88744 14.3774 5.88744 14.1411V5.85895C5.88744 5.62257 5.79505 5.42032 5.61027 5.25219C5.42549 5.08406 5.20321 5 4.94342 5C4.68364 5 4.46146 5.08406 4.27686 5.25219C4.09229 5.42032 4 5.62257 4 5.85895V14.1411C4 14.3774 4.09239 14.5797 4.27717 14.7478C4.46195 14.9159 4.68423 15 4.94402 15ZM14.3489 13.9981C14.7012 14.2092 15.0644 14.2291 15.4387 14.0581C15.8129 13.887 16 13.6038 16 13.2084V6.79165C16 6.39428 15.8129 6.10927 15.4387 5.93661C15.0644 5.76396 14.7012 5.7857 14.3489 6.00185L9.0546 9.20252C8.74621 9.38748 8.59202 9.65344 8.59202 10.0004C8.59202 10.3474 8.74621 10.6131 9.0546 10.7975L14.3489 13.9981Z" fill="#6265AD"/>
</svg>
