<svg viewBox="0 0 20 20" fill="none" xmlns="http://www.w3.org/2000/svg">
<path d="M9.00952 15.338C9.34921 15.5606 9.6829 15.5538 10.0106 15.3175L16.0393 10.9962C16.3464 10.7599 16.5 10.4279 16.5 10.0001C16.5 9.57236 16.3464 9.24025 16.0393 9.00382L10.0106 4.68248C9.6829 4.44622 9.34921 4.43938 9.00952 4.66196C8.66984 4.88454 8.5 5.22015 8.5 5.66881V14.3312C8.5 14.7798 8.66984 15.1155 9.00952 15.338Z" fill="#6265AD"/>
<path d="M3.86728 15.031C4.11213 15.3437 4.41544 15.5 4.7772 15.5H5.22278C5.58454 15.5 5.88786 15.3437 6.13272 15.031C6.37757 14.7183 6.5 14.331 6.5 13.869V6.13102C6.5 5.66904 6.37757 5.28172 6.13272 4.96904C5.88786 4.65635 5.58454 4.5 5.22278 4.5H4.7772C4.41544 4.5 4.11213 4.65635 3.86728 4.96904C3.62243 5.28172 3.5 5.66904 3.5 6.13102V13.869C3.5 14.331 3.62243 14.7183 3.86728 15.031Z" fill="#6265AD"/>
</svg>
