<svg viewBox="0 0 20 20" fill="none" xmlns="http://www.w3.org/2000/svg">
<path d="M4.37997 13.8325C4.08554 14.0347 3.78194 14.0538 3.46916 13.8899C3.15639 13.7261 3 13.4547 3 13.0759V6.92884C3 6.55005 3.15639 6.27749 3.46916 6.11115C3.78194 5.94481 4.08554 5.96517 4.37997 6.17224L8.80486 9.23841C9.06261 9.41505 9.19148 9.66971 9.19148 10.0024C9.19148 10.3351 9.06261 10.5897 8.80486 10.7664L4.37997 13.8325ZM12.1885 13.8325C11.8941 14.0347 11.5905 14.0538 11.2777 13.8899C10.9649 13.7261 10.8085 13.4547 10.8085 13.0759V6.92884C10.8085 6.55005 10.9649 6.27749 11.2777 6.11115C11.5905 5.94481 11.8941 5.96517 12.1885 6.17224L16.6134 9.23841C16.8711 9.41505 17 9.66971 17 10.0024C17 10.3351 16.8711 10.5897 16.6134 10.7664L12.1885 13.8325Z" fill="#6265AD"/>
</svg>
