<svg viewBox="0 0 20 20" fill="none" xmlns="http://www.w3.org/2000/svg">
<path d="M12.8598 15.5C12.4103 15.5 12.0335 15.3437 11.7293 15.031C11.4252 14.7183 11.2731 14.331 11.2731 13.869V6.13102C11.2731 5.66904 11.4252 5.28172 11.7293 4.96904C12.0335 4.65635 12.4103 4.5 12.8598 4.5H13.4133C13.8627 4.5 14.2395 4.65635 14.5437 4.96904C14.8479 5.28172 15 5.66904 15 6.13102V13.869C15 14.331 14.8479 14.7183 14.5437 15.031C14.2395 15.3437 13.8627 15.5 13.4133 15.5H12.8598ZM6.58668 15.5C6.13726 15.5 5.76046 15.3437 5.45627 15.031C5.15209 14.7183 5 14.331 5 13.869V6.13102C5 5.66904 5.15209 5.28172 5.45627 4.96904C5.76046 4.65635 6.13726 4.5 6.58668 4.5H7.14023C7.58965 4.5 7.96646 4.65635 8.27066 4.96904C8.57484 5.28172 8.72693 5.66904 8.72693 6.13102V13.869C8.72693 14.331 8.57484 14.7183 8.27066 15.031C7.96646 15.3437 7.58965 15.5 7.14023 15.5H6.58668Z" fill="#6265AD"/>
</svg>
