<svg viewBox="0 0 20 20" fill="none" xmlns="http://www.w3.org/2000/svg">
<path d="M15.62 13.8325L11.1951 10.7664C10.9374 10.5897 10.8085 10.3351 10.8085 10.0024C10.8085 9.66971 10.9374 9.41505 11.1951 9.23841L15.62 6.17224C15.9145 5.96517 16.2181 5.94481 16.5308 6.11115C16.8436 6.27749 17 6.55005 17 6.92884V13.0759C17 13.4547 16.8436 13.7261 16.5308 13.8899C16.2181 14.0538 15.9145 14.0347 15.62 13.8325ZM7.81151 13.8325L3.3866 10.7664C3.12887 10.5897 3 10.3351 3 10.0024C3 9.66971 3.12887 9.41505 3.3866 9.23841L7.81151 6.17224C8.10594 5.96517 8.40954 5.94481 8.72231 6.11115C9.03508 6.27749 9.19147 6.55005 9.19147 6.92884V13.0759C9.19147 13.4547 9.03508 13.7261 8.72231 13.8899C8.40954 14.0538 8.10594 14.0347 7.81151 13.8325Z" fill="#6265AD"/>
</svg>
