<svg viewBox="0 0 20 20" fill="none" xmlns="http://www.w3.org/2000/svg">
<path d="M8.86819 15.567L7.63053 14.4626C6.48215 13.4347 5.4233 12.3898 4.45398 11.3279C3.48466 10.266 3 9.08335 3 7.78C3 6.7066 3.37618 5.80825 4.12855 5.08495C4.88091 4.36165 5.80454 4 6.89943 4C7.52099 4 8.09904 4.13157 8.63359 4.39471C9.16812 4.65786 9.6236 4.99475 10 5.4054C10.3764 4.99475 10.8319 4.65786 11.3664 4.39471C11.901 4.13157 12.479 4 13.1006 4C14.1955 4 15.1191 4.36165 15.8715 5.08495C16.6238 5.80825 17 6.7066 17 7.78C17 9.09611 16.5044 10.2883 15.5133 11.3566C14.5222 12.4249 13.4799 13.4526 12.3865 14.4396L11.1318 15.5606C10.8181 15.8514 10.4409 15.9979 10 16C9.55912 16.0021 9.18185 15.8578 8.86819 15.567ZM9.30732 6.94341C9.07556 6.52935 8.75079 6.1729 8.33299 5.87406C7.9152 5.57521 7.44012 5.42578 6.90776 5.42578C6.20873 5.42578 5.62621 5.64683 5.16018 6.08894C4.69416 6.53105 4.46115 7.09552 4.46115 7.78237C4.46115 8.33513 4.63977 8.90461 4.99699 9.49082C5.35422 10.077 5.80402 10.6654 6.3464 11.2558C6.88879 11.8463 7.47539 12.4181 8.10621 12.9711C8.73702 13.5242 9.32254 14.0413 9.86275 14.5226C9.90197 14.5566 9.94771 14.5736 10 14.5736C10.0523 14.5736 10.098 14.5566 10.1372 14.5226C10.6775 14.0413 11.263 13.5242 11.8938 12.9711C12.5246 12.4181 13.1112 11.8463 13.6536 11.2558C14.196 10.6654 14.6458 10.077 15.003 9.49082C15.3602 8.90461 15.5388 8.33513 15.5388 7.78237C15.5388 7.09552 15.3058 6.53105 14.8398 6.08894C14.3738 5.64683 13.7913 5.42578 13.0922 5.42578C12.5599 5.42578 12.082 5.57521 11.6585 5.87406C11.2351 6.1729 10.9131 6.52935 10.6927 6.94341C10.6238 7.07263 10.527 7.17232 10.4021 7.24247C10.2772 7.31261 10.147 7.34769 10.0113 7.34769C9.8757 7.34769 9.7445 7.31261 9.61772 7.24247C9.49095 7.17232 9.38748 7.07263 9.30732 6.94341Z" fill="#6265AD"/>
</svg>
