<svg viewBox="0 0 20 20" fill="none" xmlns="http://www.w3.org/2000/svg">
<path fill-rule="evenodd" clip-rule="evenodd" d="M3.0713 16.9334C3.45218 17.3111 3.90737 17.5 4.43687 17.5H15.5631C16.1026 17.5 16.5603 17.3111 16.9362 16.9334C17.3121 16.5558 17.5 16.0958 17.5 15.5537V4.4463C17.5 3.91421 17.3121 3.45681 16.9362 3.0741C16.5603 2.69137 16.1026 2.5 15.5631 2.5H4.43687C3.90737 2.5 3.45218 2.69137 3.0713 3.0741C2.69043 3.45681 2.5 3.91421 2.5 4.4463V15.5537C2.5 16.0958 2.69043 16.5558 3.0713 16.9334ZM8.96131 15.819H15.5631C15.6291 15.819 15.6896 15.7914 15.7446 15.7361C15.7996 15.6808 15.8271 15.62 15.8271 15.5537V4.4463C15.8271 4.37998 15.7996 4.31918 15.7446 4.26391C15.6896 4.20865 15.6291 4.18102 15.5631 4.18102H8.96076C8.97165 4.26728 8.9771 4.35571 8.9771 4.4463V15.5537C8.9771 15.6444 8.97184 15.7329 8.96131 15.819Z" fill="#6265AD"/>
</svg>
