<svg viewBox="0 0 20 20" fill="none" xmlns="http://www.w3.org/2000/svg">
<path fill-rule="evenodd" clip-rule="evenodd" d="M3.44959 2.74241C3.25402 2.55117 2.94046 2.55251 2.74654 2.74642C2.55128 2.94168 2.55128 3.25827 2.74654 3.45353L3.38894 4.09593C3.36305 4.22237 3.3501 4.35416 3.3501 4.4913V14.7945C3.3501 15.3035 3.52851 15.7389 3.88533 16.1005C4.24216 16.4621 4.67988 16.6429 5.19851 16.6429H15.5017C15.6394 16.6429 15.7714 16.6301 15.8977 16.6046L16.5422 17.2492C16.7375 17.4444 17.054 17.4444 17.2493 17.2492C17.4433 17.0552 17.4445 16.7414 17.253 16.5459L17.2492 16.5421L3.45358 2.74644L3.44959 2.74241ZM9.59751 12.5651L10.5846 11.2916L12.9885 13.6955H7.09889C6.90314 13.6955 6.76787 13.6113 6.69308 13.4428C6.61829 13.2743 6.63829 13.1137 6.75309 12.9608L7.93806 11.4063C8.03173 11.2667 8.14955 11.1969 8.29152 11.1969C8.43348 11.1969 8.5513 11.2641 8.64498 11.3984L9.59751 12.5651Z" fill="#6265AD"/>
<path d="M17.3112 15.1899C17.3371 15.0634 17.3501 14.9316 17.3501 14.7945V4.4913C17.3501 3.98222 17.1717 3.54688 16.8149 3.18528C16.458 2.82368 16.0203 2.64288 15.5017 2.64288H5.19851C5.0608 2.64288 4.92879 2.65563 4.80248 2.68113L17.3112 15.1899Z" fill="#6265AD"/>
</svg>
