<svg viewBox="0 0 20 20" fill="none" xmlns="http://www.w3.org/2000/svg">
<path fill-rule="evenodd" clip-rule="evenodd" d="M17.5615 17.7826C17.8504 17.4926 17.8504 17.0226 17.5615 16.7327L17.272 16.4421C17.2719 16.4421 17.272 16.4421 17.272 16.4421L3.61562 2.7381C3.61561 2.73811 3.61563 2.73809 3.61562 2.7381L3.26292 2.38425C2.97401 2.09434 2.50559 2.09433 2.21668 2.38425C1.92777 2.67417 1.92777 3.14422 2.21668 3.43414L3.20397 4.42487L3.20397 14.9211C3.20397 15.4577 3.39181 15.913 3.7675 16.2868C4.1432 16.6607 4.5922 16.8476 5.1145 16.8476L15.5836 16.8476L16.5153 17.7826C16.8042 18.0725 17.2726 18.0725 17.5615 17.7826ZM13.9254 15.1837L9.593 10.8362V14.9211C9.593 15.0109 9.58781 15.0984 9.57742 15.1837H13.9254Z" fill="#6265AD"/>
<path d="M18 14.9211C18 14.9708 17.9984 15.0198 17.9952 15.0681L16.3499 13.417L16.3499 3.92653C16.3499 3.86088 16.3227 3.8007 16.2685 3.74599C16.2143 3.69129 16.1546 3.66394 16.0895 3.66394H9.57688C9.58762 3.74933 9.593 3.83685 9.593 3.92653L9.593 6.63655L4.97703 2.00448C5.02227 2.0015 5.0681 2 5.1145 2L16.0895 2C16.6216 2 17.0731 2.18942 17.4439 2.56826C17.8146 2.94709 18 3.39985 18 3.92653V14.9211Z" fill="#6265AD"/>
</svg>
