<svg viewBox="0 0 20 20" fill="none" xmlns="http://www.w3.org/2000/svg">
<path d="M12.4786 14L15.8173 17.718C15.9864 17.906 16.1752 18 16.3836 18C16.5921 18 16.7809 17.906 16.9499 17.718C17.119 17.53 17.2023 17.3222 17.2 17.0946C17.1976 16.867 17.1142 16.6619 16.9499 16.4792L14.6709 13.9449C15.4901 13.8125 16.2072 13.4415 16.822 12.8317C17.6073 12.0529 18 11.1088 18 9.99958C18 8.89033 17.6073 7.94642 16.822 7.16785C16.0367 6.38928 15.0845 6 13.9656 6H11.6075C11.3775 6 11.1806 6.08105 11.017 6.24314C10.8534 6.40523 10.7716 6.60035 10.7716 6.8285C10.7716 7.05663 10.8534 7.25184 11.017 7.41411C11.1806 7.57637 11.3775 7.6575 11.6075 7.6575H13.9656C14.6186 7.6575 15.1756 7.88606 15.6367 8.3432C16.0977 8.80033 16.3283 9.3526 16.3283 10C16.3283 10.6474 16.0977 11.1997 15.6367 11.6568C15.1756 12.1139 14.6186 12.3425 13.9656 12.3425H13.2298L11.8512 10.8095H12.391C12.6211 10.8095 12.8179 10.7284 12.9815 10.5663C13.1451 10.4042 13.2269 10.2091 13.2269 9.98098C13.2269 9.75284 13.1451 9.55764 12.9815 9.39537C12.8179 9.23311 12.6211 9.15198 12.391 9.15198H10.3606L8.87831 7.50374C8.9146 7.47734 8.94949 7.44755 8.98299 7.41436C9.1466 7.25227 9.22841 7.05715 9.22841 6.82902C9.22841 6.60087 9.1466 6.40567 8.98299 6.24341C8.81938 6.08114 8.62257 6 8.39254 6H7.52601L4.17349 2.27207C4.01678 2.09782 3.83419 2.00726 3.62572 2.00039C3.41724 1.99353 3.22847 2.07722 3.05942 2.25148C2.89036 2.42575 2.80393 2.63011 2.80013 2.86456C2.79634 3.09902 2.87659 3.3076 3.0409 3.4903L5.34218 6.05299C4.51749 6.18354 3.79611 6.5553 3.17802 7.16827C2.39267 7.94712 2 8.89117 2 10.0004C2 11.1097 2.39267 12.0536 3.17802 12.8322C3.96337 13.6107 4.91549 14 6.03439 14H8.39254C8.62257 14 8.81938 13.919 8.98299 13.7569C9.1466 13.5948 9.22841 13.3997 9.22841 13.1715C9.22841 12.9434 9.1466 12.7482 8.98299 12.5859C8.81938 12.4236 8.62257 12.3425 8.39254 12.3425H6.03439C5.38143 12.3425 4.82441 12.1139 4.36335 11.6568C3.90229 11.1997 3.67176 10.6474 3.67176 10C3.67176 9.3526 3.90229 8.80033 4.36335 8.3432C4.82441 7.88606 5.38143 7.6575 6.03439 7.6575H6.78302L8.12506 9.15198H7.60898C7.37894 9.15198 7.18213 9.23302 7.01853 9.39512C6.85491 9.55721 6.77311 9.75233 6.77311 9.98048C6.77311 10.2086 6.85491 10.4038 7.01853 10.5661C7.18213 10.7283 7.37894 10.8095 7.60898 10.8095H9.61349L11.1257 12.4934C11.088 12.5205 11.0517 12.5512 11.017 12.5856C10.8534 12.7477 10.7716 12.9428 10.7716 13.171C10.7716 13.3991 10.8534 13.5943 11.017 13.7566C11.1806 13.9189 11.3775 14 11.6075 14H12.4786Z" fill="#6265AD"/>
</svg>
