<svg viewBox="0 0 20 20" fill="none" xmlns="http://www.w3.org/2000/svg">
<path d="M16.3404 17.7594L9.71897 11.237H3.75899V15.817C3.75899 15.8773 3.78453 15.9326 3.83559 15.9828C3.88668 16.0331 3.94286 16.0582 4.00416 16.0582H13.2734C13.3347 16.0582 13.3909 16.0331 13.442 15.9828C13.493 15.9326 13.5186 15.8773 13.5186 15.817V12.8486L15.0721 14.3724V15.8249C15.0721 16.3282 14.9005 16.7477 14.5574 17.0834C14.2143 17.4191 13.7863 17.5869 13.2734 17.5869H4.00416C3.49131 17.5869 3.06331 17.4181 2.72017 17.0804C2.37702 16.7428 2.20544 16.3216 2.20544 15.817V9.55393C2.20544 9.0347 2.37602 8.60397 2.71719 8.26175C3.05833 7.91954 3.48732 7.76149 4.00416 7.78762H5.01382V6.62674L2.2315 3.86936C2.07318 3.71706 1.99606 3.54356 2.00015 3.34886C2.00423 3.15414 2.08658 2.97638 2.24721 2.81558C2.40784 2.65476 2.58633 2.57436 2.78269 2.57436C2.97904 2.57436 3.16116 2.65697 3.32905 2.82218L17.4234 16.6909C17.5862 16.8487 17.6688 17.0271 17.6714 17.2261C17.6739 17.4252 17.5949 17.6027 17.4343 17.7588C17.2781 17.9196 17.0974 18 16.8922 18C16.687 18 16.5031 17.9198 16.3404 17.7594ZM15.1671 12.4867L13.8756 11.2159V11.0802H13.7377L10.3915 7.78762H13.5722C14.0012 7.78762 14.3584 7.92808 14.6439 8.209C14.9294 8.48991 15.0721 8.83819 15.0721 9.25384V10.2706H16.2013C16.2626 10.2706 16.3188 10.2455 16.3699 10.1952C16.4209 10.145 16.4465 10.0897 16.4465 10.0294V5.44933H8.01523L5.3892 2.86534C5.56487 2.58493 5.78691 2.37061 6.0553 2.22237C6.32371 2.07412 6.61595 2 6.93203 2H16.2013C16.7141 2 17.1421 2.16882 17.4853 2.50647C17.8284 2.84411 18 3.26526 18 3.7699V10.0294C18 10.534 17.8284 10.9552 17.4853 11.2928C17.1421 11.6305 16.7141 11.7993 16.2013 11.7993H15.1671V12.4867Z" fill="#6265AD"/>
</svg>
