<svg viewBox="0 0 20 20" fill="none" xmlns="http://www.w3.org/2000/svg">
<path d="M3.34194 3.14487C3.14933 2.95171 2.83706 2.95171 2.64445 3.14487C2.45185 3.33803 2.45185 3.65121 2.64445 3.84438L4.24064 5.44518C4.21992 5.46202 4.19946 5.47941 4.17925 5.49735C3.85344 5.78671 3.69053 6.14168 3.69053 6.56226V13.4568C3.69053 13.8697 3.85344 14.2227 4.17925 14.5159C4.50508 14.8092 4.89735 14.9558 5.35606 14.9558H13.017C13.2364 14.9558 13.4398 14.9234 13.6271 14.8588L15.6176 16.8551C15.8103 17.0483 16.1225 17.0483 16.3151 16.8551C16.5077 16.662 16.5077 16.3488 16.3151 16.1556L3.34194 3.14487Z" fill="#6265AD"/>
<path d="M14.6825 10.8496V13.1194L6.6497 5.06331H13.017C13.4843 5.06331 13.8787 5.20799 14.2002 5.49735C14.5218 5.78671 14.6825 6.14168 14.6825 6.56226V9.16944L16.7822 7.27983C16.9032 7.17088 17.0531 7.14733 17.2319 7.20917C17.4106 7.27103 17.5 7.38012 17.5 7.53645V12.4806C17.5 12.642 17.4106 12.7527 17.2319 12.8127C17.0531 12.8727 16.9032 12.8482 16.7822 12.7393L14.6825 10.8496Z" fill="#6265AD"/>
</svg>
