<?xml version="1.0" encoding="UTF-8"?>
<svg viewBox="0 0 20 20" version="1.1" xmlns="http://www.w3.org/2000/svg" xmlns:xlink="http://www.w3.org/1999/xlink">
    <g stroke="none" stroke-width="1" fill="none" fill-rule="evenodd">
        <g transform="translate(-101.000000, -581.000000)" fill="#121212">
            <g transform="translate(99.000000, 579.000000)">
                <path d="M12,2 C17.5155789,2 22,6.48442105 22,12 C22,17.5155789 17.5155789,22 12,22 C6.48442105,22 2,17.5155789 2,12 C2,6.48442105 6.48442105,2 12,2 Z M12.0000673,12.837114 C10.543532,12.837114 9.30230868,13.1422976 8.27593891,13.7520823 C7.73119633,14.0782494 7.31357796,14.4815546 7.02302719,14.9716562 L7.02302719,14.9716562 L6.91580973,15.1589261 C6.68257949,15.5980498 6.56797033,16.0522635 6.57228173,16.5208083 C6.57228173,16.5366919 6.57362459,16.5531419 6.5763102,16.569024 L6.5763102,16.569024 L6.58391968,16.7335234 L6.59608214,16.8246644 C6.61469312,16.9124908 6.65262899,16.9903468 6.70970355,17.0579915 C6.78355932,17.1385407 6.8703911,17.1793824 6.9697623,17.1793824 L6.9697623,17.1793824 L17.0267422,17.1793824 L17.10824,17.1695924 C17.1608251,17.1565669 17.2099617,17.1305999 17.2559193,17.092027 C17.3270891,17.0239575 17.3754352,16.9405679 17.4009426,16.8401663 L17.4009426,16.8401663 L17.4049715,16.7823069 L17.4221105,16.7070048 L17.4221105,16.7070048 L17.4278355,16.6274498 L17.4278355,16.5208069 L17.4217189,16.3208628 C17.3908589,15.8562962 17.2438961,15.4052464 16.9811176,14.9620125 L16.9811176,14.9620125 L16.8470265,14.7608256 C16.5638796,14.3678988 16.1909443,14.0316541 15.7282062,13.7520823 C14.6969092,13.1422961 13.4538524,12.837114 12.0000673,12.837114 Z M12.0024109,5.6 C11.1508641,5.6 10.4229774,5.90258858 9.81888854,6.50717819 C9.21115503,7.1117678 8.90759727,7.84016052 8.90759727,8.69240273 C8.90759727,9.54461401 9.21115503,10.2730686 9.81888854,10.8776273 C10.4230068,11.4828199 11.1508332,11.7848055 12.0024109,11.7848055 C12.8539578,11.7848055 13.5818429,11.4828199 14.1859318,10.8776273 C14.7906526,10.2730377 15.0924027,9.54464494 15.0924027,8.69240273 C15.0924027,7.84019145 14.7906526,7.11173688 14.1859318,6.50717819 C13.5818136,5.90258858 12.8539887,5.6 12.0024109,5.6 Z"></path>
            </g>
        </g>
    </g>
</svg>