<?xml version="1.0" encoding="UTF-8"?>
<svg viewBox="0 0 24 24" version="1.1" xmlns="http://www.w3.org/2000/svg" xmlns:xlink="http://www.w3.org/1999/xlink">
    <g id="🔶-Symbols" stroke="none" stroke-width="1" fill="none" fill-rule="evenodd">
        <g id="Alert">
            <path d="M12,2 C17.5228475,2 22,6.4771525 22,12 C22,17.5228475 17.5228475,22 12,22 C6.4771525,22 2,17.5228475 2,12 C2,6.4771525 6.4771525,2 12,2 Z M12,15.1566925 C11.1715729,15.1566925 10.5,15.8282654 10.5,16.6566925 C10.5,17.4851196 11.1715729,18.1566925 12,18.1566925 C12.8284271,18.1566925 13.5,17.4851196 13.5,16.6566925 C13.5,15.8282654 12.8284271,15.1566925 12,15.1566925 Z M13.5,5.38078459 L10.5,5.38078459 L11,13.8807846 L13,13.8807846 L13.5,5.38078459 Z"></path>
        </g>
    </g>
</svg>