<svg viewBox="0 0 25 24" fill="none" xmlns="http://www.w3.org/2000/svg">
<path fill-rule="evenodd" clip-rule="evenodd" d="M19.6961 17.2162C19.0631 17.2162 18.5493 16.6935 18.5493 16.0495C18.5493 15.4055 19.0631 14.8828 19.6961 14.8828C20.329 14.8828 20.8428 15.4055 20.8428 16.0495C20.8428 16.6935 20.329 17.2162 19.6961 17.2162ZM5.8585 20.1667C5.22551 20.1667 4.71178 19.644 4.71178 19C4.71178 18.3572 5.22551 17.8333 5.8585 17.8333C6.49035 17.8333 7.00523 18.3572 7.00523 19C7.00523 19.644 6.49035 20.1667 5.8585 20.1667ZM19.6192 3.83333C20.2511 3.83333 20.7659 4.35833 20.7659 5C20.7659 5.64283 20.2511 6.16667 19.6192 6.16667C18.9862 6.16667 18.4725 5.64283 18.4725 5C18.4725 4.35833 18.9862 3.83333 19.6192 3.83333ZM5.57641 9.48933C4.94342 9.48933 4.42968 8.9655 4.42968 8.32267C4.42968 7.67867 4.94342 7.156 5.57641 7.156C6.20825 7.156 6.72313 7.67867 6.72313 8.32267C6.72313 8.9655 6.20825 9.48933 5.57641 9.48933ZM19.6961 12.5495C18.8303 12.5495 18.0482 12.8878 17.4427 13.4268L15.405 12.2298C15.4119 12.1528 15.4279 12.0793 15.4279 12C15.4279 11.6955 15.3672 11.4073 15.2766 11.132L18.187 8.17217C18.6239 8.37867 19.1055 8.5 19.6192 8.5C21.5159 8.5 23.0594 6.93083 23.0594 5C23.0594 3.07033 21.5159 1.5 19.6192 1.5C17.7214 1.5 16.179 3.07033 16.179 5C16.179 5.5565 16.3189 6.0745 16.546 6.54233L13.6884 9.4485C13.3913 9.33417 13.0749 9.26533 12.7389 9.26533C12.1678 9.26533 11.6403 9.4485 11.2045 9.7565L9.00168 8.46267C9.00397 8.41483 9.01659 8.3705 9.01659 8.32267C9.01659 6.393 7.47309 4.82267 5.57641 4.82267C3.67858 4.82267 2.13623 6.393 2.13623 8.32267C2.13623 10.2523 3.67858 11.8227 5.57641 11.8227C6.59356 11.8227 7.49832 11.3618 8.12902 10.6455L10.0704 11.7865C10.0647 11.8577 10.0486 11.9277 10.0486 12C10.0486 12.3418 10.1174 12.665 10.231 12.966L7.37218 15.8745C6.91349 15.6423 6.40435 15.5 5.8585 15.5C3.96067 15.5 2.41833 17.0703 2.41833 19C2.41833 20.9308 3.96067 22.5 5.8585 22.5C7.75519 22.5 9.29868 20.9308 9.29868 19C9.29868 18.4785 9.17828 17.9873 8.97531 17.5417L11.8846 14.5818C12.1552 14.674 12.4384 14.7358 12.7389 14.7358C13.3042 14.7358 13.8283 14.5573 14.2617 14.2528L16.3144 15.458C16.2811 15.6517 16.2559 15.8465 16.2559 16.0495C16.2559 17.9792 17.7994 19.5495 19.6961 19.5495C21.5927 19.5495 23.1362 17.9792 23.1362 16.0495C23.1362 14.1198 21.5927 12.5495 19.6961 12.5495Z" fill="black"/>
</svg>
