<?xml version="1.0" encoding="UTF-8"?>
<svg viewBox="0 0 20 18" version="1.1" xmlns="http://www.w3.org/2000/svg" xmlns:xlink="http://www.w3.org/1999/xlink">
    <g stroke="none" stroke-width="1" fill="none" fill-rule="evenodd">
        <g transform="translate(-413.000000, -582.000000)" fill="#1B1D23">
            <g transform="translate(411.000000, 579.000000)">
                <path d="M4.74074074,12.017591 L4.74074074,20.3333333 L2.66666667,20.3333333 L2.66666667,12.017591 L4.74074074,12.017591 Z M8.88992593,9.93865541 L8.88992593,20.3333333 L6.81481481,20.3333333 L6.81481481,9.93865541 L8.88992593,9.93865541 Z M13.037037,15.1359944 L13.037037,20.3333333 L10.962963,20.3333333 L10.962963,15.1359944 L13.037037,15.1359944 Z M17.1862222,13.0570588 L17.1862222,20.3333333 L15.1111111,20.3333333 L15.1111111,13.0570588 L17.1862222,13.0570588 Z M21.3333333,8.89918762 L21.3333333,20.3333333 L19.2592593,20.3333333 L19.2592593,8.89918762 L21.3333333,8.89918762 Z M19.5450667,3 L21.011437,4.47084693 L13.0542519,12.4446044 L7.33706667,6.71401842 L4.4344,9.62244931 L2.96802963,8.15264185 L7.33706667,3.77336404 L13.0542519,9.50602891 L19.5450667,3 Z"></path>
            </g>
        </g>
    </g>
</svg>