<?xml version="1.0" encoding="UTF-8"?>
<svg viewBox="0 0 24 24" version="1.1" xmlns="http://www.w3.org/2000/svg" xmlns:xlink="http://www.w3.org/1999/xlink">
    <g id="🔶-Symbols" stroke="none" stroke-width="1" fill="none" fill-rule="evenodd">
        <g id="Artist">
            <path d="M9.81242043,8 C10.3299985,8 10.7499109,8.41991239 10.7499109,8.93749045 L10.7499109,8.93749045 L10.7499109,14.7500637 C10.7499109,15.2676417 10.3299985,15.6875541 9.81242043,15.6875541 L9.81242043,15.6875541 L8.87492998,15.6875541 L8.87492998,21.3124968 C8.87492998,21.657535 8.59497449,21.9374905 8.24993634,21.9374905 L8.24993634,21.9374905 L4.49997454,21.9374905 C4.15493638,21.9374905 3.8749809,21.657535 3.8749809,21.3124968 L3.8749809,21.3124968 L3.8749809,15.6875541 L2.93749045,15.6875541 C2.41991239,15.6875541 2,15.2676417 2,14.7500637 L2,14.7500637 L2,8.93749045 C2,8.41991239 2.41991239,8 2.93749045,8 L2.93749045,8 Z M21.2459979,7.00748793 C21.6423159,6.94761807 21.9989766,7.25438716 21.9989766,7.6550547 L21.9989766,7.6550547 L21.9989766,15.8318964 L21.996418,15.8318964 L22,15.8976509 C22,17.1633612 20.9123641,18.1893363 19.5706652,18.1893363 C18.2287103,18.1893363 17.1410745,17.1633612 17.1410745,15.8976509 C17.1410745,14.6319406 18.2287103,13.6059656 19.5706652,13.6059656 C19.9434446,13.6059656 20.2954999,13.6875831 20.610968,13.8290704 L20.610968,13.8290704 L20.610968,10.2893287 L16.1314741,10.9655511 L16.1314741,17.6505075 L16.1289156,17.6505075 L16.1324975,17.716262 C16.1324975,18.9819723 15.0448617,20.0079473 13.7031627,20.0079473 C12.3614637,20.0079473 11.2738279,18.9819723 11.2738279,17.716262 C11.2738279,16.4505517 12.3614637,15.4245767 13.7031627,15.4245767 C14.0759421,15.4245767 14.4279974,15.5061941 14.7434655,15.6479373 L14.7434655,15.6479373 L14.7434655,8.55259094 C14.7434655,8.22867963 14.9803865,7.9533806 15.3007158,7.90502417 L15.3007158,7.90502417 Z M4.60743178,2.73261291 C5.3219245,2.01728062 6.39774687,1.80324738 7.33198736,2.19061843 C8.26620701,2.577177 8.87497164,3.48862605 8.87497164,4.50017824 C8.87497164,5.88114334 7.75600387,7.00011111 6.37499711,7.00011111 C5.36344491,7.00011111 4.45199586,6.39140898 4.0654373,5.4571685 C3.67808707,4.52296968 3.89210573,3.44712647 4.60743178,2.73261291 Z"></path>
        </g>
    </g>
</svg>