<?xml version="1.0" encoding="UTF-8"?>
<svg viewBox="0 0 24 24" version="1.1" xmlns="http://www.w3.org/2000/svg" xmlns:xlink="http://www.w3.org/1999/xlink">
    <g id="🔶-Symbols" stroke="none" stroke-width="1" fill="none" fill-rule="evenodd">
        <g id="Asset">
            <path d="M16.5966241,13.4380918 C16.5966241,13.4421553 16.5973956,13.445948 16.5973956,13.4500115 C16.5973956,13.4540751 16.5966241,13.4578677 16.5966241,13.4619313 L16.5966241,13.4941688 L16.594824,13.4941688 C16.5703932,14.364853 15.8346425,15.0635133 14.9281339,15.0635133 C14.0064525,15.0635133 13.2588722,14.3412844 13.2588722,13.4500115 C13.2588722,12.5587387 14.0064525,11.8365097 14.9281339,11.8365097 C15.147239,11.8365097 15.3563146,11.8779579 15.5479029,11.9524564 C15.6204236,11.9806304 15.6968018,11.919948 15.6968018,11.838406 L15.6968018,8.5339239 C15.6968018,8.43396048 15.6119372,8.35756566 15.5183289,8.37300717 L11.5327769,9.02669755 C11.4574274,9.03915912 11.4016225,9.10742682 11.4016225,9.18788519 L11.4016225,14.2738294 C11.4016225,14.2778929 11.402394,14.2816856 11.402394,14.2857491 C11.402394,14.2898127 11.4016225,14.2933344 11.4016225,14.2976689 L11.4016225,14.3299064 L11.4000795,14.3299064 C11.3753916,15.2003197 10.6396409,15.899251 9.73338944,15.899251 C8.81145088,15.899251 8.06387058,15.1767511 8.06387058,14.2857491 C8.06387058,13.3944763 8.81145088,12.6719764 9.73338944,12.6719764 C9.95223734,12.6719764 10.1613129,12.7134246 10.3529013,12.7879231 C10.425422,12.8160971 10.5018002,12.7556856 10.5018002,12.6741436 L10.5018002,7.97071532 C10.5018002,7.61312257 10.7494506,7.30862693 11.0847945,7.25336259 L15.8076402,6.4788492 C16.2255342,6.41031059 16.6030533,6.75110732 16.6025395,7.19674374 L16.5966241,13.4380918 Z M16.1110955,18.8141737 L8.55531398,18.8141737 C8.2840043,18.8141737 8.06387058,18.5822802 8.06387058,18.2967478 C8.06387058,18.0106736 8.2840043,17.7787801 8.55531398,17.7787801 L16.1110955,17.7787801 C16.3826624,17.7787801 16.6025389,18.0106736 16.6025389,18.2967478 C16.6025389,18.5822802 16.3826624,18.8141737 16.1110955,18.8141737 L16.1110955,18.8141737 Z M19.3835274,5.55723516 L16.2898256,2.29799396 C16.1085239,2.10727783 15.8626736,2 15.6062795,2 L6.53090663,2 C5.6856034,2 5,2.72195809 5,3.61241822 L5,20.3873109 C5,21.2780419 5.6856034,22 6.53090663,22 L18.1355029,22 C18.9810633,22 19.6666667,21.2780419 19.6666667,20.3873109 L19.6666667,6.27702602 C19.6666667,6.00693513 19.5648291,5.74795129 19.3835274,5.55723516 L19.3835274,5.55723516 Z"></path>
        </g>
    </g>
</svg>