<svg viewBox="0 0 24 24" xmlns="http://www.w3.org/2000/svg">
    <path fill-rule="evenodd" clip-rule="evenodd" d="M2.79933 7.28179H6.06457C6.13249 7.28179 6.18936 7.33708 6.18936 7.40659V14.471C6.18936 14.5389 6.13407 14.5958 6.06457 14.5958H2.79775C2.35859 14.5942 2 14.2356 2 13.7965V8.0827C2 7.64197 2.36017 7.28179 2.79933 7.28179ZM19.2408 4.16663C20.0323 5.28505 20.6341 6.54249 21.0006 7.88998C21.3545 9.18849 21.4903 10.5707 21.3687 11.9877C21.2581 13.2831 20.9422 14.5137 20.454 15.6495C20.0449 16.602 19.5141 17.4882 18.8854 18.2876C18.7875 18.4171 18.6879 18.545 18.5853 18.6714L18.5774 18.6635C18.5284 18.7204 18.4794 18.7773 18.4289 18.8326L18.2804 19L18.135 18.8294L17.5458 18.1375L17.4368 18.0095L17.5474 17.8832C18.2646 17.057 18.8586 16.1139 19.2945 15.0823C19.7148 14.0887 19.988 13.0114 20.0828 11.8771C20.1902 10.6165 20.0702 9.38911 19.7574 8.23593C19.4683 7.16964 19.0149 6.16495 18.4241 5.25662L18.421 5.25346C18.3136 5.09707 18.2014 4.94226 18.0845 4.79219L18.0971 4.78113L18.0892 4.77007L18.2425 4.65633L18.3546 4.57261L18.7827 4.22666L18.7969 4.24561L18.9628 4.1224L19.1239 4.00234L19.2408 4.16663ZM19.1524 4.73532C19.1129 4.67529 19.075 4.61684 19.0339 4.55839L19.0292 4.56155C19.0718 4.61842 19.1129 4.67687 19.1524 4.73532ZM16.6517 5.92483C17.233 6.75891 17.6738 7.69567 17.9423 8.6972C18.2014 9.66398 18.2993 10.6892 18.2109 11.7413C18.135 12.6386 17.9265 13.4963 17.6059 14.2957C17.2741 15.1218 16.8239 15.8833 16.2789 16.5578L16.1304 16.741L15.9772 16.5609L15.2316 16.0412L15.1273 15.9196L15.2252 15.7932C15.6849 15.2056 16.1746 14.55 16.4527 13.8423C16.7212 13.1583 16.7844 12.4221 16.8492 11.6497C16.9282 10.724 16.8429 9.82511 16.617 8.97997C16.4053 8.1838 16.0672 7.43187 15.6265 6.75101C15.568 6.66729 15.508 6.58357 15.4448 6.50142L15.4527 6.4951L15.3801 6.39084L15.5317 6.27869L16.3753 5.87902L16.538 5.75896L16.6517 5.92483ZM16.192 6.38926L16.143 6.31502L16.1399 6.3166L16.192 6.38926ZM6.89707 7.15226C8.79903 6.10808 10.7026 5.0639 12.6045 4.0213C12.7878 3.92177 12.9836 4.1919 12.9836 4.40042V17.3603C12.9836 17.5799 12.7751 17.8674 12.584 17.7599L6.89707 14.5516C6.86073 14.531 6.82124 14.5184 6.82124 14.4757V7.22808C6.82124 7.18543 6.86073 7.17279 6.89707 7.15226Z" />
</svg>
