<svg viewBox="0 0 24 24" xmlns="http://www.w3.org/2000/svg">
    <g clip-path="url(#clip0_16059_193)">
        <path d="M1.41161 1.41187L0 2.82346L4.45833 7.28174H2.799C2.35984 7.28174 1.99967 7.64191 1.99967 8.08265V13.7964C1.99967 14.2356 2.35826 14.5942 2.79742 14.5957H6.06424C6.13375 14.5957 6.18904 14.5389 6.18904 14.471V9.01242L6.82092 9.6443V14.4757C6.82092 14.5116 6.84888 14.5262 6.87939 14.5422C6.88514 14.5452 6.89098 14.5483 6.89674 14.5515L12.5837 17.7599C12.7748 17.8673 12.9833 17.5798 12.9833 17.3602V15.8066L21.1767 24L22.5885 22.5882L1.41161 1.41187Z" />
        <path fill-rule="evenodd" clip-rule="evenodd" d="M19.788 16.9646C20.0359 16.5427 20.2586 16.1036 20.4537 15.6494C20.9418 14.5136 21.2578 13.283 21.3684 11.9877C21.49 10.5707 21.3542 9.18844 21.0003 7.88993C20.6338 6.54244 20.0319 5.285 19.2405 4.16658L19.1236 4.00229L18.9625 4.12234L18.7966 4.24556L18.7824 4.22661L18.3543 4.57256L18.2421 4.65628L18.0889 4.77002L18.0968 4.78108L18.0842 4.79214C18.2011 4.94221 18.3132 5.09702 18.4206 5.25341L18.4238 5.25657C19.0146 6.1649 19.468 7.16958 19.7571 8.23588C20.0699 9.38906 20.1899 10.6165 20.0825 11.8771C19.9877 13.0113 19.7144 14.0887 19.2942 15.0823C19.1585 15.4033 19.0075 15.7158 18.8423 16.0188L19.788 16.9646ZM19.1521 4.73527L19.1347 4.70886C19.1013 4.65805 19.0686 4.60817 19.0336 4.55834L19.0288 4.5615C19.0715 4.61837 19.1126 4.67682 19.1521 4.73527Z" />
        <path fill-rule="evenodd" clip-rule="evenodd" d="M17.4602 14.6367C17.5109 14.5243 17.5594 14.4106 17.6055 14.2956C17.9262 13.4963 18.1347 12.6385 18.2105 11.7412C18.299 10.6892 18.2011 9.66393 17.942 8.69715C17.6735 7.69562 17.2327 6.75886 16.6514 5.92478L16.5376 5.75891L16.3749 5.87897L15.5314 6.27863L15.3797 6.39079L15.4524 6.49505L15.4445 6.50137C15.5077 6.58352 15.5677 6.66724 15.6262 6.75096C16.0669 7.43181 16.405 8.18375 16.6166 8.97992C16.8425 9.82506 16.9278 10.7239 16.8488 11.6496C16.789 12.3637 16.7304 13.0468 16.5098 13.6863L17.4602 14.6367ZM16.1917 6.38921L16.1427 6.31497L16.1396 6.31655L16.1917 6.38921Z" />
        <path d="M12.9833 10.1599V4.40037C12.9833 4.19185 12.7874 3.92172 12.6042 4.02124C11.3647 4.7007 10.1245 5.38083 8.88456 6.0612L12.9833 10.1599Z" />
    </g>
    <defs>
        <clipPath id="clip0_16059_193">
            <rect width="24" height="24"/>
        </clipPath>
    </defs>
</svg>
