<?xml version="1.0" encoding="UTF-8"?>
<svg viewBox="0 0 24 24" version="1.1" xmlns="http://www.w3.org/2000/svg" xmlns:xlink="http://www.w3.org/1999/xlink">
    <g id="🔶-Symbols" stroke="none" stroke-width="1" fill="none" fill-rule="evenodd">
        <g id="CMS/Auto">
            <path d="M21.1587597,14.4791667 L19.1068555,12.9375 C19.1496035,12.6458333 19.1923515,12.3333333 19.1923515,12.0208333 C19.1923515,11.7083333 19.1709775,11.3958333 19.1068555,11.1041667 L21.1373857,9.5625 C21.3083777,9.41666667 21.3724997,9.16666667 21.2442557,8.95833333 L19.3205955,5.72916667 C19.2137255,5.52083333 18.9572375,5.45833333 18.7221235,5.52083333 L16.3496093,6.45833333 C15.8580073,6.08333333 15.3236572,5.77083333 14.7251852,5.54166667 L14.3618272,3.08333333 C14.3404532,2.83333333 14.1267132,2.66666667 13.9129731,2.66666667 L10.0870269,2.66666667 C9.85191284,2.66666667 9.63817283,2.83333333 9.61679883,3.0625 L9.2534408,5.52083333 C8.67634276,5.77083333 8.12061872,6.0625 7.62901668,6.4375 L5.25650251,5.5 C5.04276249,5.41666667 4.78627447,5.5 4.65803046,5.70833333 L2.73437032,8.9375 C2.62750031,9.14583333 2.64887431,9.39583333 2.84124033,9.54166667 L4.87177048,11.0833333 C4.82902247,11.375 4.80764847,11.6875 4.80764847,12 C4.80764847,12.3125 4.82902247,12.625 4.87177048,12.9166667 L2.84124033,14.4583333 C2.67024832,14.6041667 2.60612631,14.8541667 2.73437032,15.0625 L4.65803046,18.2916667 C4.76490047,18.5 5.02138849,18.5625 5.25650251,18.5 L7.62901668,17.5625 C8.12061872,17.9375 8.65496875,18.25 9.2534408,18.4791667 L9.61679883,20.9375 C9.65954683,21.1666667 9.85191284,21.3333333 10.0870269,21.3333333 L13.9129731,21.3333333 C14.1480872,21.3333333 14.3618272,21.1666667 14.3832012,20.9375 L14.7465592,18.4791667 C15.3236572,18.2291667 15.8793813,17.9375 16.3496093,17.5625 L18.7434975,18.5 C18.9572375,18.5833333 19.2137255,18.5 19.3419695,18.2916667 L21.2656297,15.0625 C21.3938737,14.875 21.3297517,14.625 21.1587597,14.4791667 Z M11.989313,14.8125 C10.4076369,14.8125 9.10382279,13.5625 9.10382279,12 C9.10382279,10.4375 10.3862629,9.1875 11.989313,9.1875 C13.5923631,9.1875 14.8748032,10.4375 14.8748032,12 C14.8748032,13.5625 13.5709891,14.8125 11.989313,14.8125 Z"></path>
        </g>
    </g>
</svg>