<svg viewBox="0 0 24 24" fill="none" xmlns="http://www.w3.org/2000/svg">
<path d="M12 10C10.9 10 10 10.9 10 12C10 13.1 10.9 14 12 14C13.1 14 14 13.1 14 12C14 10.9 13.1 10 12 10ZM18 12C18 8.7 15.3 6 12 6C8.7 6 6 8.7 6 12C6 14.2 7.2 16.1 9 17.2L10 15.5C8.8 14.8 8 13.5 8 12.1C8 9.9 9.8 8.1 12 8.1C14.2 8.1 16 9.9 16 12.1C16 13.6 15.2 14.9 14 15.5L15 17.2C16.8 16.2 18 14.2 18 12ZM12 2C6.5 2 2 6.5 2 12C2 15.7 4 18.9 7 20.6L8 18.9C5.6 17.5 4 14.9 4 12C4 7.6 7.6 4 12 4C16.4 4 20 7.6 20 12C20 15 18.4 17.5 16 18.9L17 20.6C20 18.9 22 15.7 22 12C22 6.5 17.5 2 12 2V2Z" fill="#0E0E17"/>
</svg>
