<?xml version="1.0" encoding="UTF-8"?>
<svg viewBox="0 0 18 20" version="1.1" xmlns="http://www.w3.org/2000/svg" xmlns:xlink="http://www.w3.org/1999/xlink">
    <g stroke="none" stroke-width="1" fill="none" fill-rule="evenodd">
        <g transform="translate(-518.000000, -685.000000)" fill="#121212">
            <g transform="translate(515.000000, 683.000000)">
                <path d="M5,8 L5,20 L19,20 L19,8 L5,8 Z M18,16 L18,18 L10,18 L10,16 L18,16 Z M18,13 L18,15 L6,15 L6,13 L18,13 Z M14,10 L14,12 L6,12 L6,10 L14,10 Z M3,22 L3,4 L6,4 L6,2 L8,2 L8,4 L16,4 L16,2 L18,2 L18,4 L21,4 L21,22 L3,22 Z"></path>
            </g>
        </g>
    </g>
</svg>