<?xml version="1.0" encoding="UTF-8"?>
<svg viewBox="0 0 24 24" version="1.1" xmlns="http://www.w3.org/2000/svg" xmlns:xlink="http://www.w3.org/1999/xlink">
    <g id="🔶-Symbols" stroke="none" stroke-width="1" fill="none" fill-rule="evenodd">
        <g id="CMS/Catalog_Overview">
            <path d="M6.816,13.0373333 L17.1853333,13.0373333 L17.1853333,10.9626667 L6.816,10.9626667 L6.816,13.0373333 Z M6.816,17.1853333 L17.1853333,17.1853333 L17.1853333,15.1106667 L6.816,15.1106667 L6.816,17.1853333 Z M6.81466667,8.888 L14.0733333,8.888 L14.0733333,6.81466667 L6.81466667,6.81466667 L6.81466667,8.888 Z M20.7213333,8.27733333 L15.712,3.268 C15.3293333,2.88533333 14.8,2.66666667 14.2506667,2.66666667 L4.74133333,2.66666667 C3.6,2.66666667 2.66666667,3.6 2.66666667,4.74133333 L2.66666667,19.2586667 C2.66666667,20.4 3.6,21.3333333 4.74133333,21.3333333 L19.2586667,21.3333333 C20.4,21.3333333 21.3333333,20.4 21.3333333,19.2586667 L21.3333333,9.74933333 C21.3333333,9.2 21.116,8.67066667 20.7213333,8.27733333 L20.7213333,8.27733333 Z"></path>
        </g>
    </g>
</svg>