<?xml version="1.0" encoding="UTF-8"?>
<svg viewBox="0 0 24 24" version="1.1" xmlns="http://www.w3.org/2000/svg" xmlns:xlink="http://www.w3.org/1999/xlink">
    <g id="🔶-Symbols" stroke="none" stroke-width="1" fill="none" fill-rule="evenodd">
        <g id="CMS/Catalog">
            <path d="M6.16666667,8.5 L17.8333333,8.5 L17.8333333,6.16666667 L6.16666667,6.16666667 L6.16666667,8.5 Z M6.16666667,17.8333333 L13.1666667,17.8333333 L13.1666667,15.5 L6.16666667,15.5 L6.16666667,17.8333333 Z M6.16666667,13.1666667 L17.8333333,13.1666667 L17.8333333,10.8333333 L6.16666667,10.8333333 L6.16666667,13.1666667 Z M19,2.66666667 L5,2.66666667 C3.71733333,2.66666667 2.66666667,3.71733333 2.66666667,5 L2.66666667,19 C2.66666667,20.284 3.71733333,21.3333333 5,21.3333333 L19,21.3333333 C20.284,21.3333333 21.3333333,20.284 21.3333333,19 L21.3333333,5 C21.3333333,3.71733333 20.284,2.66666667 19,2.66666667 L19,2.66666667 Z"></path>
        </g>
    </g>
</svg>