<?xml version="1.0" encoding="UTF-8"?>
<svg viewBox="0 0 20 17" version="1.1" xmlns="http://www.w3.org/2000/svg" xmlns:xlink="http://www.w3.org/1999/xlink">
    <g stroke="none" stroke-width="1" fill="none" fill-rule="evenodd">
        <g transform="translate(-725.000000, -687.000000)" fill="#121212">
            <g transform="translate(723.000000, 683.000000)">
                <path d="M20.333,4 L3.667,4 C2.75,4 2,4.75 2,5.666025 L2,19.000025 C2,19.91605 2.749025,20.66605 3.667,20.66605 L20.333,20.66605 C21.249025,20.66605 22,19.91605 22,19.000025 L22,5.666025 C22,4.75 21.25,4 20.333,4 Z M7.833,18.166 L4.5,18.166 L4.5,16.499975 L7.833,16.499975 L7.833,18.166 Z M7.833,14.833 L4.5,14.833 L4.5,13.166 L7.833,13.166 L7.833,14.833 Z M7.833,11.5 L4.5,11.5 L4.5,9.833 L7.833,9.833 L7.833,11.5 Z M7.833,8.166 L4.5,8.166 L4.5,6.499975 L7.833,6.499975 L7.833,8.166 Z M13.667,11.5 L10.333,11.5 L10.333,9.833 L13.667,9.833 L13.667,11.5 Z M13.667,8.166 L10.333,8.166 L10.333,6.499975 L13.667,6.499975 L13.667,8.166 Z M19.5,14.833 L16.167,14.833 L16.167,13.166 L19.5,13.166 L19.5,14.833 Z M19.5,11.5 L16.167,11.5 L16.167,9.833 L19.5,9.833 L19.5,11.5 Z M19.5,8.166 L16.167,8.166 L16.167,6.499975 L19.5,6.499975 L19.5,8.166 Z"></path>
            </g>
        </g>
    </g>
</svg>