<svg viewBox="0 0 16 16" fill="none" xmlns="http://www.w3.org/2000/svg">
<path fill-rule="evenodd" clip-rule="evenodd" d="M1.6 0H14.4C15.28 0 16 0.72 16 1.6V11.2C16 12.08 15.28 12.8 14.4 12.8H3.2L0 16V1.6C0 0.72 0.72 0 1.6 0ZM3.2 11.2H14.4V1.6H1.6V12.8L3.2 11.2ZM7.99996 7.20004C8.44178 7.20004 8.79996 6.84187 8.79996 6.40004C8.79996 5.95821 8.44178 5.60004 7.99996 5.60004C7.55813 5.60004 7.19995 5.95821 7.19995 6.40004C7.19995 6.84187 7.55813 7.20004 7.99996 7.20004ZM4.80008 7.2001C5.24191 7.2001 5.60008 6.84193 5.60008 6.4001C5.60008 5.95827 5.24191 5.6001 4.80008 5.6001C4.35825 5.6001 4.00008 5.95827 4.00008 6.4001C4.00008 6.84193 4.35825 7.2001 4.80008 7.2001ZM12 6.40004C12 6.84187 11.6418 7.20004 11.2 7.20004C10.7582 7.20004 10.4 6.84187 10.4 6.40004C10.4 5.95821 10.7582 5.60004 11.2 5.60004C11.6418 5.60004 12 5.95821 12 6.40004Z" fill="#232337"/>
</svg>
