<svg viewBox="0 0 25 24" fill="none" xmlns="http://www.w3.org/2000/svg">
<path fill-rule="evenodd" clip-rule="evenodd" d="M11.9871 9.0434C13.4193 9.0434 14.5799 7.91469 14.5799 6.5217C14.5799 5.12871 13.4193 4 11.9871 4C10.5549 4 9.39438 5.12871 9.39438 6.5217C9.39438 7.91469 10.5549 9.0434 11.9871 9.0434ZM15.617 12.0694L13.9804 11.2736C13.6931 11.1334 13.3748 11.0608 13.0533 11.0608H9.39438L6.28725 10.0521H5.246V8.03472H3.17285V19.1302H5.246V17.1068L10.7447 19.8373C11.2103 20.032 11.7341 20.0521 12.2163 19.8968L19.0891 17.3327C19.5278 17.1895 19.9043 16.9101 20.1605 16.5359L21.8395 14.0868H16.654L15.617 12.0694ZM21.8395 9.54774C21.8395 10.9407 20.679 12.0694 19.2468 12.0694C17.8146 12.0694 16.654 10.9407 16.654 9.54774C16.654 8.15475 17.8146 7.02604 19.2468 7.02604C20.679 7.02604 21.8395 8.15475 21.8395 9.54774Z" fill="black"/>
</svg>
