<?xml version="1.0" encoding="UTF-8"?>
<svg viewBox="0 0 20 20" version="1.1" xmlns="http://www.w3.org/2000/svg" xmlns:xlink="http://www.w3.org/1999/xlink">
    <g stroke="none" stroke-width="1" fill="none" fill-rule="evenodd">
        <g transform="translate(-725.000000, -893.000000)" fill="#121212">
            <g transform="translate(723.000000, 891.000000)">
                <path d="M12,2 C17.5155789,2 22,6.48442105 22,12 C22,17.5155789 17.5155789,22 12,22 C6.48442105,22 2,17.5155789 2,12 C2,6.48442105 6.48442105,2 12,2 Z M12.0597499,5.91164601 C11.7506086,5.91164601 11.5,6.16139859 11.5,6.469484 L11.5,6.469484 L11.5,12.5924855 L11.5076793,12.6846842 C11.5380664,12.8655918 11.6566433,13.0224926 11.8277516,13.1001538 L11.8277516,13.1001538 L15.7081151,14.86134 L15.8034197,14.8947204 C16.0607015,14.9595923 16.335629,14.834102 16.4495216,14.5848776 L16.4495216,14.5848776 L16.4830163,14.4898986 C16.5481106,14.2334955 16.4221902,13.959507 16.1721116,13.8460035 L16.1721116,13.8460035 L12.6194998,12.2323453 L12.6194998,6.469484 L12.6104815,6.36921192 C12.5630864,6.10898138 12.3345422,5.91164601 12.0597499,5.91164601 Z"></path>
            </g>
        </g>
    </g>
</svg>