<svg viewBox="0 0 24 24" fill="none" xmlns="http://www.w3.org/2000/svg">
<path d="M11.9903 2.40002C6.6911 2.40002 2.3999 6.70082 2.3999 12C2.3999 17.2992 6.6911 21.6 11.9903 21.6C17.2991 21.6 21.5999 17.2992 21.5999 12C21.5999 6.70082 17.2991 2.40002 11.9903 2.40002ZM11.9999 19.68C7.7567 19.68 4.3199 16.2432 4.3199 12C4.3199 7.75682 7.7567 4.32002 11.9999 4.32002C16.2431 4.32002 19.6799 7.75682 19.6799 12C19.6799 16.2432 16.2431 19.68 11.9999 19.68ZM12.4799 7.20002H11.0399V12.96L16.0799 15.984L16.7999 14.8032L12.4799 12.24V7.20002Z" fill="black"/>
</svg>
