<?xml version="1.0" encoding="UTF-8"?>
<svg viewBox="0 0 24 24" version="1.1" xmlns="http://www.w3.org/2000/svg" xmlns:xlink="http://www.w3.org/1999/xlink">
    <g id="🔶-Symbols" stroke="none" stroke-width="1" fill="none" fill-rule="evenodd">
        <g id="CMS/Process">
            <path d="M18.5926917,13.4285714 C18.6908377,13.4285714 18.7889836,13.505102 18.7987982,13.619898 L18.7987982,13.619898 L18.9656463,14.7487245 C19.2404549,14.8539541 19.4858197,14.997449 19.7115553,15.1696429 L19.7115553,15.1696429 L20.8009751,14.7391582 C20.9089356,14.7104592 21.0267107,14.7391582 21.0757837,14.8348214 L21.0757837,14.8348214 L21.959097,16.317602 C22.0179846,16.4132653 21.9885408,16.5280612 21.910024,16.5950255 L21.910024,16.5950255 L20.9776377,17.3029337 C21.0070815,17.4368622 21.0168961,17.5803571 21.0168961,17.723852 C21.0168961,17.8673469 20.9972669,18.0108418 20.9776377,18.1447704 L20.9776377,18.1447704 L21.9198386,18.8526786 C21.9983554,18.9196429 22.0277991,19.0344388 21.9689116,19.1205357 L21.9689116,19.1205357 L21.0855983,20.6033163 C21.0267107,20.6989796 20.9089356,20.7372449 20.8107897,20.6989796 L20.8107897,20.6989796 L19.7115553,20.2684949 C19.4956343,20.4406888 19.2404549,20.5746173 18.9754609,20.6894133 L18.9754609,20.6894133 L18.8086128,21.8182398 C18.7987982,21.9234694 18.7006523,22 18.5926917,22 L18.5926917,22 L16.8358797,22 C16.7279192,22 16.6395878,21.9234694 16.6199586,21.8182398 L16.6199586,21.8182398 L16.4531106,20.6894133 C16.178302,20.5841837 15.9329372,20.4406888 15.7072015,20.2684949 L15.7072015,20.2684949 L14.6177818,20.6989796 C14.5098212,20.7276786 14.3920461,20.6989796 14.3429732,20.6033163 L14.3429732,20.6033163 L13.4596598,19.1205357 C13.4007723,19.0248724 13.4302161,18.9100765 13.5087328,18.8431122 L13.5087328,18.8431122 L14.4411191,18.1352041 C14.4214899,18.0012755 14.4116753,17.8577806 14.4116753,17.7142857 C14.4116753,17.5707908 14.4214899,17.4272959 14.4411191,17.2933673 L14.4411191,17.2933673 L13.5087328,16.5854592 C13.4204015,16.5184949 13.4105869,16.403699 13.4596598,16.3080357 L13.4596598,16.3080357 L14.3429732,14.8252551 C14.4018607,14.7295918 14.5196358,14.6913265 14.6177818,14.7295918 L14.6177818,14.7295918 L15.7072015,15.1600765 C15.9329372,14.9878827 16.1881166,14.8539541 16.4531106,14.7391582 L16.4531106,14.7391582 L16.6199586,13.6103316 C16.6297732,13.505102 16.7279192,13.4285714 16.8358797,13.4285714 L16.8358797,13.4285714 Z M17.7093784,16.4228316 C16.973284,16.4228316 16.3844084,16.9968112 16.3844084,17.7142857 C16.3844084,18.4317602 16.9830986,19.0057398 17.7093784,19.0057398 C18.4356583,19.0057398 19.0343484,18.4317602 19.0343484,17.7142857 C19.0343484,16.9968112 18.4454729,16.4228316 17.7093784,16.4228316 Z M10.6116011,2 C10.7899486,2 10.947314,2.13265306 10.9787871,2.29591837 L10.9787871,2.29591837 L11.2515539,4.18367347 C11.7026681,4.36734694 12.1118182,4.60204082 12.4894952,4.8877551 L12.4894952,4.8877551 L14.3149342,4.17346939 C14.4827906,4.1122449 14.6716291,4.17346939 14.7660484,4.32653061 L14.7660484,4.32653061 L16.2347924,6.79591837 C16.3292116,6.94897959 16.2872475,7.14285714 16.1508641,7.25510204 L16.1508641,7.25510204 L14.5981919,8.43877551 C14.629665,8.67346939 14.6506471,8.90816327 14.6506471,9.14285714 C14.6506471,9.37755102 14.629665,9.6122449 14.5981919,9.83673469 L14.5981919,9.83673469 L16.1508641,11.0204082 C16.2872475,11.1326531 16.3292116,11.3265306 16.2347924,11.4795918 L16.2347924,11.4795918 L14.7660484,13.9489796 C14.6716291,14.1020408 14.4827906,14.1632653 14.3149342,14.1020408 L14.3149342,14.1020408 L12.4894952,13.3877551 C12.1118182,13.6734694 11.6921771,13.9081633 11.2515539,14.0918367 L11.2515539,14.0918367 L10.9787871,15.9795918 C10.947314,16.1530612 10.7899486,16.2857143 10.6116011,16.2857143 L10.6116011,16.2857143 L7.67411316,16.2857143 C7.49576568,16.2857143 7.33840025,16.1530612 7.30692716,15.9897959 L7.30692716,15.9897959 L7.03416042,14.1020408 C6.5830462,13.9183673 6.17389609,13.6836735 5.79621907,13.3979592 L5.79621907,13.3979592 L3.97078012,14.1122449 C3.80292366,14.1734694 3.61408515,14.1122449 3.51966589,13.9591837 L3.51966589,13.9591837 L2.05092191,11.4897959 C1.95650266,11.3367347 1.99846677,11.1428571 2.13485014,11.0306122 L2.13485014,11.0306122 L3.68752235,9.84693878 C3.65604926,9.6122449 3.63506721,9.37755102 3.63506721,9.14285714 C3.63506721,8.90816327 3.65604926,8.67346939 3.68752235,8.44897959 L3.68752235,8.44897959 L2.13485014,7.26530612 C1.99846677,7.15306122 1.95650266,6.95918367 2.05092191,6.80612245 L2.05092191,6.80612245 L3.51966589,4.33673469 C3.61408515,4.18367347 3.80292366,4.12244898 3.97078012,4.18367347 L3.97078012,4.18367347 L5.79621907,4.89795918 C6.17389609,4.6122449 6.59353723,4.37755102 7.03416042,4.19387755 L7.03416042,4.19387755 L7.30692716,2.30612245 C7.33840025,2.13265306 7.49576568,2 7.67411316,2 L7.67411316,2 Z M9.14285714,7.10204082 C7.98884401,7.10204082 7.04465145,8.02040816 7.04465145,9.14285714 C7.04465145,10.2653061 7.98884401,11.1836735 9.14285714,11.1836735 C10.2968703,11.1836735 11.2410628,10.2653061 11.2410628,9.14285714 C11.2410628,8.02040816 10.2968703,7.10204082 9.14285714,7.10204082 Z"></path>
        </g>
    </g>
</svg>