<svg viewBox="0 0 13 16" fill="none" xmlns="http://www.w3.org/2000/svg">
<path d="M0 0.90519C0 0.405268 0.405267 0 0.90519 0H9.95825C10.4582 0 10.8634 0.405268 10.8634 0.90519C10.8634 1.40511 10.4582 1.81038 9.95826 1.81038H0.905192C0.405269 1.81038 0 1.40511 0 0.90519Z" fill="#0E0E17"/>
<path d="M12.6323 6.30201L6.97171 7.39374C6.79481 7.42585 6.68867 7.55429 6.68867 7.71483V12.8203C6.44102 12.7882 6.19337 12.7882 5.94572 12.8203C5.23814 12.9488 4.7074 13.4946 4.56588 14.1368C4.38899 15.1643 5.27346 16.0313 6.37026 15.9991C7.32549 15.967 8.06845 15.1964 8.06845 14.3294V9.76985L11.6063 9.09555V11.247C11.3587 11.2148 11.111 11.2148 10.8634 11.247C10.1558 11.3754 9.62507 11.9213 9.48355 12.5634C9.30666 13.5909 10.1911 14.4579 11.2879 14.4258C12.2432 14.3936 12.9861 13.623 12.9861 12.7561V6.65521C13.0569 6.39834 12.8446 6.2699 12.6323 6.30201Z" fill="#0E0E17"/>
<path d="M0.90519 3.3385C0.405267 3.3385 0 3.74377 0 4.24369C0 4.74361 0.405269 5.14888 0.905192 5.14888H9.95826C10.4582 5.14888 10.8634 4.74361 10.8634 4.24369C10.8634 3.74377 10.4582 3.3385 9.95825 3.3385H0.90519Z" fill="#0E0E17"/>
<path d="M0 7.58219C0 7.08226 0.405267 6.677 0.90519 6.677H4.38539C4.88531 6.677 5.29058 7.08226 5.29058 7.58219C5.29058 8.08211 4.88531 8.48738 4.38539 8.48738H0.905191C0.405268 8.48738 0 8.08211 0 7.58219Z" fill="#0E0E17"/>
<path d="M0.90519 10.0155C0.405267 10.0155 0 10.4208 0 10.9207C0 11.4206 0.405268 11.8259 0.90519 11.8259H2.54351C3.04343 11.8259 3.4487 11.4206 3.4487 10.9207C3.4487 10.4208 3.04343 10.0155 2.54351 10.0155H0.90519Z" fill="#0E0E17"/>
</svg>
