<?xml version="1.0" encoding="UTF-8"?>
<svg viewBox="0 0 24 24" version="1.1" xmlns="http://www.w3.org/2000/svg" xmlns:xlink="http://www.w3.org/1999/xlink">
    <g id="🔶-Symbols" stroke="none" stroke-width="1" fill="none" fill-rule="evenodd">
        <g id="CMS/Composition">
            <path d="M16.7188,8.3112 L13.8148,8.3112 C13.8148,8.3112 13.8214667,15.7685333 13.8214667,15.8512 C13.8214667,15.9352 13.7788,16.2965333 13.7788,16.2965333 C13.5974667,17.9298667 12.2254667,19.2005333 10.5481333,19.2005333 C8.74146667,19.2005333 7.28146667,17.7405333 7.28146667,15.9338667 C7.28146667,14.1258667 8.74146667,12.6672 10.5481333,12.6672 C10.9334667,12.6672 11.2961333,12.7472 11.6361333,12.8698667 L11.6361333,6.13386667 L16.7188,6.13386667 L16.7188,8.3112 Z M18.0001333,2.6672 L5.9908,2.6672 C4.88946667,2.6672 4.00013333,3.56586667 4.00013333,4.6672 L4.00946667,20.6672 C4.00946667,21.7672 4.90013333,22.6672 6.00013333,22.6672 L14.0001333,22.6672 L20.0001333,16.6672 L20.0001333,4.6672 C20.0001333,3.56586667 19.1001333,2.6672 18.0001333,2.6672 L18.0001333,2.6672 Z"></path>
        </g>
    </g>
</svg>