<svg viewBox="0 0 32 32" fill="none" xmlns="http://www.w3.org/2000/svg">
<circle opacity="0.01" cx="16" cy="16" r="16" fill="black"/>
<path fill-rule="evenodd" clip-rule="evenodd" d="M18.6496 16.9176C17.6818 16.8669 16.8888 16.0738 16.8381 15.1061C16.7791 14 17.6592 13.0845 18.7532 13.0845C18.9112 13.0845 19.0616 13.1086 19.2083 13.1449V11.2624C19.2083 11.1528 19.1055 11.0726 18.9989 11.0998L16.0367 11.8665C15.918 11.8967 15.8341 12.0048 15.8341 12.1273V16.033C15.8341 17.1263 14.9193 18.0055 13.8139 17.9481C12.8454 17.8974 12.0516 17.1043 12.0009 16.1366C11.9435 15.0298 12.8235 14.1149 13.9167 14.1149C14.074 14.1149 14.2252 14.1391 14.3726 14.1754V11.5104C14.3726 11.1127 14.641 10.7649 15.0259 10.6651L19.5795 9.4872C20.1322 9.34355 20.6712 9.76089 20.6712 10.3317V15.0025C20.6712 16.0958 19.7557 16.9758 18.6496 16.9176ZM17.5904 22.4578H15.2973C14.8482 22.4578 14.4845 22.0941 14.4845 21.645C14.4845 21.1952 14.8482 20.8315 15.2973 20.8315H17.5904C18.0394 20.8315 18.4039 21.1952 18.4039 21.645C18.4039 22.0934 18.0394 22.4578 17.5904 22.4578ZM20.7 20.8308H24.67V5.81275C24.67 5.36366 24.3056 5 23.8573 5H18.8061C18.4712 5 18.1665 5.21472 18.0448 5.52545C18.0266 5.57232 17.5912 6.65044 16.293 6.78955C16.073 6.77065 14.9813 6.62096 14.5708 5.52772C14.4506 5.21094 14.1481 5 13.8087 5H8.81275C8.36441 5 8 5.36366 8 5.81275V20.8316H12.19C12.6391 20.8316 13.0027 21.1952 13.0027 21.6451C13.0027 22.0941 12.6391 22.4578 12.19 22.4578H8V26.6168C8 27.0666 8.36441 27.4295 8.81275 27.4295L13.8079 27.4311C14.189 27.4311 14.5171 27.168 14.6018 26.7967C14.6033 26.7861 14.8664 25.6967 16.321 25.584C16.4382 25.584 17.4762 25.6218 17.9964 26.9192C18.1204 27.2277 18.419 27.4295 18.7517 27.4295H23.8557C24.3048 27.4295 24.6692 27.0659 24.6692 26.6168V22.4578L20.7 22.4563C20.2502 22.4563 19.8865 22.0934 19.8865 21.6435C19.8865 21.1945 20.2502 20.8308 20.7 20.8308Z" fill="black"/>
</svg>
