<?xml version="1.0" encoding="UTF-8"?>
<svg viewBox="0 0 18 20" version="1.1" xmlns="http://www.w3.org/2000/svg" xmlns:xlink="http://www.w3.org/1999/xlink">
    <g id="Sheet" stroke="none" stroke-width="1" fill="none" fill-rule="evenodd">
        <g transform="translate(-310.000000, -997.000000)" fill="#121212">
            <g transform="translate(307.000000, 995.000000)">
                <path d="M20,10.0658441 C20.5522847,10.0658441 21,10.5135594 21,11.0658441 L21,21 C21,21.5522847 20.5522847,22 20,22 L14,22 C13.4477153,22 13,21.5522847 13,21 L13,11.0658441 C13,10.5135594 13.4477153,10.0658441 14,10.0658441 L20,10.0658441 Z M10,14.9783332 C10.5522847,14.9783332 11,15.4260485 11,15.9783332 L11,20.9399241 C11,21.4922089 10.5522847,21.9399241 10,21.9399241 L4,21.9399241 C3.44771525,21.9399241 3,21.4922089 3,20.9399241 L3,15.9783332 C3,15.4260485 3.44771525,14.9783332 4,14.9783332 L10,14.9783332 Z M10,2 C10.5522847,2 11,2.44771525 11,3 L11,11.9396429 C11,12.4919276 10.5522847,12.9396429 10,12.9396429 L4,12.9396429 C3.44771525,12.9396429 3,12.4919276 3,11.9396429 L3,3 C3,2.44771525 3.44771525,2 4,2 L10,2 Z M20,2.06007587 C20.5522847,2.06007587 21,2.50779112 21,3.06007587 L21,7.0271538 C21,7.57943855 20.5522847,8.0271538 20,8.0271538 L14,8.0271538 C13.4477153,8.0271538 13,7.57943855 13,7.0271538 L13,3.06007587 C13,2.50779112 13.4477153,2.06007587 14,2.06007587 L20,2.06007587 Z"></path>
            </g>
        </g>
    </g>
</svg>