<?xml version="1.0" encoding="UTF-8"?>
<svg viewBox="0 0 12 16" version="1.1" xmlns="http://www.w3.org/2000/svg" xmlns:xlink="http://www.w3.org/1999/xlink">
    <g stroke="none" stroke-width="1" fill="none" fill-rule="evenodd">
        <g transform="translate(-521.000000, -999.000000)" fill="#121212">
            <g transform="translate(515.000000, 995.000000)">
                <path d="M17.1118426,7.8911687 L16.5726295,19.209154 C16.5544918,19.6398631 16.1980328,19.9797751 15.7645377,19.9797751 L15.7645377,19.9797751 L8.21394098,19.9797751 C7.7804459,19.9797751 7.42398689,19.6398631 7.40584918,19.209154 L7.40584918,19.209154 L6.86663607,7.8911687 L17.1118426,7.8911687 Z M14.5512393,10.3757457 L14.0257967,10.3757457 C13.844341,10.3757457 13.6972721,10.5220147 13.6972721,10.702357 L13.6972721,10.702357 L13.6972721,17.1685868 C13.6972721,17.3490465 13.8444197,17.495198 14.0257967,17.495198 L14.0257967,17.495198 L14.5512393,17.495198 C14.7326951,17.495198 14.8797639,17.3489682 14.8797639,17.1685868 L14.8797639,17.1685868 L14.8797639,10.702357 C14.8797639,10.5219756 14.732577,10.3757457 14.5512393,10.3757457 L14.5512393,10.3757457 Z M12.2519607,10.3757457 L11.726518,10.3757457 C11.5451016,10.3757457 11.3980328,10.5220147 11.3980328,10.702357 L11.3980328,10.702357 L11.3980328,17.1685868 C11.3980328,17.3490465 11.545141,17.495198 11.726518,17.495198 L11.726518,17.495198 L12.2519607,17.495198 C12.4334164,17.495198 12.5804459,17.3489682 12.5804459,17.1685868 L12.5804459,17.1685868 L12.5804459,10.702357 C12.5804459,10.5219756 12.4332984,10.3757457 12.2519607,10.3757457 L12.2519607,10.3757457 Z M9.95268197,10.3757457 L9.4272,10.3757457 C9.24578361,10.3757457 9.09871475,10.5220147 9.09871475,10.702357 L9.09871475,10.702357 L9.09871475,17.1685868 C9.09871475,17.3490465 9.24582295,17.495198 9.4272,17.495198 L9.4272,17.495198 L9.95268197,17.495198 C10.1340984,17.495198 10.2811672,17.3489682 10.2811672,17.1685868 L10.2811672,17.1685868 L10.2811672,10.702357 C10.2811672,10.5219756 10.134059,10.3757457 9.95268197,10.3757457 L9.95268197,10.3757457 Z M13.8181377,4 C13.9116984,4 13.9875148,4.07542298 13.9875148,4.16841076 L13.9875148,4.16841076 L13.9875148,4.82319804 L17.470859,4.82319804 C17.7511869,4.82319804 17.9784,5.04915403 17.9784,5.32788264 L17.9784,5.32788264 L17.9784,6.91325183 L6,6.91325183 L6,5.32784352 C6,5.04911491 6.22721311,4.82315892 6.50754098,4.82315892 L6.50754098,4.82315892 L9.99092459,4.82315892 L9.99092459,4.16841076 C9.99092459,4.07542298 10.066741,4 10.1602623,4 L10.1602623,4 Z"></path>
            </g>
        </g>
    </g>
</svg>