<?xml version="1.0" encoding="UTF-8"?>
<svg viewBox="0 0 25 24" version="1.1" xmlns="http://www.w3.org/2000/svg" xmlns:xlink="http://www.w3.org/1999/xlink">
    <g id="🔶-Symbols" stroke="none" stroke-width="1" fill="none" fill-rule="evenodd">
        <g id="CMS/Delivery" transform="translate(1.000000, 0.000000)">
            <path d="M5.07315221,8.07693993 L5.07315221,10.1433827 L6.11439524,10.1433827 L9.22153083,11.1766041 L12.8804008,11.1766041 C13.2019001,11.1766041 13.5202882,11.250996 13.8075634,11.3946138 L13.8075634,11.3946138 L15.4440987,12.2098255 L16.4811934,14.2762683 L21.6666667,14.2762683 L19.9876104,16.7849298 C19.731448,17.1682549 19.3549827,17.4544573 18.9162916,17.6011747 L18.9162916,17.6011747 L12.0434654,20.2276235 C11.5612164,20.3867396 11.0374836,20.3660751 10.5718281,20.1666634 L10.5718281,20.1666634 L5.07315221,17.3697331 L5.07315221,19.4423752 L3,19.4423752 L3,8.07693993 L5.07315221,8.07693993 Z M17.5178732,3 L18.4657777,3.94333113 L18.556005,4.03322139 L18.9853621,4.46097504 L21.5521714,7.01716476 L20.0846825,8.47917302 L18.556005,6.95517147 L18.556005,11.1769141 L16.4807786,11.1769141 L16.4807786,6.95517147 L14.952101,8.47917302 L13.4846121,7.01716476 L16.0514214,4.46097504 L16.4807786,4.03322139 L16.5710058,3.94333113 L17.5178732,3 Z"></path>
        </g>
    </g>
</svg>