<?xml version="1.0" encoding="UTF-8"?>
<svg viewBox="0 0 24 24" version="1.1" xmlns="http://www.w3.org/2000/svg" xmlns:xlink="http://www.w3.org/1999/xlink">
    <g id="🔶-Symbols" stroke="none" stroke-width="1" fill="none" fill-rule="evenodd">
        <g id="CMS/Details">
            <path d="M12,2.66666667 C17.152,2.66666667 21.3333333,6.848 21.3333333,12 C21.3333333,17.152 17.152,21.3333333 12,21.3333333 C6.848,21.3333333 2.66666667,17.152 2.66666667,12 C2.66666667,6.848 6.848,2.66666667 12,2.66666667 Z M9.2,7.33333333 L7.33333333,7.33333333 L7.33333333,16.6666667 L9.2,16.6666667 L9.2,7.33333333 Z M16.6666667,7.33333333 L14.8,7.33333333 L14.8,16.6666667 L16.6666667,16.6666667 L16.6666667,7.33333333 Z M12.9333333,7.33333333 L11.0666667,7.33333333 L11.0666667,16.6666667 L12.9333333,16.6666667 L12.9333333,7.33333333 Z" transform="translate(12.000000, 12.000000) rotate(-270.000000) translate(-12.000000, -12.000000)"></path>
        </g>
    </g>
</svg>