<svg viewBox="0 0 32 32" fill="none" xmlns="http://www.w3.org/2000/svg">
<circle opacity="0.01" cx="16" cy="16" r="16" fill="black"/>
<path fill-rule="evenodd" clip-rule="evenodd" d="M6 8.99697L7.33737 10.3343C9.5617 8.10941 12.5192 6.88418 15.6643 6.88418C18.8106 6.88418 21.7675 8.10941 23.9924 10.3343L25.3298 8.99697C20.0008 3.66738 11.329 3.66798 6 8.99697ZM10.1021 13.099L8.7647 11.7616C12.5694 7.95631 18.7606 7.95571 22.5653 11.7616L21.228 13.099C18.1607 10.0317 13.17 10.0317 10.1021 13.099ZM18.649 15.6773C17.8518 14.8802 16.7918 14.4412 15.6643 14.4412C14.5373 14.4412 13.4773 14.8802 12.6802 15.6773L11.3428 14.3399C12.4975 13.1858 14.0321 12.5497 15.6643 12.5497C17.2971 12.5497 18.8316 13.1858 19.9857 14.3399L18.649 15.6773ZM13.0131 17.726H18.8854C19.5088 17.726 20.0135 18.2288 20.0117 18.8517C20.0063 20.7203 19.9972 25.2262 19.9972 25.2419C19.9972 26.4961 18.942 27.5036 17.6704 27.4258C16.5688 27.3583 15.6927 26.4816 15.6251 25.3794C15.5474 24.1083 16.5549 23.0537 17.8091 23.0537C17.8959 23.0537 17.9827 23.0598 18.0677 23.0694V19.644C18.0677 19.5698 18.0068 19.5089 17.9327 19.5089H14.0152C13.9296 19.5089 13.8609 19.5783 13.8609 19.6639C13.8609 20.3522 13.8618 23.9689 13.862 24.9794L13.8621 25.2419C13.8621 26.4954 12.8075 27.5036 11.5364 27.4258C10.4342 27.3583 9.55812 26.4816 9.49059 25.3794C9.41221 24.1089 10.4204 23.0537 11.6745 23.0537C11.762 23.0537 11.8476 23.0598 11.9326 23.0694V18.8059C11.9326 18.2095 12.4162 17.726 13.0131 17.726Z" fill="black"/>
</svg>
