<svg viewBox="0 0 24 24" fill="none" xmlns="http://www.w3.org/2000/svg">
<path fill-rule="evenodd" clip-rule="evenodd" d="M16.3657 12.0484C16.5214 10.8934 17.4933 10.0025 18.6713 10.0025L18.6714 10.0026C19.9577 10.0026 21.0009 11.0634 21 12.3715C21 13.6796 19.9569 14.7403 18.6705 14.7403C17.4917 14.7403 16.5205 13.8495 16.365 12.6945H14.2059C14.0471 14.2078 12.7889 15.3864 11.2585 15.3864C10.7588 15.3864 10.2873 15.2593 9.87452 15.0373L8.66511 16.8635C9.52213 17.6384 9.70826 18.9539 9.05225 19.949C8.33582 21.0367 6.88897 21.3269 5.82017 20.5984C4.75138 19.8699 4.46517 18.3978 5.18238 17.3109C5.8393 16.3158 7.10818 15.9911 8.13809 16.5034L9.34917 14.6754C8.70475 14.122 8.29444 13.2959 8.29444 12.3714C8.29444 11.2055 8.94547 10.196 9.89928 9.69635L9.11174 7.6682C7.99735 7.94748 6.82351 7.35528 6.39003 6.23983C5.91685 5.0227 6.50503 3.6465 7.7012 3.16616C8.89749 2.68583 10.2508 3.28226 10.7232 4.49947C11.155 5.61229 10.6984 6.85728 9.70157 7.42929L10.4908 9.46248C10.7356 9.39603 10.9929 9.35649 11.2593 9.35649C12.7897 9.35649 14.0479 10.5359 14.2067 12.0484H16.3657ZM16.4491 6.85088C16.4491 7.8023 15.6905 8.57367 14.7549 8.57367C13.8193 8.57367 13.0607 7.8023 13.0607 6.85088C13.0607 5.89863 13.8193 5.12809 14.7549 5.12809C15.6905 5.12809 16.4491 5.89863 16.4491 6.85088ZM15.8138 6.85088C15.8138 6.257 15.339 5.77414 14.7549 5.77414C14.1709 5.77414 13.6961 6.257 13.6961 6.85088C13.6961 7.44477 14.1709 7.92763 14.7549 7.92763C15.339 7.92763 15.8138 7.44477 15.8138 6.85088ZM4.69418 10.2179C5.62979 10.2179 6.38836 10.9892 6.38836 11.9406C6.38836 12.8912 5.62979 13.6634 4.69418 13.6634C3.75857 13.6634 3 12.8921 3 11.9406C3 10.9892 3.75857 10.2179 4.69418 10.2179ZM3.63532 11.9406C3.63532 12.5345 4.11015 13.0174 4.69418 13.0174C5.27821 13.0174 5.75304 12.5337 5.75304 11.9406C5.75304 11.3468 5.27821 10.8639 4.69418 10.8639C4.11015 10.8639 3.63532 11.3468 3.63532 11.9406ZM14.544 16.3362C13.6084 16.3362 12.8498 17.1075 12.8498 18.0589C12.8498 19.0104 13.6084 19.7817 14.544 19.7817C15.4796 19.7817 16.2382 19.0104 16.2382 18.0589C16.2382 17.1075 15.4796 16.3362 14.544 16.3362ZM14.544 19.1357C13.96 19.1357 13.4851 18.6528 13.4851 18.0589C13.4851 17.4651 13.96 16.9822 14.544 16.9822C15.128 16.9822 15.6029 17.4651 15.6029 18.0589C15.6029 18.652 15.128 19.1357 14.544 19.1357Z" fill="black"/>
</svg>
