<?xml version="1.0" encoding="UTF-8"?>
<svg viewBox="0 0 24 24" version="1.1" xmlns="http://www.w3.org/2000/svg" xmlns:xlink="http://www.w3.org/1999/xlink">
    <path fill-rule="evenodd" clip-rule="evenodd" d="M13.6381 10.0403C13.7678 9.07784 14.5778 8.33547 15.5594 8.33547L15.5595 8.33556C16.6314 8.33556 17.5007 9.21954 17.5 10.3096C17.5 11.3997 16.6307 12.2836 15.5588 12.2836C14.5764 12.2836 13.7671 11.5413 13.6375 10.5788H11.8383C11.7059 11.8399 10.6574 12.822 9.38208 12.822C8.9657 12.822 8.57275 12.7162 8.22876 12.5311L7.22092 14.053C7.9351 14.6987 8.09021 15.795 7.54354 16.6243C6.94652 17.5307 5.74081 17.7725 4.85014 17.1654C3.95948 16.5583 3.72097 15.3315 4.31865 14.4258C4.86608 13.5965 5.92348 13.3259 6.78174 13.7529L7.79098 12.2296C7.25396 11.7683 6.91203 11.08 6.91203 10.3095C6.91203 9.33793 7.45456 8.49672 8.24939 8.08032L7.59311 6.39018C6.66445 6.62292 5.68626 6.12941 5.32503 5.19987C4.9307 4.18559 5.42085 3.03875 6.41767 2.63847C7.41457 2.23819 8.54236 2.73521 8.93599 3.74957C9.29585 4.67691 8.91531 5.71442 8.08463 6.19109L8.74229 7.88543C8.94634 7.83005 9.16074 7.7971 9.38271 7.7971C10.658 7.7971 11.7066 8.77992 11.8389 10.0403H13.6381ZM13.7076 5.70908C13.7076 6.50193 13.0754 7.14475 12.2958 7.14475C11.5161 7.14475 10.884 6.50193 10.884 5.70908C10.884 4.91554 11.5161 4.27342 12.2958 4.27342C13.0754 4.27342 13.7076 4.91554 13.7076 5.70908ZM13.1782 5.70908C13.1782 5.21418 12.7825 4.81179 12.2958 4.81179C11.8091 4.81179 11.4134 5.21418 11.4134 5.70908C11.4134 6.20399 11.8091 6.60638 12.2958 6.60638C12.7825 6.60638 13.1782 6.20399 13.1782 5.70908ZM3.91182 8.5149C4.69149 8.5149 5.32363 9.15772 5.32363 9.95057C5.32363 10.7427 4.69149 11.3862 3.91182 11.3862C3.13214 11.3862 2.5 10.7434 2.5 9.95057C2.5 9.15772 3.13214 8.5149 3.91182 8.5149ZM3.02943 9.95057C3.02943 10.4455 3.42513 10.8479 3.91182 10.8479C4.39851 10.8479 4.7942 10.4448 4.7942 9.95057C4.7942 9.45566 4.39851 9.05328 3.91182 9.05328C3.42513 9.05328 3.02943 9.45566 3.02943 9.95057ZM12.12 13.6135C11.3403 13.6135 10.7082 14.2563 10.7082 15.0492C10.7082 15.842 11.3403 16.4848 12.12 16.4848C12.8997 16.4848 13.5318 15.842 13.5318 15.0492C13.5318 14.2563 12.8997 13.6135 12.12 13.6135ZM12.12 15.9465C11.6333 15.9465 11.2376 15.5441 11.2376 15.0492C11.2376 14.5543 11.6333 14.1519 12.12 14.1519C12.6067 14.1519 13.0024 14.5543 13.0024 15.0492C13.0024 15.5434 12.6067 15.9465 12.12 15.9465Z" fill="white"/>
</svg>
