<?xml version="1.0" encoding="UTF-8"?>
<svg viewBox="0 0 16 16" version="1.1" xmlns="http://www.w3.org/2000/svg" xmlns:xlink="http://www.w3.org/1999/xlink">
    <g stroke="none" stroke-width="1" fill="none" fill-rule="evenodd">
        <path d="M8,10.8 C8.77319865,10.8 9.4,11.4268014 9.4,12.2 C9.4,12.9731986 8.77319865,13.6 8,13.6 C7.22680135,13.6 6.6,12.9731986 6.6,12.2 C6.6,11.4268014 7.22680135,10.8 8,10.8 Z M8,6.6 C8.77319865,6.6 9.4,7.22680135 9.4,8 C9.4,8.77319865 8.77319865,9.4 8,9.4 C7.22680135,9.4 6.6,8.77319865 6.6,8 C6.6,7.22680135 7.22680135,6.6 8,6.6 Z M8,2.4 C8.77319865,2.4 9.4,3.02680135 9.4,3.8 C9.4,4.57319865 8.77319865,5.2 8,5.2 C7.22680135,5.2 6.6,4.57319865 6.6,3.8 C6.6,3.02680135 7.22680135,2.4 8,2.4 Z"></path>
    </g>
</svg>
