<svg viewBox="0 0 24 24" fill="none" xmlns="http://www.w3.org/2000/svg">
<path fill-rule="evenodd" clip-rule="evenodd" d="M14.1632 7.19865L20.0683 7.19987C20.2164 7.19987 20.3596 7.24381 20.478 7.32388L20.5618 7.39058L22.7956 9.47641C22.9003 9.57406 22.9683 9.69966 22.9913 9.8345L23 9.93706V18.9673C23 19.4993 22.5688 19.9373 22.0149 19.9933L21.8945 19.9994L13.7327 20C14.03 19.8722 14.2452 19.6174 14.2894 19.3149L14.2978 19.1994V7.6443C14.2978 7.4819 14.2488 7.32967 14.1632 7.19865ZM10.1841 4C10.4061 4 10.619 4.08582 10.776 4.23839L13.4548 6.84568C13.6118 6.99824 13.7 7.20542 13.7 7.42148V18.7093C13.7 19.4218 13.1063 19.9994 12.3742 19.9994H2.32563C1.59367 19.9994 1 19.4218 1 18.7093V5.28988C1 4.57754 1.59367 4 2.32563 4H10.1841ZM20.4328 17.2979H14.9774C14.7815 17.2979 14.6225 17.4463 14.6225 17.6294C14.6225 17.7893 14.7442 17.9229 14.9059 17.9538L14.9774 17.9605H20.4328C20.6289 17.9605 20.7876 17.8121 20.7876 17.6294C20.7876 17.4463 20.6289 17.2979 20.4328 17.2979ZM10.6212 16.6225H4.07858C3.84365 16.6225 3.65303 16.808 3.65303 17.0369C3.65303 17.2653 3.84365 17.4508 4.07858 17.4508H10.6212C10.8564 17.4508 11.0467 17.2653 11.0467 17.0369C11.0467 16.808 10.8564 16.6225 10.6212 16.6225ZM20.2951 10.0606L20.2137 10.0662L16.8037 10.5619C16.5918 10.5928 16.4285 10.7459 16.3909 10.937L16.3828 11.021V14.0311C16.3828 14.0832 16.3276 14.1219 16.2753 14.1039C16.1369 14.0562 15.986 14.0297 15.828 14.0297C15.1623 14.0297 14.6225 14.492 14.6225 15.0624C14.6225 15.6327 15.1623 16.095 15.828 16.095C16.4387 16.095 16.9421 15.7054 17.021 15.2005L17.0313 15.0907H17.0325V11.7999C17.0325 11.7613 17.0551 11.7271 17.0894 11.709L17.1271 11.6968L20.0048 11.2784C20.0589 11.2705 20.1089 11.3002 20.1268 11.3452L20.1337 11.3814V13.4962C20.1337 13.5484 20.0785 13.5872 20.0262 13.5692C19.8878 13.5215 19.7369 13.495 19.5787 13.495C18.9132 13.495 18.3734 13.9572 18.3734 14.5276C18.3734 15.098 18.9132 15.5602 19.5787 15.5602C20.1896 15.5602 20.693 15.1707 20.7718 14.6657L20.7821 14.5558H20.7834V14.52L20.7876 10.5257C20.7879 10.2923 20.6055 10.1039 20.3739 10.0671L20.2951 10.0606ZM10.448 7.57591L10.3584 7.58294L6.26888 8.20252C5.9785 8.24673 5.76406 8.49032 5.76406 8.77638V12.539C5.76406 12.6042 5.69792 12.6525 5.63513 12.63C5.46923 12.5704 5.28819 12.5372 5.09868 12.5372C4.30037 12.5372 3.65303 13.1152 3.65303 13.8282C3.65303 14.541 4.30037 15.119 5.09868 15.119C5.88342 15.119 6.52051 14.5598 6.54322 13.8635V9.75008C6.54322 9.68572 6.59155 9.6311 6.65679 9.62113L10.1079 9.0982C10.189 9.08585 10.2625 9.14696 10.2625 9.22693V11.8704C10.2625 11.9356 10.1963 11.9842 10.1335 11.9616C9.96763 11.9021 9.78659 11.8689 9.59686 11.8689C8.79877 11.8689 8.15143 12.4467 8.15143 13.1596C8.15143 13.8726 8.79877 14.4504 9.59686 14.4504C10.3818 14.4504 11.0189 13.8915 11.0416 13.195L11.042 13.1644C11.0423 13.1564 11.0416 13.1534 11.0416 13.1501L11.0467 8.15723C11.0472 7.80073 10.7203 7.52811 10.3584 7.58294L10.448 7.57591Z" fill="black"/>
</svg>
