<?xml version="1.0" encoding="UTF-8"?>
<svg viewBox="0 0 20 20" version="1.1" xmlns="http://www.w3.org/2000/svg" xmlns:xlink="http://www.w3.org/1999/xlink">
    <g stroke="none" stroke-width="1" fill="none" fill-rule="evenodd">
        <g transform="translate(-101.000000, -1829.000000)" fill="#121212">
            <g transform="translate(99.000000, 1827.000000)">
                <path d="M9.55813937,17.5357143 L9.55813937,18.7261905 L7.79189943,18.7271296 C9.22398685,20.0705758 11.0630728,20.8095238 13.0465114,20.8095238 C15.0813951,20.8095238 16.9999997,20.0357143 18.453488,18.6071429 L19.2674415,19.4702381 C17.581395,21.1071429 15.3720927,22 13.0465114,22 C10.7388191,22 8.60451341,21.1377853 6.9408283,19.5538071 L6.94186036,21.4047619 L5.77906969,21.4047619 L5.77906969,17.5357143 L9.55813937,17.5357143 Z M8.97674404,9.09362938 L8.97191076,14.294408 L8.97222594,14.2993743 C8.97254113,14.3077266 8.97191076,14.3108869 8.97191076,14.314273 L8.97191076,14.3411358 L8.97043989,14.3411358 C8.95047812,15.0666579 8.34931366,15.6488362 7.60862694,15.6488362 C6.85554291,15.6488362 6.24471276,15.0470186 6.24471276,14.3043405 C6.24471276,13.5616624 6.85554291,12.9598447 7.60862694,12.9598447 C7.7876525,12.9598447 7.95848322,12.9943827 8.11502552,13.0564606 C8.17428046,13.0799374 8.23668726,13.0293721 8.23668726,12.9614249 L8.23668726,10.2078723 C8.23668726,10.124575 8.16734637,10.0609169 8.09086128,10.0737839 L4.83436119,10.6184898 C4.77279489,10.6288738 4.727198,10.6857598 4.727198,10.752804 L4.727198,15.0375376 L4.72593726,15.0375376 C4.70576537,15.762834 4.10460091,16.3452381 3.36412431,16.3452381 C2.61083016,16.3452381 2,15.7431947 2,15.0007423 C2,14.2580642 2.61083016,13.6560209 3.36412431,13.6560209 C3.54293974,13.6560209 3.71377047,13.6905588 3.87031277,13.7526367 C3.92956771,13.7761135 3.9919745,13.7257739 3.9919745,13.6578268 L3.9919745,9.73856295 C3.9919745,9.44058874 4.19432381,9.18685919 4.46832537,9.14080863 L8.32725066,8.49542358 C8.66870198,8.43831186 8.97716386,8.72229031 8.97674404,9.09362938 Z M21.9999996,9.09362938 L21.9951663,14.294408 L21.9951663,14.3411358 L21.9936954,14.3411358 C21.9737337,15.0666579 21.3725692,15.6488362 20.6318825,15.6488362 C19.8787984,15.6488362 19.2679683,15.0470186 19.2679683,14.3043405 C19.2679683,13.5616624 19.8787984,12.9598447 20.6318825,12.9598447 C20.810908,12.9598447 20.9817388,12.9943827 21.1382811,13.0564606 C21.197536,13.0799374 21.2599428,13.0293721 21.2599428,12.9614249 L21.2599428,10.2078723 C21.2599428,10.124575 21.1906019,10.0609169 21.1141168,10.0737839 L17.8576167,10.6184898 C17.7960504,10.6288738 17.7504535,10.6857598 17.7504535,10.752804 L17.7504535,14.9908099 C17.7504535,14.9941959 17.7510839,14.9973563 17.7510839,15.0007423 L17.7507687,15.0056239 L17.7504535,15.0375376 L17.7491928,15.0375376 C17.7290209,15.762834 17.1278564,16.3452381 16.3873798,16.3452381 C15.6340857,16.3452381 15.0232555,15.7431947 15.0232555,15.0007423 C15.0232555,14.2580642 15.6340857,13.6560209 16.3873798,13.6560209 C16.5661953,13.6560209 16.737026,13.6905588 16.8935683,13.7526367 C16.9528232,13.7761135 17.01523,13.7257739 17.01523,13.6578268 L17.01523,9.73856295 C17.01523,9.44058874 17.2175793,9.18685919 17.4915809,9.14080863 L21.3505062,8.49542358 C21.6919575,8.43831186 22.0004194,8.72229031 21.9999996,9.09362938 Z M12.1744184,2 C14.4817518,2 16.6157526,2.86194658 18.2793253,4.44545398 L18.2790694,2.5952381 L19.4418601,2.5952381 L19.4418601,6.46428571 L15.6627904,6.46428571 L15.6627904,5.27380952 L17.4508599,5.27281718 C15.9968943,3.92940464 14.1578308,3.19047619 12.1744184,3.19047619 C10.1395347,3.19047619 8.2209301,3.96428571 6.76744176,5.39285714 L5.95348829,4.5297619 C7.63953476,2.89285714 9.84883704,2 12.1744184,2 Z"></path>
            </g>
        </g>
    </g>
</svg>