<?xml version="1.0" encoding="UTF-8"?>
<svg viewBox="0 0 18 18" version="1.1" xmlns="http://www.w3.org/2000/svg" xmlns:xlink="http://www.w3.org/1999/xlink">
    <g stroke="none" stroke-width="1" fill="none" fill-rule="evenodd">
        <g transform="translate(-934.000000, -998.000000)" fill="#121212">
            <g transform="translate(931.000000, 995.000000)">
                <path d="M7,14 C7.55228475,14 8,14.4477153 8,15 L8,20 C8,20.5522847 7.55228475,21 7,21 L4,21 C3.44771525,21 3,20.5522847 3,20 L3,15 C3,14.4477153 3.44771525,14 4,14 L7,14 Z M14,3 C14.5522847,3 15,3.44771525 15,4 L15,20 C15,20.5522847 14.5522847,21 14,21 L10,21 C9.44771525,21 9,20.5522847 9,20 L9,4 C9,3.44771525 9.44771525,3 10,3 L14,3 Z M20,7 C20.5522847,7 21,7.44771525 21,8 L21,20 C21,20.5522847 20.5522847,21 20,21 L17,21 C16.4477153,21 16,20.5522847 16,20 L16,8 C16,7.44771525 16.4477153,7 17,7 L20,7 Z"></path>
            </g>
        </g>
    </g>
</svg>