<?xml version="1.0" encoding="UTF-8"?>
<svg width="18px" height="18px" viewBox="0 0 18 18" version="1.1" xmlns="http://www.w3.org/2000/svg" xmlns:xlink="http://www.w3.org/1999/xlink">
    <g id="Components" stroke="none" stroke-width="1" fill="none" fill-rule="evenodd">
        <g id="Assets" transform="translate(-250.000000, -457.000000)" fill="#A4A4A4">
            <g id="entity-icon" transform="translate(249.000000, 456.000000)">
                <path d="M17.9166667,4.23733461 C18.1391056,4.23733461 18.3333333,4.43059351 18.3333333,4.6519228 L18.3333333,17.9187451 C18.3333333,18.1400744 18.1391056,18.3333333 17.9166667,18.3333333 L2.08333333,18.3333333 C1.86089444,18.3333333 1.66666667,18.1400744 1.66666667,17.9187451 L1.66666667,4.6519228 C1.66666667,4.43059351 1.86089444,4.23733461 2.08333333,4.23733461 L17.9166667,4.23733461 Z M10,5.81254865 C7.12343355,5.81254865 4.79166667,8.13268391 4.79166667,10.9949011 C4.79166667,13.8571183 7.12343355,16.1772536 10,16.1772536 C12.8765665,16.1772536 15.2083333,13.8571183 15.2083333,10.9949011 C15.2083333,8.13268391 12.8765665,5.81254865 10,5.81254865 Z M10,9.32823445 C10.9201161,9.32823445 11.6666667,10.0747401 11.6666667,10.9949011 C11.6666667,11.9150621 10.9207447,12.6615678 10,12.6615678 C9.07925534,12.6615678 8.33333333,11.9150621 8.33333333,10.9949011 C8.33333333,10.0747401 9.07925534,9.32823445 10,9.32823445 Z M16.722,1.66666667 C16.9444389,1.66666667 17.1386667,1.85992557 17.1386667,2.08125486 L17.1386667,2.08125486 L17.167,2.08125486 L17.167,3.40815821 L2.86144444,3.40815821 L2.86144444,2.08125486 C2.86144444,1.85992557 3.05567222,1.66666667 3.27811111,1.66666667 L3.27811111,1.66666667 Z" id="🎨-Icon-color"></path>
            </g>
        </g>
    </g>
</svg>