<svg viewBox="0 0 24 24" fill="none" xmlns="http://www.w3.org/2000/svg">
<path fill-rule="evenodd" clip-rule="evenodd" d="M13.75 13.75C14.7125 13.75 15.5 14.5375 15.5 15.5V18.125H8.50003V15.5C8.50003 14.5375 9.28753 13.75 10.25 13.75H13.75ZM17.25 9.375C18.2125 9.375 19 10.1625 19 11.125V13.75H16.2568C15.8746 13.2048 15.3168 12.7995 14.6704 12.595C14.9121 12.1564 15.0625 11.6598 15.0625 11.125C15.0625 10.4742 14.8552 9.87211 14.5057 9.375H17.25ZM9.49316 9.375C9.14589 9.87211 8.93753 10.4742 8.93753 11.125C8.93753 11.6598 9.08737 12.1564 9.32964 12.595C8.68269 12.7995 8.12543 13.2048 7.74316 13.75H5V11.125C5 10.1625 5.7875 9.375 6.75 9.375H9.49316ZM12 9.375C12.9663 9.375 13.75 10.1587 13.75 11.125C13.75 12.0913 12.9663 12.875 12 12.875C11.0337 12.875 10.25 12.0913 10.25 11.125C10.25 10.1587 11.0337 9.375 12 9.375ZM15.5 5C16.4663 5 17.25 5.78368 17.25 6.75C17.25 7.71632 16.4663 8.5 15.5 8.5C14.5337 8.5 13.75 7.71632 13.75 6.75C13.75 5.78368 14.5337 5 15.5 5ZM8.50003 5C9.46635 5 10.25 5.78368 10.25 6.75C10.25 7.71632 9.46635 8.5 8.50003 8.5C7.5337 8.5 6.75003 7.71632 6.75003 6.75C6.75003 5.78368 7.5337 5 8.50003 5Z" fill="black"/>
</svg>
