<svg viewBox="0 0 9 8" fill="none" xmlns="http://www.w3.org/2000/svg">
<path d="M1.28644 6.46865C0.756821 5.80107 0.877777 4.83478 1.5562 4.31362L3.14314 3.09453L2.55468 2.35277L0.967733 3.57185C-0.127259 4.41302 -0.322181 5.97021 0.532639 7.04772C1.38746 8.12523 2.96991 8.31704 4.06491 7.47587L5.65185 6.25678L5.06339 5.51502L3.47644 6.7341C2.79802 7.25526 1.81605 7.13624 1.28644 6.46865ZM3.22277 5.60949L6.39666 3.17131L5.77723 2.39051L2.60334 4.82869L3.22277 5.60949ZM4.93509 0.524134L3.34815 1.74322L3.93661 2.48498L5.52356 1.2659C6.20198 0.744736 7.18395 0.863761 7.71356 1.53135C8.24318 2.19893 8.12222 3.16522 7.44381 3.68638L5.85686 4.90547L6.44532 5.64723L8.03227 4.42815C9.12726 3.58698 9.32218 2.02979 8.46736 0.95228C7.61254 -0.125227 6.03009 -0.317037 4.93509 0.524134Z" fill="#676767"/>
</svg>
