<?xml version="1.0" encoding="UTF-8"?>
<svg viewBox="0 0 15 20" version="1.1" xmlns="http://www.w3.org/2000/svg" xmlns:xlink="http://www.w3.org/1999/xlink">
    <g stroke="none" stroke-width="1" fill="none" fill-rule="evenodd">
        <g transform="translate(-520.000000, -1101.000000)" fill="#121212">
            <g transform="translate(515.000000, 1099.000000)">
                <path d="M14.4592476,2 C14.8870991,2 15.3028262,2.17026545 15.6086625,2.47268867 L15.6086625,2.47268867 L19.5297167,6.37714006 C19.8300015,6.67826041 20,7.08983797 20,7.51282149 L20,7.51282149 L20,20.3890736 C20,21.2608825 19.2577402,22 18.3777429,22 L18.3777429,22 L6.62225705,22 C5.74225982,22 5,21.2608825 5,20.3890736 L5,20.3890736 L5,3.6048949 C5.00492462,2.77785628 5.72807758,1.99791496 6.62468831,2 L6.62468831,2 Z M14.275431,4.05128195 L7.06896552,4.05128195 L7.06896552,19.9487168 L17.9310345,19.9487168 L17.9310345,7.69358939 L14.275431,4.05128195 Z M16,15 L16,17 L9,17 L9,15 L16,15 Z M16,12 L16,14 L9,14 L9,12 L16,12 Z M16,9 L16,11 L9,11 L9,9 L16,9 Z"></path>
            </g>
        </g>
    </g>
</svg>