<svg xmlns="http://www.w3.org/2000/svg" viewBox="0 0 24 24">
    <path fill-rule="evenodd" d="M5 14v-2.313c.648-.264 1.207-.675 1.563-1.23.71-1.102.495-2.612-.499-3.514-.663-.601-1.591-.797-2.41-.968C2.195 5.669 2 5.501 2 5c0-.532.701-1 1.5-1S5 4.468 5 5h2c0-1.192-.822-2.216-2-2.699V0H2v2.301C.822 2.784 0 3.808 0 5c0 2.251 2.03 2.678 3.244 2.933.569.119 1.215.255 1.476.491.269.245.342.671.161.951-.243.38-.786.625-1.381.625C2.701 10 2 9.532 2 9H0c0 1.192.822 2.216 2 2.699V14h3zM13 9L15.293 11.293 11.05 15.535 9.636 14.121 8.222 12.707 6.808 14.121 2.565 18.364 3.979 19.778 8.222 15.535 10.343 17.657 11.05 18.364 16.707 12.707 19 15 19 9z" transform="translate(3 2)"/>
</svg>