<svg xmlns="http://www.w3.org/2000/svg" viewBox="0 0 24 24">
    <g fill-rule="evenodd">
        <path d="M12.016 12L20.016 12 20.016 10 12.016 10zM12.016 16L20.016 16 20.016 13.999 12.016 13.999zM12.016 20L20.016 20 20.016 18 12.016 18z" transform="translate(2 2)"/>
        <path d="M6.03 6H3.08c.96-1.66 2.49-2.93 4.33-3.56C6.81 3.55 6.35 4.75 6.03 6zm-2.95 8h2.95c.32 1.25.78 2.45 1.38 3.56-1.84-.63-3.37-1.9-4.33-3.56zm-.82-2C2.1 11.36 2 10.69 2 10s.1-1.36.26-2h3.38c-.08.66-.14 1.32-.14 2 0 .68.06 1.34.14 2H2.26zM10 2.04c.83 1.2 1.48 2.53 1.91 3.96H8.09C8.52 4.57 9.17 3.24 10 2.04zM16.92 6h-2.95c-.32-1.25-.78-2.45-1.38-3.56 1.84.63 3.37 1.91 4.33 3.56zm-6.904 2H19.8c-.929-4.563-4.966-8-9.81-8C4.47 0 0 4.48 0 10s4.47 10 9.99 10l.026-.001v-2.064L10 17.96c-.83-1.2-1.48-2.53-1.91-3.96 0 0-.18-.656-.263-1.021C7.744 12.613 7.66 12 7.66 12c-.09-.66-.16-1.32-.16-2 0-.68.07-1.35.16-2h2.356z" transform="translate(2 2)"/>
    </g>
</svg>