<?xml version="1.0" encoding="UTF-8"?>
<svg viewBox="0 0 20 18" version="1.1" xmlns="http://www.w3.org/2000/svg" xmlns:xlink="http://www.w3.org/1999/xlink">
    <g stroke="none" stroke-width="1" fill="none" fill-rule="evenodd">
        <g transform="translate(-101.000000, -1206.000000)" fill="#121212">
            <g transform="translate(99.000000, 1203.000000)">
                <path d="M12.7788424,6.89469835 C13.5370722,6.89469835 14.1472603,7.50488641 14.1472603,8.26311623 L14.1472603,8.26311623 L14.1472603,16.4942551 C14.1472603,17.2524849 13.5370722,17.8626729 12.7788424,17.8626729 L12.7788424,17.8626729 L8.44158929,17.8626729 C7.85190645,18.6423764 6.77877209,19.884142 5.4942277,20.5157199 C5.3889732,20.5576608 5.30509129,20.5790418 5.19982838,20.5790418 C5.0312393,20.5790418 4.8634839,20.5165409 4.73683998,20.389897 C4.52631415,20.2007606 4.48437319,19.9055187 4.58963611,19.6530562 C4.88403543,18.9795419 4.96791734,18.3479645 4.98929834,17.8635866 L4.98929834,17.8635866 L3.36841788,17.8635866 C2.61018806,17.8635866 2,17.2533986 2,16.4951687 L2,16.4951687 L2,8.26318781 C2,7.50495799 2.61018806,6.89469835 3.36841788,6.89469835 L3.36841788,6.89469835 Z M20.6315821,3.00022947 C21.3898119,3.00022947 22,3.61041753 22,4.34725793 L22,4.34725793 L22,12.5996599 C22,13.3578897 21.3898119,13.9680778 20.6315821,13.9680778 L20.6315821,13.9680778 L18.9893122,13.9689009 C19.0098596,14.4532787 19.0945751,15.0848562 19.3889745,15.7583705 C19.5156226,16.010833 19.4522964,16.306066 19.2417706,16.4952109 C19.1159604,16.6004738 18.9473671,16.6637957 18.7787822,16.6637957 C18.6735277,16.6637957 18.5682648,16.6424147 18.4843829,16.6004738 C17.2845541,16.010833 16.2524723,14.852941 15.6422842,14.0741638 L15.6422842,14.0741638 L15.6422842,8.26322992 C15.6422842,6.68420199 14.3372346,5.3996576 12.7582909,5.3996576 L12.7582909,5.3996576 L9.85282392,5.3996576 L9.85282392,4.36841788 C9.85282392,3.61018806 10.463012,3 11.2212418,3 L11.2212418,3 Z M8.16861729,14.5361838 C7.74756564,14.5361838 7.41038747,14.873362 7.41038747,15.2944136 C7.41038747,15.7154653 7.74756564,16.0526435 8.16861729,16.0526435 C8.58966895,16.0526435 8.92602396,15.7154653 8.92684712,15.2944136 C8.92684712,14.873362 8.58966895,14.5361838 8.16861729,14.5361838 Z M8.10535007,8.83144123 C6.65213238,8.83144123 5.9152962,9.82158631 5.76809233,10.852826 C5.72615558,11.0633434 5.89474466,11.2524883 6.10527049,11.2524883 L6.10527049,11.2524883 L6.69409018,11.2516651 C6.86268348,11.2516651 7.00988735,11.1258507 7.03126835,10.9572658 C7.09459452,10.5781509 7.34705709,10.0732257 8.12583423,10.0732257 C8.71547497,10.0732257 8.96793755,10.389006 9.07320046,10.5781509 C9.19902333,10.8520029 9.17846759,11.1883389 9.0098785,11.4202542 C8.84128942,11.6521694 8.67270876,11.7779881 8.48356393,11.904632 C8.02057553,12.2204208 7.66201636,12.5575989 7.57813445,13.5049651 C7.55758713,13.7154952 7.70478679,13.8840801 7.91531262,13.8840801 L7.91531262,13.8840801 L8.46301661,13.8840801 C8.63159727,13.8840801 8.77880114,13.757434 8.8207421,13.5691124 C8.84213152,13.168608 8.94739444,13.0847303 9.19985701,12.9161455 C9.41038284,12.7681037 9.70562426,12.5575779 10.0000236,12.1579156 C10.4425236,11.5469086 10.5050287,10.7261737 10.1686716,10.0107227 C9.7895567,9.27388231 9.01077955,8.83144123 8.10535007,8.83144123 Z"></path>
            </g>
        </g>
    </g>
</svg>