<svg xmlns="http://www.w3.org/2000/svg" viewBox="0 0 18 18">
    <path fill-rule="evenodd" d="M15,2 L15,4.1 L14.25,4.1 C14.25,6.1307 13.0725,8.0032 11.17275,9 C13.0725,9.9975 14.25,11.87 14.25,13.9 L14.25,13.9 L15,13.9 L15,16 L3,16 L3,13.9 L3.75,13.9 C3.75,11.8966 4.90575,10.0332 6.7665,9.0371 L6.7665,9.0371 L6.8625,8.9902 L6.7665,8.9636 C4.90575,7.9675 3.75,6.1041 3.75,4.1 L3.75,4.1 L3,4.1 L3,2 L15,2 Z M10.1183312,10 C10.0417193,10.1817154 10,10.3770028 10,10.5783223 L10,10.5783223 L10,11.2147031 C10,11.7206409 10.2518331,12.1903864 10.6758534,12.4701225 C11.3274336,12.8983977 12.3120101,13.5468426 13,14 C12.8369153,12.6073516 12.0343869,11.3557022 10.8093552,10.6243167 L10.8093552,10.6243167 L10.7729456,10.6243167 L10.5817952,10.4983977 C10.3868521,10.3702168 10.2321113,10.1960415 10.1183312,10 Z M7.88388566,10 C7.77460157,10.1856604 7.63040729,10.3524528 7.44750822,10.4792453 C7.36175057,10.5350943 7.2926891,10.5713208 7.22210979,10.6067925 C5.99190488,11.309434 5.16620288,12.5833962 5,14 C5.68833797,13.5456604 6.67189476,12.8973585 7.32456362,12.4686792 C7.74879838,12.1886792 8,11.7184906 8,11.2120755 L8,11.2120755 L8,10.5750943 C8,10.3750943 7.95901847,10.1803774 7.88388566,10 Z M13,4 L5,4 C5,4.85797516 5.3976,5.67363418 6.0824,6.32125517 L6.0824,6.32125517 L8.4944,6.93698574 C8.8232,7.02100475 9.1776,7.02100475 9.5064,6.93698574 L9.5064,6.93698574 L11.9176,6.32125517 C12.6024,5.6730209 13,4.85981499 13,4 L13,4 Z"/>
</svg>