<?xml version="1.0" encoding="UTF-8"?>
<svg viewBox="0 0 24 24" version="1.1" xmlns="http://www.w3.org/2000/svg" xmlns:xlink="http://www.w3.org/1999/xlink">
    <g id="🔶-Symbols" stroke="none" stroke-width="1" fill="none" fill-rule="evenodd">
        <g id="Info">
            <path d="M12,2 C17.5228475,2 22,6.4771525 22,12 C22,17.5228475 17.5228475,22 12,22 C6.4771525,22 2,17.5228475 2,12 C2,6.4771525 6.4771525,2 12,2 Z M13.5,10.5010746 L10.5,10.5010746 L10.5,18.0035401 L13.5,18.0035401 L13.5,10.5010746 Z M12,6.17861518 C11.1715729,6.17861518 10.5,6.85018806 10.5,7.67861518 C10.5,8.50704231 11.1715729,9.17861518 12,9.17861518 C12.8284271,9.17861518 13.5,8.50704231 13.5,7.67861518 C13.5,6.85018806 12.8284271,6.17861518 12,6.17861518 Z"></path>
        </g>
    </g>
</svg>