<?xml version="1.0" encoding="UTF-8"?>
<svg viewBox="0 0 24 24" fill="none" xmlns="http://www.w3.org/2000/svg">
    <g id="Global Icons/Info">
        <g id="&#240;&#159;&#142;&#168; Icon color">
            <path d="M13 6.5C13.8284 6.5 14.5 7.17157 14.5 8C14.5 8.82843 13.8284 9.5 13 9.5C12.1716 9.5 11.5 8.82843 11.5 8C11.5 7.17157 12.1716 6.5 13 6.5Z" fill="black"/>
            <path d="M14.5 10.5V17H11.5V10.5H14.5Z" fill="black"/>
            <path fill-rule="evenodd" clip-rule="evenodd" d="M22 12C22 7.02944 17.9706 3 13 3C8.02944 3 4 7.02944 4 12C4 16.9706 8.02944 21 13 21C17.9706 21 22 16.9706 22 12ZM13 4.5C17.1421 4.5 20.5 7.85786 20.5 12C20.5 16.1421 17.1421 19.5 13 19.5C8.85786 19.5 5.5 16.1421 5.5 12C5.5 7.85786 8.85786 4.5 13 4.5Z" fill="black"/>
        </g>
    </g>
</svg>
