<svg viewBox="0 0 24 24" fill="none" xmlns="http://www.w3.org/2000/svg">
<path fill-rule="evenodd" clip-rule="evenodd" d="M19.6917 14.9011L14.4906 6.54628C13.891 5.6854 13.1208 5 12.0023 5C10.8832 5 10.1135 5.6854 9.51396 6.54628L4.28603 14.9453C3.89215 15.7362 3.89215 16.6584 4.36668 17.4229C4.79619 18.0991 5.53017 18.5385 6.34476 18.5385H17.6596C18.4655 18.5385 19.2083 18.0991 19.6291 17.4229C20.1036 16.6676 20.1211 15.6834 19.6916 14.9016L19.6917 14.9011ZM14.4941 10.7798C14.7242 11.0044 14.7242 11.3728 14.4941 11.5887L13.2425 12.8107L14.4941 14.0238C14.7242 14.2485 14.7242 14.6169 14.4941 14.8415L14.0801 15.2457C13.85 15.4704 13.4727 15.4704 13.2426 15.2457L12 14.0238L10.7485 15.2457C10.5273 15.4704 10.15 15.4704 9.91988 15.2457L9.50592 14.8415C9.2758 14.6169 9.2758 14.2485 9.50592 14.0238L10.7485 12.8107L9.50592 11.5887C9.2758 11.3728 9.2758 11.0045 9.50592 10.7798L9.91988 10.3756C10.15 10.1509 10.5273 10.1509 10.7485 10.3756L12 11.5887L13.2426 10.3756C13.4727 10.1509 13.85 10.1509 14.0801 10.3756L14.4941 10.7798Z" fill="black"/>
</svg>
