<?xml version="1.0" encoding="UTF-8"?>
<svg viewBox="0 0 24 24" version="1.1" xmlns="http://www.w3.org/2000/svg" xmlns:xlink="http://www.w3.org/1999/xlink">
    <g id="🔶-Symbols" stroke="none" stroke-width="1" fill="none" fill-rule="evenodd">
        <g id="Keyword" fill="#232323">
            <path d="M15.7038518,2 C19.1804706,2 22,4.84920353 22,8.36758353 C22,11.8836471 19.1804706,14.7351659 15.7038518,14.7351659 C15.1921471,14.7351659 14.6987576,14.6657024 14.2236847,14.5499271 L14.2236847,14.5499271 L13.3319212,15.4518094 L10.0945565,15.4518094 L10.0945565,18.7259047 L6.85719176,18.7259047 L6.85719176,22 L2,22 L2,17.0888565 L9.51073176,9.49059294 C9.44662588,9.12590471 9.40770471,8.75195412 9.40770471,8.36758353 C9.40770471,4.84920353 12.2260894,2 15.7038518,2 Z M17.3511529,4.77626588 C16.4032965,4.77626588 15.6340224,5.55311176 15.6340224,6.51288 C15.6340224,7.47149059 16.4032965,8.24949294 17.3511529,8.24949294 C18.3001541,8.24949294 19.0682847,7.47149059 19.0682847,6.51288 C19.0682847,5.55311176 18.3001541,4.77626588 17.3511529,4.77626588 Z"></path>
        </g>
    </g>
</svg>
