<?xml version="1.0" encoding="UTF-8"?>
<svg viewBox="0 0 18 18" version="1.1" xmlns="http://www.w3.org/2000/svg" xmlns:xlink="http://www.w3.org/1999/xlink">
    <g stroke="none" stroke-width="1" fill="none" fill-rule="evenodd">
        <g  transform="translate(-726.000000, -1206.000000)" fill="#121212">
            <g transform="translate(723.000000, 1203.000000)">
                <path d="M20.3077475,12 L20.1147662,12 L18.195322,6.24261154 C18.1918615,6.23222574 18.1849384,6.22530262 18.1814757,6.21491904 L18.1806095,6.21491904 C18.1702259,6.190687 18.1581099,6.1673234 18.1442637,6.14482159 C18.0810893,6.01847514 17.9781087,5.9172336 17.8526285,5.85405041 C17.8301289,5.84107038 17.8076293,5.82895436 17.7842635,5.81943479 C17.7055127,5.78741562 17.6224352,5.77097293 17.5384871,5.7692427 L13.9497614,5.7692427 C13.7368749,5.1747181 13.2652473,4.70912974 12.6681085,4.50491422 C12.6802246,4.4651057 12.6880139,4.42529719 12.6923406,4.38462467 L12.6923406,3.69231234 C12.6923406,3.30980146 12.3825391,3 12.0000282,3 C11.6175174,3 11.3077159,3.30980146 11.3077159,3.69231234 L11.3077159,4.38462467 C11.3120448,4.42529719 11.3198319,4.4651057 11.3319479,4.50491422 C10.7348313,4.70914746 10.2631949,5.1747181 10.050295,5.7692427 L6.46157165,5.7692427 C6.37762795,5.77010892 6.29455047,5.78741562 6.21579523,5.81857078 C6.19242941,5.82895436 6.16992982,5.84020637 6.14743022,5.8531864 C6.02108377,5.91636073 5.91897823,6.01847514 5.85579503,6.14395758 C5.84194879,6.16645718 5.82983277,6.19068922 5.81944919,6.21405504 C5.81598652,6.22357461 5.80819717,6.23136395 5.80560294,6.24174753 L3.88529246,12.0000138 L3.69231123,12.0000138 C3.30980035,12.0000138 3,12.3098153 3,12.6923262 L3,13.3846385 C3,14.6212745 3.6594347,15.7644206 4.73077973,16.3822955 C5.80212477,17.0010566 7.12097423,17.0010566 8.19234141,16.3822955 C9.26368645,15.7643985 9.92312225,14.6212302 9.92312225,13.3846385 L9.92312225,12.6923262 C9.92312225,12.5088645 9.85043057,12.3323238 9.72062145,12.2025235 C9.59081233,12.0727144 9.41427601,12.0000227 9.23081878,12.0000227 L9.03783755,12.0000227 L7.42214671,7.15383635 L10.0502751,7.15383635 C10.259699,7.74056275 10.720943,8.20183108 11.3076915,8.41125279 L11.3076915,17.5384771 L9.23075453,17.5384771 C8.08410807,17.5393433 7.15468153,18.4687676 7.15381752,19.6154141 C6.77130665,19.6154141 6.46150519,19.9252156 6.46150519,20.3077264 C6.46150519,20.6902373 6.77130665,21.000039 7.15381752,21.000039 L16.8461902,21.000039 C17.2287011,21.000039 17.5385026,20.6902373 17.5385026,20.3077264 C17.5385026,19.9252156 17.2287011,19.6154141 16.8461902,19.6154141 C16.8453262,18.4687676 15.9158997,17.5393411 14.7692532,17.5384771 L12.6923162,17.5384771 L12.6923162,8.41125279 C13.2790426,8.20182886 13.7403109,7.74058491 13.9497326,7.15383635 L16.577861,7.15383635 L14.9621702,12.0000227 L14.769189,12.0000227 C14.3866781,12.0000227 14.0768766,12.3098242 14.0768766,12.692335 L14.0768766,13.3846474 C14.0768766,14.6212834 14.7363124,15.7644295 15.8076575,16.3823044 C16.8790025,17.0010655 18.197852,17.0010655 19.2692192,16.3823044 C20.3405642,15.7644073 21,14.6212391 21,13.3846474 L21,12.692335 C21,12.5088734 20.9273083,12.3323326 20.7974992,12.2025324 C20.6676901,12.0727233 20.4911538,12.0000316 20.3076965,12.0000316 L20.3077475,12 Z M5.34516096,11.9999917 L6.46152291,8.6509723 L7.57788486,11.9999917 L5.34516096,11.9999917 Z M16.4221583,11.9999917 L17.5385203,8.6509723 L18.6548822,11.9999917 L16.4221583,11.9999917 Z"></path>
            </g>
        </g>
    </g>
</svg>