<svg viewBox="0 0 20 20" fill="none" xmlns="http://www.w3.org/2000/svg">
<path d="M15 9.16675C15.2833 9.16675 15.5583 9.19175 15.8333 9.23341V3.33341C15.8333 2.41675 15.0833 1.66675 14.1667 1.66675H4.16667C3.25 1.66675 2.5 2.41675 2.5 3.33341V16.6667C2.5 17.5834 3.25 18.3334 4.16667 18.3334H10.2167C9.55833 17.3917 9.16667 16.2417 9.16667 15.0001C9.16667 11.7751 11.775 9.16675 15 9.16675ZM5.83333 9.16675V3.33341H10V9.16675L7.91667 7.91675L5.83333 9.16675Z" fill="#0E0E17"/>
<path d="M15 10.8334C12.7 10.8334 10.8333 12.7001 10.8333 15.0001C10.8333 17.3001 12.7 19.1667 15 19.1667C17.3 19.1667 19.1667 17.3001 19.1667 15.0001C19.1667 12.7001 17.3 10.8334 15 10.8334ZM13.9583 17.0834V12.9167L17.2917 15.0001L13.9583 17.0834Z" fill="#0E0E17"/>
</svg>
