<svg xmlns="http://www.w3.org/2000/svg" viewBox="0 0 24 24">
    <path fill-rule="evenodd" d="M18.313 16.471c-.552 0-1-.448-1-1s.448-1 1-1 1 .448 1 1-.448 1-1 1M6.246 19c-.552 0-1-.448-1-1 0-.551.448-1 1-1 .551 0 1 .449 1 1 0 .552-.449 1-1 1m12-14c.551 0 1 .45 1 1 0 .551-.449 1-1 1-.552 0-1-.449-1-1 0-.55.448-1 1-1M6 9.848c-.552 0-1-.449-1-1 0-.552.448-1 1-1 .551 0 1 .448 1 1 0 .551-.449 1-1 1m12.313 2.623c-.755 0-1.437.29-1.965.752l-1.777-1.026c.006-.066.02-.129.02-.197 0-.261-.053-.508-.132-.744l2.538-2.537c.381.177.801.281 1.249.281 1.654 0 3-1.345 3-3 0-1.654-1.346-3-3-3-1.655 0-3 1.346-3 3 0 .477.122.921.32 1.322l-2.492 2.491c-.259-.098-.535-.157-.828-.157-.498 0-.958.157-1.338.421L8.987 8.968c.002-.041.013-.079.013-.12 0-1.654-1.346-3-3-3-1.655 0-3 1.346-3 3s1.345 3 3 3c.887 0 1.676-.395 2.226-1.009l1.693.978c-.005.061-.019.121-.019.183 0 .293.06.57.159.828l-2.493 2.493c-.4-.199-.844-.321-1.32-.321-1.655 0-3 1.346-3 3 0 1.655 1.345 3 3 3 1.654 0 3-1.345 3-3 0-.447-.105-.868-.282-1.25l2.537-2.537c.236.079.483.132.745.132.493 0 .95-.153 1.328-.414l1.79 1.033c-.029.166-.051.333-.051.507 0 1.654 1.346 3 3 3s3-1.346 3-3-1.346-3-3-3"/>
</svg>