<svg viewBox="0 0 20 20" fill="none" xmlns="http://www.w3.org/2000/svg">
<path d="M5.43638 18C4.88713 18 4.42709 17.8269 4.05626 17.4806C3.68542 17.1344 3.5 16.7049 3.5 16.192V9.14129C3.5 8.62847 3.68542 8.19894 4.05626 7.8527C4.42709 7.50645 4.88713 7.33332 5.43638 7.33332H5.90304V5.86205C5.90304 4.78407 6.30176 3.8709 7.0992 3.12254C7.89665 2.37418 8.86359 2 10 2C11.1364 2 12.1033 2.37418 12.9008 3.12254C13.6982 3.8709 14.097 4.78407 14.097 5.86205V7.33332H14.5636C15.1129 7.33332 15.5729 7.50645 15.9437 7.8527C16.3146 8.19894 16.5 8.62847 16.5 9.14129V16.192C16.5 16.7049 16.3146 17.1344 15.9437 17.4806C15.5729 17.8269 15.1129 18 14.5636 18H5.43638ZM10.0031 14.2483C10.4627 14.2483 10.8528 14.0976 11.1735 13.7962C11.4942 13.4948 11.6545 13.1296 11.6545 12.7005C11.6545 12.2715 11.4931 11.9072 11.1703 11.6078C10.8475 11.3083 10.4564 11.1586 9.99687 11.1586C9.53734 11.1586 9.14722 11.3093 8.82653 11.6107C8.50582 11.9121 8.34547 12.2773 8.34547 12.7064C8.34547 13.1354 8.50687 13.4997 8.82966 13.7991C9.15246 14.0985 9.54361 14.2483 10.0031 14.2483ZM7.59696 7.33332H12.403V5.86205C12.403 5.23676 12.1692 4.70036 11.7015 4.25285C11.2338 3.80534 10.6658 3.58158 9.99768 3.58158C9.32953 3.58158 8.76237 3.80534 8.29621 4.25285C7.83004 4.70036 7.59696 5.23676 7.59696 5.86205V7.33332Z" fill="#6265AD"/>
</svg>
