<?xml version="1.0" encoding="UTF-8"?>
<svg viewBox="0 0 24 24" version="1.1" xmlns="http://www.w3.org/2000/svg" xmlns:xlink="http://www.w3.org/1999/xlink">
    <g id="🔶-Symbols" stroke="none" stroke-width="1" fill="none" fill-rule="evenodd">
        <g id="Lock">
            <path d="M17.4878006,9.36840625 L17.4878006,7.78360938 C17.4878006,4.043125 16.680176,1 12,1 C7.31982405,1 6.51219941,4.043125 6.51219941,7.78360938 L6.51219941,9.36840625 L4,9.36840625 C2.8954305,9.36840625 2,10.2638368 2,11.3684063 L2,21 C2,22.1045695 2.8954305,23 4,23 L20,23 C21.1045695,23 22,22.1045695 22,21 L22,11.3684063 C22,10.2638368 21.1045695,9.36840625 20,9.36840625 L17.4878006,9.36840625 L17.4878006,9.36840625 Z M10.0243988,7.78360938 C10.0243988,5.59089063 9.25648094,3.80701563 12,3.80701563 C14.7435191,3.80701563 13.9756012,5.5909375 13.9756012,7.78360938 L13.9756012,9.36840625 L10.0243988,9.36840625 L10.0243988,7.78360938 Z"></path>
        </g>
    </g>
</svg>