<?xml version="1.0" encoding="UTF-8"?>
<svg viewBox="0 0 20 14" version="1.1" xmlns="http://www.w3.org/2000/svg" xmlns:xlink="http://www.w3.org/1999/xlink">
    <g stroke="none" stroke-width="1" fill="none" fill-rule="evenodd">
        <g transform="translate(-933.000000, -1208.000000)" fill="#232323">
            <g transform="translate(931.000000, 1203.000000)">
                <path d="M2.1557731,5.71662698 C2.17313717,5.84694222 2.23864664,5.96986199 2.3473462,6.05294293 L2.3473462,6.05294293 L12.4000232,13.7363761 L21.7409193,6.05616377 L21.80601,5.99769148 C21.8472641,5.95327619 21.8794513,5.90197933 21.9020751,5.84683866 C21.9653328,6.00758916 22,6.18488122 22,6.37108393 L22,6.37108393 L22,17.6280006 C22,17.8034036 21.9692375,17.9708995 21.9130919,18.1247895 L21.8843439,18.0558947 L16.248118,13.8845027 L16.2009458,13.8091584 C16.0607005,13.6238453 15.8112687,13.5653991 15.60713,13.6825024 C15.377474,13.8142437 15.2921082,14.118277 15.41646,14.3615798 L15.41646,14.3615798 L21.0526859,18.5329719 L21.0998581,18.6083161 C21.175175,18.7078361 21.2819823,18.7707666 21.3963531,18.7895673 C21.1970184,18.9221315 20.9602307,18.9990845 20.7058202,18.9990845 L20.7058202,18.9990845 L3.29417983,19 C3.04274164,19 2.80851695,18.9248346 2.61034741,18.7944651 C2.76764158,18.7999672 2.92376732,18.7213039 3.01753023,18.5722274 L3.01753023,18.5722274 L8.78962781,14.4008353 L8.83042079,14.3214214 C8.91942279,14.1034169 8.85150919,13.8425159 8.6583244,13.7061413 C8.44099151,13.5527199 8.14741182,13.6149997 8.0025958,13.8452472 L8.0025958,13.8452472 L2.23049822,18.0166393 L2.18970525,18.0960532 C2.16629048,18.1534061 2.15373612,18.213728 2.15146599,18.2739703 C2.05460576,18.0822664 2,17.862609 2,17.6289161 L2,17.6289161 L2,6.37115565 C2,6.1477124 2.04992083,5.93709427 2.13864212,5.75108608 Z M20.7058202,5 C20.9324454,5 21.1450869,5.06106213 21.3299487,5.1685707 L21.2699786,5.19188728 L21.2699786,5.19188728 L21.1961104,5.23716439 L12.4060761,12.5048948 L2.90068225,5.24038523 L2.82729183,5.19424431 C2.78556254,5.17313787 2.74186375,5.15903037 2.69759134,5.15168249 C2.87590081,5.05519976 3.07872046,5 3.29417983,5 L3.29417983,5 Z"></path>
            </g>
        </g>
    </g>
</svg>