<?xml version="1.0" encoding="UTF-8"?>
<svg viewBox="0 0 24 24" version="1.1" xmlns="http://www.w3.org/2000/svg" xmlns:xlink="http://www.w3.org/1999/xlink">
    <g id="🔶-Symbols" stroke="none" stroke-width="1" fill="none" fill-rule="evenodd">
        <g id="CMS/Manual">
            <path d="M20.6,6.4 L20.6,18 C20.6,19.76 19.16,21.2 17.4,21.2 L11.56,21.2 C10.696,21.2 9.88,20.856 9.28,20.248 L3,13.864 C3,13.864 4.008,12.88 4.04,12.864 C4.216,12.712 4.432,12.632 4.672,12.632 C4.848,12.632 5.008,12.68 5.152,12.76 C5.184,12.768 8.6,14.728 8.6,14.728 L8.6,5.2 C8.6,4.536 9.136,4 9.8,4 C10.464,4 11,4.536 11,5.2 L11,10.8 L11.8,10.8 L11.8,3.2 C11.8,2.536 12.336,2 13,2 C13.664,2 14.2,2.536 14.2,3.2 L14.2,10.8 L15,10.8 L15,4 C15,3.336 15.536,2.8 16.2,2.8 C16.864,2.8 17.4,3.336 17.4,4 L17.4,10.8 L18.2,10.8 L18.2,6.4 C18.2,5.736 18.736,5.2 19.4,5.2 C20.064,5.2 20.6,5.736 20.6,6.4 Z" transform="translate(11.800000, 11.600000) rotate(-270.000000) translate(-11.800000, -11.600000)"></path>
        </g>
    </g>
</svg>