<svg viewBox="0 0 20 20" fill="none" xmlns="http://www.w3.org/2000/svg">
<path d="M10 0C4.48 0 0 4.48 0 10C0 15.52 4.48 20 10 20C15.52 20 20 15.52 20 10C20 4.48 15.52 0 10 0ZM10.88 15.76V17H9.13V15.71C8.39 15.53 6.74 14.94 6.11 12.75L7.76 12.08C7.82 12.3 8.34 14.17 10.16 14.17C11.09 14.17 12.14 13.69 12.14 12.56C12.14 11.6 11.44 11.1 9.86 10.53C8.76 10.14 6.51 9.5 6.51 7.22C6.51 7.12 6.52 4.82 9.13 4.26V3H10.88V4.24C12.72 4.56 13.39 6.03 13.54 6.47L11.96 7.14C11.85 6.79 11.37 5.8 10.06 5.8C9.36 5.8 8.25 6.17 8.25 7.19C8.25 8.14 9.11 8.5 10.89 9.09C13.29 9.92 13.9 11.14 13.9 12.54C13.9 15.17 11.4 15.67 10.88 15.76Z" fill="black"/>
</svg>
