<svg viewBox="0 0 24 24" fill="none" xmlns="http://www.w3.org/2000/svg">
<path fill-rule="evenodd" clip-rule="evenodd" d="M13.0506 19.851C12.8372 20.4623 12.3659 20.9433 11.767 21.1612C11.2381 21.3535 10.656 21.3236 10.1487 21.0779C9.64146 20.8321 9.25061 20.3908 9.06216 19.851H13.0506ZM11.0564 4.00488C14.1742 4.00488 16.7017 6.58471 16.7017 9.7671V12.6396C16.7223 14.2885 17.1743 15.9018 18.0107 17.3127C18.1426 17.5351 18.1469 17.8128 18.0219 18.0393C17.8969 18.2658 17.662 18.4061 17.4073 18.4061H4.70539C4.4507 18.4061 4.21581 18.2658 4.09082 18.0393C3.96583 17.8128 3.97012 17.5351 4.10205 17.3127C4.93915 15.9006 5.39109 14.2856 5.41106 12.6352V9.7671C5.41106 6.58471 7.93854 4.00488 11.0564 4.00488Z" fill="black"/>
<path d="M16.5427 8.91465C18.4521 8.91465 20 7.36676 20 5.45733C20 3.5479 18.4521 2 16.5427 2C14.6332 2 13.0853 3.5479 13.0853 5.45733C13.0853 7.36676 14.6332 8.91465 16.5427 8.91465Z" fill="#D40000"/>
</svg>
