<?xml version="1.0" encoding="UTF-8"?>
<svg viewBox="0 0 18 22" version="1.1" xmlns="http://www.w3.org/2000/svg" xmlns:xlink="http://www.w3.org/1999/xlink">
    <g stroke="none" stroke-width="1" fill="none" fill-rule="evenodd">
        <g transform="translate(-934.000000, -1724.000000)" fill="#121212">
            <g transform="translate(931.000000, 1723.000000)">
                <path d="M14.3088582,20.8 C14.0422027,21.5638484 13.4533242,22.1649222 12.7049737,22.4371 C12.0441088,22.6774792 11.3167574,22.640042 10.6829356,22.3330245 C10.0491139,22.026007 9.56074357,21.4745597 9.32526532,20.8 L9.32526532,20.8 Z M11.8170618,1 C15.712833,1 18.8709795,4.2235498 18.8709795,8.2 L18.8709795,8.2 L18.8709795,11.7892 C18.8968209,13.8495721 19.4615009,15.8654834 20.5066067,17.6284 C20.671461,17.9062637 20.6768255,18.2532417 20.520643,18.5362766 C20.3644606,18.8193114 20.0709707,18.9946 19.7527193,18.9946 L19.7527193,18.9946 L3.88140429,18.9946 C3.56315289,18.9946 3.26966292,18.8193114 3.1134805,18.5362766 C2.95729808,18.2532417 2.96266257,17.9062637 3.12751683,17.6284 C4.17348903,15.8638914 4.7382004,13.8460037 4.76314401,11.7838 L4.76314401,11.7838 L4.76314401,8.2 C4.76314401,4.2235498 7.92129057,1 11.8170618,1 Z"></path>
            </g>
        </g>
    </g>
</svg>