<?xml version="1.0" encoding="UTF-8"?>
<svg viewBox="0 0 24 24" version="1.1" xmlns="http://www.w3.org/2000/svg" xmlns:xlink="http://www.w3.org/1999/xlink">
    <g id="🔶-Symbols" stroke="none" stroke-width="1" fill="none" fill-rule="evenodd">
        <g id="CMS/Others">
            <path d="M15.2666667,16.6666667 C16.5553311,16.6666667 17.6,17.7113356 17.6,19 C17.6,20.2886644 16.5553311,21.3333333 15.2666667,21.3333333 C13.9780023,21.3333333 12.9333333,20.2886644 12.9333333,19 C12.9333333,17.7113356 13.9780023,16.6666667 15.2666667,16.6666667 Z M6.4,11.0666667 C8.46186307,11.0666667 10.1333333,12.7381369 10.1333333,14.8 C10.1333333,16.8618631 8.46186307,18.5333333 6.4,18.5333333 C4.33813693,18.5333333 2.66666667,16.8618631 2.66666667,14.8 C2.66666667,12.7381369 4.33813693,11.0666667 6.4,11.0666667 Z M15.7333333,2.66666667 C18.8261279,2.66666667 21.3333333,5.17387207 21.3333333,8.26666667 C21.3333333,11.3594613 18.8261279,13.8666667 15.7333333,13.8666667 C12.6405387,13.8666667 10.1333333,11.3594613 10.1333333,8.26666667 C10.1333333,5.17387207 12.6405387,2.66666667 15.7333333,2.66666667 Z"></path>
        </g>
    </g>
</svg>