<?xml version="1.0" encoding="UTF-8"?>
<svg width="16px" height="16px" viewBox="0 0 20 20" version="1.1" xmlns="http://www.w3.org/2000/svg" xmlns:xlink="http://www.w3.org/1999/xlink">
    <g id="Components" stroke="none" stroke-width="1" fill="none" fill-rule="evenodd">
        <g id="Assets" transform="translate(-329.000000, -456.000000)" fill="#D21E75">
            <g id="Combined-Shape" transform="translate(329.000000, 456.000000)">
                <path d="M9.6,-1.82964754e-13 C14.9167121,-1.82964754e-13 19.2,4.28328791 19.2,9.6 C19.2,14.9167121 14.9167121,19.2 9.6,19.2 C4.28328791,19.2 -1.82964754e-13,14.9167121 -1.82964754e-13,9.6 C-1.82964754e-13,4.28328791 4.28328791,-1.82964754e-13 9.6,-1.82964754e-13 Z M8.10229564,6.07563133 C7.92789065,5.97478956 7.6749591,5.97478956 7.50055412,6.07563133 C7.32677925,6.17647982 7.2,6.39453784 7.2,6.62895692 L7.2,6.62895692 L7.20061903,12.5628575 C7.20061903,12.7979471 7.32676817,13.0153413 7.50117315,13.1161831 C7.595785,13.1829751 7.70648847,13.2 7.80172727,13.2 C7.89633912,13.2 8.00704259,13.1829751 8.10228139,13.1161831 L8.10228139,13.1161831 L12.8994459,10.1492328 C13.0732208,10.0483843 13.2,9.8303263 13.2,9.59590722 C13.2,9.36081761 13.0893029,9.14342341 12.9148979,9.04258163 L12.9148979,9.04258163 Z"></path>
            </g>
        </g>
    </g>
</svg>