<?xml version="1.0" encoding="UTF-8"?>
<svg viewBox="0 0 24 24" version="1.1" xmlns="http://www.w3.org/2000/svg" xmlns:xlink="http://www.w3.org/1999/xlink">
    <g id="🔶-Symbols" stroke="none" stroke-width="1" fill="none" fill-rule="evenodd">
        <g id="CMS/Policies">
            <path d="M16.4653333,12.4086667 L20.116,14.0313333 L20.116,16.4646667 C20.116,18.7166667 18.5586667,20.822 16.4653333,21.3326667 C14.4417778,20.8390222 12.9178385,18.8552504 12.818491,16.6893241 L12.8133333,16.4646667 L12.8133333,14.0313333 L16.4653333,12.4086667 Z M18.328,15.078 L15.76,17.6446667 L14.7106667,16.5953333 L13.9213333,17.3846667 L15.7986667,19.262 L16.588,18.4726667 L16.5853333,18.47 L19.152,15.902 L18.3626667,15.114 L18.328,15.078 Z M14.934,2.6672 C15.7926667,2.6672 16.4953333,3.36986667 16.4953333,4.22853333 L16.4953333,4.22853333 L16.4953333,11.2005333 L16.4646667,11.1872 L16.0113333,11.3885333 L12.3606667,13.0112 L11.698,13.3058667 L11.698,16.4645333 C11.698,17.0898667 11.8086667,17.7018667 11.9926667,18.2858667 L11.9926667,18.2858667 L5.562,18.2858667 C4.702,18.2858667 4.00066667,17.5832 4.00066667,16.7232 L4.00066667,16.7232 L4.00066667,4.22853333 C4.00066667,3.36986667 4.702,2.6672 5.562,2.6672 L5.562,2.6672 Z"></path>
        </g>
    </g>
</svg>