<svg width="16" height="16" viewBox="0 0 32 32" fill="none" xmlns="http://www.w3.org/2000/svg">
<path fill-rule="evenodd" clip-rule="evenodd" d="M0 15.9056C0 24.7801 7.17761 32 16 32C21.2246 32 26.1317 29.4245 29.1261 25.1106L25.3177 22.4355C23.1913 25.4987 19.7082 27.3275 16 27.3275C9.73887 27.3275 4.64512 22.2037 4.64512 15.9056C4.64512 13.1617 5.62644 10.5095 7.40822 8.43748C9.17277 6.3855 11.6032 5.02897 14.2517 4.61794L13.5432 0C9.8066 0.579993 6.38015 2.49089 3.89501 5.38076C1.3832 8.30153 0 12.0394 0 15.9056ZM31.3657 20.4055L26.9052 19.1015C27.2037 18.0686 27.3549 16.9935 27.3549 15.9057C27.3549 10.3775 23.4377 5.65105 18.0404 4.66726L18.8687 0.0696737C26.4775 1.4565 32 8.11648 32 15.9057C32 17.4348 31.7868 18.9488 31.3657 20.4055ZM18.5767 11.3005H20.8518V8.35835H16.9328C15.9545 8.35835 15.1612 9.15629 15.1612 10.1405V15.5762C15.0221 15.5597 14.8808 15.5502 14.7373 15.5502C12.6794 15.5502 11.026 17.2925 11.1555 19.3907C11.2663 21.1884 12.721 22.6517 14.5083 22.7632C16.5941 22.8934 18.3262 21.2303 18.3262 19.1603L18.3235 11.5552C18.3235 11.4145 18.4368 11.3005 18.5767 11.3005Z" fill="white"/>
</svg>
