<?xml version="1.0" encoding="UTF-8"?>
<svg viewBox="0 0 24 24" version="1.1" xmlns="http://www.w3.org/2000/svg" xmlns:xlink="http://www.w3.org/1999/xlink">
    <g id="🔶-Symbols" stroke="none" stroke-width="1" fill="none" fill-rule="evenodd">
        <g id="CMS/Process_Management">
            <path d="M6.81481481,13.037037 C9.10562963,13.037037 10.962963,14.8943704 10.962963,17.1851852 C10.962963,19.476 9.10562963,21.3333333 6.81481481,21.3333333 C4.524,21.3333333 2.66666667,19.476 2.66666667,17.1851852 C2.66666667,14.8943704 4.524,13.037037 6.81481481,13.037037 Z M19.8251098,13.037037 L21.3333333,14.5454545 L18.6934088,17.1857186 L21.3333333,19.8249158 L19.8251098,21.3333333 L17.1851852,18.6941361 L14.5452606,21.3333333 L13.037037,19.8249158 L15.6769616,17.1857186 L13.037037,14.5454545 L14.5452606,13.037037 L17.1851852,15.6773011 L19.8251098,13.037037 Z M6.81481481,15.1111111 C5.67096296,15.1111111 4.74074074,16.0413333 4.74074074,17.1851852 C4.74074074,18.329037 5.67096296,19.2592593 6.81481481,19.2592593 C7.95866667,19.2592593 8.88888889,18.329037 8.88888889,17.1851852 C8.88888889,16.0413333 7.95866667,15.1111111 6.81481481,15.1111111 Z M9.45473939,2.66666667 L10.962963,4.17508418 L8.32303839,6.8153482 L10.962963,9.45454545 L9.45473939,10.962963 L6.81481481,8.32376571 L4.17489024,10.962963 L2.66666667,9.45454545 L5.30659124,6.8153482 L2.66666667,4.17508418 L4.17489024,2.66666667 L6.81481481,5.30693069 L9.45473939,2.66666667 Z M21.3333333,2.66666667 L21.3333333,8.57877209 L19.1834768,8.57877209 L19.1834768,6.33754667 L14.5580605,10.962963 L13.037037,9.44301441 L17.6624533,4.81652318 L15.4212279,4.81652318 L15.4212279,2.66666667 L21.3333333,2.66666667 Z"></path>
        </g>
    </g>
</svg>