<?xml version="1.0" encoding="UTF-8"?>
<svg viewBox="0 0 24 24" version="1.1" xmlns="http://www.w3.org/2000/svg" xmlns:xlink="http://www.w3.org/1999/xlink">
    <g id="🔶-Symbols" stroke="none" stroke-width="1" fill="none" fill-rule="evenodd">
        <g id="Process">
            <path d="M9.37752143,2.05154528 C9.89807027,1.85410042 10.0814227,2.2387175 10.4237724,2.95153414 C10.7661221,3.66563076 11.2302473,4.2258707 12.0072466,4.26561239 C12.0226343,4.26561239 12.0277613,4.27202213 12.0418656,4.27458536 C12.1816152,4.2733021 12.320088,4.2771486 12.4572806,4.28612486 C13.2278793,4.28612486 13.7215128,3.75280056 14.0997387,3.06433633 C14.4830851,2.37203873 14.6869522,1.99640448 15.19598,2.22460492 C15.7011674,2.45151225 15.3588177,2.29510218 16.1781265,2.66304672 C16.1794099,2.66304672 16.1806901,2.66304672 16.1806901,2.6643267 C16.1883839,2.66688994 16.1935109,2.66945646 16.2012048,2.6720197 C17.0192368,3.03997736 16.6768838,2.88613381 17.1820712,3.11305427 C17.6885388,3.34125143 17.5462092,3.74254105 17.2846449,4.48866994 C17.0230805,5.23483166 16.9538556,5.96044808 17.4744044,6.5360773 C17.4820983,6.54505028 17.4820983,6.5514633 17.4885087,6.55915302 C17.5859553,6.6565889 17.6769882,6.75786801 17.7693044,6.86171363 C17.7693044,6.86171363 17.7705878,6.86171363 17.7718679,6.86299689 C18.3142116,7.41555369 19.0437809,7.38863148 19.8028257,7.16812075 C20.5631507,6.94890969 20.973455,6.82839481 21.1721918,7.34760653 C21.368375,7.86681825 21.2350293,7.51426627 21.555571,8.35271771 C21.5568544,8.35528094 21.5581378,8.35912744 21.5594179,8.36169068 C21.5619847,8.36810042 21.5632649,8.37066694 21.5658284,8.37579342 C21.8838165,9.21552155 21.7517541,8.86553281 21.9492076,9.38090459 C22.145394,9.90139629 21.7581744,10.0834486 21.0478398,10.4283207 C20.3349449,10.7706328 19.7746467,11.2321471 19.7336172,12.0077811 C19.7323371,12.0244471 19.7272068,12.0308601 19.7246433,12.0462428 C19.7246433,12.1847004 19.7195162,12.3205947 19.7118224,12.4577723 C19.7105423,13.2295664 20.2439251,13.7218657 20.9337451,14.1013301 C21.6261187,14.4846343 22.0005141,14.6884791 21.7735687,15.197451 C21.5466364,15.7038629 21.7005034,15.3602708 21.3350787,16.1794897 C21.3337953,16.182053 21.3337953,16.1846195 21.3312318,16.1884627 C21.3299484,16.1923092 21.3286683,16.1961557 21.3261015,16.2025654 C20.95682,17.0217909 21.1106805,16.6769123 20.8850185,17.1820442 C20.6567963,17.6897361 20.2554626,17.544859 19.5092518,17.2846066 C18.7630082,17.0230709 18.0385922,16.9551336 17.4616196,17.4730653 C17.4513623,17.4820416 17.4462352,17.4807583 17.4385414,17.4884513 C17.3410981,17.5858872 17.2385245,17.6781933 17.1346674,17.7704995 C16.5807699,18.3153764 16.6089752,19.0435528 16.8295101,19.8025136 C17.048778,20.5627551 17.1692733,20.9730144 16.6487245,21.1717294 C16.1307359,21.3666077 16.4820464,21.2358399 15.643503,21.5550665 C15.6409394,21.5563488 15.6383759,21.5576307 15.634529,21.5589127 C15.6293987,21.5614766 15.6268352,21.5627588 15.6217081,21.5640408 C14.7831679,21.8845572 15.1319149,21.7499429 14.6164866,21.9486579 C14.0959377,22.1461027 13.9138655,21.7589257 13.5702356,21.047389 C13.2278859,20.3358524 12.7637607,19.7743357 11.9893217,19.7333108 C11.973934,19.7333108 11.9688036,19.7269007 11.9534192,19.7243365 C11.8136762,19.7256184 11.6739201,19.7204906 11.5341639,19.7115164 C10.7674055,19.7141091 10.2750521,20.2461206 9.89682626,20.9333049 C9.5134799,21.6256025 9.31089289,22 8.80186512,21.7743163 C8.2966777,21.5474089 8.63902743,21.702539 7.82099867,21.3358745 C7.81843187,21.3345925 7.81586835,21.3345925 7.81330483,21.3333106 L7.81330483,21.3333106 L7.79791714,21.3256182 C6.97860497,20.9576901 7.32223811,21.1102504 6.81577057,20.8858965 C6.30930632,20.6576993 6.45291596,20.2564097 6.71448035,19.5090021 C6.97604474,18.7654332 7.04398951,18.0397839 6.5260009,17.4628747 C6.51959046,17.4551817 6.51959046,17.450052 6.51318002,17.4423623 C6.4106064,17.3410799 6.31700673,17.234671 6.22212695,17.1269822 C5.67591008,16.5834016 4.95277423,16.6128904 4.19628964,16.8308346 C3.43596469,17.0500752 3.02566034,17.17187 2.82692353,16.6487856 C2.629457,16.1334138 2.76280271,16.4859658 2.44482447,15.6462343 C2.44097755,15.6385413 2.43841403,15.6321316 2.43585051,15.6231553 C2.1152989,14.7847072 2.24992474,15.1346959 2.05247133,14.6193241 C1.85244455,14.0988325 2.23966409,13.9155002 2.95255899,13.573188 C3.6654539,13.2308759 4.22831559,12.7680817 4.26678152,11.9911677 C4.26678152,11.9783482 4.27190856,11.9732217 4.27319196,11.9616822 C4.27319196,11.8180982 4.27703888,11.6732276 4.28601284,11.5296403 C4.27957942,10.766806 3.75131705,10.2770666 3.06537029,9.89888228 C2.37299667,9.51685798 1.99732118,9.31301323 2.22554668,8.80276136 C2.44991541,8.29890939 2.2973318,8.64122154 2.66403662,7.82328257 C2.66788354,7.81302634 2.67044706,7.80789658 2.67429398,7.80020686 C3.03969898,6.98098464 2.88711866,7.32458005 3.11406404,6.81944809 C3.34100613,6.3104762 3.74361992,6.45407008 4.48983074,6.71688573 C5.23476144,6.97713814 5.95921023,7.04763541 6.53746289,6.52586373 C6.54515673,6.52073397 6.54772025,6.52073397 6.5554141,6.51432424 C6.65670432,6.41560509 6.76056135,6.32073572 6.86826201,6.22586636 C7.41574915,5.67970945 7.38754386,4.95409303 7.16700893,4.19769149 C6.94902438,3.43872999 6.82724897,3.02847068 7.34907793,2.82975569 C7.86711249,2.63358424 7.51580192,2.76691532 8.34922494,2.44384223 C9.22366099,2.11051947 8.85437953,2.25154354 9.37752143,2.05154528 Z M16.8127506,10.747288 L15.5466612,11.1022664 L15.6018627,11.3247892 C15.8263403,12.3655977 15.5881629,13.4338167 14.9359669,14.2878683 C14.3469659,15.056988 13.4937031,15.5513282 12.5332895,15.6788574 C11.9179937,15.760371 11.3119011,15.6696543 10.7491947,15.450751 L10.7491947,15.450751 L11.5077965,15.2239593 L11.1298103,13.9644435 L8.22096007,14.8354552 L9.09197173,17.7456202 L10.3514875,17.3682914 L10.1266678,16.6182353 L10.389059,16.7223638 C10.9184332,16.9166532 11.4746464,17.025803 12.0448656,17.025803 C12.2644263,17.025803 12.4859591,17.0113409 12.7074918,16.9817594 C14.0156527,16.8075571 15.1778781,16.134413 15.9792088,15.0865695 C16.9330488,13.8402011 17.2367525,12.2585754 16.8127506,10.747288 L16.8127506,10.747288 Z M14.9076344,6.2543798 L13.6481187,6.63105126 L13.8683367,7.36795999 L13.5975276,7.26180284 C12.8681078,7.00018328 12.082708,6.9112358 11.2921143,7.01758322 C9.98329604,7.19178556 8.82172803,7.86492966 8.01973994,8.91343049 C7.06721474,10.1584841 6.76351105,11.7394525 7.18685558,13.2520546 L7.18685558,13.2520546 L8.45228762,12.8977336 L8.39732353,12.6750881 C8.17383852,11.6337478 8.4114432,10.5655698 9.0636392,9.71213175 C9.65264029,8.94301202 10.5052457,8.44867182 11.4656593,8.32048519 C12.0809551,8.23897165 12.6877051,8.32968834 13.2497541,8.54859164 L13.2497541,8.54859164 L12.4918096,8.77604073 L12.8691384,10.0355565 L15.7786461,9.16388743 L14.9076344,6.2543798 Z"></path>
        </g>
    </g>
</svg>