<svg viewBox="0 0 16 16" fill="none" xmlns="http://www.w3.org/2000/svg">
<path d="M15.9999 11.8668V7.91121H14.7159V10.5483H5.72829V1.31853H8.29619V0H4.44434V11.8668H15.9999Z" fill="black"/>
<path d="M12.79 0C14.5619 0 15.9999 1.47676 15.9999 3.29634V6.59267H14.7159V3.29634C14.7159 2.20855 13.8493 1.31853 12.79 1.31853H9.58014V0H12.79Z" fill="black"/>
<path d="M11.5556 16V12.7796H10.2716V14.6815H1.28395V5.45171H3.5V4.13318H0V16H11.5556Z" fill="black"/>
<path d="M8.34568 4.13318C10.1175 4.13318 11.5556 5.60994 11.5556 7.42951V9.58472H10.2716V7.42951C10.2716 6.34172 9.40494 5.45171 8.34568 5.45171H6.62862V4.13318H8.34568Z" fill="black"/>
</svg>
