<svg viewBox="0 0 24 24" fill="none" xmlns="http://www.w3.org/2000/svg">
<path d="M12.2716 16.6815H13.5556V18H12.2716V16.6815ZM12.2716 16.6815H13.5556V14.7796H12.2716V16.6815ZM2 14.0444H3.28395V11.4073H2V14.0444ZM2 16.6815H3.28395V14.0444H2L2 16.6815ZM2 11.4073H3.28395V7.45171H2L2 11.4073ZM2 7.45171H3.28395V6.13318H2L2 7.45171ZM3.28395 7.45171H5.85185V6.13318H3.28395V7.45171ZM9.7037 18H12.2716V16.6815H9.7037V18ZM7.1358 18H9.7037V16.6815H7.1358V18ZM9.7037 18H12.2716V16.6815H9.7037V18ZM3.28395 18H7.1358V16.6815H3.28395V18ZM2 18H3.28395V16.6815H2L2 18ZM13.5556 9.42952C13.5556 7.60994 12.1175 6.13318 10.3457 6.13318L8.4 6.13318V7.45171H10.3457C11.4049 7.45171 12.2716 8.34172 12.2716 9.42952V11.5847H13.5556V9.42952Z" fill="black"/>
<path d="M16.7159 12.5483H17.9999V13.8668H16.7159V12.5483ZM16.7159 12.5483H17.9999V9.91121H16.7159V12.5483ZM6.44434 9.91121H7.72829V7.27414H6.44434V9.91121ZM6.44434 12.5483H7.72829V9.91121H6.44434L6.44434 12.5483ZM6.44434 7.27414H7.72829V3.31853H6.44434L6.44434 7.27414ZM6.44434 3.31853H7.72829V2H6.44434L6.44434 3.31853ZM7.72829 3.31853H10.2962V2H7.72829V3.31853ZM14.148 13.8668H16.7159V12.5483H14.148V13.8668ZM11.5801 13.8668H14.148V12.5483H11.5801V13.8668ZM14.148 13.8668H16.7159V12.5483H14.148V13.8668ZM7.72829 13.8668H11.5801V12.5483H7.72829V13.8668ZM6.44434 13.8668H7.72829V12.5483H6.44434L6.44434 13.8668ZM17.9999 5.29634C17.9999 3.47676 16.5619 2 14.79 2H11.5801V3.31853H14.79C15.8493 3.31853 16.7159 4.20855 16.7159 5.29634V8.59267H17.9999V5.29634Z" fill="black"/>
</svg>
