<svg viewBox="0 0 32 32" fill="none" xmlns="http://www.w3.org/2000/svg">
<circle opacity="0.01" cx="16" cy="16" r="16" fill="black"/>
<path fill-rule="evenodd" clip-rule="evenodd" d="M18.8143 10.3855H21.1034V7.61209H18.8143V10.3855ZM18.8143 15.1644H21.1034V12.391H18.8143V15.1644ZM18.8143 19.9446H21.1034V17.1713H18.8143V19.9446ZM14.6452 10.3855H16.9336V7.61209H14.6452V10.3855ZM14.6452 15.1644H16.9336V12.391H14.6452V15.1644ZM14.6452 19.9446H16.9336V17.1713H14.6452V19.9446ZM10.4754 10.3855H12.7638V7.61209H10.4754V10.3855ZM10.4754 15.1644H12.7638V12.391H10.4754V15.1644ZM10.4754 19.9446H12.7638V17.1713H10.4754V19.9446ZM8 5V27.43H13.4622V22.4487H18.1159V27.43H23.5795V5H8Z" fill="black"/>
</svg>
