<?xml version="1.0" encoding="UTF-8"?>
<svg viewBox="0 0 24 24" version="1.1" xmlns="http://www.w3.org/2000/svg" xmlns:xlink="http://www.w3.org/1999/xlink">
    <g id="🔶-Symbols" stroke="none" stroke-width="1" fill="none" fill-rule="evenodd">
        <g id="Publisher">
            <path d="M20.1805635,18.8871027 L20.1805635,6.04761973 C20.2057834,5.61456929 19.9806745,5.20671668 19.6061282,5.01101191 L18.9345389,4.75040289 L17.3391616,4.10517981 L15.5168126,3.3611495 L13.8793982,2.70722127 L12.2391861,2.0426286 L12.1934163,2.03003464 L12.1504491,2.01743821 C12.0551745,1.99418726 11.956165,1.99418726 11.8618326,2.01743821 L11.8188653,2.03003464 L11.7609531,2.0426286 L4.38652655,5.01874982 C4.0175661,5.21444468 3.79525727,5.61843825 3.81955175,6.04759493 L3.81955175,18.8870779 L3.01905345,18.8870779 C2.4558089,18.8870779 2,19.3598348 2,19.9440226 C2,20.5272431 2.4558089,21 3.01905345,21 L20.980947,21 C21.5441892,21 22,20.5272431 22,19.9440226 C22,19.3598348 21.5441916,18.8870779 20.980947,18.8870779 L20.1805635,18.8871027 Z M11.1939257,17.0764306 L5.43355165,17.2324066 L5.43355165,15.744346 L11.1939257,15.2754581 L11.1939257,17.0764306 Z M11.1939257,13.4802841 L5.43355165,14.2620863 L5.43355165,12.7740257 L11.1939257,11.6802516 L11.1939257,13.4802841 Z M11.1939257,9.88413761 L5.43355165,11.2927606 L5.43355165,9.80469997 L11.1939257,8.08799885 L11.1939257,9.88413761 Z M11.1939257,6.28799113 L5.43355165,8.3224428 L5.43355165,6.86344897 L11.1939257,4.53738702 L11.1939257,6.28799113 Z"></path>
        </g>
    </g>
</svg>