<?xml version="1.0" encoding="UTF-8"?>
<svg viewBox="0 0 24 24" version="1.1" xmlns="http://www.w3.org/2000/svg" xmlns:xlink="http://www.w3.org/1999/xlink">
    <g id="🔶-Symbols" stroke="none" stroke-width="1" fill="none" fill-rule="evenodd">
        <g id="Record_Label">
            <path d="M12,2 C17.5095036,2 22,6.49049636 22,12 C22,17.5104639 17.5095036,22 12,22 C6.48953615,22 2,17.5095039 2,12 C2,6.49049636 6.49049612,2 12,2 Z M11.9999999,7.00048004 C9.24008816,7.00048004 7.0004798,9.2400884 7.0004798,12.0000001 C7.0004798,14.7599118 9.24008816,16.9995202 11.9999999,16.9995202 C14.7599116,16.9995202 16.99952,14.7599118 16.99952,12.0000001 C16.99952,9.2400884 14.7599116,7.00048004 11.9999999,7.00048004 Z M11.9999999,9.00009608 C13.6499471,9.00009608 14.9999039,10.3500529 14.9999039,12.0000001 C14.9999039,13.6499473 13.6499471,14.9999042 11.9999999,14.9999042 C10.3500527,14.9999042 9.00009584,13.6499473 9.00009584,12.0000001 C9.00009584,10.3500529 10.3500527,9.00009608 11.9999999,9.00009608 Z" id="Record-label"></path>
        </g>
    </g>
</svg>