<svg viewBox="0 0 20 20" fill="none" xmlns="http://www.w3.org/2000/svg">
<path d="M10.0001 11.6666C11.3834 11.6666 12.4917 10.55 12.4917 9.16663L12.5001 4.16663C12.5001 2.78329 11.3834 1.66663 10.0001 1.66663C8.61675 1.66663 7.50008 2.78329 7.50008 4.16663V9.16663C7.50008 10.55 8.61675 11.6666 10.0001 11.6666ZM14.4167 9.16663C14.4167 11.6666 12.3001 13.4166 10.0001 13.4166C7.70008 13.4166 5.58341 11.6666 5.58341 9.16663H4.16675C4.16675 12.0083 6.43341 14.3583 9.16675 14.7666V17.5H10.8334V14.7666C13.5667 14.3666 15.8334 12.0166 15.8334 9.16663H14.4167Z" fill="black"/>
</svg>
