<svg viewBox="0 0 24 24" fill="none" xmlns="http://www.w3.org/2000/svg">
<path fill-rule="evenodd" clip-rule="evenodd" d="M6.39734 15.2045C7.72215 15.2045 8.7956 16.278 8.7956 17.6027C8.7956 18.9266 7.72208 20 6.39734 20C5.07343 20 4 18.9265 4 17.6027C4 16.2779 5.07352 15.2045 6.39734 15.2045ZM17.6027 15.2045C18.9266 15.2045 20 16.278 20 17.6027C20 18.9266 18.9265 20 17.6027 20C16.2779 20 15.2044 18.9265 15.2044 17.6027C15.2044 16.2779 16.2779 15.2045 17.6027 15.2045ZM12.8068 9.9015L12.8069 12.8304L15.3195 14.836C14.9044 15.1818 14.5819 15.6195 14.3514 16.1041L11.9999 14.2362L9.64848 16.0806C9.41792 15.5961 9.09551 15.1584 8.68032 14.8126L11.1929 12.8069V9.9015C11.4469 9.96994 11.7234 9.99336 11.9999 9.99336C12.2764 9.99336 12.5529 9.97084 12.8068 9.9015ZM11.9999 4C13.3237 4 14.3972 5.07351 14.3972 6.3973C14.3972 7.72209 13.3237 8.79553 11.9999 8.79553C10.6761 8.79553 9.60255 7.72202 9.60255 6.3973C9.60255 5.07341 10.6761 4 11.9999 4Z" fill="black"/>
</svg>
