<svg xmlns="http://www.w3.org/2000/svg" xmlns:xlink="http://www.w3.org/1999/xlink" width="11px" height="13px" viewBox="0 0 11 13" version="1.1">
    <g id="🔶-Symbols" stroke="none" stroke-width="1" fill-rule="evenodd">
        <g id="Restart" transform="translate(-6.000000, -5.000000)">
            <g transform="translate(11.800000, 11.400000) scale(-1, 1) translate(-11.800000, -11.400000) translate(6.800000, 5.400000)">
                <path d="M4.8,2.4 L4.8,0 L1.8,3 L4.8,6 L4.8,3.6 C6.786,3.6 8.4,5.214 8.4,7.2 C8.4,9.186 6.786,10.8 4.8,10.8 C2.814,10.8 1.2,9.186 1.2,7.2 L0,7.2 C0,9.852 2.148,12 4.8,12 C7.452,12 9.6,9.852 9.6,7.2 C9.6,4.548 7.452,2.4 4.8,2.4 Z" id="Path" />
            </g>
        </g>
    </g>
</svg>