<?xml version="1.0" encoding="UTF-8"?>
<svg viewBox="0 0 24 24" version="1.1" xmlns="http://www.w3.org/2000/svg" xmlns:xlink="http://www.w3.org/1999/xlink">
    <g id="🔶-Symbols" stroke="none" stroke-width="1" fill="none" fill-rule="evenodd">
        <g id="CMS/Result">
            <path d="M19.4767253,3.21977539 L4.54339193,3.21977539 C3.51672526,3.21977539 2.67672526,4.05977539 2.67672526,5.08644206 L2.67672526,18.1531087 C2.67672526,19.1797754 3.51672526,20.0197754 4.54339193,20.0197754 L19.4767253,20.0197754 C20.5033919,20.0197754 21.3433919,19.1797754 21.3433919,18.1531087 L21.3433919,5.08644206 C21.3433919,4.05977539 20.5033919,3.21977539 19.4767253,3.21977539 Z M10.1433919,16.2864421 L5.47672526,16.2864421 L5.47672526,14.4197754 L10.1433919,14.4197754 L10.1433919,16.2864421 Z M10.1433919,12.5531087 L5.47672526,12.5531087 L5.47672526,10.6864421 L10.1433919,10.6864421 L10.1433919,12.5531087 Z M10.1433919,8.81977539 L5.47672526,8.81977539 L5.47672526,6.95310872 L10.1433919,6.95310872 L10.1433919,8.81977539 Z M14.6420586,14.4197754 L12.0100586,11.7691087 L13.3260586,10.4531087 L14.6420586,11.7784421 L17.6007253,8.81977539 L18.9260586,10.1451087 L14.6420586,14.4197754 Z"></path>
        </g>
    </g>
</svg>