<svg width="16" height="16" viewBox="0 0 16 16" fill="none" xmlns="http://www.w3.org/2000/svg">
<path fill-rule="evenodd" clip-rule="evenodd" d="M4.06941 6.0002C5.08612 6.0088 5.95815 5.30257 6.12786 4.33386C6.29758 3.36514 5.71407 2.42065 4.75152 2.10574C3.78817 1.79091 2.73186 2.19871 2.25738 3.06821C1.78377 3.93694 2.03352 5.01032 2.84656 5.60012C2.42631 6.33447 2.20647 7.16022 2.20729 8.00003C2.20729 8.09788 2.2102 8.19562 2.21606 8.29318C2.23372 8.58721 2.48932 8.8 2.78388 8.8C3.17031 8.8 3.45469 8.43925 3.44906 8.05286C3.44881 8.03525 3.44868 8.01764 3.44868 8.00003C3.44949 7.29224 3.65719 6.59852 4.04835 6.0001L4.06941 6.0002ZM4.06941 3.2003C4.404 3.2003 4.70625 3.39483 4.83395 3.69405C4.96245 3.99325 4.89133 4.33698 4.65453 4.56589C4.41773 4.79481 4.06212 4.86354 3.75259 4.73933C3.44305 4.61589 3.2418 4.32372 3.2418 4.00029C3.2418 3.55813 3.61198 3.2003 4.06941 3.2003ZM4.06944 13.9999C4.89138 13.9983 5.6341 13.528 5.96222 12.7999C6.83263 13.0437 7.75399 13.0616 8.63243 12.8507C9.25469 12.7014 9.84051 12.4418 10.3607 12.0871C10.6922 11.8612 10.6574 11.3844 10.3273 11.1565C10.0955 10.9965 9.78812 11.0149 9.55118 11.1672C8.91075 11.5788 8.15576 11.8012 7.37967 11.8C6.94163 11.8 6.506 11.7273 6.09302 11.5859C5.92734 10.8313 5.32847 10.236 4.55261 10.0555C3.77755 9.87504 2.9637 10.1414 2.46109 10.7406C1.9592 11.3398 1.85817 12.1648 2.20166 12.861C2.54515 13.557 3.27177 13.9999 4.06944 13.9999ZM4.06944 11.2C4.40404 11.2 4.70629 11.3945 4.83399 11.6937C4.96249 11.9929 4.89137 12.3367 4.65457 12.5656C4.41777 12.7945 4.06216 12.8632 3.75262 12.739C3.44308 12.6156 3.24184 12.3234 3.24184 12C3.24184 11.5578 3.61201 11.2 4.06944 11.2ZM12.12 6.01189C12.9839 6.08377 13.7081 6.67203 13.9303 7.48216L13.9278 7.47996C14.1339 8.21421 13.8915 8.99701 13.3023 9.50089C12.7132 10.0048 11.8791 10.1423 11.151 9.85556C10.422 9.56807 9.92495 8.90715 9.86757 8.14858C9.81018 7.39078 10.203 6.66659 10.881 6.27988C10.5521 5.6549 10.0518 5.12992 9.43356 4.76276C8.98704 4.49723 8.49148 4.32199 7.97716 4.24502C7.64965 4.19601 7.37995 3.93201 7.37995 3.60085C7.37995 3.26926 7.64974 2.99704 7.97921 3.03452C8.77498 3.12506 9.54086 3.39378 10.2151 3.82217C11.0572 4.35727 11.7191 5.11816 12.12 6.01189ZM11.8225 8.79383C12.1547 8.83601 12.4804 8.68054 12.6477 8.40009C12.8756 8.01808 12.7407 7.52905 12.3454 7.30795C12.0553 7.14623 11.6932 7.16813 11.4273 7.36498C11.1614 7.56184 11.0443 7.89465 11.1315 8.20713C11.218 8.51962 11.4904 8.75087 11.8225 8.79383Z" fill="black"/>
</svg>
