<?xml version="1.0" encoding="UTF-8"?>
<svg viewBox="0 0 19 19" version="1.1" xmlns="http://www.w3.org/2000/svg" xmlns:xlink="http://www.w3.org/1999/xlink">
    <g stroke="none" stroke-width="1" fill="none" fill-rule="evenodd">
        <g transform="translate(-518.000000, -1516.000000)" fill="#121212">
            <g transform="translate(515.000000, 1513.000000)">
                <path d="M21.492093,14.8125 L19.4401889,13.2708333 C19.4829369,12.9791667 19.5256849,12.6666667 19.5256849,12.3541667 C19.5256849,12.0416667 19.5043109,11.7291667 19.4401889,11.4375 L21.470719,9.89583333 C21.641711,9.75 21.705833,9.5 21.577589,9.29166667 L19.6539289,6.0625 C19.5470589,5.85416667 19.2905708,5.79166667 19.0554568,5.85416667 L16.6829427,6.79166667 C16.1913406,6.41666667 15.6569906,6.10416667 15.0585185,5.875 L14.6951605,3.41666667 C14.6737865,3.16666667 14.4600465,3 14.2463065,3 L10.4203602,3 C10.1852462,3 9.97150616,3.16666667 9.95013216,3.39583333 L9.58677413,5.85416667 C9.00967609,6.10416667 8.45395205,6.39583333 7.96235001,6.77083333 L5.58983584,5.83333333 C5.37609582,5.75 5.1196078,5.83333333 4.99136379,6.04166667 L3.06770365,9.27083333 C2.96083365,9.47916667 2.98220765,9.72916667 3.17457366,9.875 L5.20510381,11.4166667 C5.16235581,11.7083333 5.14098181,12.0208333 5.14098181,12.3333333 C5.14098181,12.6458333 5.16235581,12.9583333 5.20510381,13.25 L3.17457366,14.7916667 C3.00358165,14.9375 2.93945964,15.1875 3.06770365,15.3958333 L4.99136379,18.625 C5.0982338,18.8333333 5.35472182,18.8958333 5.58983584,18.8333333 L7.96235001,17.8958333 C8.45395205,18.2708333 8.98830209,18.5833333 9.58677413,18.8125 L9.95013216,21.2708333 C9.99288016,21.5 10.1852462,21.6666667 10.4203602,21.6666667 L14.2463065,21.6666667 C14.4814205,21.6666667 14.6951605,21.5 14.7165345,21.2708333 L15.0798925,18.8125 C15.6569906,18.5625 16.2127146,18.2708333 16.6829427,17.8958333 L19.0768308,18.8333333 C19.2905708,18.9166667 19.5470589,18.8333333 19.6753029,18.625 L21.598963,15.3958333 C21.727207,15.2083333 21.663085,14.9583333 21.492093,14.8125 Z M12.3226463,15.1458333 C10.7409702,15.1458333 9.43715612,13.8958333 9.43715612,12.3333333 C9.43715612,10.7708333 10.7195962,9.52083333 12.3226463,9.52083333 C13.9256965,9.52083333 15.2081365,10.7708333 15.2081365,12.3333333 C15.2081365,13.8958333 13.9043224,15.1458333 12.3226463,15.1458333 Z"></path>
            </g>
        </g>
    </g>
</svg>