<?xml version="1.0" encoding="UTF-8"?>
<svg viewBox="0 0 24 24" version="1.1" xmlns="http://www.w3.org/2000/svg" xmlns:xlink="http://www.w3.org/1999/xlink">
    <g id="🔶-Symbols" stroke="none" stroke-width="1" fill="none" fill-rule="evenodd">
        <g id="Sight">
            <path d="M2.19130435,2.1 L20.7652174,19.9 L19.4086957,21.1 L15.8608696,17.7 C14.5043478,18.2 13.0434783,18.5 11.4782609,18.5 C6.26086957,18.5 1.77391304,15.4 0,11 C0.834782609,9.1 2.08695652,7.4 3.75652174,6.1 L3.75652174,6.1 L0.939130435,3.4 L2.19130435,2.1 Z M6.67826087,9 C6.46956522,9.6 6.26086957,10.3 6.26086957,11 C6.26086957,13.8 8.55652174,16 11.4782609,16 C12.2086957,16 12.9391304,15.8 13.5652174,15.6 L13.5652174,15.6 L11.8956522,14 L11.8956522,14 L11.4782609,14 C9.70434783,14 8.34782609,12.7 8.34782609,11 L8.34782609,11 L8.34782609,10.6 Z M11.5826087,3.5 C16.8,3.5 21.2869565,6.6 23.0608696,11 C22.226087,12.9 20.973913,14.6 19.3043478,15.9 L19.3043478,15.9 L16.2782609,13 C16.4869565,12.4 16.6956522,11.7 16.6956522,11 C16.6956522,8.2 14.4,6 11.4782609,6 C10.7478261,6 10.0173913,6.2 9.39130435,6.4 L9.39130435,6.4 L7.2,4.3 C8.55652174,3.8 10.0173913,3.5 11.5826087,3.5 Z M11.4782609,8 C13.2521739,8 14.6086957,9.3 14.6086957,11 L14.6086957,11 L14.6086957,11.4 L11.0608696,8 L11.0608696,8 Z"></path>
        </g>
    </g>
</svg>