<?xml version="1.0" encoding="UTF-8"?>
<svg viewBox="0 0 19 12" version="1.1" xmlns="http://www.w3.org/2000/svg" xmlns:xlink="http://www.w3.org/1999/xlink">
    <g stroke="none" stroke-width="1" fill="none" fill-rule="evenodd">
        <g transform="translate(-726.000000, -1519.000000)" fill="#121212">
            <g transform="translate(723.000000, 1513.000000)">
                <path d="M14,16 C14.5522847,16 15,16.4477153 15,17 C15,17.5522847 14.5522847,18 14,18 L4,18 C3.44771525,18 3,17.5522847 3,17 C3,16.4477153 3.44771525,16 4,16 L14,16 Z M18.0632449,6 C18.2991496,6.01386477 18.5310784,6.11091814 18.7113203,6.29116012 L18.7113203,6.29116012 L21.5397475,9.11958725 L21.6229361,9.21379459 C21.927961,9.60608579 21.9002314,10.1733168 21.5397475,10.5338008 L21.5397475,10.5338008 L21.4455401,10.6169894 C21.0532489,10.9220143 20.4860179,10.8942848 20.1255339,10.5338008 L20.1255339,10.5338008 L18.9992136,9.40790759 L19,16.8309076 L18.9932723,16.9475287 C18.9355072,17.4448674 18.5128358,17.8309076 18,17.8309076 L18,17.8309076 L17.8833789,17.8241799 C17.3860402,17.7664148 17,17.3437434 17,16.8309076 L17,16.8309076 L16.9992136,9.41590759 L15.8813203,10.5338008 C15.4907961,10.9243251 14.8576311,10.9243251 14.4671068,10.5338008 C14.0765825,10.1432765 14.0765825,9.51011154 14.4671068,9.11958725 L14.4671068,9.11958725 L17.2955339,6.29116012 C17.4757759,6.11091814 17.7077046,6.01386477 17.9436093,6 L17.9436093,6 Z M12,11 C12.5522847,11 13,11.4477153 13,12 C13,12.5522847 12.5522847,13 12,13 L4,13 C3.44771525,13 3,12.5522847 3,12 C3,11.4477153 3.44771525,11 4,11 L12,11 Z M12,6 C12.5522847,6 13,6.44771525 13,7 C13,7.55228475 12.5522847,8 12,8 L4,8 C3.44771525,8 3,7.55228475 3,7 C3,6.44771525 3.44771525,6 4,6 L12,6 Z"></path>
            </g>
        </g>
    </g>
</svg>