<?xml version="1.0" encoding="UTF-8"?>
<svg viewBox="0 0 19 12" version="1.1" xmlns="http://www.w3.org/2000/svg" xmlns:xlink="http://www.w3.org/1999/xlink">
    <g stroke="none" stroke-width="1" fill="none" fill-rule="evenodd">
        <g transform="translate(-830.000000, -1519.000000)" fill="#121212">
            <g transform="translate(827.000000, 1513.000000)">
                <path d="M12,16 C12.5522847,16 13,16.4477153 13,17 C13,17.5522847 12.5522847,18 12,18 L4,18 C3.44771525,18 3,17.5522847 3,17 C3,16.4477153 3.44771525,16 4,16 L12,16 Z M18,6 C18.5128358,6 18.9355072,6.38604019 18.9932723,6.88337887 L19,7 L18.9992136,14.423 L20.1255339,13.2971068 C20.4860179,12.9366228 21.0532489,12.9088933 21.4455401,13.2139182 L21.5397475,13.2971068 C21.9002314,13.6575907 21.927961,14.2248218 21.6229361,14.617113 L21.5397475,14.7113203 L18.7113203,17.5397475 C18.5310784,17.7199894 18.2991496,17.8170428 18.0632449,17.8309076 L17.9436093,17.8309076 C17.7077046,17.8170428 17.4757759,17.7199894 17.2955339,17.5397475 L14.4671068,14.7113203 C14.0765825,14.3207961 14.0765825,13.6876311 14.4671068,13.2971068 C14.8576311,12.9065825 15.4907961,12.9065825 15.8813203,13.2971068 L16.9992136,14.415 L17,7 C17,6.48716416 17.3860402,6.06449284 17.8833789,6.00672773 L18,6 Z M12,11 C12.5522847,11 13,11.4477153 13,12 C13,12.5522847 12.5522847,13 12,13 L4,13 C3.44771525,13 3,12.5522847 3,12 C3,11.4477153 3.44771525,11 4,11 L12,11 Z M14,6 C14.5522847,6 15,6.44771525 15,7 C15,7.55228475 14.5522847,8 14,8 L4,8 C3.44771525,8 3,7.55228475 3,7 C3,6.44771525 3.44771525,6 4,6 L14,6 Z"></path>
            </g>
        </g>
    </g>
</svg>