<svg viewBox="0 0 18 20" fill="none" xmlns="http://www.w3.org/2000/svg">
<path d="M15 11H6V13H15V11Z" fill="black"/>
<path d="M10 3H15V5H10V3Z" fill="black"/>
<path d="M15 7H10V9H15V7Z" fill="black"/>
<path d="M6.73084 4.91667C6.73084 5.23333 6.94597 5.43667 7.61493 5.63333C8.28389 5.83 9 6.15333 9 7.1C9 7.78333 8.54322 8.16 7.96857 8.28333V9H7.08448V8.27667C6.51866 8.14 6.03536 7.73 6 7H6.64833C6.68075 7.39333 6.91945 7.7 7.52652 7.7C8.1778 7.7 8.3222 7.33333 8.3222 7.10333C8.3222 6.79333 8.17485 6.5 7.43811 6.3C6.61591 6.07667 6.05305 5.69333 6.05305 4.92333C6.05305 4.28 6.51277 3.86 7.08448 3.72V3H7.96857V3.73C8.58448 3.9 8.89391 4.42667 8.91454 5H8.26326C8.24558 4.58333 8.05108 4.3 7.52652 4.3C7.02849 4.3 6.73084 4.55333 6.73084 4.91667Z" fill="black"/>
<path fill-rule="evenodd" clip-rule="evenodd" d="M3 0V14H0V17C0 18.66 1.34 20 3 20H15C16.66 20 18 18.66 18 17V0H3ZM16 17C16 17.55 15.55 18 15 18C14.45 18 14 17.55 14 17V14H5V2H16V17Z" fill="black"/>
</svg>
