<svg viewBox="0 0 24 24" xmlns="http://www.w3.org/2000/svg">
    <path fill-rule="evenodd" clip-rule="evenodd" d="M3.69193 10.9559C3.47257 11.1752 3.29855 11.4356 3.17983 11.7222C3.06111 12.0087 3 12.3159 3 12.6261C3 12.9363 3.06111 13.2434 3.17983 13.53C3.29855 13.8166 3.47257 14.0769 3.69193 14.2962L9.70375 20.3081C9.92306 20.5274 10.1834 20.7014 10.47 20.8202C10.7566 20.9389 11.0637 21 11.3739 21C11.6841 21 11.9913 20.9389 12.2778 20.8202C12.5644 20.7014 12.8248 20.5274 13.0441 20.3081L20.3085 13.0436C20.5278 12.8243 20.7017 12.5639 20.8204 12.2773C20.939 11.9908 21.0001 11.6836 21 11.3735V4.41699C21 4.04118 20.8507 3.68076 20.585 3.41503C20.3192 3.14929 19.9588 3 19.583 3H12.6256C12.3154 2.99994 12.0083 3.06098 11.7217 3.17963C11.4352 3.29827 11.1748 3.47221 10.9554 3.69149L3.69193 10.9559ZM15.3207 6.77864C14.2721 6.77864 13.4427 7.5646 13.4427 8.65663C13.4427 9.7496 14.2721 10.5573 15.3207 10.5573C16.391 10.5573 17.2214 9.7496 17.2214 8.65663C17.2214 7.5646 16.3901 6.77864 15.3207 6.77864Z" />
</svg>
