<svg viewBox="0 0 18 16" fill="none" xmlns="http://www.w3.org/2000/svg">
<path fill-rule="evenodd" clip-rule="evenodd" d="M16.3636 5.6C17.2636 5.6 18 6.32 18 7.2L17.9918 7.264L18 7.272V8.8C18 9.008 17.9591 9.2 17.8855 9.384L15.4145 15.024C15.1691 15.6 14.5882 16 13.9091 16H6.54545C5.64545 16 4.90909 15.28 4.90909 14.4V6.4C4.90909 5.96 5.08909 5.56 5.39182 5.272L10.7755 0L11.6427 0.84C11.8636 1.056 12.0027 1.36 12.0027 1.688L11.9782 1.944L11.2009 5.6H16.3636ZM3.27273 16H0V6.4H3.27273V16Z" fill="#0E0E17"/>
</svg>
