<svg xmlns="http://www.w3.org/2000/svg" viewBox="0 0 18 18">
    <path fill-rule="evenodd" d="M5.11111111,9.77777778 C6.82922222,9.77777778 8.22222222,11.1707778 8.22222222,12.8888889 C8.22222222,14.607 6.82922222,16 5.11111111,16 C3.393,16 2,14.607 2,12.8888889 C2,11.1707778 3.393,9.77777778 5.11111111,9.77777778 Z M14.8688323,9.77777778 L16,10.9090909 L14.0200566,12.8892889 L16,14.8686869 L14.8688323,16 L12.8888889,14.0206021 L10.9089455,16 L9.77777778,14.8686869 L11.7577212,12.8892889 L9.77777778,10.9090909 L10.9089455,9.77777778 L12.8888889,11.7579758 L14.8688323,9.77777778 Z M5.11111111,11.3333333 C4.25322222,11.3333333 3.55555556,12.031 3.55555556,12.8888889 C3.55555556,13.7467778 4.25322222,14.4444444 5.11111111,14.4444444 C5.969,14.4444444 6.66666667,13.7467778 6.66666667,12.8888889 C6.66666667,12.031 5.969,11.3333333 5.11111111,11.3333333 Z M7.09105454,2 L8.22222222,3.13131313 L6.24227879,5.11151115 L8.22222222,7.09090909 L7.09105454,8.22222222 L5.11111111,6.24282428 L3.13116768,8.22222222 L2,7.09090909 L3.97994343,5.11151115 L2,3.13131313 L3.13116768,2 L5.11111111,3.98019802 L7.09105454,2 Z M16,2 L16,6.43407906 L14.3876076,6.43407906 L14.3876076,4.75316 L10.9185454,8.22222222 L9.77777778,7.0822608 L13.24684,3.61239239 L11.5659209,3.61239239 L11.5659209,2 L16,2 Z"/>
</svg>