<svg viewBox="0 0 24 24" xmlns="http://www.w3.org/2000/svg">
    <path fill-rule="evenodd" clip-rule="evenodd" d="M19.8509 19.75C20.2517 19.75 20.6243 19.5422 20.8338 19.2048C21.0453 18.8638 21.0535 18.4437 20.8668 18.0938L13.0432 4.35276C12.8491 3.99107 12.4747 3.75985 12.0583 3.75H12.0272C11.6227 3.75 11.2484 3.95607 11.0415 4.2988L3.16209 18.039C2.95066 18.3889 2.94607 18.8217 3.14832 19.1761C3.35329 19.5305 3.73588 19.75 4.1505 19.75H19.8509ZM12.732 14.4412H11.2849L11.0058 8.7969H13.0084L12.732 14.4412ZM12 17.156C12.5523 17.156 13 16.716 13 16.1731C13 15.6302 12.5523 15.1902 12 15.1902C11.4477 15.1902 11 15.6302 11 16.1731C11 16.716 11.4477 17.156 12 17.156Z" />
</svg>
