<svg viewBox="0 0 32 32" fill="none" xmlns="http://www.w3.org/2000/svg">
<circle opacity="0.01" cx="16" cy="16" r="16" fill="black"/>
<path fill-rule="evenodd" clip-rule="evenodd" d="M9.57838 9H16.4169L15.5199 11.4047H8V10.579C8 9.70656 8.70656 9 9.57838 9ZM15.9278 15.6491C15.5606 15.4044 15.0712 15.6701 15.0712 16.1186V19.5655C15.0712 19.9941 15.5606 20.2791 15.9278 20.035L18.6414 18.3212C18.9883 18.0975 18.9883 17.5877 18.6414 17.3623L15.9278 15.6491ZM9.57865 23.1935C8.70684 23.1935 8.00027 22.4869 8.00027 21.6151V12.4876H24.6699V21.6151C24.6699 22.4869 23.9639 23.1935 23.0915 23.1935H9.57865ZM20.193 9H18.3916L17.4946 11.4047H19.2961L20.193 9ZM22.1678 9H23.0916C23.9634 9 24.67 9.70656 24.67 10.579V11.4047H21.2709L22.1678 9Z" fill="black"/>
</svg>
