<svg viewBox="0 0 32 32" fill="none" xmlns="http://www.w3.org/2000/svg">
<circle opacity="0.01" cx="16" cy="16" r="16" fill="black"/>
<path fill-rule="evenodd" clip-rule="evenodd" d="M22.9542 13.7223L10.8151 8L10.4545 8.71106L19.5801 13.6779H8.91843C8.41121 13.6779 8 14.0894 8 14.597V23.7505C8 24.2586 8.41121 24.67 8.91843 24.67H22.6713C23.1789 24.67 23.5897 24.2586 23.5897 23.7505V14.597C23.5897 14.1882 23.3232 13.8417 22.9542 13.7223ZM11.12 17.3525L13.3763 18.7768C13.6643 18.9637 13.6643 19.3878 13.3763 19.5738L11.12 20.9981C10.8149 21.2016 10.4079 20.9644 10.4079 20.6081V17.7425C10.4079 17.3696 10.8149 17.149 11.12 17.3525ZM21.8575 19.1741C21.8575 21.0874 20.3064 22.6384 18.3931 22.6384C16.4798 22.6384 14.9287 21.0874 14.9287 19.1741C14.9287 17.2607 16.4798 15.7097 18.3931 15.7097C20.3064 15.7097 21.8575 17.2607 21.8575 19.1741Z" fill="black"/>
</svg>
