<svg viewBox="0 0 20 20" fill="none" xmlns="http://www.w3.org/2000/svg">
<path d="M5.43638 18C4.89756 18 4.44013 17.8244 4.06408 17.4733C3.68803 17.1222 3.5 16.6951 3.5 16.192V9.14129C3.5 8.6382 3.68803 8.21111 4.06408 7.86C4.44013 7.50888 4.89756 7.33332 5.43638 7.33332H12.403V5.86205C12.403 5.23676 12.1694 4.70036 11.7022 4.25285C11.2349 3.80534 10.6675 3.58158 10 3.58158C9.45188 3.58158 8.97067 3.73366 8.55634 4.03782C8.14201 4.34198 7.86464 4.72749 7.72422 5.19433C7.63938 5.39711 7.52146 5.55909 7.37045 5.68027C7.21944 5.80146 7.05252 5.86205 6.86971 5.86205C6.59901 5.86205 6.37552 5.76986 6.19926 5.58549C6.023 5.40111 5.96669 5.19623 6.03032 4.97083C6.24243 4.12296 6.71541 3.41585 7.44925 2.84951C8.18309 2.28317 9.03333 2 10 2C11.1364 2 12.1033 2.37587 12.9008 3.1276C13.6982 3.87933 14.097 4.79082 14.097 5.86205V7.33332H14.5636C15.1024 7.33332 15.5599 7.50888 15.9359 7.86C16.312 8.21111 16.5 8.6382 16.5 9.14129V16.192C16.5 16.6951 16.312 17.1222 15.9359 17.4733C15.5599 17.8244 15.1024 18 14.5636 18H5.43638ZM10.0031 14.2483C10.4627 14.2483 10.8528 14.0976 11.1735 13.7962C11.4942 13.4948 11.6545 13.1296 11.6545 12.7005C11.6545 12.2715 11.4931 11.9072 11.1703 11.6078C10.8475 11.3083 10.4564 11.1586 9.99687 11.1586C9.53734 11.1586 9.14722 11.3093 8.82653 11.6107C8.50582 11.9121 8.34547 12.2773 8.34547 12.7064C8.34547 13.1354 8.50687 13.4997 8.82966 13.7991C9.15246 14.0985 9.54361 14.2483 10.0031 14.2483Z" fill="#6265AD"/>
</svg>
