<svg viewBox="0 0 24 24" fill="none" xmlns="http://www.w3.org/2000/svg">
<path d="M18.2222 18.2222H20V20H18.2222V18.2222ZM18.2222 16.4444H20V14.6667H18.2222V16.4444ZM4 12.8889H5.77778V11.1111H4V12.8889ZM4 16.4444H5.77778V14.6667H4V16.4444ZM4 9.33333H5.77778V7.55556H4V9.33333ZM4 5.77778H5.77778V4H4V5.77778ZM7.55556 5.77778H9.33333V4H7.55556V5.77778ZM14.6667 20H16.4444V18.2222H14.6667V20ZM11.1111 20H12.8889V18.2222H11.1111V20ZM14.6667 20H16.4444V18.2222H14.6667V20ZM7.55556 20H9.33333V18.2222H7.55556V20ZM4 20H5.77778V18.2222H4V20ZM20 8.44444C20 5.99111 18.0089 4 15.5556 4H11.1111V5.77778H15.5556C17.0222 5.77778 18.2222 6.97778 18.2222 8.44444V12.8889H20V8.44444Z" fill="black"/>
</svg>
