<?xml version="1.0" encoding="UTF-8"?>
<svg viewBox="0 0 24 24" version="1.1" xmlns="http://www.w3.org/2000/svg" xmlns:xlink="http://www.w3.org/1999/xlink">
    <g id="🔶-Symbols" stroke="none" stroke-width="1" fill="none" fill-rule="evenodd">
        <g id="Update">
            <path d="M9.41743802,20.0163223 C9.60305785,19.9130165 9.83066116,19.8718554 10.0372727,19.934 C10.3471901,20.0163223 10.6571074,20.0784669 10.9880165,20.1196281 C11.2147851,20.1608017 11.4012211,20.2640988 11.5238967,20.4505326 C11.6683636,20.6151607 11.7103306,20.842764 11.6893471,21.0493756 C11.6683554,21.2559872 11.5448802,21.462607 11.3794298,21.5868963 C11.1938099,21.7103798 10.9871983,21.7523467 10.7805868,21.7313632 C10.3875289,21.689388 9.99529752,21.6070657 9.6232314,21.5037599 C9.41661983,21.4626029 9.231,21.3173219 9.12769421,21.1316938 C9.02438843,20.9460738 8.98322727,20.7184707 9.0453719,20.5118591 C9.08652893,20.3052473 9.23181818,20.1196281 9.41743802,20.0163223 Z M14.7691736,19.7273884 C14.8926446,19.7273884 15.0169421,19.7475661 15.1202479,19.8097107 C15.3058678,19.8928347 15.450343,20.0574752 15.5334711,20.2431027 C15.5956157,20.4497143 15.5746322,20.6773093 15.4923099,20.8629374 C15.4099959,21.0485572 15.2445413,21.1938382 15.0379298,21.2761605 C14.6658636,21.4214415 14.2736322,21.5247473 13.9015661,21.6070696 C13.8394215,21.6280531 13.7982603,21.6280531 13.7361157,21.6280531 C13.3640496,21.6280531 13.0331488,21.359293 12.9508264,20.9872269 C12.8886818,20.7806151 12.929843,20.5740118 13.0541322,20.3883837 C13.1784298,20.2027597 13.3640496,20.0784711 13.5706612,20.0373099 C13.8805785,19.9751612 14.1904959,19.8718554 14.5004132,19.7685496 C14.5835455,19.7483719 14.6868512,19.7273884 14.7691736,19.7273884 Z M6.42157025,18.0123967 C6.60801653,18.0123967 6.81462397,18.0745413 6.95909091,18.2190083 C7.20683884,18.4466364 7.45460744,18.6532397 7.72256198,18.8396736 C7.90900413,18.9639711 8.01230992,19.1495909 8.05347107,19.3562025 C8.07445455,19.562814 8.03329339,19.7694174 7.90900413,19.9550455 C7.76454132,20.1818306 7.51677273,20.3061198 7.2480124,20.3061198 C7.06156612,20.3061198 6.91710744,20.2649587 6.7726405,20.1616529 C6.46272314,19.9340496 6.15280579,19.686281 5.86388017,19.4175207 C5.71941736,19.2730579 5.61611157,19.0664463 5.61611157,18.8598347 C5.59511983,18.6532231 5.6782562,18.4466074 5.82272314,18.281157 C5.96718595,18.1157025 6.17379752,18.0123967 6.38040909,18.0123967 L6.38040909,18.0123967 Z M18.0328595,17.5780909 C18.2394711,17.5780909 18.4259091,17.661219 18.6115372,17.7847025 C18.756,17.9291653 18.8593058,18.1357769 18.8593058,18.3423884 C18.8802975,18.549 18.7971612,18.7556157 18.6526942,18.9210661 C18.3839339,19.2099917 18.0950083,19.4787521 17.7850909,19.7265207 C17.6406281,19.8500041 17.4541901,19.9121488 17.268562,19.9121488 C17.0207934,19.9121488 16.7931942,19.8088512 16.6487273,19.6232231 C16.3598017,19.2721488 16.4009587,18.7757851 16.7520331,18.4868595 C16.9998017,18.2802479 17.2265785,18.0534711 17.4541818,17.8258678 C17.5986446,17.681405 17.8052562,17.5780909 18.0118678,17.5780909 L18.0118678,17.5780909 Z M12.0208678,7.99173554 C14.664876,7.99173554 16.7931818,10.1402893 16.7931818,12.764876 C16.7931818,15.4088843 14.664876,17.5581942 12.0208678,17.5380165 C9.39607438,17.5380165 7.24772727,15.4097107 7.24772727,12.764876 C7.24772727,10.1400826 9.37603306,7.99173554 12.0208678,7.99173554 Z M4.25202479,14.7486281 C4.37549587,14.7486281 4.49979339,14.7897893 4.60309917,14.8309504 C4.78871901,14.9132645 4.934,15.078719 5.01632231,15.2853306 C5.1196281,15.5952562 5.26409504,15.8841818 5.42954545,16.1537479 C5.63615702,16.5468058 5.47070248,17.042343 5.07847107,17.2489545 C4.95417355,17.2901157 4.83069421,17.3312769 4.70640496,17.3312769 C4.3964876,17.3312769 4.1277314,17.1658223 3.98326446,16.897062 C3.79681818,16.5459876 3.63218161,16.1949132 3.50789236,15.8228471 C3.34243781,15.409624 3.57004112,14.9342562 3.98326446,14.7897893 C4.06639669,14.7696116 4.14871901,14.7486281 4.25202479,14.7486281 Z M19.9545455,14.1901736 C20.0166901,14.1901736 20.0990124,14.1901736 20.161157,14.211157 C20.3677603,14.2725041 20.5533926,14.3967934 20.6365207,14.5832273 C20.7600041,14.7688471 20.7809876,14.9964504 20.718843,15.203062 C20.6155372,15.5743017 20.4710785,15.9463678 20.3266116,16.3184339 C20.202314,16.628343 19.9133884,16.8139711 19.5824793,16.8139711 C19.4791736,16.8139711 19.3758678,16.7929876 19.272562,16.7518264 C18.8593306,16.5863719 18.6728967,16.111 18.8383471,15.6977769 C18.9836281,15.4088512 19.0869339,15.0989339 19.1692562,14.7890165 C19.272562,14.4379421 19.6034711,14.1901736 19.9545455,14.1901736 Z M14.211405,11.2556405 C13.9216529,10.9667149 13.446281,10.9667149 13.1573554,11.2556405 L13.1573554,11.2556405 L11.6900826,12.7229132 L10.9669421,11.9997727 C10.6771901,11.7108471 10.2018182,11.7108471 9.91289256,11.9997727 C9.62396694,12.2895248 9.62396694,12.7648967 9.91289256,13.0538223 L9.91289256,13.0538223 L11.152562,14.2934917 C11.2970248,14.4387727 11.4834628,14.521095 11.6690909,14.521095 C11.8547107,14.521095 12.0411529,14.4379587 12.1856198,14.2934917 L12.1856198,14.2934917 L14.169438,12.3096901 C14.4583678,12.0207438 14.4583678,11.5453719 14.211405,11.2556405 Z M14.0871901,2.18573967 C14.3147934,2.0622562 14.603719,2.0622562 14.8103306,2.20672314 L14.8103306,2.20672314 L17.4349174,3.90157851 C17.6415372,4.04604132 17.7658264,4.25265289 17.7658264,4.50042149 C17.7658264,4.74819008 17.6415289,4.97497521 17.4349174,5.09926446 L17.4349174,5.09926446 L14.811157,6.77314876 C14.7078512,6.83529339 14.5633802,6.87645455 14.4390909,6.87645455 C14.3357851,6.87645455 14.2114876,6.85627686 14.1081818,6.79413223 C13.8805826,6.66983471 13.7361157,6.42206612 13.7361157,6.17429752 L13.7361157,6.17429752 L13.7361157,5.3268595 L12.0210744,5.3268595 C7.90991736,5.3268595 4.58305785,8.67376033 4.58305785,12.764876 C4.58299587,13.1983223 4.18995868,13.5703905 3.7557438,13.569584 C3.32235579,13.569584 2.95028967,13.2185083 2.95028967,12.7641281 C2.95028967,7.76433471 7.00028926,3.71433471 12.0000826,3.71433471 L12.0000826,3.71433471 L13.715124,3.71433471 L13.715124,2.80557438 C13.715124,2.53681405 13.8595868,2.31002893 14.0871901,2.18573967 Z M20.0990083,10.2845868 C20.4710744,10.2845868 20.8019752,10.5533471 20.8842975,10.9254132 C20.9464442,11.2974711 21.0085888,11.6897231 21.0489421,12.0827603 C21.0900992,12.5371405 20.7390248,12.9092025 20.3048099,12.9503636 C19.8504298,12.9915207 19.4783678,12.6404463 19.4372066,12.2062314 C19.3960455,11.896314 19.3548843,11.565405 19.2927397,11.2554876 C19.2515785,11.048876 19.2927397,10.8422727 19.4170289,10.6566446 C19.5413264,10.4710207 19.7269463,10.3467314 19.9335579,10.3055702 C19.9957025,10.2845868 20.0368636,10.2845868 20.0990083,10.2845868 Z M18.466281,6.77298347 C18.6728926,6.79314876 18.8593347,6.89645868 19.0038017,7.06190909 C19.2515702,7.37182645 19.4791736,7.70190909 19.6857851,8.03281818 C19.8100744,8.19744628 19.8302479,8.42504959 19.7890909,8.63166116 C19.7479339,8.83827273 19.6236446,9.02389256 19.4380165,9.12719835 C19.313719,9.21032645 19.1692603,9.2514876 19.0247934,9.2514876 C18.7560331,9.2514876 18.4872769,9.10702479 18.3428099,8.8592562 C18.1773554,8.59049587 17.9917355,8.32173554 17.785124,8.07396694 C17.6406488,7.88836364 17.5785041,7.68176033 17.5785041,7.49613223 C17.5986694,7.28952066 17.7019793,7.10307851 17.8674298,6.95861157 C18.0328843,6.8351281 18.1983306,6.77298347 18.3839587,6.77298347 L18.3839587,6.77298347 Z"></path>
        </g>
    </g>
</svg>