<svg viewBox="0 0 24 24" fill="none" xmlns="http://www.w3.org/2000/svg">
<g id="Global Icons/Users">
<path id="&#240;&#159;&#142;&#168; Icon color" fill-rule="evenodd" clip-rule="evenodd" d="M18.1552 9.45176C18.6858 10.005 18.9506 10.6716 18.9506 11.4515C18.9506 12.2314 18.6858 12.898 18.1552 13.4512C17.6251 14.0051 16.9863 14.2814 16.2391 14.2814C15.4918 14.2814 14.8532 14.0051 14.323 13.4512C13.7897 12.898 13.5234 12.2314 13.5234 11.4515C13.5234 10.6716 13.7897 10.005 14.323 9.45176C14.8531 8.89849 15.4919 8.62158 16.2391 8.62158C16.9864 8.62158 17.6251 8.89849 18.1552 9.45176ZM20.608 17.1889V17.1978L20.608 17.1978C20.8715 17.6525 21.0023 18.1254 21 18.6154V18.713C21 18.7628 20.9933 18.8101 20.9799 18.8547L20.9764 18.9077C20.954 18.9996 20.9116 19.0759 20.8491 19.1382C20.7886 19.1911 20.7219 19.2181 20.648 19.2181H12.1741H11.8229H3.3489C3.2617 19.2181 3.1855 19.1807 3.12069 19.107C3.05391 19.0245 3.01699 18.9253 3.01032 18.8101L3.00364 18.6596C3.00128 18.645 3.0001 18.63 3.0001 18.6154C2.99578 18.1254 3.12776 17.6525 3.39564 17.1978V17.1889C3.6506 16.7493 4.01707 16.3802 4.49509 16.0817C5.39574 15.5237 6.48494 15.2444 7.76307 15.2444C9.03879 15.2444 10.1296 15.5237 11.0346 16.0817C11.4323 16.3323 11.7544 16.6327 12.001 16.9828C12.245 16.6327 12.5677 16.3323 12.9691 16.0817C13.8697 15.5237 14.9589 15.2444 16.237 15.2444C17.5128 15.2444 18.6036 15.5237 19.5085 16.0817C19.9823 16.3802 20.3488 16.7493 20.608 17.1889ZM9.6812 9.45176C10.2119 10.005 10.4766 10.6716 10.4766 11.4515C10.4766 12.2314 10.2119 12.898 9.6812 13.4512C9.1511 14.0051 8.51237 14.2814 7.76513 14.2814C7.01785 14.2814 6.37917 14.0051 5.84905 13.4512C5.31576 12.898 5.04938 12.2314 5.04938 11.4515C5.04938 10.6716 5.31576 10.005 5.84905 9.45176C6.37915 8.89849 7.01788 8.62158 7.76513 8.62158C8.5124 8.62158 9.15108 8.89849 9.6812 9.45176Z" fill="black"/>
</g>
</svg>
