<?xml version="1.0" encoding="UTF-8"?>
<svg viewBox="0 0 18 16" version="1.1" xmlns="http://www.w3.org/2000/svg" xmlns:xlink="http://www.w3.org/1999/xlink">
    <g stroke="none" stroke-width="1" fill="none" fill-rule="evenodd">
        <g transform="translate(-310.000000, -1727.000000)" fill="#121212">
            <g transform="translate(307.000000, 1723.000000)">
                <path d="M7.76307109,15.2443709 C9.03879068,15.2443709 10.1295928,15.523649 11.0345724,16.0816763 C11.4406324,16.337518 11.7678891,16.6452221 12.0163549,17.004797 L12.1340221,17.1889071 L12.1340221,17.1977323 C12.3599084,17.5875021 12.4882705,17.9906192 12.5188715,18.4064301 L12.5260241,18.6153904 L12.5260241,18.7129814 L12.5210003,18.7857838 L12.5210003,18.7857838 L12.5059606,18.8546942 L12.5024252,18.9076425 C12.480042,18.9995219 12.4376176,19.0758334 12.3751649,19.1381251 C12.3348364,19.1734239 12.2917182,19.1971868 12.2455739,19.2091067 L12.1740584,19.2180657 L3.3488984,19.2180657 C3.26169859,19.2180657 3.18550233,19.1806907 3.12069271,19.1069786 C3.07060888,19.0450756 3.03731954,18.9738281 3.02098811,18.8934564 L3.01031537,18.8100515 L3.00363792,18.6595148 C3.00128126,18.6449808 3.00010287,18.6299271 3.00010287,18.6153917 C2.99639677,18.1953677 3.09282942,17.7879285 3.28915382,17.3937269 L3.39563919,17.1977323 C3.65060212,16.7492307 4.01706888,16.3801582 4.49508917,16.0816763 C5.39574499,15.5236503 6.48493822,15.2443709 7.76307109,15.2443709 Z M16.237047,10.6228248 C17.5127666,10.6228248 18.6035686,10.9021029 19.5085483,11.4601302 C19.9146083,11.7159718 20.2418649,12.0236759 20.4903308,12.3832509 L20.6079979,12.567361 L20.6079979,12.5761862 C20.8338843,12.9659559 20.9622464,13.3690731 20.9928474,13.784884 L21,13.9938442 L21,14.0914352 L20.9949762,14.1642376 L20.9949762,14.1642376 L20.9799365,14.233148 L20.9764011,14.2860963 C20.9540179,14.3779757 20.9115935,14.4542872 20.8491408,14.5165789 C20.8088122,14.5518778 20.7656941,14.5756407 20.7195498,14.5875605 L20.6480342,14.5965196 L11.8228743,14.5965196 C11.7356745,14.5965196 11.6594782,14.5591446 11.5946686,14.4854324 C11.5445848,14.4235294 11.5112954,14.3522819 11.494964,14.2719102 L11.4842912,14.1885053 L11.4776138,14.0379687 C11.4752571,14.0234346 11.4740787,14.008381 11.4740787,13.9938456 C11.4703726,13.5738215 11.5668053,13.1663824 11.7631297,12.7721808 L11.8696151,12.5761862 C12.124578,12.1276846 12.4910448,11.7586121 12.969065,11.4601302 C13.8697209,10.9021042 14.9589141,10.6228248 16.237047,10.6228248 Z M7.7651277,8.62154615 C8.51240075,8.62154615 9.15107863,8.89845088 9.68120202,9.45172268 C10.2118541,10.0049662 10.4766447,10.6715892 10.4766447,11.4514644 C10.4766447,12.231368 10.2118541,12.8979344 9.68120202,13.4512062 C9.15110439,14.0050298 8.51237364,14.2813827 7.7651277,14.2813827 C7.01785465,14.2813827 6.37917542,14.0050298 5.84905203,13.4512062 C5.3157562,12.8979627 5.04937944,12.2313397 5.04937944,11.4514644 C5.04937944,10.6715609 5.3157562,10.0049945 5.84905203,9.45172268 C6.37914966,8.89845088 7.01788177,8.62154615 7.7651277,8.62154615 Z M16.2391036,4 C16.9863766,4 17.6250545,4.27690474 18.1551779,4.83017653 C18.68583,5.38342002 18.9506206,6.05004306 18.9506206,6.82991829 C18.9506206,7.60982183 18.68583,8.27638827 18.1551779,8.82966006 C17.6250803,9.38348368 16.9863495,9.65983659 16.2391036,9.65983659 C15.4918305,9.65983659 14.8531513,9.38348368 14.3230279,8.82966006 C13.7897321,8.27641657 13.5233553,7.60979353 13.5233553,6.82991829 C13.5233553,6.05001476 13.7897321,5.38344832 14.3230279,4.83017653 C14.8531255,4.27690474 15.4918576,4 16.2391036,4 Z"></path>
            </g>
        </g>
    </g>
</svg>