<svg width="17" height="15" viewBox="0 0 17 15" fill="none" xmlns="http://www.w3.org/2000/svg">
<path d="M8 8.71665L5.5 11.1666L8 13.6666H0.5V12C0.5 9.78331 4.94167 8.66665 7.16667 8.66665C7.43333 8.66665 7.675 8.68331 8 8.71665Z" fill="black"/>
<path d="M10.5 3.66665C10.5 5.50831 9.00833 6.99998 7.16667 6.99998C5.325 6.99998 3.83333 5.50831 3.83333 3.66665C3.83333 1.82498 5.325 0.333313 7.16667 0.333313C9.00833 0.333313 10.5 1.82498 10.5 3.66665Z" fill="black"/>
<path d="M8 11.1667L10.8917 14.0834L16.3333 8.59169L15.1667 7.41669L10.8917 11.725L9.16667 9.99169L8 11.1667Z" fill="black"/>
</svg>
