<?xml version="1.0" encoding="UTF-8"?>
<svg viewBox="0 0 22 14" version="1.1" xmlns="http://www.w3.org/2000/svg" xmlns:xlink="http://www.w3.org/1999/xlink">
    <g stroke="none" stroke-width="1" fill="none" fill-rule="evenodd">
        <g transform="translate(-516.000000, -1728.000000)" fill="#121212">
            <g transform="translate(515.000000, 1723.000000)">
                <path d="M12.0001236,5 C16.9587118,5 20.5980993,7.2788347 22.9182862,11.8365041 L23,12.0009401 L22.9177833,12.1644838 C22.8262311,12.3442969 22.7326252,12.5205625 22.6369657,12.6932805 C20.3083228,16.8977602 16.7627088,19 12.0001236,19 C7.04189372,19 3.40267384,16.7214946 1.08246396,12.1644838 L1,11.999558 L1.08196101,11.8365041 C3.40214791,7.2788347 7.04153544,5 12.0001236,5 Z M11.971379,7.7385329 C9.60033867,7.7385329 7.6782307,9.57765731 7.6782307,11.8463322 C7.6782307,14.1150072 9.60033867,15.9541316 11.971379,15.9541316 C14.3424194,15.9541316 16.2645273,14.1150072 16.2645273,11.8463322 C16.2645273,9.57765731 14.3424194,7.7385329 11.971379,7.7385329 Z M11.971379,9.5642215 C13.2886236,9.5642215 14.3564614,10.5859573 14.3564614,11.8463322 C14.3564614,13.1067072 13.2886236,14.128443 11.971379,14.128443 C10.6541344,14.128443 9.58629662,13.1067072 9.58629662,11.8463322 C9.58629662,10.5859573 10.6541344,9.5642215 11.971379,9.5642215 Z"></path>
            </g>
        </g>
    </g>
</svg>