<svg viewBox="0 0 20 20" fill="none" xmlns="http://www.w3.org/2000/svg">
<g id="warning">
<path id="Vector" d="M9.9966 13.9851C10.2284 13.9851 10.4238 13.9067 10.5829 13.7499C10.742 13.5931 10.8215 13.3988 10.8215 13.167C10.8215 12.9352 10.7431 12.7397 10.5863 12.5807C10.4295 12.4216 10.2352 12.3421 10.0034 12.3421C9.7716 12.3421 9.57617 12.4205 9.4171 12.5773C9.25804 12.7341 9.1785 12.9283 9.1785 13.1601C9.1785 13.3919 9.2569 13.5874 9.41371 13.7465C9.57051 13.9055 9.76481 13.9851 9.9966 13.9851ZM10.0197 10.7976C10.2495 10.7976 10.4461 10.7159 10.6094 10.5525C10.7727 10.389 10.8544 10.1925 10.8544 9.96268V6.85584C10.8544 6.62608 10.7726 6.42948 10.6091 6.26605C10.4457 6.10262 10.249 6.0209 10.0192 6.0209C9.78931 6.0209 9.59274 6.10262 9.42944 6.26605C9.26613 6.42948 9.18448 6.62608 9.18448 6.85584V9.96268C9.18448 10.1925 9.26622 10.389 9.42969 10.5525C9.59317 10.7159 9.78983 10.7976 10.0197 10.7976ZM10.0013 18C8.89481 18 7.85478 17.79 6.88122 17.3701C5.90763 16.9502 5.06076 16.3803 4.34059 15.6604C3.62041 14.9405 3.05026 14.094 2.63016 13.1208C2.21005 12.1476 2 11.1078 2 10.0013C2 8.8915 2.21035 7.84835 2.63105 6.87186C3.05175 5.89538 3.62269 5.04596 4.34387 4.32362C5.06506 3.60129 5.91159 3.03343 6.88345 2.62006C7.8553 2.20669 8.89371 2 9.9987 2C11.1084 2 12.1514 2.2066 13.1278 2.61981C14.1042 3.03301 14.9536 3.60072 15.6761 4.32292C16.3986 5.04513 16.9666 5.8944 17.3799 6.87073C17.7933 7.84706 18 8.89025 18 10.0003C18 11.1104 17.7934 12.15 17.3802 13.1192C16.967 14.0884 16.3994 14.9337 15.6773 15.6552C14.9553 16.3766 14.1062 16.9478 13.1301 17.3687C12.1541 17.7896 11.1111 18 10.0013 18Z" fill="#54587F"/>
</g>
</svg>
