<?xml version="1.0" encoding="UTF-8"?>
<svg viewBox="0 0 18 20" version="1.1" xmlns="http://www.w3.org/2000/svg" xmlns:xlink="http://www.w3.org/1999/xlink">
    <g stroke="none" stroke-width="1" fill="none" fill-rule="evenodd">
        <g transform="translate(-726.000000, -1725.000000)" fill="#121212">
            <g transform="translate(723.000000, 1723.000000)">
                <path d="M16.0921986,2 L21,7.71797938 L21,22 L3,22 L3,2 L16.0921986,2 Z M17.0987557,6 L14.2532032,6.42602417 L14.1590974,6.44716105 C13.8852677,6.52992653 13.6920008,6.78207076 13.6920008,7.07359094 L13.6920008,7.07359094 L13.6920008,14.1689373 L13.4970837,14.0912784 C13.2316396,13.9978118 12.9446585,13.9455767 12.6443199,13.9455767 C11.2931053,13.9455767 10.1977557,14.9715517 10.1977557,16.237262 C10.1977557,17.5029723 11.2931053,18.5289473 12.6443199,18.5289473 C13.9955345,18.5289473 15.090884,17.5029723 15.090884,16.237262 L15.090884,16.237262 L15.0872767,16.1715075 L15.0898534,16.1715075 L15.0898534,9.48655112 L17.0987557,9.185 L17.0987557,6 Z M10.0496454,11.9229551 L7.02836879,11.9229551 L7.02836879,13.5346513 L10.0496454,13.5346513 L10.0496454,11.9229551 Z M12.0638298,9.22197753 L7.02836879,9.22197753 L7.02836879,10.8336738 L12.0638298,10.8336738 L12.0638298,9.22197753 Z M12.0638298,6.521 L7.02836879,6.521 L7.02836879,8.13269625 L12.0638298,8.13269625 L12.0638298,6.521 Z"></path>
            </g>
        </g>
    </g>
</svg>