<?xml version="1.0" encoding="UTF-8"?>
<svg viewBox="0 0 24 24" version="1.1" xmlns="http://www.w3.org/2000/svg" xmlns:xlink="http://www.w3.org/1999/xlink">
    <g id="🔶-Symbols" stroke="none" stroke-width="1" fill="none" fill-rule="evenodd">
        <g id="Writer">
            <path d="M9.81242043,8 C10.3299985,8 10.7499109,8.41991239 10.7499109,8.93749045 L10.7499109,8.93749045 L10.7499109,14.7500637 C10.7499109,15.2676417 10.3299985,15.6875541 9.81242043,15.6875541 L9.81242043,15.6875541 L8.87492998,15.6875541 L8.87492998,21.3124968 C8.87492998,21.657535 8.59497449,21.9374905 8.24993634,21.9374905 L8.24993634,21.9374905 L4.49997454,21.9374905 C4.15493638,21.9374905 3.8749809,21.657535 3.8749809,21.3124968 L3.8749809,21.3124968 L3.8749809,15.6875541 L2.93749045,15.6875541 C2.41991239,15.6875541 2,15.2676417 2,14.7500637 L2,14.7500637 L2,8.93749045 C2,8.41991239 2.41991239,8 2.93749045,8 L2.93749045,8 Z M21.9990673,7.479 L21.9990673,10.664 L20.0047136,10.9655511 L20.0047136,17.6505075 C20.0026667,17.6725109 20.005737,17.6940027 20.005737,17.716262 C20.005737,18.9819723 18.9181011,20.0079473 17.5764021,20.0079473 C16.2347031,20.0079473 15.1470673,18.9819723 15.1470673,17.716262 C15.1470673,16.4505517 16.2347031,15.4245767 17.5764021,15.4245767 C17.8746257,15.4245767 18.1595858,15.4768118 18.4231605,15.5702784 L18.616705,15.6479373 L18.616705,8.55259094 C18.616705,8.26466978 18.8039017,8.01515832 19.0704786,7.92930364 L19.1739552,7.90502417 L21.9990673,7.479 Z M15,13.4019551 L15,15.0136513 L12,15.0136513 L12,13.4019551 L15,13.4019551 Z M17,10.7009775 L17,12.3126738 L12,12.3126738 L12,10.7009775 L17,10.7009775 Z M17,8 L17,9.61169625 L12,9.61169625 L12,8 L17,8 Z M4.60743178,2.73261291 C5.3219245,2.01728062 6.39774687,1.80324738 7.33198736,2.19061843 C8.26620701,2.577177 8.87497164,3.48862605 8.87497164,4.50017824 C8.87497164,5.88114334 7.75600387,7.00011111 6.37499711,7.00011111 C5.36344491,7.00011111 4.45199586,6.39140898 4.0654373,5.4571685 C3.67808707,4.52296968 3.89210573,3.44712647 4.60743178,2.73261291 Z"></path>
        </g>
    </g>
</svg>