<svg width="1000" height="128" viewBox="0 0 1000 128" fill="none" xmlns="http://www.w3.org/2000/svg">
<g clip-path="url(#clip0_21461_71684)">
<g clip-path="url(#clip1_21461_71684)">
<rect width="1000" height="128" fill="url(#paint0_linear_21461_71684)"/>
<g filter="url(#filter0_f_21461_71684)">
<path d="M543.668 27.7293C543.668 27.7293 620.534 28.6817 621.741 1.33334C538.034 1.33334 543.668 27.7293 543.668 27.7293Z" fill="#F9E561"/>
</g>
<g filter="url(#filter1_f_21461_71684)">
<path d="M630.598 41.0666V67.3333H708.751V41.0666H630.598Z" fill="#9260DD"/>
</g>
<g filter="url(#filter2_f_21461_71684)">
<path d="M393.015 79.2V105.467C393.015 105.467 470.362 103.3 471.167 79.2H393.015Z" fill="#F9E561"/>
</g>
<g filter="url(#filter3_f_21461_71684)">
<path d="M419.586 38.4C396.565 38.4 377.905 32.5211 377.905 25.2667C377.905 18.0122 396.565 12.1333 419.586 12.1333" fill="#71F1D5"/>
</g>
<g filter="url(#filter4_f_21461_71684)">
<path d="M527.958 2.93255e-05C527.958 7.80598 510.467 14.1334 488.882 14.1334C467.298 14.1334 449.806 7.80598 449.806 2.93255e-05" fill="#54B8F3"/>
</g>
<g filter="url(#filter5_f_21461_71684)">
<path d="M269.013 102.133V119.467H347.166V102.133H269.013Z" fill="#71F1D5"/>
</g>
<g filter="url(#filter6_f_21461_71684)">
<path d="M269.013 101.6V110.933H347.166V101.6H269.013Z" fill="#9260DD"/>
</g>
<g filter="url(#filter7_f_21461_71684)">
<path d="M347.166 89.2H269.013V62.8L347.166 89.2Z" fill="#54B8F3"/>
</g>
<g filter="url(#filter8_f_21461_71684)">
<path d="M308.61 31.6V44.5333H347.166V31.6H308.61Z" fill="#9260DD"/>
</g>
<g filter="url(#filter9_f_21461_71684)">
<path d="M0.688965 75.8667L0.688965 88.8H78.8416V75.8667H0.688965Z" fill="#E065B2"/>
</g>
<g filter="url(#filter10_f_21461_71684)">
<path d="M53.8327 31.7333H26.2188L26.2187 58.1333H53.8327L53.8327 31.7333Z" fill="#E065B2"/>
</g>
<g filter="url(#filter11_f_21461_71684)">
<path d="M42.3701 26.6667C19.3492 26.6667 0.688735 20.7878 0.688735 13.5333C0.688735 6.27886 19.3492 0.400006 42.3701 0.400006" fill="#71F1D5"/>
</g>
<g filter="url(#filter12_f_21461_71684)">
<path d="M239.315 37.6V28.4H161.683V37.6H239.315Z" fill="#54B8F3"/>
</g>
<g filter="url(#filter13_f_21461_71684)">
<path d="M166.372 106.4H127.817V119.467H166.372V106.4Z" fill="#9260DD"/>
</g>
<g filter="url(#filter14_f_21461_71684)">
<path d="M78.3206 101.733H0.167969L0.167969 128H78.3206L78.3206 101.733Z" fill="#E065B2"/>
</g>
<g filter="url(#filter15_f_21461_71684)">
<path d="M542.547 119.467V93.2H620.699L542.547 119.467Z" fill="#54B8F3"/>
</g>
<g filter="url(#filter16_f_21461_71684)">
<path d="M736.886 95.3333H664.986V119.467H736.886V95.3333Z" fill="#F9E561"/>
</g>
<g filter="url(#filter17_f_21461_71684)">
<path d="M809.829 40C788.534 40 771.273 34.5688 771.273 27.8667C771.273 21.1646 788.534 15.7333 809.829 15.7333" fill="#E065B2"/>
</g>
<g filter="url(#filter18_f_21461_71684)">
<path d="M964.571 12L1000 12V9.53674e-07L964.571 9.53674e-07V12Z" fill="#9260DD"/>
</g>
<g filter="url(#filter19_f_21461_71684)">
<path d="M456.409 27.7293C456.409 27.7293 379.53 28.6817 378.322 1.33332C462.044 1.33332 456.409 27.7293 456.409 27.7293Z" fill="#F9E561"/>
</g>
<g filter="url(#filter20_f_21461_71684)">
<path d="M369.464 41.0666V67.3333H291.298V41.0666H369.464Z" fill="#9260DD"/>
</g>
<g filter="url(#filter21_f_21461_71684)">
<path d="M731.11 102.133V119.467H652.944V102.133H731.11Z" fill="#71F1D5"/>
</g>
<g filter="url(#filter22_f_21461_71684)">
<path d="M731.11 101.6V110.933H652.944V101.6H731.11Z" fill="#9260DD"/>
</g>
<g filter="url(#filter23_f_21461_71684)">
<path d="M652.944 89.2H731.11V62.8L652.944 89.2Z" fill="#54B8F3"/>
</g>
<g filter="url(#filter24_f_21461_71684)">
<path d="M691.506 31.6V44.5333H652.944V31.6H691.506Z" fill="#9260DD"/>
</g>
<g filter="url(#filter25_f_21461_71684)">
<path d="M946.326 31.7333H973.945V58.1333H946.326V31.7333Z" fill="#E065B2"/>
</g>
<g filter="url(#filter26_f_21461_71684)">
<path d="M760.813 37.6V28.4H838.457V37.6H760.813Z" fill="#54B8F3"/>
</g>
<g filter="url(#filter27_f_21461_71684)">
<path d="M833.768 106.4H872.33V119.467H833.768V106.4Z" fill="#9260DD"/>
</g>
<g filter="url(#filter28_f_21461_71684)">
<path d="M921.834 101.733H1000V128H921.834V101.733Z" fill="#E065B2"/>
</g>
<g filter="url(#filter29_f_21461_71684)">
<path d="M457.53 40.2868V14.0202H379.365L457.53 40.2868Z" fill="#54B8F3"/>
</g>
<g filter="url(#filter30_f_21461_71684)">
<path d="M263.158 95.3333H335.07V119.467H263.158V95.3333Z" fill="#F9E561"/>
</g>
<g filter="url(#filter31_f_21461_71684)">
<path d="M190.203 40C211.501 40 228.765 34.5688 228.765 27.8667C228.765 21.1646 211.501 15.7333 190.203 15.7333" fill="#E065B2"/>
</g>
<g filter="url(#filter32_f_21461_71684)">
<path d="M35.4351 12L0 12L0 -1.71661e-05L35.4351 -1.71661e-05L35.4351 12Z" fill="#9260DD"/>
</g>
</g>
<g opacity="0.4">
<path d="M994 9C994 10.6569 995.343 12 997 12C998.657 12 1000 10.6569 1000 9C1000 7.34315 998.657 6 997 6C995.343 6 994 7.34315 994 9Z" fill="white"/>
<path d="M972 9C972 10.6569 973.343 12 975 12C976.657 12 978 10.6569 978 9C978 7.34315 976.657 6 975 6C973.343 6 972 7.34315 972 9Z" fill="white"/>
<path d="M950 9C950 10.6569 951.343 12 953 12C954.657 12 956 10.6569 956 9C956 7.34315 954.657 6 953 6C951.343 6 950 7.34315 950 9Z" fill="white"/>
<path d="M928 9C928 10.6569 929.343 12 931 12C932.657 12 934 10.6569 934 9C934 7.34315 932.657 6 931 6C929.343 6 928 7.34315 928 9Z" fill="white"/>
<path d="M906 9C906 10.6569 907.343 12 909 12C910.657 12 912 10.6569 912 9C912 7.34315 910.657 6 909 6C907.343 6 906 7.34315 906 9Z" fill="white"/>
<path d="M884 9C884 10.6569 885.343 12 887 12C888.657 12 890 10.6569 890 9C890 7.34315 888.657 6 887 6C885.343 6 884 7.34315 884 9Z" fill="white"/>
<path d="M862 9C862 10.6569 863.343 12 865 12C866.657 12 868 10.6569 868 9C868 7.34315 866.657 6 865 6C863.343 6 862 7.34315 862 9Z" fill="white"/>
<path d="M840 9C840 10.6569 841.343 12 843 12C844.657 12 846 10.6569 846 9C846 7.34315 844.657 6 843 6C841.343 6 840 7.34315 840 9Z" fill="white"/>
<path d="M818 9C818 10.6569 819.343 12 821 12C822.657 12 824 10.6569 824 9C824 7.34315 822.657 6 821 6C819.343 6 818 7.34315 818 9Z" fill="white"/>
<path d="M796 9C796 10.6569 797.343 12 799 12C800.657 12 802 10.6569 802 9C802 7.34315 800.657 6 799 6C797.343 6 796 7.34315 796 9Z" fill="white"/>
<path d="M774 9C774 10.6569 775.343 12 777 12C778.657 12 780 10.6569 780 9C780 7.34315 778.657 6 777 6C775.343 6 774 7.34315 774 9Z" fill="white"/>
<path d="M752 9C752 10.6569 753.343 12 755 12C756.657 12 758 10.6569 758 9C758 7.34315 756.657 6 755 6C753.343 6 752 7.34315 752 9Z" fill="white"/>
<path d="M730 9C730 10.6569 731.343 12 733 12C734.657 12 736 10.6569 736 9C736 7.34315 734.657 6 733 6C731.343 6 730 7.34315 730 9Z" fill="white"/>
<path d="M708 9C708 10.6569 709.343 12 711 12C712.657 12 714 10.6569 714 9C714 7.34315 712.657 6 711 6C709.343 6 708 7.34315 708 9Z" fill="white"/>
<path d="M686 9C686 10.6569 687.343 12 689 12C690.657 12 692 10.6569 692 9C692 7.34315 690.657 6 689 6C687.343 6 686 7.34315 686 9Z" fill="white"/>
<path d="M664 9C664 10.6569 665.343 12 667 12C668.657 12 670 10.6569 670 9C670 7.34315 668.657 6 667 6C665.343 6 664 7.34315 664 9Z" fill="white"/>
<path d="M642 9C642 10.6569 643.343 12 645 12C646.657 12 648 10.6569 648 9C648 7.34315 646.657 6 645 6C643.343 6 642 7.34315 642 9Z" fill="white"/>
<path d="M620 9C620 10.6569 621.343 12 623 12C624.657 12 626 10.6569 626 9C626 7.34315 624.657 6 623 6C621.343 6 620 7.34315 620 9Z" fill="white"/>
<path d="M598 9C598 10.6569 599.343 12 601 12C602.657 12 604 10.6569 604 9C604 7.34315 602.657 6 601 6C599.343 6 598 7.34315 598 9Z" fill="white"/>
<path d="M576 9C576 10.6569 577.343 12 579 12C580.657 12 582 10.6569 582 9C582 7.34315 580.657 6 579 6C577.343 6 576 7.34315 576 9Z" fill="white"/>
<path d="M554 9C554 10.6569 555.343 12 557 12C558.657 12 560 10.6569 560 9C560 7.34315 558.657 6 557 6C555.343 6 554 7.34315 554 9Z" fill="white"/>
<path d="M532 9C532 10.6569 533.343 12 535 12C536.657 12 538 10.6569 538 9C538 7.34315 536.657 6 535 6C533.343 6 532 7.34315 532 9Z" fill="white"/>
<path d="M510 9C510 10.6569 511.343 12 513 12C514.657 12 516 10.6569 516 9C516 7.34315 514.657 6 513 6C511.343 6 510 7.34315 510 9Z" fill="white"/>
<path d="M488 9C488 10.6569 489.343 12 491 12C492.657 12 494 10.6569 494 9C494 7.34315 492.657 6 491 6C489.343 6 488 7.34315 488 9Z" fill="white"/>
<path d="M466 9C466 10.6569 467.343 12 469 12C470.657 12 472 10.6569 472 9C472 7.34315 470.657 6 469 6C467.343 6 466 7.34315 466 9Z" fill="white"/>
<path d="M444 9C444 10.6569 445.343 12 447 12C448.657 12 450 10.6569 450 9C450 7.34315 448.657 6 447 6C445.343 6 444 7.34315 444 9Z" fill="white"/>
<path d="M422 9C422 10.6569 423.343 12 425 12C426.657 12 428 10.6569 428 9C428 7.34315 426.657 6 425 6C423.343 6 422 7.34315 422 9Z" fill="white"/>
<path d="M994 31C994 32.6569 995.343 34 997 34C998.657 34 1000 32.6569 1000 31C1000 29.3431 998.657 28 997 28C995.343 28 994 29.3431 994 31Z" fill="white"/>
<path d="M972 31C972 32.6569 973.343 34 975 34C976.657 34 978 32.6569 978 31C978 29.3431 976.657 28 975 28C973.343 28 972 29.3431 972 31Z" fill="white"/>
<path d="M950 31C950 32.6569 951.343 34 953 34C954.657 34 956 32.6569 956 31C956 29.3431 954.657 28 953 28C951.343 28 950 29.3431 950 31Z" fill="white"/>
<path d="M928 31C928 32.6569 929.343 34 931 34C932.657 34 934 32.6569 934 31C934 29.3431 932.657 28 931 28C929.343 28 928 29.3431 928 31Z" fill="white"/>
<path d="M906 31C906 32.6569 907.343 34 909 34C910.657 34 912 32.6569 912 31C912 29.3431 910.657 28 909 28C907.343 28 906 29.3431 906 31Z" fill="white"/>
<path d="M884 31C884 32.6569 885.343 34 887 34C888.657 34 890 32.6569 890 31C890 29.3431 888.657 28 887 28C885.343 28 884 29.3431 884 31Z" fill="white"/>
<path d="M862 31C862 32.6569 863.343 34 865 34C866.657 34 868 32.6569 868 31C868 29.3431 866.657 28 865 28C863.343 28 862 29.3431 862 31Z" fill="white"/>
<path d="M840 31C840 32.6569 841.343 34 843 34C844.657 34 846 32.6569 846 31C846 29.3431 844.657 28 843 28C841.343 28 840 29.3431 840 31Z" fill="white"/>
<path d="M818 31C818 32.6569 819.343 34 821 34C822.657 34 824 32.6569 824 31C824 29.3431 822.657 28 821 28C819.343 28 818 29.3431 818 31Z" fill="white"/>
<path d="M796 31C796 32.6569 797.343 34 799 34C800.657 34 802 32.6569 802 31C802 29.3431 800.657 28 799 28C797.343 28 796 29.3431 796 31Z" fill="white"/>
<path d="M774 31C774 32.6569 775.343 34 777 34C778.657 34 780 32.6569 780 31C780 29.3431 778.657 28 777 28C775.343 28 774 29.3431 774 31Z" fill="white"/>
<path d="M752 31C752 32.6569 753.343 34 755 34C756.657 34 758 32.6569 758 31C758 29.3431 756.657 28 755 28C753.343 28 752 29.3431 752 31Z" fill="white"/>
<path d="M730 31C730 32.6569 731.343 34 733 34C734.657 34 736 32.6569 736 31C736 29.3431 734.657 28 733 28C731.343 28 730 29.3431 730 31Z" fill="white"/>
<path d="M708 31C708 32.6569 709.343 34 711 34C712.657 34 714 32.6569 714 31C714 29.3431 712.657 28 711 28C709.343 28 708 29.3431 708 31Z" fill="white"/>
<path d="M686 31C686 32.6569 687.343 34 689 34C690.657 34 692 32.6569 692 31C692 29.3431 690.657 28 689 28C687.343 28 686 29.3431 686 31Z" fill="white"/>
<path d="M664 31C664 32.6569 665.343 34 667 34C668.657 34 670 32.6569 670 31C670 29.3431 668.657 28 667 28C665.343 28 664 29.3431 664 31Z" fill="white"/>
<path d="M642 31C642 32.6569 643.343 34 645 34C646.657 34 648 32.6569 648 31C648 29.3431 646.657 28 645 28C643.343 28 642 29.3431 642 31Z" fill="white"/>
<path d="M620 31C620 32.6569 621.343 34 623 34C624.657 34 626 32.6569 626 31C626 29.3431 624.657 28 623 28C621.343 28 620 29.3431 620 31Z" fill="white"/>
<path d="M598 31C598 32.6569 599.343 34 601 34C602.657 34 604 32.6569 604 31C604 29.3431 602.657 28 601 28C599.343 28 598 29.3431 598 31Z" fill="white"/>
<path d="M576 31C576 32.6569 577.343 34 579 34C580.657 34 582 32.6569 582 31C582 29.3431 580.657 28 579 28C577.343 28 576 29.3431 576 31Z" fill="white"/>
<path d="M554 31C554 32.6569 555.343 34 557 34C558.657 34 560 32.6569 560 31C560 29.3431 558.657 28 557 28C555.343 28 554 29.3431 554 31Z" fill="white"/>
<path d="M532 31C532 32.6569 533.343 34 535 34C536.657 34 538 32.6569 538 31C538 29.3431 536.657 28 535 28C533.343 28 532 29.3431 532 31Z" fill="white"/>
<path d="M510 31C510 32.6569 511.343 34 513 34C514.657 34 516 32.6569 516 31C516 29.3431 514.657 28 513 28C511.343 28 510 29.3431 510 31Z" fill="white"/>
<path d="M488 31C488 32.6569 489.343 34 491 34C492.657 34 494 32.6569 494 31C494 29.3431 492.657 28 491 28C489.343 28 488 29.3431 488 31Z" fill="white"/>
<path d="M466 31C466 32.6569 467.343 34 469 34C470.657 34 472 32.6569 472 31C472 29.3431 470.657 28 469 28C467.343 28 466 29.3431 466 31Z" fill="white"/>
<path d="M994 53C994 54.6569 995.343 56 997 56C998.657 56 1000 54.6569 1000 53C1000 51.3431 998.657 50 997 50C995.343 50 994 51.3431 994 53Z" fill="white"/>
<path d="M972 53C972 54.6569 973.343 56 975 56C976.657 56 978 54.6569 978 53C978 51.3431 976.657 50 975 50C973.343 50 972 51.3431 972 53Z" fill="white"/>
<path d="M950 53C950 54.6569 951.343 56 953 56C954.657 56 956 54.6569 956 53C956 51.3431 954.657 50 953 50C951.343 50 950 51.3431 950 53Z" fill="white"/>
<path d="M928 53C928 54.6569 929.343 56 931 56C932.657 56 934 54.6569 934 53C934 51.3431 932.657 50 931 50C929.343 50 928 51.3431 928 53Z" fill="white"/>
<path d="M906 53C906 54.6569 907.343 56 909 56C910.657 56 912 54.6569 912 53C912 51.3431 910.657 50 909 50C907.343 50 906 51.3431 906 53Z" fill="white"/>
<path d="M884 53C884 54.6569 885.343 56 887 56C888.657 56 890 54.6569 890 53C890 51.3431 888.657 50 887 50C885.343 50 884 51.3431 884 53Z" fill="white"/>
<path d="M862 53C862 54.6569 863.343 56 865 56C866.657 56 868 54.6569 868 53C868 51.3431 866.657 50 865 50C863.343 50 862 51.3431 862 53Z" fill="white"/>
<path d="M840 53C840 54.6569 841.343 56 843 56C844.657 56 846 54.6569 846 53C846 51.3431 844.657 50 843 50C841.343 50 840 51.3431 840 53Z" fill="white"/>
<path d="M818 53C818 54.6569 819.343 56 821 56C822.657 56 824 54.6569 824 53C824 51.3431 822.657 50 821 50C819.343 50 818 51.3431 818 53Z" fill="white"/>
<path d="M796 53C796 54.6569 797.343 56 799 56C800.657 56 802 54.6569 802 53C802 51.3431 800.657 50 799 50C797.343 50 796 51.3431 796 53Z" fill="white"/>
<path d="M774 53C774 54.6569 775.343 56 777 56C778.657 56 780 54.6569 780 53C780 51.3431 778.657 50 777 50C775.343 50 774 51.3431 774 53Z" fill="white"/>
<path d="M752 53C752 54.6569 753.343 56 755 56C756.657 56 758 54.6569 758 53C758 51.3431 756.657 50 755 50C753.343 50 752 51.3431 752 53Z" fill="white"/>
<path d="M730 53C730 54.6569 731.343 56 733 56C734.657 56 736 54.6569 736 53C736 51.3431 734.657 50 733 50C731.343 50 730 51.3431 730 53Z" fill="white"/>
<path d="M708 53C708 54.6569 709.343 56 711 56C712.657 56 714 54.6569 714 53C714 51.3431 712.657 50 711 50C709.343 50 708 51.3431 708 53Z" fill="white"/>
<path d="M686 53C686 54.6569 687.343 56 689 56C690.657 56 692 54.6569 692 53C692 51.3431 690.657 50 689 50C687.343 50 686 51.3431 686 53Z" fill="white"/>
<path d="M664 53C664 54.6569 665.343 56 667 56C668.657 56 670 54.6569 670 53C670 51.3431 668.657 50 667 50C665.343 50 664 51.3431 664 53Z" fill="white"/>
<path d="M642 53C642 54.6569 643.343 56 645 56C646.657 56 648 54.6569 648 53C648 51.3431 646.657 50 645 50C643.343 50 642 51.3431 642 53Z" fill="white"/>
<path d="M620 53C620 54.6569 621.343 56 623 56C624.657 56 626 54.6569 626 53C626 51.3431 624.657 50 623 50C621.343 50 620 51.3431 620 53Z" fill="white"/>
<path d="M598 53C598 54.6569 599.343 56 601 56C602.657 56 604 54.6569 604 53C604 51.3431 602.657 50 601 50C599.343 50 598 51.3431 598 53Z" fill="white"/>
<path d="M576 53C576 54.6569 577.343 56 579 56C580.657 56 582 54.6569 582 53C582 51.3431 580.657 50 579 50C577.343 50 576 51.3431 576 53Z" fill="white"/>
<path d="M554 53C554 54.6569 555.343 56 557 56C558.657 56 560 54.6569 560 53C560 51.3431 558.657 50 557 50C555.343 50 554 51.3431 554 53Z" fill="white"/>
<path d="M532 53C532 54.6569 533.343 56 535 56C536.657 56 538 54.6569 538 53C538 51.3431 536.657 50 535 50C533.343 50 532 51.3431 532 53Z" fill="white"/>
<path d="M510 53C510 54.6569 511.343 56 513 56C514.657 56 516 54.6569 516 53C516 51.3431 514.657 50 513 50C511.343 50 510 51.3431 510 53Z" fill="white"/>
<path d="M994 75C994 76.6569 995.343 78 997 78C998.657 78 1000 76.6569 1000 75C1000 73.3431 998.657 72 997 72C995.343 72 994 73.3431 994 75Z" fill="white"/>
<path d="M972 75C972 76.6569 973.343 78 975 78C976.657 78 978 76.6569 978 75C978 73.3431 976.657 72 975 72C973.343 72 972 73.3431 972 75Z" fill="white"/>
<path d="M950 75C950 76.6569 951.343 78 953 78C954.657 78 956 76.6569 956 75C956 73.3431 954.657 72 953 72C951.343 72 950 73.3431 950 75Z" fill="white"/>
<path d="M928 75C928 76.6569 929.343 78 931 78C932.657 78 934 76.6569 934 75C934 73.3431 932.657 72 931 72C929.343 72 928 73.3431 928 75Z" fill="white"/>
<path d="M906 75C906 76.6569 907.343 78 909 78C910.657 78 912 76.6569 912 75C912 73.3431 910.657 72 909 72C907.343 72 906 73.3431 906 75Z" fill="white"/>
<path d="M884 75C884 76.6569 885.343 78 887 78C888.657 78 890 76.6569 890 75C890 73.3431 888.657 72 887 72C885.343 72 884 73.3431 884 75Z" fill="white"/>
<path d="M862 75C862 76.6569 863.343 78 865 78C866.657 78 868 76.6569 868 75C868 73.3431 866.657 72 865 72C863.343 72 862 73.3431 862 75Z" fill="white"/>
<path d="M840 75C840 76.6569 841.343 78 843 78C844.657 78 846 76.6569 846 75C846 73.3431 844.657 72 843 72C841.343 72 840 73.3431 840 75Z" fill="white"/>
<path d="M818 75C818 76.6569 819.343 78 821 78C822.657 78 824 76.6569 824 75C824 73.3431 822.657 72 821 72C819.343 72 818 73.3431 818 75Z" fill="white"/>
<path d="M796 75C796 76.6569 797.343 78 799 78C800.657 78 802 76.6569 802 75C802 73.3431 800.657 72 799 72C797.343 72 796 73.3431 796 75Z" fill="white"/>
<path d="M774 75C774 76.6569 775.343 78 777 78C778.657 78 780 76.6569 780 75C780 73.3431 778.657 72 777 72C775.343 72 774 73.3431 774 75Z" fill="white"/>
<path d="M752 75C752 76.6569 753.343 78 755 78C756.657 78 758 76.6569 758 75C758 73.3431 756.657 72 755 72C753.343 72 752 73.3431 752 75Z" fill="white"/>
<path d="M730 75C730 76.6569 731.343 78 733 78C734.657 78 736 76.6569 736 75C736 73.3431 734.657 72 733 72C731.343 72 730 73.3431 730 75Z" fill="white"/>
<path d="M708 75C708 76.6569 709.343 78 711 78C712.657 78 714 76.6569 714 75C714 73.3431 712.657 72 711 72C709.343 72 708 73.3431 708 75Z" fill="white"/>
<path d="M686 75C686 76.6569 687.343 78 689 78C690.657 78 692 76.6569 692 75C692 73.3431 690.657 72 689 72C687.343 72 686 73.3431 686 75Z" fill="white"/>
<path d="M664 75C664 76.6569 665.343 78 667 78C668.657 78 670 76.6569 670 75C670 73.3431 668.657 72 667 72C665.343 72 664 73.3431 664 75Z" fill="white"/>
<path d="M642 75C642 76.6569 643.343 78 645 78C646.657 78 648 76.6569 648 75C648 73.3431 646.657 72 645 72C643.343 72 642 73.3431 642 75Z" fill="white"/>
<path d="M620 75C620 76.6569 621.343 78 623 78C624.657 78 626 76.6569 626 75C626 73.3431 624.657 72 623 72C621.343 72 620 73.3431 620 75Z" fill="white"/>
<path d="M598 75C598 76.6569 599.343 78 601 78C602.657 78 604 76.6569 604 75C604 73.3431 602.657 72 601 72C599.343 72 598 73.3431 598 75Z" fill="white"/>
<path d="M576 75C576 76.6569 577.343 78 579 78C580.657 78 582 76.6569 582 75C582 73.3431 580.657 72 579 72C577.343 72 576 73.3431 576 75Z" fill="white"/>
<path d="M554 75C554 76.6569 555.343 78 557 78C558.657 78 560 76.6569 560 75C560 73.3431 558.657 72 557 72C555.343 72 554 73.3431 554 75Z" fill="white"/>
<path d="M994 97C994 98.6569 995.343 100 997 100C998.657 100 1000 98.6569 1000 97C1000 95.3431 998.657 94 997 94C995.343 94 994 95.3431 994 97Z" fill="white"/>
<path d="M972 97C972 98.6569 973.343 100 975 100C976.657 100 978 98.6569 978 97C978 95.3431 976.657 94 975 94C973.343 94 972 95.3431 972 97Z" fill="white"/>
<path d="M950 97C950 98.6569 951.343 100 953 100C954.657 100 956 98.6569 956 97C956 95.3431 954.657 94 953 94C951.343 94 950 95.3431 950 97Z" fill="white"/>
<path d="M928 97C928 98.6569 929.343 100 931 100C932.657 100 934 98.6569 934 97C934 95.3431 932.657 94 931 94C929.343 94 928 95.3431 928 97Z" fill="white"/>
<path d="M906 97C906 98.6569 907.343 100 909 100C910.657 100 912 98.6569 912 97C912 95.3431 910.657 94 909 94C907.343 94 906 95.3431 906 97Z" fill="white"/>
<path d="M884 97C884 98.6569 885.343 100 887 100C888.657 100 890 98.6569 890 97C890 95.3431 888.657 94 887 94C885.343 94 884 95.3431 884 97Z" fill="white"/>
<path d="M862 97C862 98.6569 863.343 100 865 100C866.657 100 868 98.6569 868 97C868 95.3431 866.657 94 865 94C863.343 94 862 95.3431 862 97Z" fill="white"/>
<path d="M840 97C840 98.6569 841.343 100 843 100C844.657 100 846 98.6569 846 97C846 95.3431 844.657 94 843 94C841.343 94 840 95.3431 840 97Z" fill="white"/>
<path d="M818 97C818 98.6569 819.343 100 821 100C822.657 100 824 98.6569 824 97C824 95.3431 822.657 94 821 94C819.343 94 818 95.3431 818 97Z" fill="white"/>
<path d="M796 97C796 98.6569 797.343 100 799 100C800.657 100 802 98.6569 802 97C802 95.3431 800.657 94 799 94C797.343 94 796 95.3431 796 97Z" fill="white"/>
<path d="M774 97C774 98.6569 775.343 100 777 100C778.657 100 780 98.6569 780 97C780 95.3431 778.657 94 777 94C775.343 94 774 95.3431 774 97Z" fill="white"/>
<path d="M752 97C752 98.6569 753.343 100 755 100C756.657 100 758 98.6569 758 97C758 95.3431 756.657 94 755 94C753.343 94 752 95.3431 752 97Z" fill="white"/>
<path d="M730 97C730 98.6569 731.343 100 733 100C734.657 100 736 98.6569 736 97C736 95.3431 734.657 94 733 94C731.343 94 730 95.3431 730 97Z" fill="white"/>
<path d="M708 97C708 98.6569 709.343 100 711 100C712.657 100 714 98.6569 714 97C714 95.3431 712.657 94 711 94C709.343 94 708 95.3431 708 97Z" fill="white"/>
<path d="M686 97C686 98.6569 687.343 100 689 100C690.657 100 692 98.6569 692 97C692 95.3431 690.657 94 689 94C687.343 94 686 95.3431 686 97Z" fill="white"/>
<path d="M664 97C664 98.6569 665.343 100 667 100C668.657 100 670 98.6569 670 97C670 95.3431 668.657 94 667 94C665.343 94 664 95.3431 664 97Z" fill="white"/>
<path d="M642 97C642 98.6569 643.343 100 645 100C646.657 100 648 98.6569 648 97C648 95.3431 646.657 94 645 94C643.343 94 642 95.3431 642 97Z" fill="white"/>
<path d="M620 97C620 98.6569 621.343 100 623 100C624.657 100 626 98.6569 626 97C626 95.3431 624.657 94 623 94C621.343 94 620 95.3431 620 97Z" fill="white"/>
<path d="M598 97C598 98.6569 599.343 100 601 100C602.657 100 604 98.6569 604 97C604 95.3431 602.657 94 601 94C599.343 94 598 95.3431 598 97Z" fill="white"/>
<path d="M994 119C994 120.657 995.343 122 997 122C998.657 122 1000 120.657 1000 119C1000 117.343 998.657 116 997 116C995.343 116 994 117.343 994 119Z" fill="white"/>
<path d="M972 119C972 120.657 973.343 122 975 122C976.657 122 978 120.657 978 119C978 117.343 976.657 116 975 116C973.343 116 972 117.343 972 119Z" fill="white"/>
<path d="M950 119C950 120.657 951.343 122 953 122C954.657 122 956 120.657 956 119C956 117.343 954.657 116 953 116C951.343 116 950 117.343 950 119Z" fill="white"/>
<path d="M928 119C928 120.657 929.343 122 931 122C932.657 122 934 120.657 934 119C934 117.343 932.657 116 931 116C929.343 116 928 117.343 928 119Z" fill="white"/>
<path d="M906 119C906 120.657 907.343 122 909 122C910.657 122 912 120.657 912 119C912 117.343 910.657 116 909 116C907.343 116 906 117.343 906 119Z" fill="white"/>
<path d="M884 119C884 120.657 885.343 122 887 122C888.657 122 890 120.657 890 119C890 117.343 888.657 116 887 116C885.343 116 884 117.343 884 119Z" fill="white"/>
<path d="M862 119C862 120.657 863.343 122 865 122C866.657 122 868 120.657 868 119C868 117.343 866.657 116 865 116C863.343 116 862 117.343 862 119Z" fill="white"/>
<path d="M840 119C840 120.657 841.343 122 843 122C844.657 122 846 120.657 846 119C846 117.343 844.657 116 843 116C841.343 116 840 117.343 840 119Z" fill="white"/>
<path d="M818 119C818 120.657 819.343 122 821 122C822.657 122 824 120.657 824 119C824 117.343 822.657 116 821 116C819.343 116 818 117.343 818 119Z" fill="white"/>
<path d="M796 119C796 120.657 797.343 122 799 122C800.657 122 802 120.657 802 119C802 117.343 800.657 116 799 116C797.343 116 796 117.343 796 119Z" fill="white"/>
<path d="M774 119C774 120.657 775.343 122 777 122C778.657 122 780 120.657 780 119C780 117.343 778.657 116 777 116C775.343 116 774 117.343 774 119Z" fill="white"/>
<path d="M752 119C752 120.657 753.343 122 755 122C756.657 122 758 120.657 758 119C758 117.343 756.657 116 755 116C753.343 116 752 117.343 752 119Z" fill="white"/>
<path d="M730 119C730 120.657 731.343 122 733 122C734.657 122 736 120.657 736 119C736 117.343 734.657 116 733 116C731.343 116 730 117.343 730 119Z" fill="white"/>
<path d="M708 119C708 120.657 709.343 122 711 122C712.657 122 714 120.657 714 119C714 117.343 712.657 116 711 116C709.343 116 708 117.343 708 119Z" fill="white"/>
<path d="M686 119C686 120.657 687.343 122 689 122C690.657 122 692 120.657 692 119C692 117.343 690.657 116 689 116C687.343 116 686 117.343 686 119Z" fill="white"/>
<path d="M664 119C664 120.657 665.343 122 667 122C668.657 122 670 120.657 670 119C670 117.343 668.657 116 667 116C665.343 116 664 117.343 664 119Z" fill="white"/>
<path d="M642 119C642 120.657 643.343 122 645 122C646.657 122 648 120.657 648 119C648 117.343 646.657 116 645 116C643.343 116 642 117.343 642 119Z" fill="white"/>
</g>
</g>
<defs>
<filter id="filter0_f_21461_71684" x="439.195" y="-103.06" width="286.94" height="235.188" filterUnits="userSpaceOnUse" color-interpolation-filters="sRGB">
<feFlood flood-opacity="0" result="BackgroundImageFix"/>
<feBlend mode="normal" in="SourceGraphic" in2="BackgroundImageFix" result="shape"/>
<feGaussianBlur stdDeviation="52.1969" result="effect1_foregroundBlur_21461_71684"/>
</filter>
<filter id="filter1_f_21461_71684" x="526.205" y="-63.3271" width="286.94" height="235.054" filterUnits="userSpaceOnUse" color-interpolation-filters="sRGB">
<feFlood flood-opacity="0" result="BackgroundImageFix"/>
<feBlend mode="normal" in="SourceGraphic" in2="BackgroundImageFix" result="shape"/>
<feGaussianBlur stdDeviation="52.1969" result="effect1_foregroundBlur_21461_71684"/>
</filter>
<filter id="filter2_f_21461_71684" x="288.621" y="-25.1938" width="286.94" height="235.054" filterUnits="userSpaceOnUse" color-interpolation-filters="sRGB">
<feFlood flood-opacity="0" result="BackgroundImageFix"/>
<feBlend mode="normal" in="SourceGraphic" in2="BackgroundImageFix" result="shape"/>
<feGaussianBlur stdDeviation="52.1969" result="effect1_foregroundBlur_21461_71684"/>
</filter>
<filter id="filter3_f_21461_71684" x="273.511" y="-92.2605" width="250.469" height="235.054" filterUnits="userSpaceOnUse" color-interpolation-filters="sRGB">
<feFlood flood-opacity="0" result="BackgroundImageFix"/>
<feBlend mode="normal" in="SourceGraphic" in2="BackgroundImageFix" result="shape"/>
<feGaussianBlur stdDeviation="52.1969" result="effect1_foregroundBlur_21461_71684"/>
</filter>
<filter id="filter4_f_21461_71684" x="345.412" y="-104.394" width="286.94" height="222.921" filterUnits="userSpaceOnUse" color-interpolation-filters="sRGB">
<feFlood flood-opacity="0" result="BackgroundImageFix"/>
<feBlend mode="normal" in="SourceGraphic" in2="BackgroundImageFix" result="shape"/>
<feGaussianBlur stdDeviation="52.1969" result="effect1_foregroundBlur_21461_71684"/>
</filter>
<filter id="filter5_f_21461_71684" x="164.619" y="-2.26047" width="286.94" height="226.121" filterUnits="userSpaceOnUse" color-interpolation-filters="sRGB">
<feFlood flood-opacity="0" result="BackgroundImageFix"/>
<feBlend mode="normal" in="SourceGraphic" in2="BackgroundImageFix" result="shape"/>
<feGaussianBlur stdDeviation="52.1969" result="effect1_foregroundBlur_21461_71684"/>
</filter>
<filter id="filter6_f_21461_71684" x="164.619" y="-2.79378" width="286.94" height="218.121" filterUnits="userSpaceOnUse" color-interpolation-filters="sRGB">
<feFlood flood-opacity="0" result="BackgroundImageFix"/>
<feBlend mode="normal" in="SourceGraphic" in2="BackgroundImageFix" result="shape"/>
<feGaussianBlur stdDeviation="52.1969" result="effect1_foregroundBlur_21461_71684"/>
</filter>
<filter id="filter7_f_21461_71684" x="164.619" y="-41.5938" width="286.94" height="235.188" filterUnits="userSpaceOnUse" color-interpolation-filters="sRGB">
<feFlood flood-opacity="0" result="BackgroundImageFix"/>
<feBlend mode="normal" in="SourceGraphic" in2="BackgroundImageFix" result="shape"/>
<feGaussianBlur stdDeviation="52.1969" result="effect1_foregroundBlur_21461_71684"/>
</filter>
<filter id="filter8_f_21461_71684" x="204.217" y="-72.7938" width="247.343" height="221.721" filterUnits="userSpaceOnUse" color-interpolation-filters="sRGB">
<feFlood flood-opacity="0" result="BackgroundImageFix"/>
<feBlend mode="normal" in="SourceGraphic" in2="BackgroundImageFix" result="shape"/>
<feGaussianBlur stdDeviation="52.1969" result="effect1_foregroundBlur_21461_71684"/>
</filter>
<filter id="filter9_f_21461_71684" x="-103.705" y="-28.5271" width="286.94" height="221.721" filterUnits="userSpaceOnUse" color-interpolation-filters="sRGB">
<feFlood flood-opacity="0" result="BackgroundImageFix"/>
<feBlend mode="normal" in="SourceGraphic" in2="BackgroundImageFix" result="shape"/>
<feGaussianBlur stdDeviation="52.1969" result="effect1_foregroundBlur_21461_71684"/>
</filter>
<filter id="filter10_f_21461_71684" x="-78.175" y="-72.6604" width="236.401" height="235.188" filterUnits="userSpaceOnUse" color-interpolation-filters="sRGB">
<feFlood flood-opacity="0" result="BackgroundImageFix"/>
<feBlend mode="normal" in="SourceGraphic" in2="BackgroundImageFix" result="shape"/>
<feGaussianBlur stdDeviation="52.1969" result="effect1_foregroundBlur_21461_71684"/>
</filter>
<filter id="filter11_f_21461_71684" x="-103.705" y="-103.994" width="250.469" height="235.054" filterUnits="userSpaceOnUse" color-interpolation-filters="sRGB">
<feFlood flood-opacity="0" result="BackgroundImageFix"/>
<feBlend mode="normal" in="SourceGraphic" in2="BackgroundImageFix" result="shape"/>
<feGaussianBlur stdDeviation="52.1969" result="effect1_foregroundBlur_21461_71684"/>
</filter>
<filter id="filter12_f_21461_71684" x="57.2898" y="-75.9938" width="286.419" height="217.988" filterUnits="userSpaceOnUse" color-interpolation-filters="sRGB">
<feFlood flood-opacity="0" result="BackgroundImageFix"/>
<feBlend mode="normal" in="SourceGraphic" in2="BackgroundImageFix" result="shape"/>
<feGaussianBlur stdDeviation="52.1969" result="effect1_foregroundBlur_21461_71684"/>
</filter>
<filter id="filter13_f_21461_71684" x="23.4231" y="2.0062" width="247.343" height="221.854" filterUnits="userSpaceOnUse" color-interpolation-filters="sRGB">
<feFlood flood-opacity="0" result="BackgroundImageFix"/>
<feBlend mode="normal" in="SourceGraphic" in2="BackgroundImageFix" result="shape"/>
<feGaussianBlur stdDeviation="52.1969" result="effect1_foregroundBlur_21461_71684"/>
</filter>
<filter id="filter14_f_21461_71684" x="-104.226" y="-2.66046" width="286.94" height="235.054" filterUnits="userSpaceOnUse" color-interpolation-filters="sRGB">
<feFlood flood-opacity="0" result="BackgroundImageFix"/>
<feBlend mode="normal" in="SourceGraphic" in2="BackgroundImageFix" result="shape"/>
<feGaussianBlur stdDeviation="52.1969" result="effect1_foregroundBlur_21461_71684"/>
</filter>
<filter id="filter15_f_21461_71684" x="438.153" y="-11.1938" width="286.94" height="235.054" filterUnits="userSpaceOnUse" color-interpolation-filters="sRGB">
<feFlood flood-opacity="0" result="BackgroundImageFix"/>
<feBlend mode="normal" in="SourceGraphic" in2="BackgroundImageFix" result="shape"/>
<feGaussianBlur stdDeviation="52.1969" result="effect1_foregroundBlur_21461_71684"/>
</filter>
<filter id="filter16_f_21461_71684" x="560.592" y="-9.06046" width="280.688" height="232.921" filterUnits="userSpaceOnUse" color-interpolation-filters="sRGB">
<feFlood flood-opacity="0" result="BackgroundImageFix"/>
<feBlend mode="normal" in="SourceGraphic" in2="BackgroundImageFix" result="shape"/>
<feGaussianBlur stdDeviation="52.1969" result="effect1_foregroundBlur_21461_71684"/>
</filter>
<filter id="filter17_f_21461_71684" x="666.88" y="-88.6604" width="247.343" height="233.054" filterUnits="userSpaceOnUse" color-interpolation-filters="sRGB">
<feFlood flood-opacity="0" result="BackgroundImageFix"/>
<feBlend mode="normal" in="SourceGraphic" in2="BackgroundImageFix" result="shape"/>
<feGaussianBlur stdDeviation="52.1969" result="effect1_foregroundBlur_21461_71684"/>
</filter>
<filter id="filter18_f_21461_71684" x="860.177" y="-104.394" width="244.217" height="220.788" filterUnits="userSpaceOnUse" color-interpolation-filters="sRGB">
<feFlood flood-opacity="0" result="BackgroundImageFix"/>
<feBlend mode="normal" in="SourceGraphic" in2="BackgroundImageFix" result="shape"/>
<feGaussianBlur stdDeviation="52.1969" result="effect1_foregroundBlur_21461_71684"/>
</filter>
<filter id="filter19_f_21461_71684" x="273.928" y="-103.06" width="286.953" height="235.188" filterUnits="userSpaceOnUse" color-interpolation-filters="sRGB">
<feFlood flood-opacity="0" result="BackgroundImageFix"/>
<feBlend mode="normal" in="SourceGraphic" in2="BackgroundImageFix" result="shape"/>
<feGaussianBlur stdDeviation="52.1969" result="effect1_foregroundBlur_21461_71684"/>
</filter>
<filter id="filter20_f_21461_71684" x="186.905" y="-63.3271" width="286.953" height="235.054" filterUnits="userSpaceOnUse" color-interpolation-filters="sRGB">
<feFlood flood-opacity="0" result="BackgroundImageFix"/>
<feBlend mode="normal" in="SourceGraphic" in2="BackgroundImageFix" result="shape"/>
<feGaussianBlur stdDeviation="52.1969" result="effect1_foregroundBlur_21461_71684"/>
</filter>
<filter id="filter21_f_21461_71684" x="548.55" y="-2.26047" width="286.953" height="226.121" filterUnits="userSpaceOnUse" color-interpolation-filters="sRGB">
<feFlood flood-opacity="0" result="BackgroundImageFix"/>
<feBlend mode="normal" in="SourceGraphic" in2="BackgroundImageFix" result="shape"/>
<feGaussianBlur stdDeviation="52.1969" result="effect1_foregroundBlur_21461_71684"/>
</filter>
<filter id="filter22_f_21461_71684" x="548.55" y="-2.79378" width="286.953" height="218.121" filterUnits="userSpaceOnUse" color-interpolation-filters="sRGB">
<feFlood flood-opacity="0" result="BackgroundImageFix"/>
<feBlend mode="normal" in="SourceGraphic" in2="BackgroundImageFix" result="shape"/>
<feGaussianBlur stdDeviation="52.1969" result="effect1_foregroundBlur_21461_71684"/>
</filter>
<filter id="filter23_f_21461_71684" x="548.551" y="-41.5938" width="286.953" height="235.188" filterUnits="userSpaceOnUse" color-interpolation-filters="sRGB">
<feFlood flood-opacity="0" result="BackgroundImageFix"/>
<feBlend mode="normal" in="SourceGraphic" in2="BackgroundImageFix" result="shape"/>
<feGaussianBlur stdDeviation="52.1969" result="effect1_foregroundBlur_21461_71684"/>
</filter>
<filter id="filter24_f_21461_71684" x="548.55" y="-72.7938" width="247.349" height="221.721" filterUnits="userSpaceOnUse" color-interpolation-filters="sRGB">
<feFlood flood-opacity="0" result="BackgroundImageFix"/>
<feBlend mode="normal" in="SourceGraphic" in2="BackgroundImageFix" result="shape"/>
<feGaussianBlur stdDeviation="52.1969" result="effect1_foregroundBlur_21461_71684"/>
</filter>
<filter id="filter25_f_21461_71684" x="841.932" y="-72.6605" width="236.406" height="235.188" filterUnits="userSpaceOnUse" color-interpolation-filters="sRGB">
<feFlood flood-opacity="0" result="BackgroundImageFix"/>
<feBlend mode="normal" in="SourceGraphic" in2="BackgroundImageFix" result="shape"/>
<feGaussianBlur stdDeviation="52.1969" result="effect1_foregroundBlur_21461_71684"/>
</filter>
<filter id="filter26_f_21461_71684" x="656.419" y="-75.9938" width="286.432" height="217.988" filterUnits="userSpaceOnUse" color-interpolation-filters="sRGB">
<feFlood flood-opacity="0" result="BackgroundImageFix"/>
<feBlend mode="normal" in="SourceGraphic" in2="BackgroundImageFix" result="shape"/>
<feGaussianBlur stdDeviation="52.1969" result="effect1_foregroundBlur_21461_71684"/>
</filter>
<filter id="filter27_f_21461_71684" x="729.374" y="2.00621" width="247.349" height="221.854" filterUnits="userSpaceOnUse" color-interpolation-filters="sRGB">
<feFlood flood-opacity="0" result="BackgroundImageFix"/>
<feBlend mode="normal" in="SourceGraphic" in2="BackgroundImageFix" result="shape"/>
<feGaussianBlur stdDeviation="52.1969" result="effect1_foregroundBlur_21461_71684"/>
</filter>
<filter id="filter28_f_21461_71684" x="817.44" y="-2.66046" width="286.953" height="235.054" filterUnits="userSpaceOnUse" color-interpolation-filters="sRGB">
<feFlood flood-opacity="0" result="BackgroundImageFix"/>
<feBlend mode="normal" in="SourceGraphic" in2="BackgroundImageFix" result="shape"/>
<feGaussianBlur stdDeviation="52.1969" result="effect1_foregroundBlur_21461_71684"/>
</filter>
<filter id="filter29_f_21461_71684" x="274.971" y="-90.3736" width="286.953" height="235.054" filterUnits="userSpaceOnUse" color-interpolation-filters="sRGB">
<feFlood flood-opacity="0" result="BackgroundImageFix"/>
<feBlend mode="normal" in="SourceGraphic" in2="BackgroundImageFix" result="shape"/>
<feGaussianBlur stdDeviation="52.1969" result="effect1_foregroundBlur_21461_71684"/>
</filter>
<filter id="filter30_f_21461_71684" x="158.764" y="-9.06044" width="280.7" height="232.921" filterUnits="userSpaceOnUse" color-interpolation-filters="sRGB">
<feFlood flood-opacity="0" result="BackgroundImageFix"/>
<feBlend mode="normal" in="SourceGraphic" in2="BackgroundImageFix" result="shape"/>
<feGaussianBlur stdDeviation="52.1969" result="effect1_foregroundBlur_21461_71684"/>
</filter>
<filter id="filter31_f_21461_71684" x="85.8098" y="-88.6605" width="247.349" height="233.054" filterUnits="userSpaceOnUse" color-interpolation-filters="sRGB">
<feFlood flood-opacity="0" result="BackgroundImageFix"/>
<feBlend mode="normal" in="SourceGraphic" in2="BackgroundImageFix" result="shape"/>
<feGaussianBlur stdDeviation="52.1969" result="effect1_foregroundBlur_21461_71684"/>
</filter>
<filter id="filter32_f_21461_71684" x="-104.394" y="-104.394" width="244.223" height="220.788" filterUnits="userSpaceOnUse" color-interpolation-filters="sRGB">
<feFlood flood-opacity="0" result="BackgroundImageFix"/>
<feBlend mode="normal" in="SourceGraphic" in2="BackgroundImageFix" result="shape"/>
<feGaussianBlur stdDeviation="52.1969" result="effect1_foregroundBlur_21461_71684"/>
</filter>
<linearGradient id="paint0_linear_21461_71684" x1="0" y1="128" x2="32.2398" y2="-123.873" gradientUnits="userSpaceOnUse">
<stop stop-color="#DFE9FF"/>
<stop offset="1" stop-color="#DEE2FF"/>
</linearGradient>
<clipPath id="clip0_21461_71684">
<rect width="1000" height="128" rx="4" fill="white"/>
</clipPath>
<clipPath id="clip1_21461_71684">
<rect width="1000" height="128" fill="white"/>
</clipPath>
</defs>
</svg>
