<svg viewBox="0 0 20 20" fill="none" xmlns="http://www.w3.org/2000/svg">
<path d="M10.746 10.459L7.93733 13.2677C7.7719 13.4331 7.57236 13.5145 7.3387 13.5119C7.10505 13.5094 6.9055 13.4253 6.74007 13.2599C6.57465 13.0945 6.49195 12.8932 6.49195 12.6561C6.49195 12.419 6.57465 12.2186 6.74007 12.0549L9.54099 9.25401H7.58064C7.34206 9.25401 7.13794 9.16914 6.96826 8.99941C6.79857 8.82967 6.71372 8.62547 6.71372 8.38683C6.71372 8.14817 6.79857 7.94407 6.96826 7.77451C7.13794 7.60495 7.34206 7.52017 7.58064 7.52017H11.4888C11.7626 7.52017 11.9962 7.61691 12.1896 7.81038C12.3831 8.00385 12.4798 8.23744 12.4798 8.51116V12.4194C12.4798 12.6579 12.395 12.8621 12.2252 13.0318C12.0555 13.2014 11.8513 13.2863 11.6126 13.2863C11.374 13.2863 11.1699 13.2014 11.0003 13.0318C10.8308 12.8621 10.746 12.6579 10.746 12.4194V10.459ZM10.9879 4.23386C10.7493 4.23386 10.5452 4.14898 10.3755 3.97924C10.2058 3.80951 10.121 3.60531 10.121 3.36666C10.121 3.12801 10.2058 2.92391 10.3755 2.75436C10.5452 2.58479 10.7493 2.5 10.9879 2.5H15.518C16.0802 2.5 16.5511 2.68979 16.9306 3.06938C17.3102 3.44895 17.5 3.91983 17.5 4.48202V9.01211C17.5 9.25068 17.4151 9.4548 17.2454 9.62449C17.0756 9.79419 16.8714 9.87903 16.6328 9.87903C16.3941 9.87903 16.19 9.79419 16.0205 9.62449C15.8509 9.4548 15.7661 9.25068 15.7661 9.01211V4.48202C15.7661 4.40964 15.7429 4.35019 15.6963 4.30365C15.6498 4.25712 15.5904 4.23386 15.518 4.23386H10.9879ZM4.48202 17.5C3.92681 17.5 3.45766 17.3085 3.0746 16.9254C2.69153 16.5423 2.5 16.0732 2.5 15.518V3.36694C2.5 3.12836 2.58487 2.92423 2.75462 2.75454C2.92436 2.58485 3.12856 2.5 3.3672 2.5C3.60586 2.5 3.80996 2.58485 3.97952 2.75454C4.14908 2.92423 4.23386 3.12836 4.23386 3.36694V15.518C4.23386 15.58 4.2597 15.6369 4.3114 15.6886C4.3631 15.7403 4.41998 15.7661 4.48202 15.7661H16.6331C16.8716 15.7661 17.0758 15.851 17.2455 16.0208C17.4152 16.1905 17.5 16.3947 17.5 16.6333C17.5 16.872 17.4152 17.0761 17.2455 17.2456C17.0758 17.4152 16.8716 17.5 16.6331 17.5H4.48202Z" fill="#6265AD"/>
</svg>
