<svg width="20" height="20" viewBox="0 0 20 20" fill="none" xmlns="http://www.w3.org/2000/svg">
<path fill-rule="evenodd" clip-rule="evenodd" d="M12.7779 2.5C15.3854 2.5 17.5 4.6369 17.5 7.27569C17.5 9.91273 15.3854 12.0514 12.7779 12.0514C12.3941 12.0514 12.0241 11.9993 11.6678 11.9124C11.2398 12.3453 10.6564 12.5889 10.0477 12.5889H8.57092V14.0444C8.57092 14.5967 8.1232 15.0444 7.57092 15.0444H6.14289V16.5C6.14289 17.0523 5.69518 17.5 5.14289 17.5H3.5C2.94772 17.5 2.5 17.0523 2.5 16.5V14.6383C2.5 14.1119 2.70755 13.6067 3.07762 13.2323L8.13305 8.11794C8.08497 7.84443 8.05578 7.56396 8.05578 7.27569C8.05578 4.6369 10.1696 2.5 12.7779 2.5ZM14.0134 4.5822C13.3025 4.5822 12.7255 5.16483 12.7255 5.88466C12.7255 6.60362 13.3025 7.18712 14.0134 7.18712C14.7251 7.18712 15.3012 6.60362 15.3012 5.88466C15.3012 5.16483 14.7251 4.5822 14.0134 4.5822Z" fill="#52567A"/>
</svg>
