<svg viewBox="0 0 20 20" fill="none" xmlns="http://www.w3.org/2000/svg">
<path d="M10 18C8.89355 18 7.85315 17.7915 6.8788 17.3745C5.90444 16.9575 5.05621 16.388 4.33411 15.6659C3.61202 14.9438 3.04248 14.0956 2.6255 13.1212C2.2085 12.1469 2 11.1065 2 10C2 8.89873 2.2085 7.85962 2.6255 6.88268C3.04248 5.90573 3.61202 5.05621 4.33411 4.33411C5.05621 3.61202 5.90444 3.04248 6.8788 2.6255C7.85315 2.2085 8.89355 2 10 2C11.1013 2 12.1404 2.2085 13.1173 2.6255C14.0943 3.04248 14.9438 3.61202 15.6659 4.33411C16.388 5.05621 16.9575 5.90573 17.3745 6.88268C17.7915 7.85962 18 8.89873 18 10C18 11.1065 17.7915 12.1469 17.3745 13.1212C16.9575 14.0956 16.388 14.9438 15.6659 15.6659C14.9438 16.388 14.0943 16.9575 13.1173 17.3745C12.1404 17.7915 11.1013 18 10 18ZM10 16.3668C10.2642 16.0891 10.517 15.6182 10.7584 14.9542C10.9998 14.2901 11.1888 13.5742 11.3256 12.8065H8.67442C8.82153 13.5949 9.0132 14.3212 9.24941 14.9852C9.48561 15.6493 9.73581 16.1098 10 16.3668ZM8.49575 16.2253C8.25333 15.8617 8.03577 15.38 7.84306 14.7801C7.65036 14.1803 7.4991 13.5224 7.38929 12.8065H4.22374C4.62365 13.6996 5.21288 14.4483 5.99144 15.0529C6.77002 15.6574 7.60479 16.0482 8.49575 16.2253ZM11.5042 16.2253C12.3952 16.0482 13.23 15.6574 14.0086 15.0529C14.7871 14.4483 15.3763 13.6996 15.7763 12.8065H12.6107C12.475 13.5276 12.3108 14.188 12.1181 14.7879C11.9254 15.3877 11.7208 15.8669 11.5042 16.2253ZM3.77621 11.554H7.24476C7.22093 11.294 7.20436 11.0264 7.19504 10.7514C7.18572 10.4763 7.18106 10.2124 7.18106 9.9596C7.18106 9.70681 7.18572 9.44962 7.19504 9.18802C7.20436 8.92643 7.22093 8.67908 7.24476 8.44598H3.77621C3.69851 8.68012 3.64567 8.93187 3.6177 9.20123C3.58973 9.47059 3.57574 9.73685 3.57574 10C3.57574 10.2632 3.58973 10.5294 3.6177 10.7988C3.64567 11.0681 3.69851 11.3199 3.77621 11.554ZM8.53767 11.554H11.4623C11.4996 11.2805 11.5229 11.0156 11.5323 10.7591C11.5416 10.5027 11.5462 10.2497 11.5462 10C11.5462 9.75032 11.5416 9.4939 11.5323 9.23077C11.5229 8.96761 11.4996 8.70602 11.4623 8.44598H8.53767C8.50038 8.70602 8.47707 8.96761 8.46773 9.23077C8.45841 9.4939 8.45375 9.75032 8.45375 10C8.45375 10.2497 8.45841 10.5061 8.46773 10.7692C8.47707 11.0324 8.50038 11.294 8.53767 11.554ZM12.7552 11.554H16.2238C16.3015 11.3199 16.3543 11.0681 16.3823 10.7988C16.4103 10.5294 16.4243 10.2632 16.4243 10C16.4243 9.73685 16.4103 9.46722 16.3823 9.19113C16.3543 8.91503 16.3015 8.66665 16.2238 8.44598H12.7552C12.7791 8.70602 12.7956 8.97357 12.805 9.24862C12.8143 9.5237 12.8189 9.78762 12.8189 10.0404C12.8189 10.2932 12.8143 10.5504 12.805 10.812C12.7956 11.0736 12.7791 11.3209 12.7552 11.554ZM12.6107 7.19349H15.7763C15.3712 6.29008 14.7858 5.54129 14.0202 4.94714C13.2546 4.353 12.4159 3.95957 11.5042 3.76687C11.7467 4.15641 11.9616 4.64722 12.1492 5.2393C12.3367 5.83138 12.4905 6.48278 12.6107 7.19349ZM8.67442 7.19349H11.3256C11.1785 6.41027 10.9829 5.6835 10.7389 5.0132C10.495 4.34291 10.2486 3.84925 10 3.53223C9.75135 3.84925 9.50504 4.34291 9.26107 5.0132C9.01708 5.6835 8.82153 6.41027 8.67442 7.19349ZM4.22374 7.19349H7.38929C7.50946 6.48278 7.66331 5.83138 7.85084 5.2393C8.03836 4.64722 8.25333 4.15641 8.49575 3.76687C7.57889 3.95957 6.73894 4.3543 5.97591 4.95104C5.21289 5.54778 4.62883 6.29526 4.22374 7.19349Z" fill="#6265AD"/>
</svg>
