<svg viewBox="0 0 20 20" fill="none" xmlns="http://www.w3.org/2000/svg">
<path d="M10.6585 15.1849C11.3179 14.8715 11.9855 14.6277 12.6615 14.4535C13.3374 14.2793 14.0356 14.1921 14.7561 14.1921C15.2439 14.1921 15.7116 14.2222 16.1592 14.2823C16.6068 14.3423 17.0289 14.4696 17.4256 14.664C17.4899 14.6913 17.5489 14.6872 17.6025 14.6517C17.6561 14.6162 17.6829 14.5602 17.6829 14.4837V5.1067C17.6829 5.05756 17.6695 5.01388 17.6427 4.97564C17.6159 4.93741 17.5704 4.90464 17.506 4.87734C17.0182 4.69495 16.5286 4.55653 16.037 4.46205C15.5454 4.3676 15.0349 4.32037 14.5052 4.32037C13.8266 4.32037 13.1662 4.41074 12.524 4.59149C11.8818 4.77225 11.26 5.02917 10.6585 5.36226V15.1849ZM9.99281 17C9.88343 17 9.78858 16.9653 9.70828 16.896C9.62798 16.8266 9.53949 16.7641 9.44279 16.7084C8.81132 16.3338 8.14824 16.0408 7.45355 15.8295C6.75886 15.6182 6.04768 15.5125 5.32003 15.5125C4.89833 15.5125 4.47628 15.5311 4.05388 15.5682C3.63147 15.6053 3.22675 15.7074 2.83973 15.8745C2.39256 16.0569 1.97415 16.0668 1.58449 15.904C1.19483 15.7413 1 15.4628 1 15.0685V4.7758C1 4.54973 1.06379 4.3455 1.19137 4.16311C1.31896 3.98073 1.4771 3.83985 1.66579 3.74046C2.21255 3.41173 2.79416 3.20614 3.41063 3.12369C4.02707 3.04123 4.6521 3 5.2857 3C6.12731 3 6.92227 3.09556 7.67059 3.28669C8.41892 3.47781 9.1919 3.78743 9.98955 4.21555C10.7872 3.78743 11.5602 3.47781 12.3085 3.28669C13.0568 3.09556 13.8518 3 14.6934 3C15.2712 3 15.844 3.03768 16.4117 3.11304C16.9794 3.18839 17.5157 3.34784 18.0206 3.59138C18.279 3.70497 18.5068 3.86005 18.7041 4.05663C18.9014 4.25321 19 4.49293 19 4.7758V15.0685C19 15.4202 18.8277 15.6782 18.4831 15.8426C18.1384 16.007 17.765 16.0263 17.3629 15.9008C16.9115 15.7391 16.4508 15.634 15.9807 15.5854C15.5106 15.5368 15.0352 15.5125 14.5545 15.5125C13.8408 15.5125 13.1471 15.6146 12.4733 15.8188C11.7995 16.0231 11.1608 16.3196 10.5572 16.7084C10.4618 16.7783 10.3713 16.8444 10.2855 16.9066C10.1998 16.9689 10.1022 17 9.99281 17Z" fill="#6265AD"/>
</svg>
