<svg viewBox="0 0 20 20" fill="none" xmlns="http://www.w3.org/2000/svg">
<path d="M4.78657 14.3161C4.56987 14.3161 4.3846 14.2364 4.23076 14.0771C4.07692 13.9178 4 13.726 4 13.5016C4 13.2772 4.07692 13.0854 4.23076 12.9261C4.3846 12.7668 4.56987 12.6871 4.78657 12.6871H5.48171V7.66751C5.48171 6.62037 5.78964 5.67157 6.40549 4.82114C7.02135 3.9707 7.82928 3.41483 8.82928 3.15353C9.25 3.0436 10.0911 2.87144 11.1707 3.15353C12.1707 3.41483 12.9786 3.97385 13.5945 4.83061C14.2104 5.68736 14.5183 6.63299 14.5183 7.66751V12.6871H15.2134C15.4301 12.6871 15.6154 12.7668 15.7692 12.9261C15.9231 13.0854 16 13.2772 16 13.5016C16 13.726 15.9231 13.9178 15.7692 14.0771C15.6154 14.2364 15.4301 14.3161 15.2134 14.3161H4.78657ZM10 17C9.5788 17 9.21647 16.8453 8.91299 16.5359C8.60953 16.2265 8.45779 15.8489 8.45779 15.4031H11.5422C11.5422 15.8489 11.3928 16.2265 11.094 16.5359C10.7953 16.8453 10.4306 17 10 17Z" fill="#6265AD"/>
</svg>
