<svg viewBox="0 0 20 20" fill="none" xmlns="http://www.w3.org/2000/svg">
<path d="M10.501 18C10.4042 18 10.2951 17.9915 10.1739 17.9744C10.0528 17.9573 9.93432 17.9316 9.81861 17.8974C7.89143 17.2274 6.43987 16.0851 5.46392 14.4706C4.48797 12.856 4 11.1207 4 9.26466V5.65249C4 5.26217 4.11158 4.91089 4.33475 4.59865C4.5579 4.28639 4.85348 4.06021 5.22148 3.92013L9.75169 2.13568C9.99665 2.04523 10.2461 2 10.5 2C10.7539 2 11.0033 2.04523 11.2483 2.13568L15.7785 3.92013C16.1465 4.06021 16.4421 4.28639 16.6652 4.59865C16.8884 4.91089 17 5.26217 17 5.65249V9.26555C17 10.0677 16.904 10.8579 16.7119 11.6361C16.5198 12.4143 16.2288 13.1629 15.8389 13.8821L13.3523 11.5438C13.4866 11.3115 13.5973 11.0612 13.6846 10.7928C13.7718 10.5245 13.8154 10.2547 13.8154 9.98343C13.8154 9.11788 13.493 8.38189 12.8481 7.77545C12.2031 7.16901 11.4205 6.86579 10.5 6.86579C9.57954 6.86579 8.79686 7.16901 8.15194 7.77545C7.50703 8.38189 7.18457 9.11788 7.18457 9.98343C7.18457 10.849 7.50703 11.585 8.15194 12.1914C8.79686 12.7978 9.57954 13.1011 10.5 13.1011C10.8102 13.1011 11.1027 13.069 11.3774 13.0048C11.6522 12.9406 11.9153 12.8307 12.1666 12.675L14.8255 15.2452C14.3132 15.8174 13.7684 16.3323 13.1913 16.7898C12.6141 17.2474 11.9398 17.6152 11.1685 17.8933C11.0593 17.9302 10.9449 17.9572 10.8255 17.9743C10.7061 17.9914 10.5979 18 10.501 18ZM10.4927 11.5012C10.0468 11.5012 9.6675 11.3519 9.35486 11.0534C9.04222 10.7548 8.8859 10.3958 8.8859 9.97654C8.8859 9.55724 9.04466 9.2006 9.36219 8.90661C9.67973 8.61262 10.0614 8.46562 10.5073 8.46562C10.9532 8.46562 11.3325 8.61491 11.6451 8.9135C11.9578 9.2121 12.1141 9.57104 12.1141 9.99032C12.1141 10.4096 11.9553 10.7663 11.6378 11.0602C11.3203 11.3542 10.9386 11.5012 10.4927 11.5012Z" fill="#6265AD"/>
</svg>
