<svg width="20" height="20" viewBox="0 0 20 20" fill="none" xmlns="http://www.w3.org/2000/svg">
<path fill-rule="evenodd" clip-rule="evenodd" d="M16.3195 14.9061C17.3728 13.5514 18 11.8489 18 10C18 5.58172 14.4183 2 10 2C5.58172 2 2 5.58172 2 10C2 14.4183 5.58172 18 10 18C11.849 18 13.5515 17.3727 14.9063 16.3194L11.8452 13.2583C10.3123 14.1637 8.30481 13.9579 6.98773 12.6409C5.42674 11.0799 5.42674 8.54902 6.98773 6.98804C8.54872 5.42705 11.0796 5.42705 12.6406 6.98804C13.9575 8.30495 14.1634 10.3122 13.2583 11.8449L16.3195 14.9061ZM11.2274 11.2274C12.0079 10.4469 12.0079 9.18152 11.2274 8.40103C10.4469 7.62053 9.18145 7.62053 8.40095 8.40103C7.62046 9.18152 7.62046 10.4469 8.40095 11.2274C9.18145 12.0079 10.4469 12.0079 11.2274 11.2274Z" fill="#52567A"/>
</svg>
