<svg viewBox="0 0 20 20" fill="none" xmlns="http://www.w3.org/2000/svg">
<path d="M11.361 17.5H8.64569C8.41546 17.5 8.21712 17.4302 8.05068 17.2905C7.88424 17.1508 7.78232 16.9692 7.74491 16.7457L7.59372 15.6424C7.55275 15.3435 7.35632 15.0895 7.08874 14.9499C6.81177 14.8054 6.48306 14.7465 6.19376 14.8644L5.13896 15.2943C4.92887 15.3911 4.71375 15.4002 4.49359 15.3215C4.27343 15.2428 4.10579 15.1075 3.99067 14.9157L2.62226 12.541C2.50714 12.3491 2.47332 12.1475 2.52079 11.9361C2.56828 11.7247 2.6846 11.551 2.86974 11.4151L3.92561 10.6279C4.05249 10.5333 4.12423 10.3812 4.11084 10.2235C4.10364 10.1388 4.10004 10.0545 4.10004 9.97067C4.10004 9.90361 4.10364 9.82887 4.11084 9.74645C4.12491 9.58523 4.04924 9.43028 3.9177 9.33601L2.86974 8.58491C2.67213 8.46106 2.55582 8.28738 2.52081 8.06387C2.48579 7.84037 2.52584 7.6327 2.64095 7.44086L3.99067 5.13459C4.11059 4.9474 4.27511 4.81027 4.48424 4.7232C4.69336 4.63613 4.90296 4.64102 5.11305 4.73787L6.06631 5.1249C6.38747 5.25529 6.74992 5.20511 7.05707 5.04449C7.35484 4.88876 7.56586 4.60233 7.6101 4.26922L7.74491 3.25434C7.76985 3.03083 7.86866 2.84923 8.04133 2.70955C8.214 2.56985 8.41546 2.5 8.64569 2.5H11.361C11.5912 2.5 11.7938 2.56985 11.9689 2.70955C12.144 2.84923 12.244 3.03083 12.2689 3.25434L12.4005 4.29713C12.4423 4.6288 12.6493 4.9155 12.946 5.06962C13.243 5.22391 13.5913 5.27653 13.9017 5.15137L14.8821 4.75603C15.0922 4.65918 15.3061 4.64893 15.5238 4.72529C15.7416 4.80166 15.9081 4.93576 16.0232 5.1276L17.3729 7.44086C17.488 7.6327 17.5249 7.84037 17.4837 8.06387C17.4424 8.28738 17.3292 8.46106 17.1441 8.58491L16.0203 9.39868C15.8971 9.48791 15.8397 9.63978 15.844 9.79185C15.8464 9.87567 15.8476 9.9511 15.8476 10.0182C15.8476 10.0806 15.8452 10.1537 15.8404 10.2375C15.8308 10.4048 15.9077 10.5652 16.0431 10.6638L17.0995 11.4332C17.2894 11.5646 17.4069 11.7371 17.452 11.9508C17.4971 12.1645 17.4621 12.3673 17.347 12.5591L15.9786 14.9227C15.8634 15.1145 15.697 15.2475 15.4792 15.3215C15.2615 15.3955 15.0476 15.3841 14.8375 15.2873L13.7589 14.8485C13.4786 14.7345 13.1624 14.7754 12.9014 14.9283C12.6535 15.0735 12.4626 15.3103 12.4242 15.595L12.2689 16.7457C12.2315 16.9692 12.1284 17.1508 11.9595 17.2905C11.7907 17.4302 11.5912 17.5 11.361 17.5ZM9.95942 12.6695C10.7317 12.6695 11.3861 12.409 11.9229 11.8879C12.4596 11.3669 12.728 10.7315 12.728 9.98184C12.728 9.23218 12.4596 8.59682 11.9229 8.07576C11.3861 7.55472 10.7317 7.2942 9.95942 7.2942C9.192 7.2942 8.53872 7.55472 7.99959 8.07576C7.46048 8.59682 7.19092 9.23218 7.19092 9.98184C7.19092 10.7315 7.46048 11.3669 7.99959 11.8879C8.53872 12.409 9.192 12.6695 9.95942 12.6695Z" fill="#6265AD"/>
</svg>
