<svg viewBox="0 0 20 20" fill="none" xmlns="http://www.w3.org/2000/svg">
<path d="M7.4992 14.3122L6.8396 17.249C6.7705 17.4776 6.65178 17.6599 6.48343 17.7959C6.31508 17.932 6.12851 18 5.92372 18C5.6134 18 5.36496 17.8748 5.17841 17.6245C4.99184 17.3742 4.93813 17.0776 5.01728 16.7347L5.58265 14.3122H2.96123C2.66724 14.3122 2.41723 14.1843 2.21119 13.9286C2.00515 13.6728 1.94987 13.3735 2.04535 13.0306C2.12073 12.8265 2.23694 12.6442 2.39398 12.4837C2.55102 12.3231 2.7401 12.2429 2.96123 12.2429H6.07263L6.94894 8.39386H4.03354C3.73955 8.39386 3.48953 8.26597 3.28349 8.01019C3.07746 7.75442 3.02218 7.45511 3.11766 7.11226C3.19304 6.90817 3.30924 6.72586 3.46628 6.56533C3.62332 6.40478 3.81241 6.32451 4.03354 6.32451H7.43893L8.24551 2.75101C8.3146 2.52243 8.43332 2.34012 8.60168 2.20407C8.77003 2.06803 8.95659 2 9.16139 2C9.4717 2 9.72014 2.12516 9.90671 2.37549C10.0933 2.62583 10.147 2.92243 10.0678 3.26528L9.35547 6.32451H12.3538L13.1604 2.75101C13.2295 2.52243 13.3482 2.34012 13.5166 2.20407C13.6849 2.06803 13.8715 2 14.0763 2C14.3866 2 14.635 2.12516 14.8216 2.37549C15.0082 2.62583 15.0619 2.92243 14.9827 3.26528L14.2704 6.32451H17.0388C17.3328 6.32451 17.5828 6.4524 17.7888 6.70817C17.9949 6.96395 18.0501 7.26327 17.9546 7.60613C17.8793 7.81021 17.7631 7.99252 17.606 8.15306C17.449 8.31359 17.2599 8.39386 17.0388 8.39386H13.7804L12.9041 12.2429H15.9665C16.2605 12.2429 16.5105 12.3708 16.7165 12.6265C16.9225 12.8823 16.9778 13.1816 16.8823 13.5245C16.807 13.7286 16.6908 13.9109 16.5337 14.0714C16.3767 14.232 16.1876 14.3122 15.9665 14.3122H12.4141L11.7545 17.249C11.6854 17.4776 11.5667 17.6599 11.3983 17.7959C11.23 17.932 11.0434 18 10.8386 18C10.5283 18 10.2799 17.8748 10.0933 17.6245C9.90672 17.3742 9.85301 17.0776 9.93216 16.7347L10.4975 14.3122H7.4992ZM7.98918 12.2429H10.9875L11.8638 8.39386H8.86549L7.98918 12.2429Z" fill="#52567A"/>
</svg>
