<svg viewBox="0 0 20 20" fill="none" xmlns="http://www.w3.org/2000/svg">
<path d="M4.71078 17C4.2265 17 3.8203 16.8344 3.49217 16.5031C3.16406 16.1718 3 15.764 3 15.2797C3 14.7954 3.16565 14.3892 3.49694 14.0611C3.82822 13.733 4.236 13.5689 4.72027 13.5689C5.20455 13.5689 5.61075 13.7346 5.93888 14.0659C6.267 14.3972 6.43106 14.8049 6.43106 15.2892C6.43106 15.7735 6.26541 16.1797 5.93411 16.5078C5.60283 16.8359 5.19506 17 4.71078 17ZM9.99525 17C9.51098 17 9.10477 16.8344 8.77664 16.5031C8.44853 16.1718 8.28447 15.764 8.28447 15.2797C8.28447 14.7954 8.45012 14.3892 8.78141 14.0611C9.11269 13.733 9.52047 13.5689 10.0047 13.5689C10.489 13.5689 10.8952 13.7346 11.2234 14.0659C11.5515 14.3972 11.7155 14.8049 11.7155 15.2892C11.7155 15.7735 11.5499 16.1797 11.2186 16.5078C10.8873 16.8359 10.4795 17 9.99525 17ZM15.2797 17C14.7955 17 14.3892 16.8344 14.0611 16.5031C13.733 16.1718 13.5689 15.764 13.5689 15.2797C13.5689 14.7954 13.7346 14.3892 14.0659 14.0611C14.3972 13.733 14.8049 13.5689 15.2892 13.5689C15.7735 13.5689 16.1797 13.7346 16.5078 14.0659C16.8359 14.3972 17 14.8049 17 15.2892C17 15.7735 16.8344 16.1797 16.5031 16.5078C16.1718 16.8359 15.764 17 15.2797 17ZM4.71078 11.7155C4.2265 11.7155 3.8203 11.5499 3.49217 11.2186C3.16406 10.8873 3 10.4795 3 9.99525C3 9.51098 3.16565 9.10478 3.49694 8.77665C3.82822 8.44853 4.236 8.28447 4.72027 8.28447C5.20455 8.28447 5.61075 8.45012 5.93888 8.78141C6.267 9.11269 6.43106 9.52047 6.43106 10.0047C6.43106 10.489 6.26541 10.8952 5.93411 11.2234C5.60283 11.5515 5.19506 11.7155 4.71078 11.7155ZM9.99525 11.7155C9.51098 11.7155 9.10477 11.5499 8.77664 11.2186C8.44853 10.8873 8.28447 10.4795 8.28447 9.99525C8.28447 9.51098 8.45012 9.10478 8.78141 8.77665C9.11269 8.44853 9.52047 8.28447 10.0047 8.28447C10.489 8.28447 10.8952 8.45012 11.2234 8.78141C11.5515 9.11269 11.7155 9.52047 11.7155 10.0047C11.7155 10.489 11.5499 10.8952 11.2186 11.2234C10.8873 11.5515 10.4795 11.7155 9.99525 11.7155ZM15.2797 11.7155C14.7955 11.7155 14.3892 11.5499 14.0611 11.2186C13.733 10.8873 13.5689 10.4795 13.5689 9.99525C13.5689 9.51098 13.7346 9.10478 14.0659 8.77665C14.3972 8.44853 14.8049 8.28447 15.2892 8.28447C15.7735 8.28447 16.1797 8.45012 16.5078 8.78141C16.8359 9.11269 17 9.52047 17 10.0047C17 10.489 16.8344 10.8952 16.5031 11.2234C16.1718 11.5515 15.764 11.7155 15.2797 11.7155ZM4.71078 6.43106C4.2265 6.43106 3.8203 6.26541 3.49217 5.93411C3.16406 5.60283 3 5.19506 3 4.71078C3 4.22651 3.16565 3.8203 3.49694 3.49217C3.82822 3.16406 4.236 3 4.72027 3C5.20455 3 5.61075 3.16565 5.93888 3.49694C6.267 3.82822 6.43106 4.236 6.43106 4.72027C6.43106 5.20455 6.26541 5.61075 5.93411 5.93888C5.60283 6.267 5.19506 6.43106 4.71078 6.43106ZM9.99525 6.43106C9.51098 6.43106 9.10477 6.26541 8.77664 5.93411C8.44853 5.60283 8.28447 5.19506 8.28447 4.71078C8.28447 4.22651 8.45012 3.8203 8.78141 3.49217C9.11269 3.16406 9.52047 3 10.0047 3C10.489 3 10.8952 3.16565 11.2234 3.49694C11.5515 3.82822 11.7155 4.236 11.7155 4.72027C11.7155 5.20455 11.5499 5.61075 11.2186 5.93888C10.8873 6.267 10.4795 6.43106 9.99525 6.43106ZM15.2797 6.43106C14.7955 6.43106 14.3892 6.26541 14.0611 5.93411C13.733 5.60283 13.5689 5.19506 13.5689 4.71078C13.5689 4.22651 13.7346 3.8203 14.0659 3.49217C14.3972 3.16406 14.8049 3 15.2892 3C15.7735 3 16.1797 3.16565 16.5078 3.49694C16.8359 3.82822 17 4.236 17 4.72027C17 5.20455 16.8344 5.61075 16.5031 5.93888C16.1718 6.267 15.764 6.43106 15.2797 6.43106Z" fill="#6265AD"/>
</svg>
