<svg viewBox="0 0 20 20" fill="none" xmlns="http://www.w3.org/2000/svg">
<path d="M10.7719 15.7443L15.7328 10.6663C15.8281 10.5687 15.8965 10.464 15.9379 10.3522C15.9793 10.2403 16 10.1253 16 10.007C16 9.88872 15.9793 9.77366 15.9379 9.66182C15.8965 9.54995 15.8281 9.44524 15.7328 9.34768L10.7459 4.24311C10.5794 4.07261 10.3892 3.99179 10.1755 4.00066C9.96173 4.00954 9.77157 4.09922 9.605 4.26971C9.43845 4.44513 9.35637 4.64544 9.35877 4.87063C9.36119 5.09582 9.44567 5.29366 9.61223 5.46416L13.243 9.18064H4.8073C4.58489 9.18064 4.39474 9.26145 4.23685 9.42307C4.07895 9.58469 4 9.77933 4 10.007C4 10.2346 4.07895 10.4293 4.23685 10.5909C4.39474 10.7525 4.58489 10.8333 4.8073 10.8333H13.243L9.58623 14.5764C9.41967 14.7469 9.34072 14.9403 9.34938 15.1566C9.35806 15.373 9.44567 15.5688 9.61223 15.7443C9.78361 15.9148 9.97809 16 10.1957 16C10.4133 16 10.6054 15.9148 10.7719 15.7443Z" fill="#6265AD"/>
</svg>
