<svg viewBox="0 0 20 20" fill="none" xmlns="http://www.w3.org/2000/svg">
<path d="M15.7443 10.7719L10.6663 15.7328C10.5687 15.8281 10.464 15.8965 10.3522 15.9379C10.2403 15.9793 10.1253 16 10.007 16C9.88872 16 9.77366 15.9793 9.66182 15.9379C9.54995 15.8965 9.44524 15.8281 9.34768 15.7328L4.24311 10.7459C4.07261 10.5794 3.99179 10.3892 4.00066 10.1755C4.00954 9.96173 4.09922 9.77157 4.26971 9.605C4.44513 9.43845 4.64544 9.35637 4.87063 9.35877C5.09582 9.36119 5.29366 9.44567 5.46416 9.61223L9.18064 13.243V4.8073C9.18064 4.58489 9.26145 4.39474 9.42307 4.23685C9.58469 4.07895 9.77933 4 10.007 4C10.2346 4 10.4293 4.07895 10.5909 4.23685C10.7525 4.39474 10.8333 4.58489 10.8333 4.8073V13.243L14.5764 9.58623C14.7469 9.41967 14.9403 9.34072 15.1566 9.34938C15.373 9.35806 15.5688 9.44567 15.7443 9.61223C15.9148 9.78361 16 9.97809 16 10.1957C16 10.4133 15.9148 10.6054 15.7443 10.7719Z" fill="#6265AD"/>
</svg>
