<svg viewBox="0 0 20 20" fill="none" xmlns="http://www.w3.org/2000/svg">
<path d="M8.64194 14.702L12.6836 10.7466C12.7965 10.6361 12.8774 10.5161 12.9264 10.3867C12.9755 10.2572 13 10.1283 13 10C13 9.86608 12.9755 9.7358 12.9264 9.60915C12.8774 9.48249 12.7965 9.36392 12.6836 9.25345L8.64194 5.29797C8.43898 5.09932 8.21607 5 7.9732 5C7.73034 5 7.50742 5.09932 7.30446 5.29797C7.10149 5.49661 7 5.71477 7 5.95246C7 6.19014 7.10149 6.40831 7.30446 6.60694L10.7714 10L7.30446 13.3931C7.10149 13.5917 7 13.8099 7 14.0475C7 14.2852 7.10149 14.5034 7.30446 14.702C7.50742 14.9007 7.73034 15 7.9732 15C8.21607 15 8.43898 14.9007 8.64194 14.702Z" fill="#6265AD"/>
</svg>
