<svg viewBox="0 0 20 20" fill="none" xmlns="http://www.w3.org/2000/svg">
<path d="M11.3581 14.702L7.31643 10.7466C7.20353 10.6361 7.12257 10.5161 7.07355 10.3867C7.02452 10.2572 7 10.1283 7 10C7 9.86608 7.02452 9.7358 7.07355 9.60915C7.12257 9.48249 7.20353 9.36392 7.31643 9.25345L11.3581 5.29797C11.561 5.09932 11.7839 5 12.0268 5C12.2697 5 12.4926 5.09932 12.6955 5.29797C12.8985 5.49661 13 5.71477 13 5.95246C13 6.19014 12.8985 6.40831 12.6955 6.60694L9.22859 10L12.6955 13.3931C12.8985 13.5917 13 13.8099 13 14.0475C13 14.2852 12.8985 14.5034 12.6955 14.702C12.4926 14.9007 12.2697 15 12.0268 15C11.7839 15 11.561 14.9007 11.3581 14.702Z" fill="#6265AD"/>
</svg>
