<svg viewBox="0 0 20 20" fill="none" xmlns="http://www.w3.org/2000/svg">
<path d="M5.29797 11.358L9.25345 7.31641C9.36392 7.20352 9.48388 7.12256 9.61333 7.07354C9.74278 7.0245 9.87167 6.99998 10 6.99998C10.1339 6.99998 10.2642 7.0245 10.3908 7.07354C10.5175 7.12256 10.6361 7.20352 10.7466 7.31641L14.702 11.358C14.9007 11.561 15 11.7839 15 12.0268C15 12.2696 14.9007 12.4926 14.702 12.6955C14.5034 12.8985 14.2852 13 14.0475 13C13.8099 13 13.5917 12.8985 13.3931 12.6955L10 9.22858L6.60694 12.6955C6.40831 12.8985 6.19014 13 5.95246 13C5.71477 13 5.49661 12.8985 5.29797 12.6955C5.09932 12.4926 5 12.2696 5 12.0268C5 11.7839 5.09932 11.561 5.29797 11.358Z" fill="#6265AD"/>
</svg>
