<svg viewBox="0 0 20 20" fill="none" xmlns="http://www.w3.org/2000/svg">
<path d="M6.48951 14.4348L10.1963 10.7147C10.2987 10.612 10.3721 10.5013 10.4166 10.3828C10.4611 10.2643 10.4833 10.1431 10.4833 10.0192C10.4833 9.89532 10.4611 9.77447 10.4166 9.65666C10.3721 9.53883 10.2987 9.42853 10.1963 9.32577L6.48951 5.60573C6.31884 5.43444 6.11662 5.34879 5.88285 5.34879C5.64909 5.34879 5.44687 5.43444 5.2762 5.60573C5.10551 5.77701 5.02017 5.97996 5.02017 6.21456C5.02017 6.44916 5.10551 6.6521 5.2762 6.82339L8.46162 10.0202L5.2762 13.2171C5.09207 13.4019 5 13.6048 5 13.8259C5 14.047 5.09207 14.25 5.2762 14.4348C5.46032 14.6195 5.66253 14.7119 5.88285 14.7119C6.10317 14.7119 6.30539 14.6195 6.48951 14.4348ZM14.1329 15C14.3717 15 14.5759 14.9148 14.7455 14.7445C14.9152 14.5741 15 14.3691 15 14.1296V5.87043C15 5.63089 14.9151 5.42593 14.7453 5.25555C14.5755 5.08518 14.3712 5 14.1324 5C13.8936 5 13.6894 5.08518 13.5198 5.25555C13.3502 5.42593 13.2654 5.63089 13.2654 5.87043V14.1296C13.2654 14.3691 13.3503 14.5741 13.5201 14.7445C13.6899 14.9148 13.8942 15 14.1329 15Z" fill="#6265AD"/>
</svg>
