<svg viewBox="0 0 20 20" fill="none" xmlns="http://www.w3.org/2000/svg">
<path d="M13.5105 14.4348L9.80374 10.7147C9.70133 10.612 9.62788 10.5013 9.58341 10.3828C9.53893 10.2643 9.51669 10.1431 9.51669 10.0192C9.51669 9.89534 9.53893 9.77449 9.58341 9.65667C9.62788 9.53885 9.70133 9.42855 9.80374 9.32578L13.5105 5.60575C13.6812 5.43445 13.8834 5.3488 14.1171 5.3488C14.3509 5.3488 14.5531 5.43445 14.7238 5.60575C14.8945 5.77703 14.9798 5.97997 14.9798 6.21457C14.9798 6.44918 14.8945 6.65212 14.7238 6.8234L11.5384 10.0203L14.7238 13.2171C14.9079 13.4019 15 13.6048 15 13.8259C15 14.047 14.9079 14.25 14.7238 14.4348C14.5397 14.6196 14.3375 14.712 14.1171 14.712C13.8968 14.712 13.6946 14.6196 13.5105 14.4348ZM5.86706 15C5.62829 15 5.42409 14.9148 5.25445 14.7445C5.08482 14.5741 5 14.3691 5 14.1296V5.87044C5 5.6309 5.08491 5.42594 5.25472 5.25556C5.42454 5.0852 5.62883 5.00002 5.86758 5.00002C6.10635 5.00002 6.31055 5.0852 6.48019 5.25556C6.64982 5.42594 6.73464 5.6309 6.73464 5.87044V14.1296C6.73464 14.3691 6.64974 14.5741 6.47993 14.7445C6.3101 14.9148 6.10581 15 5.86706 15Z" fill="#6265AD"/>
</svg>
