<svg viewBox="0 0 20 20" fill="none" xmlns="http://www.w3.org/2000/svg">
<path d="M10.8544 9.64749V6.87376C10.8544 6.644 10.7726 6.4474 10.6091 6.28397C10.4457 6.12054 10.249 6.03883 10.0192 6.03883C9.78931 6.03883 9.59274 6.12054 9.42944 6.28397C9.26613 6.4474 9.18448 6.644 9.18448 6.87376V9.96266C9.18448 10.0929 9.20788 10.2148 9.25468 10.3283C9.30147 10.4417 9.37417 10.5459 9.47276 10.6408L11.997 13.1651C12.1564 13.3244 12.3465 13.4085 12.5676 13.4175C12.7887 13.4264 12.9878 13.3423 13.1651 13.1651C13.3294 13.0008 13.4147 12.8061 13.4212 12.5811C13.4277 12.356 13.3488 12.1613 13.1845 11.997L10.8544 9.64749ZM10.0013 18C8.89481 18 7.85478 17.79 6.88122 17.3701C5.90763 16.9502 5.06076 16.3803 4.34059 15.6604C3.62041 14.9405 3.05026 14.094 2.63016 13.1208C2.21005 12.1476 2 11.1078 2 10.0013C2 8.8915 2.21035 7.84835 2.63105 6.87186C3.05175 5.89538 3.62269 5.04596 4.34387 4.32362C5.06506 3.60129 5.91159 3.03343 6.88345 2.62006C7.8553 2.20669 8.89371 2 9.9987 2C11.1084 2 12.1514 2.2066 13.1278 2.61981C14.1042 3.03301 14.9536 3.60072 15.6761 4.32292C16.3986 5.04513 16.9666 5.8944 17.3799 6.87073C17.7933 7.84706 18 8.89025 18 10.0003C18 11.1104 17.7934 12.15 17.3802 13.1192C16.967 14.0884 16.3994 14.9337 15.6773 15.6552C14.9553 16.3766 14.1062 16.9478 13.1301 17.3687C12.1541 17.7896 11.1111 18 10.0013 18Z" fill="#6265AD"/>
</svg>
