<svg viewBox="0 0 20 20" fill="none" xmlns="http://www.w3.org/2000/svg">
<path d="M10 9.46505C9.04193 9.46505 8.22968 9.15161 7.56328 8.52474C6.89686 7.89785 6.56365 7.13378 6.56365 6.23254C6.56365 5.33128 6.89686 4.56721 7.56328 3.94033C8.22968 3.31344 9.04193 3 10 3C10.9581 3 11.7703 3.31344 12.4367 3.94033C13.1031 4.56721 13.4363 5.33128 13.4363 6.23254C13.4363 7.13378 13.1031 7.89785 12.4367 8.52474C11.7703 9.15161 10.9581 9.46505 10 9.46505ZM4.02145 17C3.73203 17 3.48944 16.9079 3.29366 16.7238C3.09789 16.5396 3 16.3114 3 16.0391V14.6071C3 14.1231 3.12833 13.6856 3.38498 13.2946C3.64163 12.9036 3.98432 12.6033 4.41305 12.3937C5.30832 11.967 6.22441 11.647 7.16133 11.4336C8.09826 11.2203 9.04383 11.1136 9.99804 11.1136C10.9523 11.1136 11.8985 11.2203 12.8367 11.4336C13.775 11.647 14.6917 11.967 15.5869 12.3937C16.0157 12.6033 16.3584 12.9036 16.615 13.2946C16.8717 13.6856 17 14.1231 17 14.6071V16.0474C17 16.3128 16.9021 16.5379 16.7063 16.7227C16.5106 16.9076 16.268 17 15.9786 17H4.02145Z" fill="#6265AD"/>
</svg>
