<svg viewBox="0 0 20 20" fill="none" xmlns="http://www.w3.org/2000/svg">
<path d="M7.02256 17.5262L6.01609 15.7266L4.07593 15.2632C3.85195 15.2049 3.67604 15.0808 3.5482 14.8909C3.42035 14.701 3.36622 14.4895 3.38582 14.2563L3.572 12.1799L2.24076 10.6193C2.08025 10.4444 2 10.238 2 9.99999C2 9.76199 2.08025 9.55556 2.24076 9.3807L3.572 7.82009L3.38582 5.74365C3.36622 5.5105 3.42035 5.29897 3.5482 5.10906C3.67604 4.91913 3.85195 4.79503 4.07593 4.73675L6.01609 4.27338L7.02256 2.47379C7.13455 2.27367 7.29646 2.13379 7.50831 2.05412C7.72015 1.97448 7.93432 1.98273 8.15082 2.0789L9.99999 2.90656L11.8492 2.0789C12.0657 1.98273 12.2798 1.97448 12.4917 2.05412C12.7035 2.13379 12.8654 2.27367 12.9774 2.47379L13.9839 4.27338L15.924 4.73675C16.148 4.79503 16.3239 4.91913 16.4518 5.10906C16.5796 5.29897 16.6338 5.5105 16.6142 5.74365L16.428 7.82009L17.7592 9.3807C17.9197 9.55556 18 9.76199 18 9.99999C18 10.238 17.9197 10.4444 17.7592 10.6193L16.428 12.1799L16.6142 14.2563C16.6338 14.4895 16.5796 14.701 16.4518 14.8909C16.3239 15.0808 16.148 15.2049 15.924 15.2632L13.9839 15.7266L12.9774 17.5262C12.8654 17.7263 12.7035 17.8662 12.4917 17.9458C12.2798 18.0255 12.0657 18.0173 11.8492 17.9211L9.99999 17.0934L8.15082 17.9211C7.93432 18.0173 7.72015 18.0255 7.50831 17.9458C7.29646 17.8662 7.13455 17.7263 7.02256 17.5262ZM9.23568 10.5042L8.19979 9.41858C8.03835 9.25053 7.85288 9.16845 7.64338 9.17233C7.43387 9.17621 7.2484 9.26219 7.08696 9.43025C6.92084 9.60317 6.83778 9.79623 6.83778 10.0095C6.83778 10.2227 6.92084 10.4157 7.08696 10.5887L8.61137 12.1566C8.79148 12.344 8.99959 12.4378 9.23568 12.4378C9.47178 12.4378 9.67989 12.344 9.86 12.1566L12.9494 8.94061C13.1062 8.77743 13.1869 8.58557 13.1916 8.36505C13.1963 8.14454 13.1155 7.95026 12.9494 7.78221C12.788 7.61414 12.6037 7.53132 12.3965 7.53375C12.1893 7.53619 12.005 7.62143 11.8436 7.78948L9.23568 10.5042Z" fill="#6265AD"/>
</svg>
