<svg viewBox="0 0 20 20" fill="none" xmlns="http://www.w3.org/2000/svg">
<path fill-rule="evenodd" clip-rule="evenodd" d="M6.88122 2.6299C7.85478 2.20997 8.89481 2 10.0013 2C11.1111 2 12.1541 2.21043 13.1301 2.6313C14.1062 3.05217 14.9553 3.62335 15.6773 4.34484C16.3994 5.06632 16.967 5.91165 17.3802 6.88083C17.7934 7.85 18 8.88962 18 9.99969C18 11.1098 17.7933 12.1529 17.3799 13.1293C16.9666 14.1056 16.3986 14.9549 15.6761 15.6771C14.9536 16.3993 14.1042 16.967 13.1278 17.3802C12.1514 17.7934 11.1084 18 9.9987 18C8.89371 18 7.8553 17.7933 6.88345 17.3799C5.91159 16.9666 5.06506 16.3987 4.34387 15.6764C3.62269 14.954 3.05175 14.1046 2.63105 13.1281C2.21035 12.1516 2 11.1085 2 9.9987C2 8.89221 2.21005 7.85238 2.63016 6.87922C3.05026 5.90604 3.62041 5.0595 4.34059 4.33962C5.06076 3.61975 5.90763 3.04984 6.88122 2.6299ZM10.6094 6.24514C10.4461 6.08172 10.2495 6.00001 10.0197 6.00001C9.78983 6.00001 9.59317 6.08172 9.42969 6.24514C9.26622 6.40857 9.18448 6.60517 9.18448 6.83494V9.94177C9.18448 10.1715 9.26613 10.3681 9.42944 10.5316C9.59274 10.695 9.78931 10.7767 10.0192 10.7767C10.249 10.7767 10.4457 10.695 10.6091 10.5316C10.7726 10.3681 10.8544 10.1715 10.8544 9.94177V6.83494C10.8544 6.60517 10.7727 6.40857 10.6094 6.24514ZM9.9751 12.1C10.5964 12.1 11.1001 12.6037 11.1001 13.225C11.1001 13.8463 10.5964 14.35 9.9751 14.35C9.35378 14.35 8.8501 13.8463 8.8501 13.225C8.8501 12.6037 9.35378 12.1 9.9751 12.1Z" fill="#6265AD"/>
</svg>
