<svg viewBox="0 0 20 20" fill="none" xmlns="http://www.w3.org/2000/svg">
<path d="M8.72808 15.7443L3.76717 10.6663C3.67185 10.5687 3.60349 10.464 3.56209 10.3522C3.5207 10.2403 3.5 10.1253 3.5 10.007C3.5 9.88872 3.5207 9.77366 3.56209 9.66182C3.60349 9.54995 3.67185 9.44524 3.76717 9.34768L8.75406 4.24311C8.92063 4.07261 9.11079 3.99179 9.32454 4.00066C9.53827 4.00954 9.72843 4.09922 9.895 4.26971C10.0616 4.44513 10.1436 4.64544 10.1412 4.87063C10.1388 5.09582 10.0543 5.29366 9.88777 5.46416L6.25696 9.18064H14.6927C14.9151 9.18064 15.1053 9.26145 15.2632 9.42307C15.4211 9.58469 15.5 9.77933 15.5 10.007C15.5 10.2346 15.4211 10.4293 15.2632 10.5909C15.1053 10.7525 14.9151 10.8333 14.6927 10.8333H6.25696L9.91377 14.5764C10.0803 14.7469 10.1593 14.9403 10.1506 15.1566C10.1419 15.373 10.0543 15.5688 9.88777 15.7443C9.71639 15.9148 9.52191 16 9.30432 16C9.08672 16 8.89464 15.9148 8.72808 15.7443Z" fill="#6265AD"/>
</svg>
