<svg viewBox="0 0 20 20" fill="none" xmlns="http://www.w3.org/2000/svg">
<path d="M15.7443 9.22808L10.6663 4.26717C10.5687 4.17185 10.464 4.10349 10.3522 4.06209C10.2403 4.0207 10.1253 4 10.007 4C9.88872 4 9.77366 4.0207 9.66182 4.06209C9.54995 4.10349 9.44524 4.17185 9.34768 4.26717L4.24311 9.25406C4.07261 9.42063 3.99179 9.61079 4.00066 9.82454C4.00954 10.0383 4.09922 10.2284 4.26971 10.395C4.44513 10.5616 4.64544 10.6436 4.87063 10.6412C5.09582 10.6388 5.29366 10.5543 5.46416 10.3878L9.18064 6.75696V15.1927C9.18064 15.4151 9.26145 15.6053 9.42307 15.7632C9.58469 15.9211 9.77933 16 10.007 16C10.2346 16 10.4293 15.9211 10.5909 15.7632C10.7525 15.6053 10.8333 15.4151 10.8333 15.1927V6.75696L14.5764 10.4138C14.7469 10.5803 14.9403 10.6593 15.1566 10.6506C15.373 10.6419 15.5688 10.5543 15.7443 10.3878C15.9148 10.2164 16 10.0219 16 9.80432C16 9.58672 15.9148 9.39464 15.7443 9.22808Z" fill="#6265AD"/>
</svg>
