<svg viewBox="0 0 20 20" fill="none" xmlns="http://www.w3.org/2000/svg">
<path d="M5.29797 8.64196L9.25345 12.6836C9.36392 12.7965 9.48388 12.8774 9.61333 12.9265C9.74278 12.9755 9.87167 13 10 13C10.1339 13 10.2642 12.9755 10.3908 12.9265C10.5175 12.8774 10.6361 12.7965 10.7466 12.6836L14.702 8.64196C14.9007 8.439 15 8.21608 15 7.97322C15 7.73035 14.9007 7.50744 14.702 7.30448C14.5034 7.1015 14.2852 7.00002 14.0475 7.00002C13.8099 7.00002 13.5917 7.1015 13.3931 7.30448L10 10.7714L6.60694 7.30448C6.40831 7.1015 6.19014 7.00002 5.95246 7.00002C5.71477 7.00002 5.49661 7.1015 5.29797 7.30448C5.09932 7.50744 5 7.73035 5 7.97322C5 8.21608 5.09932 8.439 5.29797 8.64196Z" fill="#6265AD"/>
</svg>
