<svg viewBox="0 0 20 20" fill="none" xmlns="http://www.w3.org/2000/svg">
<path d="M2.93223 16C2.67568 16 2.45617 15.8979 2.27371 15.6937C2.09124 15.4895 2 15.2439 2 14.9568C2 14.6697 2.09124 14.4241 2.27371 14.2202C2.45617 14.0162 2.67568 13.9142 2.93223 13.9142H17.0678C17.3243 13.9142 17.5438 14.0163 17.7263 14.2205C17.9088 14.4247 18 14.6703 18 14.9574C18 15.2445 17.9088 15.49 17.7263 15.694C17.5438 15.898 17.3243 16 17.0678 16H2.93223ZM2.93223 11.0186C2.67568 11.0186 2.45617 10.9165 2.27371 10.7124C2.09124 10.5082 2 10.2625 2 9.97543C2 9.68833 2.09124 9.44279 2.27371 9.23882C2.45617 9.03484 2.67568 8.93286 2.93223 8.93286H17.0678C17.3243 8.93286 17.5438 9.03495 17.7263 9.23913C17.9088 9.44333 18 9.68898 18 9.97606C18 10.2632 17.9088 10.5087 17.7263 10.7127C17.5438 10.9166 17.3243 11.0186 17.0678 11.0186H2.93223ZM2.93223 6.0858C2.67568 6.0858 2.45617 5.9837 2.27371 5.7795C2.09124 5.57532 2 5.32967 2 5.04257C2 4.75549 2.09124 4.50996 2.27371 4.30599C2.45617 4.10199 2.67568 4 2.93223 4H17.0678C17.3243 4 17.5438 4.1021 17.7263 4.3063C17.9088 4.5105 18 4.75614 18 5.04323C18 5.33033 17.9088 5.57587 17.7263 5.77984C17.5438 5.98381 17.3243 6.0858 17.0678 6.0858H2.93223Z" fill="#6265AD"/>
</svg>
