<svg viewBox="0 0 20 20" fill="none" xmlns="http://www.w3.org/2000/svg">
<path d="M5.30485 17.3949C5.12204 17.5329 4.93849 17.535 4.7542 17.4012C4.56991 17.2674 4.50494 17.0869 4.55929 16.8597L6.01039 11.8792L2.21442 9.00692C2.01877 8.86378 1.95701 8.67862 2.02914 8.45146C2.10128 8.22428 2.25444 8.11069 2.48864 8.11069H7.18876L8.69766 2.86877C8.7362 2.75777 8.79672 2.66856 8.87923 2.60114C8.96175 2.53371 9.05191 2.5 9.14973 2.5C9.24756 2.5 9.33772 2.53371 9.42023 2.60114C9.50274 2.66856 9.56327 2.75777 9.60181 2.86877L11.1107 8.11069H15.8108C16.045 8.11069 16.1982 8.22428 16.2703 8.45146C16.3425 8.67862 16.2807 8.86378 16.0851 9.00692L12.2891 11.8792L13.7402 16.8597C13.7945 17.0869 13.7296 17.2674 13.5453 17.4012C13.361 17.535 13.1774 17.5329 12.9946 17.3949L9.14973 14.3282L5.30485 17.3949ZM16.4171 17.1118L15.1083 16.0537L14.0307 12.3568L16.2615 10.6811H17.5791C17.6355 10.6811 17.7404 10.7973 17.8941 11.0296C18.0478 11.262 18.0342 11.4445 17.8534 11.5773L16.0836 12.9014L17.1552 16.5641C17.2046 16.7757 17.1051 16.9271 16.8565 17.0184C16.608 17.1097 16.4615 17.1408 16.4171 17.1118ZM12.2402 6.4925L11.6532 4.45113L12.1127 2.87653C12.1512 2.76555 12.2118 2.67764 12.2943 2.61281C12.3768 2.54797 12.467 2.51556 12.5648 2.51556C12.6626 2.51556 12.7528 2.54668 12.8353 2.60892C12.9178 2.67116 12.9783 2.76036 13.0169 2.87653L14.0485 6.4925H12.2402Z" fill="#6265AD"/>
</svg>
