<svg viewBox="0 0 20 20" fill="none" xmlns="http://www.w3.org/2000/svg">
<path d="M9.03299 15.7834C9.62917 15.7834 10.1326 15.5815 10.5432 15.1775C10.9538 14.7736 11.1591 14.2776 11.1591 13.6893V8.61173H12.7788C13.0108 8.61173 13.2079 8.53295 13.3702 8.3754C13.5325 8.21785 13.6136 8.02217 13.6136 7.78839C13.6136 7.5596 13.5325 7.36529 13.3702 7.20547C13.2079 7.04565 13.0108 6.96574 12.7788 6.96574H11.2924C11.0224 6.96574 10.7968 7.05504 10.6157 7.23363C10.4345 7.41222 10.3439 7.63459 10.3439 7.90076V12.0359C10.1571 11.8915 9.95126 11.7819 9.72651 11.7073C9.50176 11.6326 9.27273 11.5952 9.0394 11.5952C8.44142 11.5952 7.93712 11.797 7.52651 12.2006C7.1159 12.6041 6.9106 13.0998 6.9106 13.6875C6.9106 14.2752 7.11529 14.7715 7.52467 15.1763C7.93404 15.581 8.43682 15.7834 9.03299 15.7834ZM5.43638 18C4.89756 18 4.44013 17.8146 4.06408 17.4439C3.68803 17.0732 3.5 16.6223 3.5 16.0911V3.9089C3.5 3.37772 3.68803 2.92679 4.06408 2.55608C4.44013 2.18536 4.89756 2 5.43638 2H10.8682C11.094 2 11.3117 2.04239 11.5213 2.12717C11.7308 2.21193 11.9146 2.33285 12.0727 2.48992L16.003 6.40327C16.1624 6.55913 16.285 6.74034 16.371 6.9469C16.457 7.15348 16.5 7.36808 16.5 7.59071V16.0911C16.5 16.6223 16.312 17.0732 15.9359 17.4439C15.5599 17.8146 15.1024 18 14.5636 18H5.43638Z" fill="#6265AD"/>
</svg>
