<svg viewBox="0 0 20 20" fill="none" xmlns="http://www.w3.org/2000/svg">
<path d="M4.93045 16.2878C4.75387 16.4552 4.54343 16.5224 4.29913 16.4894C4.05482 16.4564 3.85704 16.3505 3.70579 16.1717C3.15406 15.479 2.73184 14.7272 2.43911 13.9163C2.14637 13.1054 2 12.2408 2 11.3227C2 10.2372 2.20905 9.22267 2.62716 8.27898C3.04526 7.33531 3.61987 6.50683 4.35101 5.79354C5.08213 5.08027 5.9349 4.5197 6.90932 4.11183C7.88374 3.70394 8.91396 3.5 10 3.5C11.11 3.5 12.1476 3.70394 13.1127 4.11183C14.0778 4.5197 14.925 5.08027 15.6545 5.79354C16.3839 6.50683 16.9572 7.33531 17.3743 8.27898C17.7914 9.22267 18 10.2372 18 11.3227C18 12.2355 17.8536 13.1057 17.5609 13.933C17.2682 14.7605 16.8389 15.5136 16.273 16.1925C16.1217 16.3713 15.9226 16.4724 15.6756 16.4958C15.4285 16.5192 15.218 16.4457 15.0439 16.2755C14.8502 16.0861 14.7574 15.8844 14.7656 15.6706C14.7737 15.4567 14.8534 15.2534 15.0047 15.0608C15.422 14.5592 15.7497 13.9906 15.9878 13.3551C16.2258 12.7195 16.3448 12.0421 16.3448 11.3227C16.3448 9.60735 15.7259 8.14449 14.4881 6.93408C13.2502 5.72367 11.7542 5.11847 10 5.11847C8.2458 5.11847 6.74977 5.72367 5.51192 6.93408C4.27408 8.14449 3.65516 9.60735 3.65516 11.3227C3.65516 12.0378 3.76773 12.7142 3.99288 13.3521C4.21804 13.99 4.53531 14.5692 4.94471 15.0896C5.08182 15.2822 5.15663 15.4882 5.16913 15.7077C5.18165 15.9271 5.10209 16.1205 4.93045 16.2878ZM7.09491 14.1634C6.91833 14.336 6.71986 14.4093 6.49949 14.3833C6.27914 14.3572 6.09769 14.2644 5.95513 14.1047C5.6526 13.7163 5.42706 13.2873 5.27852 12.8177C5.12998 12.348 5.05571 11.8497 5.05571 11.3227C5.05571 9.97341 5.5348 8.83031 6.49298 7.89339C7.45114 6.95645 8.62015 6.48798 10 6.48798C11.3799 6.48798 12.5489 6.95645 13.507 7.89339C14.4652 8.83031 14.9443 9.97341 14.9443 11.3227C14.9443 11.8494 14.8665 12.3498 14.7109 12.8238C14.5553 13.2979 14.3191 13.7387 14.0024 14.1462C13.874 14.3112 13.7032 14.4005 13.4899 14.4144C13.2766 14.4282 13.0817 14.3488 12.9051 14.1762C12.728 14.003 12.6422 13.8169 12.6476 13.6179C12.6531 13.4189 12.7031 13.212 12.7978 12.997C12.9632 12.7651 13.0864 12.5087 13.1675 12.228C13.2486 11.9472 13.2891 11.6455 13.2891 11.3227C13.2891 10.4285 12.9695 9.66895 12.3304 9.04395C11.6912 8.41895 10.9144 8.10645 10 8.10645C9.08558 8.10645 8.30878 8.41895 7.66962 9.04395C7.03045 9.66895 6.71087 10.4285 6.71087 11.3227C6.71087 11.6372 6.7514 11.9369 6.83248 12.2218C6.91355 12.5066 7.03679 12.7651 7.2022 12.997C7.29687 13.212 7.34693 13.4168 7.35237 13.6115C7.35782 13.8063 7.272 13.9902 7.09491 14.1634ZM10 12.6714C9.61945 12.6714 9.29443 12.5396 9.02495 12.2761C8.75546 12.0126 8.62071 11.6948 8.62071 11.3227C8.62071 10.9506 8.75546 10.6327 9.02495 10.3692C9.29443 10.1057 9.61945 9.97395 10 9.97395C10.3805 9.97395 10.7056 10.1057 10.975 10.3692C11.2445 10.6327 11.3793 10.9506 11.3793 11.3227C11.3793 11.6948 11.2445 12.0126 10.975 12.2761C10.7056 12.5396 10.3805 12.6714 10 12.6714Z" fill="#6265AD"/>
</svg>
