<svg viewBox="0 0 20 20" fill="none" xmlns="http://www.w3.org/2000/svg">
<path d="M3.47174 4.03302C3.55765 4.01126 3.64589 4.05379 3.68725 4.13218L5.17287 6.94787C5.20748 7.01348 5.27557 7.05454 5.34976 7.05454H7.28398C7.43501 7.05454 7.53154 6.89355 7.4604 6.76033L6.14355 4.29421C6.07241 4.16098 6.16894 4 6.31997 4H7.45808C7.53226 4 7.60035 4.04106 7.63497 4.10667L9.13404 6.94787C9.16866 7.01348 9.23675 7.05454 9.31093 7.05454H11.2452C11.3962 7.05454 11.4927 6.89355 11.4216 6.76033L10.1047 4.29421C10.0336 4.16098 10.1301 4 10.2811 4H11.4193C11.4934 4 11.5615 4.04106 11.5961 4.10667L13.0952 6.94787C13.1298 7.01348 13.1979 7.05454 13.2721 7.05454H15.2063C15.3574 7.05454 15.4539 6.89355 15.3828 6.76033L14.0659 4.29421C13.9948 4.16098 14.0913 4 14.2423 4H16.091C16.6257 4 17.0775 4.17273 17.4465 4.51818C17.8154 4.86364 17.9999 5.28672 17.9999 5.78742V14.2126C17.9999 14.7133 17.8154 15.1364 17.4465 15.4818C17.0775 15.8273 16.6257 16 16.091 16H3.90878C3.37404 16 2.92221 15.8273 2.55328 15.4818C2.18434 15.1364 1.99988 14.7133 1.99988 14.2126V5.78742C1.99988 5.28672 2.14875 4.88788 2.44648 4.59091C2.71366 4.32442 3.05541 4.13846 3.47174 4.03302Z" fill="#6265AD"/>
</svg>
