<svg viewBox="0 0 20 20" fill="none" xmlns="http://www.w3.org/2000/svg">
<path d="M6.85048 14.1707C7.09966 14.1707 7.31398 14.0822 7.49346 13.9052C7.67295 13.7283 7.76269 13.5152 7.76269 13.266C7.76269 13.0168 7.6742 12.8025 7.49723 12.623C7.32025 12.4436 7.10717 12.3538 6.85799 12.3538C6.60883 12.3538 6.3945 12.4423 6.21501 12.6193C6.03554 12.7963 5.9458 13.0093 5.9458 13.2585C5.9458 13.5077 6.03429 13.722 6.21127 13.9015C6.38825 14.081 6.60132 14.1707 6.85048 14.1707ZM6.85048 10.9084C7.09966 10.9084 7.31398 10.82 7.49346 10.643C7.67295 10.466 7.76269 10.2529 7.76269 10.0038C7.76269 9.75459 7.6742 9.54026 7.49723 9.36077C7.32025 9.18129 7.10717 9.09155 6.85799 9.09155C6.60883 9.09155 6.3945 9.18004 6.21501 9.35702C6.03554 9.534 5.9458 9.74707 5.9458 9.99623C5.9458 10.2454 6.03429 10.4597 6.21127 10.6392C6.38825 10.8187 6.60132 10.9084 6.85048 10.9084ZM6.85048 7.60526C7.09966 7.60526 7.31398 7.51677 7.49346 7.33979C7.67295 7.16281 7.76269 6.94973 7.76269 6.70056C7.76269 6.45139 7.6742 6.23707 7.49723 6.05758C7.32025 5.87809 7.10717 5.78834 6.85799 5.78834C6.60883 5.78834 6.3945 5.87684 6.21501 6.05383C6.03554 6.23081 5.9458 6.44388 5.9458 6.69304C5.9458 6.94222 6.03429 7.15655 6.21127 7.33602C6.38825 7.51551 6.60132 7.60526 6.85048 7.60526ZM9.7717 14.081H13.245C13.464 14.081 13.6517 14.0031 13.8083 13.8472C13.9649 13.6914 14.0432 13.5046 14.0432 13.2868C14.0432 13.0689 13.9649 12.8807 13.8083 12.7222C13.6517 12.5637 13.464 12.4845 13.245 12.4845H9.7717C9.55269 12.4845 9.3649 12.5624 9.20832 12.7182C9.05174 12.874 8.97345 13.0608 8.97345 13.2787C8.97345 13.4966 9.05174 13.6847 9.20832 13.8432C9.3649 14.0017 9.55269 14.081 9.7717 14.081ZM9.7717 10.7778H13.245C13.464 10.7778 13.6517 10.6999 13.8083 10.5441C13.9649 10.3883 14.0432 10.2014 14.0432 9.98356C14.0432 9.7657 13.9649 9.57753 13.8083 9.41904C13.6517 9.26055 13.464 9.1813 13.245 9.1813H9.7717C9.55269 9.1813 9.3649 9.25921 9.20832 9.41501C9.05174 9.57081 8.97345 9.75764 8.97345 9.9755C8.97345 10.1934 9.05174 10.3815 9.20832 10.54C9.3649 10.6985 9.55269 10.7778 9.7717 10.7778ZM9.7717 7.5155H13.245C13.464 7.5155 13.6517 7.4376 13.8083 7.2818C13.9649 7.126 14.0432 6.93917 14.0432 6.72131C14.0432 6.50345 13.9649 6.31527 13.8083 6.15678C13.6517 5.99828 13.464 5.91903 13.245 5.91903H9.7717C9.55269 5.91903 9.3649 5.99694 9.20832 6.15275C9.05174 6.30855 8.97345 6.49538 8.97345 6.71325C8.97345 6.93111 9.05174 7.11928 9.20832 7.27777C9.3649 7.43626 9.55269 7.5155 9.7717 7.5155ZM4.84841 17C4.32979 17 3.89206 16.8216 3.53524 16.4648C3.17841 16.1079 3 15.6702 3 15.1516V4.84842C3 4.32979 3.17841 3.89206 3.53524 3.53524C3.89206 3.17841 4.32979 3 4.84841 3H15.1516C15.6702 3 16.1079 3.17841 16.4648 3.53524C16.8216 3.89206 17 4.32979 17 4.84842V15.1516C17 15.6702 16.8216 16.1079 16.4648 16.4648C16.1079 16.8216 15.6702 17 15.1516 17H4.84841Z" fill="#6265AD"/>
</svg>
