<svg viewBox="0 0 20 20" fill="none" xmlns="http://www.w3.org/2000/svg">
<path fill-rule="evenodd" clip-rule="evenodd" d="M2.20432 16.2688C2.34052 16.4229 2.50453 16.5 2.69636 16.5H17.3036C17.4955 16.5 17.6595 16.4229 17.7957 16.2688C17.9319 16.1147 18 15.9291 18 15.712C18 15.4949 17.9319 15.3093 17.7957 15.1552C17.6595 15.0011 17.4955 14.924 17.3036 14.924H15.08V14.1289C15.523 14.1289 15.8991 13.954 16.2083 13.6041C16.5175 13.2543 16.672 12.8287 16.672 12.3274V5.30156C16.672 4.80026 16.5175 4.37467 16.2083 4.0248C15.8991 3.67493 15.523 3.5 15.08 3.5H4.91997C4.47697 3.5 4.10088 3.67493 3.79171 4.0248C3.48253 4.37467 3.32794 4.80026 3.32794 5.30156V12.3274C3.32794 12.8287 3.48253 13.2543 3.79171 13.6041C4.10088 13.954 4.47697 14.1289 4.91997 14.1289V14.924H2.69636C2.50453 14.924 2.34051 15.0011 2.20431 15.1552C2.0681 15.3093 2 15.4949 2 15.712C2 15.9291 2.06811 16.1147 2.20432 16.2688ZM8.52865 11.3187C8.69437 11.4091 8.85678 11.4014 9.01589 11.2956L12.0574 9.34992C12.2059 9.25742 12.2801 9.12201 12.2801 8.94369C12.2801 8.76536 12.2059 8.62995 12.0574 8.53745L9.01589 6.59182C8.85678 6.48596 8.69437 6.47825 8.52865 6.56869C8.36294 6.65914 8.28008 6.80021 8.28008 6.99189V10.8955C8.28008 11.0872 8.36294 11.2282 8.52865 11.3187Z" fill="#6265AD"/>
</svg>
