<svg viewBox="0 0 20 20" fill="none" xmlns="http://www.w3.org/2000/svg">
<path d="M6.04478 18C5.47306 18 4.98588 17.7913 4.58324 17.3739C4.1806 16.9564 3.97928 16.4496 3.97928 15.8533C3.97928 15.257 4.17975 14.7488 4.5807 14.3289C4.98165 13.9089 5.46852 13.6989 6.0413 13.6989C6.16219 13.6989 6.28204 13.7115 6.40087 13.7366C6.51969 13.7618 6.63958 13.7995 6.76054 13.8498L7.9203 12.3583C7.70121 12.0698 7.55339 11.7758 7.47683 11.4762C7.40029 11.1767 7.36539 10.8434 7.37216 10.4764L5.71883 9.90602C5.53104 10.1725 5.29105 10.3838 4.99886 10.5399C4.70667 10.6961 4.39429 10.7742 4.06174 10.7742C3.489 10.7742 3.00218 10.5655 2.60126 10.1481C2.20034 9.73063 1.99988 9.22377 1.99988 8.62746C1.99988 8.03115 2.20026 7.52302 2.60103 7.10306C3.0018 6.6831 3.48845 6.47312 4.06098 6.47312C4.61976 6.47312 5.10047 6.67718 5.50311 7.0853C5.90575 7.49343 6.11257 7.989 6.12358 8.57203C6.12358 8.58968 6.12252 8.60071 6.12041 8.60512C6.1183 8.60953 6.11724 8.61395 6.11724 8.61836L7.78072 9.23639C7.95158 8.95407 8.17109 8.70726 8.43924 8.49597C8.70738 8.28467 9.01401 8.12608 9.35913 8.0202V6.18326C8.93449 6.04475 8.59149 5.78991 8.33011 5.41874C8.06873 5.04757 7.93805 4.62392 7.93805 4.14779C7.93805 3.55298 8.13814 3.04631 8.53834 2.62779C8.93855 2.20926 9.42451 2 9.99622 2C10.5679 2 11.0551 2.20908 11.4578 2.62724C11.8604 3.04539 12.0617 3.55315 12.0617 4.15052C12.0617 4.62483 11.9321 5.04757 11.6728 5.41874C11.4136 5.78991 11.0695 6.04475 10.6406 6.18326V8.0202C10.9968 8.12608 11.3051 8.27893 11.5656 8.47877C11.8261 8.67859 12.044 8.93113 12.2191 9.23639L13.8825 8.61836C13.8783 8.59806 13.8762 8.58872 13.8762 8.59034V8.57203C13.8982 7.989 14.107 7.49343 14.5027 7.0853C14.8984 6.67718 15.3788 6.47312 15.9441 6.47312C16.5093 6.47312 16.9933 6.68183 17.3959 7.09924C17.7986 7.51666 17.9999 8.02353 17.9999 8.61983C17.9999 9.21614 17.7994 9.72427 17.3985 10.1442C16.9976 10.5642 16.5108 10.7742 15.938 10.7742C15.6069 10.7742 15.2959 10.6961 15.0051 10.5399C14.7143 10.3838 14.473 10.1725 14.2809 9.90602L12.6111 10.4764C12.6179 10.8434 12.5857 11.1778 12.5147 11.4795C12.4436 11.7813 12.2986 12.072 12.0795 12.3517L13.2392 13.8326C13.3602 13.7867 13.4801 13.753 13.5989 13.7314C13.7177 13.7097 13.8376 13.6989 13.9585 13.6989C14.5313 13.6989 15.0181 13.9076 15.4191 14.3251C15.82 14.7425 16.0205 15.2493 16.0205 15.8456C16.0205 16.442 15.8204 16.9501 15.4202 17.37C15.02 17.79 14.534 18 13.9623 18C13.3906 18 12.9034 17.7909 12.5008 17.3727C12.0981 16.9546 11.8968 16.4468 11.8968 15.8495C11.8968 15.6325 11.9222 15.4293 11.9729 15.24C12.0237 15.0508 12.1104 14.8666 12.233 14.6875L11.1063 13.1828C10.7753 13.3469 10.4086 13.4289 10.006 13.4289C9.60353 13.4289 9.23479 13.3469 8.89983 13.1828L7.76673 14.6875C7.88515 14.8666 7.9708 15.0508 8.02367 15.24C8.07653 15.4293 8.10296 15.6325 8.10296 15.8495C8.10296 16.4468 7.90286 16.9546 7.50266 17.3727C7.10245 17.7909 6.61649 18 6.04478 18Z" fill="#6265AD"/>
</svg>
