<svg viewBox="0 0 20 20" fill="none" xmlns="http://www.w3.org/2000/svg">
<path fill-rule="evenodd" clip-rule="evenodd" d="M17 8C17 10.3846 15.8076 12.4908 13.9865 13.7547L14.8478 17.993C14.8478 18.3127 14.7227 18.5743 14.4724 18.7777C14.2221 18.9811 13.947 19.0449 13.6471 18.9691L9.93478 18.1501L6.20068 18.9691C5.90079 19.0449 5.62571 18.9811 5.37544 18.7777C5.12514 18.5743 5 18.3127 5 17.993L5.89872 13.6733C4.14246 12.4015 3 10.3342 3 8C3 4.13401 6.13401 1 10 1C13.866 1 17 4.13401 17 8ZM10 11C11.6569 11 13 9.65685 13 8C13 6.34315 11.6569 5 10 5C8.34315 5 7 6.34315 7 8C7 9.65685 8.34315 11 10 11Z" fill="#6265AD"/>
</svg>
