<svg viewBox="0 0 20 20" fill="none" xmlns="http://www.w3.org/2000/svg">
<path d="M13.6683 8.97759C13.8722 8.8434 13.9742 8.65806 13.9742 8.42156C13.9742 8.18506 13.8722 7.99884 13.6683 7.86287L10.2864 5.66693C10.0629 5.51886 9.83516 5.51281 9.60328 5.64877C9.37139 5.78473 9.25544 5.98263 9.25544 6.24246V10.598C9.25544 10.8578 9.37139 11.0557 9.60328 11.1917C9.83516 11.3277 10.0629 11.3216 10.2864 11.1735L13.6683 8.97759ZM7.29977 14.4856C6.803 14.4856 6.38127 14.3123 6.03457 13.9656C5.68787 13.6189 5.51452 13.1971 5.51452 12.7004V4.28538C5.51452 3.78861 5.68787 3.36688 6.03457 3.02019C6.38127 2.67348 6.803 2.50012 7.29977 2.50012H15.7148C16.2115 2.50012 16.6332 2.67348 16.9799 3.02019C17.3266 3.36688 17.5 3.78861 17.5 4.28538V12.7004C17.5 13.1971 17.3266 13.6189 16.9799 13.9656C16.6332 14.3123 16.2115 14.4856 15.7148 14.4856H7.29977ZM4.28524 17.5001C3.78849 17.5001 3.36675 17.3268 3.02004 16.9801C2.67335 16.6334 2.5 16.2116 2.5 15.7149V6.51903C2.5 6.30391 2.57636 6.11999 2.72909 5.96726C2.88181 5.81454 3.06574 5.73818 3.28086 5.73818C3.49598 5.73818 3.67991 5.81454 3.83265 5.96726C3.98537 6.11999 4.06173 6.30391 4.06173 6.51903V15.7149C4.06173 15.7708 4.08501 15.822 4.13158 15.8685C4.17815 15.9151 4.22937 15.9384 4.28524 15.9384H13.4811C13.6962 15.9384 13.8801 16.0148 14.0329 16.1675C14.1856 16.3202 14.262 16.5041 14.262 16.7193C14.262 16.9344 14.1856 17.1183 14.0329 17.271C13.8801 17.4238 13.6962 17.5001 13.4811 17.5001H4.28524Z" fill="#6265AD"/>
</svg>
