<svg viewBox="0 0 20 20" fill="none" xmlns="http://www.w3.org/2000/svg">
<path d="M13.1817 12.0915C12.5205 12.0915 11.9551 11.859 11.4855 11.3939C11.0159 10.9287 10.7811 10.3687 10.7811 9.71373C10.7811 9.05878 11.0159 8.49873 11.4855 8.0336C11.9551 7.56848 12.5205 7.33592 13.1817 7.33592C13.843 7.33592 14.4084 7.56848 14.878 8.0336C15.3475 8.49873 15.5823 9.05878 15.5823 9.71373C15.5823 10.3687 15.3475 10.9287 14.878 11.3939C14.4084 11.859 13.843 12.0915 13.1817 12.0915ZM9.27317 18C9.02245 18 8.80815 17.9119 8.63027 17.7357C8.45238 17.5595 8.36344 17.3472 8.36344 17.0989V15.4825C8.36344 15.1982 8.43247 14.9376 8.57053 14.7007C8.70861 14.4639 8.89787 14.2716 9.13832 14.124C9.57742 13.8866 9.93155 13.7172 10.2007 13.6159C10.4698 13.5146 10.8488 13.4193 11.3375 13.33C11.5264 13.3046 11.7098 13.3102 11.8879 13.3466C12.0659 13.383 12.2187 13.4728 12.3464 13.6159L13.1817 14.692L14.0171 13.6159C14.1411 13.4931 14.2927 13.4084 14.4719 13.3618C14.6512 13.3153 14.8365 13.3046 15.0278 13.33C15.5204 13.4193 15.9029 13.511 16.1753 13.6051C16.4476 13.6992 16.8068 13.8722 17.253 14.124C17.4937 14.258 17.6771 14.443 17.8032 14.6789C17.9292 14.9148 17.9948 15.1668 18 15.4349V17.0989C18 17.3472 17.9111 17.5595 17.7332 17.7357C17.5553 17.9119 17.341 18 17.0903 18H9.27317Z" fill="#6265AD"/>
<path fill-rule="evenodd" clip-rule="evenodd" d="M2 4C2 2.89543 2.89543 2 4 2H14C15.1046 2 16 2.89543 16 4V6.85418C15.2671 6.02375 14.1947 5.5 13 5.5C10.7909 5.5 9 7.29086 9 9.5C9 10.2997 9.23468 11.0446 9.63894 11.6696C7.78777 12.4938 6.6001 13.7689 6.6001 15.2C6.6001 15.473 6.64332 15.7404 6.72614 16H4C2.89543 16 2 15.1046 2 14V4ZM4.4767 9.97336C4.79449 10.2578 5.17352 10.4001 5.61379 10.4001C6.05406 10.4001 6.43309 10.2578 6.75089 9.97336C7.06868 9.68889 7.22757 9.3496 7.22757 8.95549V5.45118H7.98941C8.21977 5.45118 8.41245 5.38162 8.56747 5.2425C8.72249 5.10338 8.8 4.93082 8.8 4.72483C8.8 4.51884 8.72249 4.34653 8.56747 4.20792C8.41245 4.06931 8.21977 4 7.98941 4H7.34581C7.07795 4 6.8536 4.08094 6.67275 4.24283C6.4919 4.40471 6.40148 4.60554 6.40148 4.84531V7.6776C6.28079 7.61631 6.15616 7.57321 6.02759 7.54829C5.89901 7.52337 5.76108 7.51092 5.61379 7.51092C5.17352 7.51092 4.79449 7.65316 4.4767 7.93763C4.1589 8.2221 4 8.56139 4 8.95549C4 9.3496 4.1589 9.68889 4.4767 9.97336Z" fill="#6265AD"/>
</svg>
