<svg viewBox="0 0 20 20" fill="none" xmlns="http://www.w3.org/2000/svg">
<path d="M3.48233 7.08197L2.12612 6.45008C2.04204 6.40949 2 6.33991 2 6.24134C2 6.14277 2.04204 6.07319 2.12612 6.0326L3.48233 5.40071L4.10009 4.01341C4.13976 3.92741 4.20777 3.8844 4.30413 3.8844C4.4005 3.8844 4.46852 3.92741 4.50819 4.01341L5.12594 5.40071L6.48216 6.0326C6.56624 6.07319 6.60827 6.14277 6.60827 6.24134C6.60827 6.33991 6.56624 6.40949 6.48216 6.45008L5.12594 7.08197L4.50819 8.46927C4.46852 8.55528 4.4005 8.59828 4.30413 8.59828C4.20777 8.59828 4.13976 8.55528 4.10009 8.46927L3.48233 7.08197ZM13.977 4.20473L13.131 3.81915C13.0469 3.77437 13.0049 3.70238 13.0049 3.60318C13.0049 3.50397 13.0469 3.43198 13.131 3.3872L13.977 3.00162L14.3539 2.12901C14.3977 2.043 14.4681 2 14.5651 2C14.662 2 14.7324 2.043 14.7762 2.12901L15.1602 3.00162L16.0062 3.3872C16.0903 3.43198 16.1323 3.50397 16.1323 3.60318C16.1323 3.70238 16.0903 3.77437 16.0062 3.81915L15.1602 4.20473L14.7762 5.07734C14.7324 5.16335 14.662 5.20635 14.5651 5.20635C14.4681 5.20635 14.3977 5.16335 14.3539 5.07734L13.977 4.20473ZM15.8517 8.35042L14.9987 7.96483C14.9146 7.92006 14.8725 7.84807 14.8725 7.74886C14.8725 7.64966 14.9146 7.57766 14.9987 7.53289L15.8517 7.14731L16.2287 6.27469C16.2724 6.18869 16.3428 6.14569 16.4398 6.14569C16.5368 6.14569 16.6072 6.18869 16.651 6.27469L17.0279 7.14731L17.8739 7.53289C17.958 7.57766 18 7.64966 18 7.74886C18 7.84807 17.958 7.92006 17.8739 7.96483L17.0279 8.35042L16.651 9.22303C16.6072 9.30904 16.5368 9.35204 16.4398 9.35204C16.3428 9.35204 16.2724 9.30904 16.2287 9.22303L15.8517 8.35042ZM9.99863 12.2714C9.3718 12.2714 8.84015 12.0487 8.40369 11.6033C7.96724 11.1579 7.74901 10.6143 7.74901 9.97246V5.4122C7.74901 4.77039 7.96652 4.22677 8.40153 3.78136C8.83653 3.33595 9.36745 3.11325 9.99428 3.11325C10.6211 3.11325 11.1528 3.33595 11.5892 3.78136C12.0257 4.22677 12.2439 4.77039 12.2439 5.4122V9.97246C12.2439 10.6143 12.0264 11.1579 11.5914 11.6033C11.1564 12.0487 10.6255 12.2714 9.99863 12.2714ZM9.97803 18C9.75981 18 9.57323 17.9208 9.4183 17.7623C9.26338 17.6038 9.18591 17.413 9.18591 17.1897V15.5937C8.05982 15.4498 7.03647 14.9446 6.11584 14.0783C5.19523 13.2119 4.67021 12.1878 4.54079 11.006C4.49355 10.7074 4.53393 10.4605 4.66194 10.2653C4.78994 10.0701 5.01738 9.97246 5.34424 9.97246C5.51665 9.97246 5.67075 10.0353 5.80656 10.1609C5.94235 10.2865 6.03623 10.4532 6.08819 10.661C6.2469 11.6167 6.69127 12.413 7.42129 13.0498C8.15131 13.6867 9.0097 14.0051 9.99645 14.0051C10.9832 14.0051 11.8416 13.6867 12.5716 13.0498C13.3016 12.413 13.746 11.6167 13.9047 10.661C13.9567 10.4532 14.0497 10.2865 14.1839 10.1609C14.318 10.0353 14.4767 9.97246 14.66 9.97246C14.9547 9.97246 15.1753 10.0763 15.3218 10.2841C15.4682 10.4919 15.5116 10.7388 15.4521 11.0248C15.249 12.2192 14.7179 13.2402 13.8586 14.0877C12.9994 14.9352 11.9699 15.4372 10.7702 15.5937V17.1897C10.7702 17.413 10.6927 17.6038 10.5378 17.7623C10.3828 17.9208 10.1963 18 9.97803 18Z" fill="#6265AD"/>
</svg>
