<svg viewBox="0 0 20 20" fill="none" xmlns="http://www.w3.org/2000/svg">
<path d="M3.90892 18C3.36622 18 2.9124 17.8245 2.54746 17.4736C2.18249 17.1227 2 16.6863 2 16.1645V7.47523C2 7.09989 2.1063 6.74681 2.31891 6.416C2.53151 6.08518 2.82003 5.84652 3.18449 5.70001L12.4989 2.06633C12.6871 1.98112 12.8745 1.97801 13.0612 2.057C13.2479 2.13599 13.3791 2.26597 13.4548 2.44693C13.5305 2.6279 13.5272 2.80815 13.4451 2.98768C13.3629 3.1672 13.2342 3.29334 13.059 3.36611L7.2546 5.6397H16.0911C16.6338 5.6397 17.0876 5.81517 17.4526 6.1661C17.8175 6.51702 18 6.9534 18 7.47523V16.1645C18 16.6863 17.8175 17.1227 17.4526 17.4736C17.0876 17.8245 16.6338 18 16.0911 18H3.90892ZM3.66991 9.30033C3.66991 9.41079 3.75945 9.50033 3.86991 9.50033H13.1068V8.7549C13.1068 8.53373 13.1885 8.34463 13.3518 8.18759C13.5151 8.03057 13.7118 7.95206 13.9418 7.95206C14.1718 7.95206 14.3685 8.03057 14.5318 8.18759C14.6951 8.34463 14.7767 8.53373 14.7767 8.7549V9.50033H16.1301C16.2406 9.50033 16.3301 9.41079 16.3301 9.30033V7.47523C16.3301 7.4082 16.3077 7.35314 16.2629 7.31005C16.2181 7.26695 16.1608 7.24541 16.0911 7.24541H3.90892C3.83921 7.24541 3.78195 7.26695 3.73713 7.31005C3.69231 7.35314 3.66991 7.4082 3.66991 7.47523V9.30033ZM6.83347 15.455C7.33234 15.455 7.75579 15.2876 8.10382 14.953C8.45183 14.6184 8.62584 14.2112 8.62584 13.7315C8.62584 13.2518 8.45183 12.8446 8.10382 12.51C7.75579 12.1753 7.33234 12.008 6.83347 12.008C6.33459 12.008 5.91114 12.1753 5.56312 12.51C5.2151 12.8446 5.04109 13.2518 5.04109 13.7315C5.04109 14.2112 5.2151 14.6184 5.56312 14.953C5.91114 15.2876 6.33459 15.455 6.83347 15.455Z" fill="#6265AD"/>
</svg>
