<svg viewBox="0 0 20 20" fill="none" xmlns="http://www.w3.org/2000/svg">
<path d="M8.36206 17C7.44484 17 6.65519 16.6889 5.99312 16.0666C5.33104 15.4443 5 14.7021 5 13.84C5 12.9779 5.33104 12.2358 5.99312 11.6135C6.65519 10.9912 7.44484 10.6801 8.36206 10.6801C8.66892 10.6801 8.95628 10.7073 9.22414 10.7618C9.492 10.8163 9.75165 10.9106 10.0031 11.0447V4.84911C10.0031 4.32461 10.1915 3.8853 10.5682 3.53118C10.945 3.17706 11.4124 3 11.9704 3H13.3113C13.7912 3 14.1926 3.1516 14.5156 3.45481C14.8385 3.75804 15 4.13495 15 4.58555C15 5.03615 14.8385 5.41361 14.5156 5.71794C14.1926 6.02226 13.7912 6.17443 13.3113 6.17443H11.7241V13.84C11.7241 14.7021 11.3931 15.4443 10.731 16.0666C10.0689 16.6889 9.27929 17 8.36206 17Z" fill="#6265AD"/>
</svg>
