<svg viewBox="0 0 20 20" fill="none" xmlns="http://www.w3.org/2000/svg">
<path fill-rule="evenodd" clip-rule="evenodd" d="M4.5 2.5C3.39543 2.5 2.5 3.39543 2.5 4.5V15.5C2.5 16.6046 3.39543 17.5 4.5 17.5H15.5C16.6046 17.5 17.5 16.6046 17.5 15.5V4.5C17.5 3.39543 16.6046 2.5 15.5 2.5H4.5ZM7.54236 13.896C7.4585 13.8344 7.3964 13.7506 7.35606 13.6445C7.31572 13.5384 7.31059 13.4248 7.34069 13.3037L7.80289 11.2178C7.82046 11.1386 7.79465 11.0556 7.7358 11.0023L6.1911 9.60214C6.09378 9.52651 6.03424 9.43298 6.01247 9.32155C5.99071 9.21011 5.99743 9.10519 6.03264 9.00681C6.06785 8.90842 6.1274 8.82325 6.21127 8.75131C6.29515 8.67936 6.39343 8.63636 6.50611 8.62231L8.53077 8.43995C8.60864 8.43294 8.67637 8.38146 8.7067 8.30625L9.49868 6.34234C9.54734 6.21785 9.61665 6.12967 9.7066 6.0778C9.79656 6.02593 9.89436 6 10 6C10.1056 6 10.2034 6.02593 10.2934 6.0778C10.3834 6.12967 10.4527 6.21785 10.5013 6.34234L11.2933 8.30625C11.3236 8.38146 11.3914 8.43294 11.4692 8.43995L13.4939 8.62231C13.6066 8.63636 13.7049 8.67936 13.7887 8.75131C13.8726 8.82325 13.9321 8.90842 13.9674 9.00681C14.0026 9.10519 14.0093 9.21011 13.9875 9.32155C13.9658 9.43298 13.9062 9.52651 13.8089 9.60214L12.2642 11.0023C12.2054 11.0556 12.1795 11.1386 12.1971 11.2178L12.6593 13.3037C12.6894 13.4248 12.6843 13.5384 12.6439 13.6445C12.6036 13.7506 12.5415 13.8344 12.4576 13.896C12.3738 13.9576 12.2788 13.9919 12.1729 13.9989C12.0669 14.0059 11.9611 13.9787 11.8555 13.9171L10.109 12.8134C10.042 12.771 9.958 12.771 9.89099 12.8134L8.14452 13.9171C8.03888 13.9787 7.93308 14.0059 7.82712 13.9989C7.72116 13.9919 7.62624 13.9576 7.54236 13.896Z" fill="#6265AD"/>
</svg>
