<svg viewBox="0 0 20 20" fill="none" xmlns="http://www.w3.org/2000/svg">
<path fill-rule="evenodd" clip-rule="evenodd" d="M6.51351 14.595C6.29279 14.381 6.1783 14.1146 6.1783 13.8122V6.15023C6.1783 5.84776 6.29295 5.58134 6.51388 5.36731C6.73482 5.1533 7.00981 5.04226 7.32195 5.04226C7.6341 5.04226 7.90906 5.15329 8.12987 5.36741C8.3506 5.58147 8.46509 5.84786 8.46509 6.15023V13.8122C8.46509 14.1147 8.35044 14.3811 8.12952 14.5951C7.90858 14.8091 7.63358 14.9202 7.32144 14.9202C7.00929 14.9202 6.73432 14.8091 6.51351 14.595ZM9.69182 17.6748C9.47109 17.4608 9.35661 17.1944 9.35661 16.892V3.10796C9.35661 2.8055 9.47125 2.53908 9.69218 2.32505C9.91312 2.11104 10.1881 2 10.5003 2C10.8124 2 11.0874 2.11103 11.3082 2.32515C11.5289 2.53921 11.6434 2.8056 11.6434 3.10796V16.892C11.6434 17.1945 11.5287 17.4609 11.3078 17.6749C11.0869 17.889 10.8119 18 10.4997 18C10.1876 18 9.91262 17.889 9.69182 17.6748ZM3.33521 11.5528C3.11449 11.3387 3 11.0723 3 10.77V9.23004C3 8.92758 3.11465 8.66116 3.33558 8.44713C3.55651 8.23312 3.83151 8.12208 4.14365 8.12208C4.4558 8.12208 4.73076 8.23311 4.95157 8.44723C5.17229 8.66129 5.28679 8.92768 5.28679 9.23004V10.77C5.28679 11.0724 5.17214 11.3388 4.95121 11.5529C4.73028 11.7669 4.45528 11.8779 4.14314 11.8779C3.83099 11.8779 3.55602 11.7669 3.33521 11.5528ZM12.8701 14.595C12.6494 14.381 12.5349 14.1146 12.5349 13.8122V6.15023C12.5349 5.84776 12.6496 5.58134 12.8705 5.36731C13.0914 5.1533 13.3664 5.04226 13.6786 5.04226C13.9907 5.04226 14.2657 5.15329 14.4865 5.36741C14.7072 5.58147 14.8217 5.84786 14.8217 6.15023V13.8122C14.8217 14.1147 14.707 14.3811 14.4861 14.5951C14.2652 14.8091 13.9902 14.9202 13.6781 14.9202C13.3659 14.9202 13.0909 14.8091 12.8701 14.595ZM16.0484 11.5528C15.8277 11.3387 15.7132 11.0723 15.7132 10.77V9.23004C15.7132 8.92758 15.8279 8.66116 16.0488 8.44713C16.2697 8.23312 16.5447 8.12208 16.8569 8.12208C17.169 8.12208 17.444 8.23311 17.6648 8.44723C17.8855 8.66129 18 8.92768 18 9.23004V10.77C18 11.0724 17.8854 11.3388 17.6644 11.5529C17.4435 11.7669 17.1685 11.8779 16.8564 11.8779C16.5442 11.8779 16.2692 11.7669 16.0484 11.5528Z" fill="#6265AD"/>
</svg>
