<svg viewBox="0 0 20 20" fill="none" xmlns="http://www.w3.org/2000/svg">
<path d="M4.48202 17.5C3.9305 17.5 3.46229 17.3264 3.07738 16.9791C2.69246 16.6318 2.5 16.2093 2.5 15.7117V5.75467C2.5 5.25707 2.69246 4.83463 3.07738 4.48735C3.46229 4.14006 3.9305 3.96642 4.48202 3.96642H4.95349V3.29616C4.95349 3.07602 5.03957 2.88829 5.21172 2.73296C5.38386 2.57765 5.59193 2.5 5.83594 2.5C6.07993 2.5 6.288 2.57765 6.46015 2.73296C6.63229 2.88829 6.71836 3.07602 6.71836 3.29616V3.96642H13.3126V3.28217C13.3126 3.06668 13.3974 2.88245 13.567 2.72947C13.7365 2.57649 13.9407 2.5 14.1796 2.5C14.4184 2.5 14.6226 2.57649 14.7921 2.72947C14.9617 2.88245 15.0465 3.06668 15.0465 3.28217V3.96642H15.518C16.0695 3.96642 16.5377 4.14006 16.9226 4.48735C17.3075 4.83463 17.5 5.25707 17.5 5.75467V15.7117C17.5 16.2093 17.3075 16.6318 16.9226 16.9791C16.5377 17.3264 16.0695 17.5 15.518 17.5H4.48202ZM4.48202 15.9356H15.518C15.58 15.9356 15.6369 15.9123 15.6886 15.8657C15.7403 15.819 15.7661 15.7677 15.7661 15.7117V8.44684H4.23386V15.7117C4.23386 15.7677 4.2597 15.819 4.3114 15.8657C4.3631 15.9123 4.41998 15.9356 4.48202 15.9356Z" fill="#6265AD"/>
</svg>
