<svg viewBox="0 0 20 20" fill="none" xmlns="http://www.w3.org/2000/svg">
<path d="M3 13.0901V3.72597C3 3.52028 3.06701 3.34786 3.20103 3.20871C3.33504 3.06957 3.50111 3 3.69923 3H12.9659C13.164 3 13.33 3.06957 13.464 3.20871C13.5981 3.34786 13.6651 3.52028 13.6651 3.72597V10.4701C13.6651 10.6758 13.5981 10.8482 13.464 10.9874C13.33 11.1265 13.164 11.1961 12.9659 11.1961H6.46853C6.06095 11.1961 5.67091 11.3619 5.38816 11.6555L3.69793 13.4104C3.5671 13.5462 3.41807 13.5732 3.25083 13.4914C3.08361 13.4095 3 13.2757 3 13.0901ZM6.52989 14.6586C6.33177 14.6586 6.1657 14.589 6.03168 14.4498C5.89767 14.3107 5.83066 14.1383 5.83066 13.9326C5.83066 13.1963 6.42754 12.5994 7.16383 12.5994H14.757C14.7859 12.5994 14.8136 12.6112 14.8337 12.632C14.9001 12.701 15.0167 12.654 15.0167 12.5582V7.22549C15.0167 6.51941 15.5891 5.94702 16.2952 5.94702C16.5021 5.94702 16.6713 6.01659 16.8028 6.15574C16.9343 6.29488 17 6.46729 17 6.67298V16.5532C17 16.7384 16.9164 16.872 16.7492 16.9538C16.5819 17.0357 16.4329 17.0087 16.3021 16.8729L14.6118 15.118C14.3291 14.8244 13.9391 14.6586 13.5315 14.6586H6.52989Z" fill="#6265AD"/>
</svg>
