<svg viewBox="0 0 20 20" fill="none" xmlns="http://www.w3.org/2000/svg">
<path d="M11.2728 17.3891L5.80808 15.9775V8.69147H7.38115C7.49052 8.69147 7.60379 8.69948 7.72097 8.7155C7.83813 8.73154 7.94896 8.76407 8.05344 8.81311L11.7268 10.0762C12.4269 10.3384 12.9574 10.6774 13.3182 11.0933C13.679 11.5091 13.8594 11.9302 13.8594 12.3564C13.8594 12.3734 13.8647 12.3833 13.8755 12.3861C13.8862 12.3889 13.8652 12.3904 13.8125 12.3904H12.8883C12.4079 12.3781 11.9236 12.3434 11.4354 12.2864C10.9471 12.2293 10.4736 12.1277 10.0146 11.9816L9.40238 11.8062C9.24713 11.7496 9.10579 11.7545 8.97836 11.821C8.85094 11.8875 8.74915 12.0018 8.67299 12.164C8.59682 12.314 8.59048 12.4601 8.65395 12.6025C8.71741 12.7449 8.83313 12.8444 9.00108 12.901L9.55179 13.1216C10.0605 13.2895 10.5336 13.3946 10.9711 13.4371C11.4085 13.4795 11.9793 13.5007 12.6833 13.5007H15.9993C16.7746 13.5007 17.3018 13.6957 17.5811 14.0856C17.8604 14.4755 18 15.0378 18 15.7724L12.2673 17.4217C12.0915 17.4858 11.9309 17.5105 11.7854 17.4959C11.6399 17.4813 11.4691 17.4457 11.2728 17.3891ZM2 15.8176V9.93335C2 9.58161 2.1201 9.2867 2.36031 9.04859C2.60051 8.8105 2.90271 8.69145 3.26691 8.69145H3.58918C3.94069 8.69145 4.23337 8.81356 4.46722 9.05778C4.70108 9.30202 4.81801 9.59387 4.81801 9.93335V15.8176C4.81801 16.1571 4.70108 16.4489 4.46722 16.6932C4.23337 16.9374 3.94069 17.0595 3.58918 17.0595H3.26691C2.90271 17.0595 2.60051 16.9405 2.36031 16.7024C2.1201 16.4643 2 16.1693 2 15.8176ZM12.6496 5.66727L15.702 2.71944C15.8582 2.56857 16.0288 2.4955 16.2138 2.50021C16.3989 2.50492 16.5671 2.58036 16.7184 2.72652C16.8746 2.8774 16.9528 3.04525 16.9528 3.23007C16.9528 3.4149 16.8746 3.58275 16.7184 3.73362L13.2647 7.08739C13.089 7.25713 12.8839 7.342 12.6496 7.342C12.4152 7.342 12.2102 7.25713 12.0344 7.08739L10.5229 5.60924C10.3715 5.46307 10.2903 5.29711 10.279 5.11135C10.2678 4.92558 10.3403 4.75961 10.4965 4.61345C10.6479 4.45032 10.8261 4.37418 11.0311 4.38503C11.2362 4.39586 11.4144 4.47437 11.5657 4.62053L12.6496 5.66727Z" fill="#6265AD"/>
</svg>
