<svg viewBox="0 0 20 20" fill="none" xmlns="http://www.w3.org/2000/svg">
<path d="M3.87278 15.8625C3.63259 15.8625 3.42709 15.7774 3.25626 15.6072C3.08542 15.437 3 15.2323 3 14.993C3 14.7537 3.08542 14.5491 3.25626 14.379C3.42709 14.209 3.63259 14.124 3.87278 14.124H7.3234C7.56359 14.124 7.7691 14.2091 7.93993 14.3793C8.11076 14.5495 8.19618 14.7542 8.19618 14.9935C8.19618 15.2328 8.11076 15.4375 7.93993 15.6075C7.7691 15.7775 7.56359 15.8625 7.3234 15.8625H3.87278ZM3.87278 5.87598C3.63259 5.87598 3.42709 5.79088 3.25626 5.6207C3.08542 5.45049 3 5.24575 3 5.00646C3 4.76716 3.08542 4.56251 3.25626 4.39249C3.42709 4.22248 3.63259 4.13747 3.87278 4.13747H10.3072C10.5474 4.13747 10.7529 4.22257 10.9237 4.39275C11.0945 4.56296 11.18 4.7677 11.18 5.00699C11.18 5.24629 11.0945 5.45094 10.9237 5.62096C10.7529 5.79097 10.5474 5.87598 10.3072 5.87598H3.87278ZM10.6926 17.5C10.4523 17.5 10.2468 17.4149 10.0761 17.2448C9.9054 17.0746 9.82005 16.87 9.82005 16.6307V13.3558C9.82005 13.1166 9.90549 12.9119 10.0764 12.7418C10.2473 12.5716 10.4528 12.4865 10.6931 12.4865C10.9334 12.4865 11.1389 12.5716 11.3096 12.7418C11.4803 12.9119 11.5656 13.1166 11.5656 13.3558V14.124H17.1272C17.3674 14.124 17.5729 14.2091 17.7438 14.3793C17.9146 14.5495 18 14.7542 18 14.9935C18 15.2328 17.9146 15.4375 17.7438 15.6075C17.5729 15.7775 17.3674 15.8625 17.1272 15.8625H11.5656V16.6307C11.5656 16.87 11.4802 17.0746 11.3093 17.2448C11.1384 17.4149 10.9328 17.5 10.6926 17.5ZM7.32314 12.5067C7.08287 12.5067 6.87738 12.4217 6.70667 12.2515C6.53597 12.0814 6.45062 11.8767 6.45062 11.6375V10.8693H3.87278C3.63259 10.8693 3.42709 10.7842 3.25626 10.614C3.08542 10.4438 3 10.239 3 9.99974C3 9.76044 3.08542 9.55578 3.25626 9.38577C3.42709 9.21575 3.63259 9.13074 3.87278 9.13074H6.45062V8.36253C6.45062 8.12331 6.53606 7.91863 6.70694 7.74848C6.87783 7.57834 7.08341 7.49327 7.32367 7.49327C7.56394 7.49327 7.76942 7.57834 7.94013 7.74848C8.11083 7.91863 8.19618 8.12331 8.19618 8.36253V11.6375C8.19618 11.8767 8.11074 12.0814 7.93986 12.2515C7.76897 12.4217 7.5634 12.5067 7.32314 12.5067ZM10.6928 10.8693C10.4526 10.8693 10.2471 10.7842 10.0763 10.614C9.90546 10.4438 9.82005 10.239 9.82005 9.99974C9.82005 9.76044 9.90546 9.55578 10.0763 9.38577C10.2471 9.21575 10.4526 9.13074 10.6928 9.13074H17.1272C17.3674 9.13074 17.5729 9.21584 17.7438 9.38603C17.9146 9.55623 18 9.76098 18 10.0003C18 10.2396 17.9146 10.4442 17.7438 10.6142C17.5729 10.7842 17.3674 10.8693 17.1272 10.8693H10.6928ZM13.6763 7.51345C13.4361 7.51345 13.2306 7.42838 13.0599 7.25825C12.8892 7.0881 12.8038 6.88341 12.8038 6.6442V3.36925C12.8038 3.13004 12.8893 2.92535 13.0601 2.7552C13.231 2.58507 13.4366 2.5 13.6769 2.5C13.9171 2.5 14.1226 2.58507 14.2933 2.7552C14.464 2.92535 14.5494 3.13004 14.5494 3.36925V4.13747H17.1272C17.3674 4.13747 17.5729 4.22257 17.7438 4.39275C17.9146 4.56296 18 4.7677 18 5.00699C18 5.24629 17.9146 5.45094 17.7438 5.62096C17.5729 5.79097 17.3674 5.87598 17.1272 5.87598H14.5494V6.6442C14.5494 6.88341 14.4639 7.0881 14.2931 7.25825C14.1222 7.42838 13.9166 7.51345 13.6763 7.51345Z" fill="#6265AD"/>
</svg>
