<svg viewBox="0 0 20 20" fill="none" xmlns="http://www.w3.org/2000/svg">
<path d="M2.90304 17C2.7225 17 2.56612 16.9542 2.4339 16.8625C2.30168 16.7709 2.1967 16.6639 2.11896 16.5416C2.03333 16.4214 1.99392 16.2791 2.00076 16.1146C2.00758 15.9501 2.05299 15.7868 2.137 15.6247L9.26013 3.41888C9.34414 3.25678 9.44942 3.14644 9.57597 3.08787C9.70253 3.02929 9.84404 3 10.0005 3C10.157 3 10.2983 3.02929 10.4245 3.08787C10.5507 3.14644 10.6559 3.25678 10.7399 3.41888L17.863 15.6247C17.947 15.7868 17.9924 15.9501 17.9992 16.1146C18.0061 16.2791 17.9667 16.4214 17.881 16.5416C17.7977 16.6626 17.6914 16.7692 17.5619 16.8615C17.4325 16.9538 17.2775 17 17.097 17H2.90304ZM10.0152 14.563C10.2324 14.563 10.4197 14.4831 10.5772 14.3231C10.7348 14.1632 10.8135 13.9711 10.8135 13.7467C10.8135 13.5224 10.7361 13.3289 10.5813 13.1662C10.4265 13.0035 10.2405 12.9221 10.0233 12.9221C9.8061 12.9221 9.61874 13.0021 9.46121 13.162C9.30369 13.3219 9.22492 13.514 9.22492 13.7384C9.22492 13.9627 9.30234 14.1562 9.45718 14.3189C9.612 14.4817 9.798 14.563 10.0152 14.563ZM10.0154 12.0283C10.2201 12.0283 10.3969 11.9523 10.5458 11.8004C10.6947 11.6484 10.7692 11.4662 10.7692 11.2537V8.90983C10.7692 8.6973 10.696 8.51507 10.5496 8.36314C10.4032 8.21119 10.2277 8.13521 10.023 8.13521C9.81834 8.13521 9.64155 8.21119 9.49265 8.36314C9.34375 8.51507 9.2693 8.6973 9.2693 8.90983V11.2537C9.2693 11.4662 9.34249 11.6484 9.48887 11.8004C9.63524 11.9523 9.81077 12.0283 10.0154 12.0283Z" fill="#6265AD"/>
</svg>
