<svg viewBox="0 0 20 20" fill="none" xmlns="http://www.w3.org/2000/svg">
<path d="M9.94011 10.3704C10.49 10.3704 10.9599 10.1796 11.3497 9.79809C11.7396 9.41656 11.9345 8.95789 11.9345 8.4221C11.9345 7.88632 11.7387 7.4285 11.3471 7.04864C10.9555 6.66878 10.4848 6.47886 9.93489 6.47886C9.38501 6.47886 8.91514 6.66963 8.52529 7.05118C8.13543 7.43272 7.9405 7.89139 7.9405 8.42718C7.9405 8.96296 8.1363 9.42078 8.52789 9.80064C8.91947 10.1805 9.39021 10.3704 9.94011 10.3704ZM9.9375 18.6042C7.58315 16.6242 5.82789 14.816 4.67173 13.1794C3.51558 11.5427 2.9375 10.0138 2.9375 8.59259C2.9375 6.44684 3.6374 4.74565 5.03721 3.48905C6.43701 2.23245 8.06964 1.60416 9.9351 1.60416C11.8006 1.60416 13.434 2.23245 14.8354 3.48905C16.2368 4.74565 16.9375 6.44684 16.9375 8.59259C16.9375 10.0138 16.3594 11.5427 15.2033 13.1794C14.0471 14.816 12.2919 16.6242 9.9375 18.6042Z" fill="#6265AD"/>
</svg>
