<svg viewBox="0 0 20 20" fill="none" xmlns="http://www.w3.org/2000/svg">
<path d="M4.28961 16C3.79164 16 3.36888 15.8264 3.02134 15.4793C2.67378 15.1322 2.5 14.7099 2.5 14.2126V5.78742C2.5 5.29005 2.67377 4.86781 3.02132 4.52069C3.36886 4.17356 3.79162 4 4.28959 4H15.7104C16.2084 4 16.6311 4.17356 16.9787 4.52069C17.3262 4.86781 17.5 5.29005 17.5 5.78742V14.2126C17.5 14.7099 17.3262 15.1322 16.9787 15.4793C16.6311 15.8264 16.2084 16 15.7104 16H4.28961ZM10 10.6671C10.085 10.6671 10.1657 10.655 10.2421 10.6307C10.3185 10.6065 10.3923 10.5725 10.4635 10.5287L15.6004 7.25161C15.6822 7.20133 15.7525 7.11721 15.8113 6.99926C15.8701 6.88131 15.8925 6.76264 15.8785 6.64326C15.8692 6.41112 15.7567 6.23818 15.541 6.12444C15.3254 6.0107 15.1083 6.02002 14.8899 6.15242L10.8069 8.75784C10.3148 9.07185 9.68523 9.07185 9.19313 8.75784L5.11015 6.15242C4.89171 6.02002 4.67583 6.00627 4.46253 6.11117C4.24922 6.21605 4.13556 6.39344 4.12155 6.64332C4.10755 6.76546 4.12995 6.88364 4.18876 6.99786C4.24757 7.11208 4.31852 7.19716 4.4016 7.2531L9.53653 10.5287C9.60771 10.5725 9.68151 10.6065 9.75794 10.6307C9.83438 10.655 9.91507 10.6671 10 10.6671Z" fill="#6265AD"/>
</svg>
