<svg viewBox="0 0 20 20" fill="none" xmlns="http://www.w3.org/2000/svg">
<path d="M4.81655 17C4.31625 17 3.88841 16.8223 3.53305 16.467C3.17768 16.1116 3 15.6838 3 15.1835V4.81655C3 4.30284 3.17768 3.87165 3.53305 3.52299C3.88841 3.17433 4.31625 3 4.81655 3H15.1835C15.6972 3 16.1283 3.17433 16.477 3.52299C16.8257 3.87165 17 4.30284 17 4.81655V15.1835C17 15.6838 16.8257 16.1116 16.477 16.467C16.1283 16.8223 15.6972 17 15.1835 17H4.81655ZM15.431 5.49271L9.98763 11.1063L8.14787 9.2867C7.9622 9.10103 7.75228 9.00819 7.51813 9.00819C7.28396 9.00819 7.07404 9.10103 6.88837 9.2867L4.56895 11.6061V13.7893L7.51813 10.8402L9.35479 12.6768C9.55388 12.8759 9.77127 12.97 10.007 12.9592C10.2427 12.9484 10.4559 12.8501 10.6468 12.6644L15.431 7.72544V5.49271Z" fill="#6265AD"/>
</svg>
