<svg viewBox="0 0 20 20" fill="none" xmlns="http://www.w3.org/2000/svg">
<path d="M16.3037 9.99651C16.3037 8.60618 15.9144 7.35154 15.1359 6.23262C14.3575 5.11371 13.3504 4.28822 12.1147 3.75615C11.8871 3.66559 11.712 3.51047 11.5893 3.29078C11.4666 3.0711 11.4577 2.84915 11.5625 2.62492C11.6618 2.38588 11.8291 2.20945 12.0644 2.09563C12.2997 1.98181 12.5301 1.96959 12.7555 2.05898C14.3425 2.70263 15.6133 3.74611 16.568 5.18942C17.5227 6.63274 18 8.24092 18 10.014C18 11.7233 17.5564 13.275 16.6691 14.6692L15.3826 13.3826C15.9966 12.36 16.3037 11.2313 16.3037 9.99651Z" fill="#6265AD"/>
<path d="M13.1168 11.1168C13.216 10.7536 13.2656 10.3925 13.2656 10.0333C13.2656 9.5097 13.1602 8.98041 12.9494 8.44542C12.7386 7.91045 12.3984 7.49897 11.9289 7.21098C11.7772 7.1131 11.6264 7.10513 11.4764 7.18708C11.3264 7.26904 11.2514 7.40573 11.2514 7.59713V9.25141L13.1168 11.1168Z" fill="#6265AD"/>
<path d="M9.35088 7.35091V5.73192C9.35088 5.35065 9.17159 5.0804 8.81302 4.92118C8.45446 4.76197 8.14191 4.82579 7.87536 5.11262L7.50092 5.50095L9.35088 7.35091Z" fill="#6265AD"/>
<path d="M3.46113 3.58248C3.16761 3.29813 2.69915 3.30097 2.40912 3.591C2.11623 3.88389 2.11623 4.35877 2.40912 4.65166L5.41828 7.66082L5.18526 7.90248H2.982C2.70999 7.90248 2.47832 8.00012 2.28699 8.19541C2.09566 8.39067 2 8.62711 2 8.90473V11.1619C2 11.4395 2.09566 11.6759 2.28699 11.8712C2.47832 12.0665 2.70999 12.1641 2.982 12.1641L5.18526 12.1641L7.87536 14.954C8.14191 15.2408 8.45446 15.3043 8.81302 15.1443C9.17159 14.9844 9.35088 14.7138 9.35088 14.3325V11.5934L13.3318 15.5744C12.9543 15.8339 12.5486 16.057 12.1147 16.2439C11.8871 16.3344 11.712 16.4895 11.5893 16.7092C11.4666 16.9289 11.4577 17.1509 11.5625 17.3751C11.6618 17.6141 11.8291 17.7905 12.0644 17.9044C12.2997 18.0182 12.5301 18.0304 12.7555 17.941C13.4429 17.6622 14.0709 17.3093 14.6397 16.8822L15.137 17.3796C15.4299 17.6725 15.9048 17.6725 16.1977 17.3796C16.4877 17.0896 16.4906 16.6211 16.2062 16.3276L3.46113 3.58248Z" fill="#6265AD"/>
</svg>
