<svg viewBox="0 0 20 20" fill="none" xmlns="http://www.w3.org/2000/svg">
<path d="M16.3037 9.99651C16.3037 8.60618 15.9144 7.35154 15.1359 6.23262C14.3575 5.11371 13.3504 4.28822 12.1147 3.75615C11.8871 3.66559 11.712 3.51047 11.5893 3.29078C11.4666 3.0711 11.4577 2.84915 11.5625 2.62492C11.6618 2.38588 11.8291 2.20945 12.0644 2.09563C12.2997 1.98181 12.5301 1.96959 12.7555 2.05898C14.3425 2.70263 15.6133 3.74611 16.568 5.18942C17.5227 6.63274 18 8.24092 18 10.014C18 11.787 17.5227 13.3906 16.568 14.8246C15.6133 16.2586 14.3425 17.2974 12.7555 17.941C12.5301 18.0304 12.2997 18.0182 12.0644 17.9044C11.8291 17.7905 11.6618 17.6141 11.5625 17.3751C11.4577 17.1509 11.4666 16.9289 11.5893 16.7092C11.712 16.4895 11.8871 16.3344 12.1147 16.2439C13.3504 15.7118 14.3575 14.8851 15.1359 13.7639C15.9144 12.6427 16.3037 11.3869 16.3037 9.99651ZM5.18526 12.1641H2.982C2.70999 12.1641 2.47832 12.0665 2.28699 11.8712C2.09566 11.6759 2 11.4395 2 11.1619V8.90473C2 8.62712 2.09566 8.39067 2.28699 8.19541C2.47832 8.00012 2.70999 7.90248 2.982 7.90248H5.18526L7.87536 5.11262C8.14191 4.82579 8.45446 4.76198 8.81302 4.92118C9.17159 5.0804 9.35088 5.35065 9.35088 5.73192V14.3325C9.35088 14.7138 9.17159 14.9844 8.81302 15.1443C8.45446 15.3043 8.14191 15.2408 7.87536 14.954L5.18526 12.1641ZM13.2656 10.0333C13.2656 10.5569 13.1602 11.0848 12.9494 11.6169C12.7386 12.149 12.3984 12.5767 11.9289 12.9C11.7772 12.9979 11.6264 13.0059 11.4764 12.9239C11.3264 12.8419 11.2514 12.7053 11.2514 12.5139V7.59713C11.2514 7.40573 11.3264 7.26904 11.4764 7.18708C11.6264 7.10513 11.7772 7.1131 11.9289 7.21098C12.3984 7.49897 12.7386 7.91045 12.9494 8.44542C13.1602 8.98041 13.2656 9.5097 13.2656 10.0333Z" fill="#6265AD"/>
</svg>
