<svg viewBox="0 0 20 20" fill="none" xmlns="http://www.w3.org/2000/svg">
<path fill-rule="evenodd" clip-rule="evenodd" d="M5.04261 16.8335C5.11824 17.0324 5.23468 17.1896 5.39193 17.305C5.5492 17.4205 5.72717 17.4848 5.92586 17.498C6.12453 17.5111 6.3229 17.46 6.52098 17.3445L9.7956 15.2751C9.92126 15.1957 10.0787 15.1957 10.2044 15.2751L13.479 17.3445C13.6771 17.46 13.8755 17.5111 14.0741 17.498C14.2728 17.4848 14.4508 17.4205 14.6081 17.305C14.7653 17.1896 14.8818 17.0324 14.9574 16.8335C15.033 16.6346 15.0426 16.4216 14.9862 16.1944L14.1196 12.2834C14.0866 12.1348 14.135 11.9793 14.2454 11.8793L17.1417 9.25401C17.3242 9.1122 17.4358 8.93684 17.4766 8.7279C17.5174 8.51895 17.5048 8.32224 17.4388 8.13777C17.3728 7.95329 17.2611 7.7936 17.1039 7.6587C16.9466 7.5238 16.7623 7.44317 16.551 7.41682L12.7548 7.07491C12.6088 7.06176 12.4818 6.96524 12.4249 6.82422L10.94 3.14188C10.8487 2.90848 10.7188 2.74314 10.5501 2.64587C10.3815 2.54862 10.1981 2.5 10 2.5C9.80192 2.5 9.61855 2.54862 9.44987 2.64587C9.28121 2.74314 9.15127 2.90848 9.06003 3.14188L7.57507 6.82422C7.5182 6.96524 7.39119 7.06176 7.24519 7.07491L3.44896 7.41682C3.23768 7.44317 3.0534 7.5238 2.89614 7.6587C2.73887 7.7936 2.62722 7.95329 2.56119 8.13777C2.49518 8.32224 2.48258 8.51895 2.52339 8.7279C2.5642 8.93684 2.67584 9.1122 2.85831 9.25401L5.75462 11.8793C5.86496 11.9793 5.91336 12.1348 5.88043 12.2834L5.0138 16.1944C4.95736 16.4216 4.96697 16.6346 5.04261 16.8335ZM3.5394 8.51157L3.54007 8.51968L3.52639 8.51434L3.5394 8.51157ZM4.91943 8.9391L6.78972 10.6344C7.34143 11.1345 7.58342 11.9118 7.41874 12.655L6.85312 15.2076L8.97801 13.8647C9.60628 13.4677 10.3937 13.4677 11.022 13.8647L13.1469 15.2076L12.5813 12.655C12.4166 11.9118 12.6586 11.1345 13.2103 10.6344L15.0806 8.9391L12.6191 8.7174C11.8891 8.65165 11.2541 8.16906 10.9697 7.46397L10 5.05931L9.03028 7.46397C8.74594 8.16906 8.1109 8.65165 7.38089 8.7174L4.91943 8.9391Z" fill="#6265AD"/>
</svg>
