<svg viewBox="0 0 20 20" fill="none" xmlns="http://www.w3.org/2000/svg">
<path d="M10.0017 13.525C10.8989 13.525 11.661 13.1821 12.2879 12.4964C12.9149 11.8106 13.2284 10.9778 13.2284 9.99817C13.2284 9.0185 12.9143 8.18638 12.2863 7.50182C11.6582 6.81725 10.8956 6.47497 9.99832 6.47497C9.1011 6.47497 8.33902 6.81785 7.71207 7.50363C7.08512 8.18942 6.77164 9.02215 6.77164 10.0018C6.77164 10.9815 7.08567 11.8136 7.71373 12.4982C8.3418 13.1827 9.10445 13.525 10.0017 13.525ZM9.99782 11.9732C9.49525 11.9732 9.06879 11.7811 8.71844 11.397C8.36808 11.0128 8.1929 10.5464 8.1929 9.99762C8.1929 9.44887 8.36881 8.98322 8.72061 8.60067C9.07241 8.21811 9.49959 8.02684 10.0022 8.02684C10.5047 8.02684 10.9312 8.21891 11.2816 8.60304C11.6319 8.98716 11.8071 9.45361 11.8071 10.0024C11.8071 10.5511 11.6312 11.0168 11.2794 11.3993C10.9276 11.7819 10.5004 11.9732 9.99782 11.9732ZM10 16C8.37353 16 6.86431 15.5343 5.47236 14.603C4.08039 13.6716 2.98819 12.428 2.19576 10.872C2.122 10.7429 2.07093 10.6049 2.04256 10.458C2.01419 10.3112 2 10.1604 2 10.0058C2 9.85118 2.01419 9.6985 2.04256 9.54776C2.07093 9.39701 2.122 9.2571 2.19576 9.12804C2.98819 7.57203 4.08039 6.32835 5.47236 5.39702C6.86431 4.46567 8.37353 4 10 4C11.6265 4 13.1357 4.46567 14.5276 5.39702C15.9196 6.32835 17.0118 7.57203 17.8042 9.12804C17.878 9.2571 17.9291 9.39508 17.9574 9.54197C17.9858 9.68884 18 9.83958 18 9.9942C18 10.1488 17.9858 10.3015 17.9574 10.4522C17.9291 10.603 17.878 10.7429 17.8042 10.872C17.0118 12.428 15.9196 13.6716 14.5276 14.603C13.1357 15.5343 11.6265 16 10 16Z" fill="#6265AD"/>
</svg>
