<svg viewBox="0 0 20 20" fill="none" xmlns="http://www.w3.org/2000/svg">
<path d="M15.2764 17L12.8422 14.468C12.4388 14.621 11.9957 14.7515 11.5128 14.8594C11.0299 14.9673 10.5256 15.0212 10 15.0212C8.24398 15.0212 6.62762 14.5267 5.15094 13.5378C3.67426 12.5488 2.62394 11.2023 2 9.49817C2.20492 8.84332 2.54974 8.20461 3.03447 7.58207C3.51919 6.95953 4.03723 6.40923 4.58858 5.93116L2.74707 4.02219L3.73536 3L16.2646 15.9778L15.2764 17ZM10 12.743C10.1617 12.743 10.3391 12.7204 10.5321 12.6753C10.725 12.6301 10.8826 12.5819 11.0048 12.5305L7.06824 8.45884C7.03057 8.60711 6.98692 8.77677 6.93729 8.96781C6.88767 9.15886 6.86286 9.33564 6.86286 9.49817C6.86286 10.4134 7.16449 11.1831 7.76776 11.807C8.37102 12.431 9.1151 12.743 10 12.743ZM15.3604 13.1379L12.9331 10.6087C13.0011 10.451 13.0521 10.2725 13.0861 10.0734C13.1201 9.87431 13.1371 9.68256 13.1371 9.49817C13.1371 8.5829 12.8355 7.81329 12.2322 7.18932C11.629 6.56535 10.8849 6.25337 10 6.25337C9.82173 6.25337 9.62371 6.27523 9.40594 6.31896C9.18816 6.36267 9.03057 6.40354 8.93317 6.44156L7.03241 4.4827C7.48543 4.29641 7.96601 4.16525 8.47417 4.08921C8.98232 4.01317 9.49093 3.97515 10 3.97515C11.7514 3.97515 13.3618 4.46962 14.8311 5.45855C16.3005 6.4475 17.3568 7.79404 18 9.49817C17.7344 10.2224 17.3735 10.8839 16.9173 11.4827C16.4611 12.0815 15.9421 12.6332 15.3604 13.1379ZM11.745 9.38697L10.0896 7.66334C10.3221 7.65098 10.5369 7.67831 10.734 7.74531C10.9311 7.81232 11.1132 7.92993 11.2805 8.09816C11.4284 8.22933 11.5477 8.41039 11.6382 8.64134C11.7287 8.8723 11.7643 9.12084 11.745 9.38697Z" fill="#6265AD"/>
</svg>
