<svg viewBox="0 0 20 20" fill="none" xmlns="http://www.w3.org/2000/svg">
<path d="M7.63053 14.4626L8.86819 15.567C9.18185 15.8578 9.55912 16.0021 10 16C10.4409 15.9979 10.8181 15.8514 11.1318 15.5606L12.3865 14.4396C13.4799 13.4526 14.5222 12.4249 15.5133 11.3566C16.5044 10.2883 17 9.09611 17 7.78C17 6.7066 16.6238 5.80825 15.8715 5.08495C15.1191 4.36165 14.1955 4 13.1006 4C12.479 4 11.901 4.13157 11.3664 4.39471C10.8319 4.65786 10.3764 4.99475 10 5.4054C9.6236 4.99475 9.16812 4.65786 8.63359 4.39471C8.09904 4.13157 7.52099 4 6.89943 4C5.80454 4 4.88091 4.36165 4.12855 5.08495C3.37618 5.80825 3 6.7066 3 7.78C3 9.08335 3.48466 10.266 4.45398 11.3279C5.4233 12.3898 6.48215 13.4347 7.63053 14.4626Z" fill="#6265AD"/>
</svg>
