<svg viewBox="0 0 20 20" fill="none" xmlns="http://www.w3.org/2000/svg">
<path d="M4.83199 17.5C4.60289 17.5 4.40696 17.4101 4.24418 17.2303C4.08139 17.0504 4 16.8341 4 16.5812V3.52893C4 3.23741 4.08932 2.99304 4.26797 2.79583C4.4466 2.59861 4.66795 2.5 4.93202 2.5H10.4824C10.7121 2.5 10.9117 2.57529 11.0813 2.72586C11.2508 2.87643 11.3579 3.07125 11.4025 3.31032L11.5841 4.25214H15.068C15.332 4.25214 15.5534 4.35044 15.732 4.54704C15.9107 4.74362 16 4.98721 16 5.27781V12.1583C16 12.4489 15.9107 12.6924 15.732 12.8889C15.5534 13.0855 15.332 13.1837 15.068 13.1837H11.0854C10.8557 13.1837 10.656 13.1065 10.4865 12.9519C10.3169 12.7973 10.2099 12.5974 10.1653 12.3521L10.003 11.4316H5.6645V16.5812C5.6645 16.8341 5.58302 17.0504 5.42007 17.2303C5.25713 17.4101 5.0611 17.5 4.83199 17.5Z" fill="#6265AD"/>
</svg>
