<svg viewBox="0 0 20 20" fill="none" xmlns="http://www.w3.org/2000/svg">
<path d="M4.84841 17C4.32979 17 3.89206 16.8192 3.53524 16.4576C3.17841 16.096 3 15.6607 3 15.1516V4.84842C3 4.33934 3.17841 3.904 3.53524 3.5424C3.89206 3.1808 4.32979 3 4.84841 3H15.1516C15.6702 3 16.1079 3.1808 16.4648 3.5424C16.8216 3.904 17 4.33934 17 4.84842V15.1516C17 15.6607 16.8216 16.096 16.4648 16.4576C16.1079 16.8192 15.6702 17 15.1516 17H4.84841ZM6.7488 14.0526H13.3182C13.5181 14.0526 13.6537 13.9684 13.7251 13.7999C13.7965 13.6315 13.7787 13.4706 13.6716 13.3174L11.6988 10.6613C11.6051 10.5217 11.486 10.4553 11.3414 10.4621C11.1968 10.4689 11.0777 10.5422 10.984 10.6818L9.24742 12.9222L8.29488 11.7555C8.20121 11.6212 8.08339 11.554 7.94142 11.554C7.79946 11.554 7.68163 11.6238 7.58796 11.7634L6.40299 13.3179C6.28819 13.4708 6.26819 13.6315 6.34298 13.7999C6.41777 13.9684 6.55304 14.0526 6.7488 14.0526Z" fill="#6265AD"/>
</svg>
