<svg viewBox="0 0 20 20" fill="none" xmlns="http://www.w3.org/2000/svg">
<path d="M6.03439 14C4.91549 14 3.96337 13.6107 3.17802 12.8321C2.39267 12.0536 2 11.1097 2 10.0004C2 8.89117 2.39267 7.94712 3.17802 7.16827C3.96337 6.38942 4.91549 6 6.03439 6H8.39254C8.62257 6 8.81938 6.08114 8.98298 6.24341C9.1466 6.40567 9.22841 6.60087 9.22841 6.82902C9.22841 7.05715 9.1466 7.25227 8.98298 7.41436C8.81938 7.57645 8.62257 7.6575 8.39254 7.6575H6.03439C5.38143 7.6575 4.82441 7.88606 4.36335 8.3432C3.90229 8.80033 3.67176 9.3526 3.67176 10C3.67176 10.6474 3.90229 11.1997 4.36335 11.6568C4.82441 12.1139 5.38143 12.3425 6.03439 12.3425H8.39254C8.62257 12.3425 8.81938 12.4236 8.98298 12.5859C9.1466 12.7482 9.22841 12.9434 9.22841 13.1715C9.22841 13.3997 9.1466 13.5948 8.98298 13.7569C8.81938 13.919 8.62257 14 8.39254 14H6.03439ZM7.60898 10.8095C7.37894 10.8095 7.18213 10.7283 7.01853 10.5661C6.85491 10.4038 6.77311 10.2086 6.77311 9.98048C6.77311 9.75233 6.85491 9.55721 7.01853 9.39512C7.18213 9.23302 7.37894 9.15198 7.60898 9.15198H12.391C12.6211 9.15198 12.8179 9.23311 12.9815 9.39537C13.1451 9.55764 13.2269 9.75284 13.2269 9.98098C13.2269 10.2091 13.1451 10.4042 12.9815 10.5663C12.8179 10.7284 12.6211 10.8095 12.391 10.8095H7.60898ZM11.6075 14C11.3775 14 11.1806 13.9189 11.017 13.7566C10.8534 13.5943 10.7716 13.3991 10.7716 13.171C10.7716 12.9428 10.8534 12.7477 11.017 12.5856C11.1806 12.4235 11.3775 12.3425 11.6075 12.3425H13.9656C14.6186 12.3425 15.1756 12.1139 15.6367 11.6568C16.0977 11.1997 16.3283 10.6474 16.3283 10C16.3283 9.3526 16.0977 8.80033 15.6367 8.3432C15.1756 7.88606 14.6186 7.6575 13.9656 7.6575H11.6075C11.3775 7.6575 11.1806 7.57637 11.017 7.41411C10.8534 7.25184 10.7716 7.05663 10.7716 6.8285C10.7716 6.60035 10.8534 6.40523 11.017 6.24314C11.1806 6.08105 11.3775 6 11.6075 6H13.9656C15.0845 6 16.0366 6.38928 16.822 7.16785C17.6073 7.94642 18 8.89033 18 9.99958C18 11.1088 17.6073 12.0529 16.822 12.8317C16.0366 13.6106 15.0845 14 13.9656 14H11.6075Z" fill="#6265AD"/>
</svg>
