<svg viewBox="0 0 20 20" fill="none" xmlns="http://www.w3.org/2000/svg">
<path d="M3.82211 18C3.31456 18 2.88399 17.8237 2.5304 17.4712C2.1768 17.1186 2 16.6893 2 16.1832V9.75782C2 9.25175 2.1768 8.82243 2.5304 8.46986C2.88399 8.1173 3.31456 7.94101 3.82211 7.94101H4.96596V3.8168C4.96596 3.31074 5.14276 2.88142 5.49636 2.52884C5.84995 2.17628 6.28052 2 6.78807 2H16.1779C16.6854 2 17.116 2.17628 17.4696 2.52884C17.8232 2.88142 18 3.31074 18 3.8168V10.2422C18 10.7482 17.8232 11.1776 17.4696 11.5301C17.116 11.8827 16.6854 12.059 16.1779 12.059H15.034V16.1832C15.034 16.6893 14.8572 17.1186 14.5036 17.4712C14.1501 17.8237 13.7195 18 13.2119 18H3.82211ZM3.82211 16.4308H13.2119C13.274 16.4308 13.3309 16.405 13.3827 16.3534C13.4344 16.3019 13.4603 16.2451 13.4603 16.1832V11.4818H3.57375V16.1832C3.57375 16.2451 3.59962 16.3019 3.65135 16.3534C3.7031 16.405 3.76002 16.4308 3.82211 16.4308ZM15.034 10.4898H16.1779C16.24 10.4898 16.2969 10.464 16.3486 10.4124C16.4004 10.3608 16.4262 10.3041 16.4262 10.2422V5.54074H6.53971V7.94101H13.5146C13.9317 7.94101 14.2892 8.08955 14.5871 8.38663C14.8851 8.68371 15.034 9.03686 15.034 9.44609V10.4898Z" fill="#6265AD"/>
</svg>
