<svg viewBox="0 0 20 20" fill="none" xmlns="http://www.w3.org/2000/svg">
<path d="M4.68851 15C4.22347 15 3.82579 14.8518 3.49546 14.5554C3.16515 14.2589 3 13.9021 3 13.4848V6.51524C3 6.09009 3.16515 5.73127 3.49546 5.43876C3.82579 5.14625 4.22347 5 4.68851 5H12.4551C12.9289 5 13.3287 5.14625 13.6547 5.43876C13.9807 5.73127 14.1436 6.09009 14.1436 6.51524V9.15077L16.2723 7.24061C16.395 7.13048 16.547 7.10667 16.7282 7.16919C16.9094 7.23171 17 7.34199 17 7.50003V12.4979C17 12.661 16.9094 12.7729 16.7282 12.8336C16.547 12.8943 16.395 12.8695 16.2723 12.7594L14.1436 10.8492V13.4848C14.1436 13.9021 13.9807 14.2589 13.6547 14.5554C13.3287 14.8518 12.9289 15 12.4551 15H4.68851Z" fill="#6265AD"/>
</svg>
