<svg viewBox="0 0 20 20" fill="none" xmlns="http://www.w3.org/2000/svg">
<path d="M14.9999 13.9257L14.9089 6.11725C14.9071 5.96723 14.8788 5.83261 14.824 5.7134C14.7692 5.5942 14.6958 5.48861 14.6039 5.39662C14.5119 5.30463 14.4063 5.23124 14.2871 5.17643C14.1679 5.12163 14.0332 5.09336 13.8832 5.09161L6.03389 5.00008C5.77171 4.99702 5.56094 5.08207 5.40158 5.25522C5.24224 5.42837 5.1641 5.64604 5.16714 5.90821C5.17404 6.1742 5.266 6.39385 5.44303 6.56714C5.62006 6.74041 5.83966 6.82858 6.10183 6.83165L11.8167 6.89829L5.25521 13.4598C5.08222 13.6328 4.99717 13.8435 5.00007 14.092C5.00297 14.3406 5.09296 14.5534 5.27003 14.7304C5.4471 14.9075 5.65991 14.9975 5.90843 15.0004C6.15696 15.0033 6.36772 14.9183 6.54072 14.7453L13.1022 8.18379L13.1693 13.9396C13.1724 14.2017 13.2614 14.4136 13.4364 14.5751C13.6114 14.7366 13.8319 14.8208 14.0979 14.8277C14.3638 14.827 14.5814 14.742 14.7506 14.5728C14.9199 14.4036 15.003 14.1878 14.9999 13.9257Z" fill="#6265AD"/>
</svg>
