<svg viewBox="0 0 20 20" fill="none" xmlns="http://www.w3.org/2000/svg">
<path d="M2.99531 17.5C2.71987 17.5 2.48513 17.4013 2.29108 17.2038C2.09703 17.0064 2 16.7675 2 16.4873C2 16.207 2.09703 15.9682 2.29108 15.7707C2.48513 15.5732 2.71987 15.4745 2.99531 15.4745H17.0047C17.2801 15.4745 17.5149 15.5732 17.7089 15.7707C17.903 15.9682 18 16.207 18 16.4873C18 16.7675 17.903 17.0064 17.7089 17.2038C17.5149 17.4013 17.2801 17.5 17.0047 17.5H2.99531ZM4.00939 14.328C3.62858 14.328 3.3049 14.1924 3.03835 13.9212C2.77178 13.6499 2.6385 13.3206 2.6385 12.9331V10.0096C2.6385 9.62208 2.77178 9.29273 3.03835 9.0215C3.3049 8.75027 3.62858 8.61465 4.00939 8.61465C4.3902 8.61465 4.71388 8.75027 4.98043 9.0215C5.247 9.29273 5.38028 9.62208 5.38028 10.0096V12.9331C5.38028 13.3206 5.247 13.6499 4.98043 13.9212C4.71388 14.1924 4.3902 14.328 4.00939 14.328ZM7.99061 14.328C7.6098 14.328 7.28612 14.1924 7.01957 13.9212C6.753 13.6499 6.61972 13.3206 6.61972 12.9331V6.1879C6.61972 5.80042 6.753 5.47107 7.01957 5.19985C7.28612 4.92861 7.6098 4.79299 7.99061 4.79299C8.37142 4.79299 8.6951 4.92861 8.96165 5.19985C9.22822 5.47107 9.3615 5.80042 9.3615 6.1879V12.9331C9.3615 13.3206 9.22822 13.6499 8.96165 13.9212C8.6951 14.1924 8.37142 14.328 7.99061 14.328ZM11.9906 14.328C11.6098 14.328 11.2861 14.1924 11.0196 13.9212C10.753 13.6499 10.6197 13.3206 10.6197 12.9331V8.48089C10.6197 8.09341 10.753 7.76406 11.0196 7.49284C11.2861 7.2216 11.6098 7.08599 11.9906 7.08599C12.3714 7.08599 12.6951 7.2216 12.9617 7.49284C13.2282 7.76406 13.3615 8.09341 13.3615 8.48089V12.9331C13.3615 13.3206 13.2282 13.6499 12.9617 13.9212C12.6951 14.1924 12.3714 14.328 11.9906 14.328ZM15.9906 14.328C15.6098 14.328 15.2861 14.1924 15.0196 13.9212C14.753 13.6499 14.6197 13.3206 14.6197 12.9331V3.8949C14.6197 3.50743 14.753 3.17808 15.0196 2.90685C15.2861 2.63562 15.6098 2.5 15.9906 2.5C16.3714 2.5 16.6951 2.63562 16.9617 2.90685C17.2282 3.17808 17.3615 3.50743 17.3615 3.8949V12.9331C17.3615 13.3206 17.2282 13.6499 16.9617 13.9212C16.6951 14.1924 16.3714 14.328 15.9906 14.328Z" fill="#6265AD"/>
</svg>
