<svg viewBox="0 0 20 20" fill="none" xmlns="http://www.w3.org/2000/svg">
<path d="M9.99878 17.5C9.7701 17.5 9.54498 17.4648 9.32342 17.3943C9.10186 17.3238 8.89737 17.2174 8.70993 17.0752L2.87284 12.8572C2.62998 12.6783 2.50576 12.4436 2.50019 12.1529C2.49461 11.8622 2.61419 11.6253 2.85892 11.4422C3.02082 11.3155 3.20961 11.2521 3.42529 11.2521C3.64095 11.2521 3.83112 11.3149 3.99579 11.4406L9.83288 15.6458C9.88302 15.683 9.93872 15.7017 10 15.7017C10.0613 15.7017 10.117 15.683 10.1671 15.6458L16.0042 11.4406C16.1689 11.3149 16.359 11.2521 16.5747 11.2521C16.7904 11.2521 16.9792 11.3155 17.1411 11.4422C17.3858 11.6253 17.5054 11.8622 17.4998 12.1529C17.4942 12.4436 17.37 12.6783 17.1272 12.8572L11.2901 17.0752C11.1021 17.2174 10.8971 17.3238 10.675 17.3943C10.4529 17.4648 10.2275 17.5 9.99878 17.5ZM9.9995 13.1942C9.77034 13.1942 9.54498 13.159 9.32342 13.0885C9.10186 13.018 8.89737 12.9116 8.70993 12.7694L2.9945 8.63138C2.84544 8.52804 2.73749 8.40979 2.67066 8.27663C2.6038 8.14347 2.57038 8.00029 2.57038 7.84709C2.57038 7.69298 2.6038 7.54891 2.67066 7.41488C2.73749 7.28087 2.845 7.16249 2.99317 7.05974L8.70613 2.92584C8.89471 2.78355 9.10029 2.677 9.32288 2.6062C9.54545 2.5354 9.77132 2.5 10.0005 2.5C10.2297 2.5 10.455 2.53524 10.6766 2.60572C10.8981 2.67622 11.1026 2.78258 11.2901 2.92482L17.0055 7.06283C17.1546 7.16617 17.2625 7.28442 17.3293 7.41758C17.3962 7.55072 17.4296 7.69389 17.4296 7.84709C17.4296 8.00122 17.3962 8.1453 17.3293 8.27933C17.2625 8.41334 17.155 8.53172 17.0068 8.63447L11.2939 12.7683C11.1053 12.9106 10.8997 13.0172 10.6771 13.088C10.4545 13.1588 10.2287 13.1942 9.9995 13.1942Z" fill="#6265AD"/>
</svg>
