<svg viewBox="0 0 20 20" fill="none" xmlns="http://www.w3.org/2000/svg">
<path d="M6.85426 12.1479C7.02951 12.8021 7.31853 13.3281 7.72133 13.7259C8.12411 14.1237 8.63569 14.3953 9.25605 14.5407V14.835C9.25605 15.0411 9.32525 15.2134 9.46366 15.3518C9.60207 15.4902 9.77434 15.5594 9.98046 15.5594C10.1866 15.5594 10.3588 15.4902 10.4973 15.3518C10.6357 15.2134 10.7049 15.0411 10.7049 14.835V14.5795C11.385 14.4332 11.9563 14.168 12.4188 13.7842C12.8814 13.4003 13.1126 12.8121 13.1126 12.0194C13.1126 11.4498 12.9588 10.9365 12.6511 10.4795C12.3434 10.0224 11.7106 9.6256 10.7527 9.28903C9.94907 9.0102 9.39716 8.7752 9.09694 8.58402C8.79672 8.39283 8.64661 8.12696 8.64661 7.7864C8.64661 7.45879 8.7676 7.19665 9.00958 6.99999C9.25155 6.80332 9.59459 6.70498 10.0387 6.70498C10.4559 6.70498 10.7788 6.81004 11.0074 7.02015C11.2359 7.23026 11.4039 7.48567 11.5115 7.78638L12.8587 7.2457C12.7223 6.78068 12.4609 6.36868 12.0745 6.0097C11.6882 5.65073 11.2446 5.45432 10.7437 5.42045V5.16504C10.7437 4.95891 10.6745 4.78665 10.5361 4.64824C10.3977 4.50983 10.2254 4.44063 10.0193 4.44063C9.81317 4.44063 9.64091 4.50983 9.5025 4.64824C9.36409 4.78665 9.29489 4.95891 9.29489 5.16504V5.42045C8.6327 5.56086 8.11763 5.85212 7.7497 6.29424C7.38176 6.73637 7.19779 7.23375 7.19779 7.7864C7.19779 8.40876 7.38102 8.9171 7.74746 9.31142C8.1139 9.70575 8.68348 10.0398 9.45621 10.3137C10.2817 10.6164 10.8585 10.8815 11.1866 11.109C11.5147 11.3366 11.6788 11.64 11.6788 12.0194C11.6788 12.4546 11.5257 12.7695 11.2195 12.9642C10.9133 13.1588 10.5468 13.2562 10.1201 13.2562C9.68048 13.2562 9.29139 13.1215 8.95283 12.8521C8.61426 12.5828 8.37179 12.1758 8.22541 11.6311L6.85426 12.1479ZM10.0012 18C8.89003 18 7.84987 17.7902 6.88071 17.3705C5.91152 16.9508 5.06568 16.3799 4.34318 15.6577C3.62067 14.9354 3.04949 14.09 2.62965 13.1212C2.2098 12.1524 1.99988 11.1124 1.99988 10.0013C1.99988 8.89015 2.20972 7.84676 2.62939 6.87112C3.04907 5.89547 3.62001 5.04639 4.34221 4.32389C5.06443 3.60138 5.90993 3.03343 6.87871 2.62006C7.84747 2.20669 8.88743 2 9.99858 2C11.1097 2 12.1531 2.2066 13.1288 2.61981C14.1044 3.03301 14.9535 3.60072 15.676 4.32292C16.3985 5.04513 16.9664 5.89387 17.3798 6.86912C17.7932 7.84436 17.9999 8.88755 17.9999 9.9987C17.9999 11.1098 17.7933 12.15 17.3801 13.1192C16.9669 14.0884 16.3992 14.9342 15.677 15.6567C14.9547 16.3792 14.106 16.9504 13.1308 17.3702C12.1555 17.7901 11.1123 18 10.0012 18Z" fill="#6265AD"/>
</svg>
