<svg viewBox="0 0 20 20" fill="none" xmlns="http://www.w3.org/2000/svg">
<path d="M11.2914 10.5373C11.7984 10.5373 12.2232 10.3561 12.5659 9.99388C12.9085 9.6316 13.0799 9.18899 13.0799 8.66604C13.0799 8.15337 12.9073 7.71951 12.5621 7.36445C12.2169 7.00939 11.7951 6.83186 11.2967 6.83186C10.7883 6.83186 10.358 7.0081 10.0058 7.36059C9.65364 7.71308 9.47755 8.15005 9.47755 8.67148C9.47755 9.19293 9.65313 9.63426 10.0043 9.99547C10.3555 10.3567 10.7845 10.5373 11.2914 10.5373ZM6.36425 13.3691C5.86201 13.3691 5.44133 13.1947 5.10221 12.8459C4.76311 12.4971 4.59355 12.0644 4.59355 11.5478V5.82137C4.59355 5.30476 4.76311 4.87204 5.10221 4.52321C5.44133 4.1744 5.86201 4 6.36425 4H16.2292C16.7314 4 17.1521 4.1744 17.4912 4.52321C17.8303 4.87204 17.9999 5.30476 17.9999 5.82137V11.5478C17.9999 12.0644 17.8303 12.4971 17.4912 12.8459C17.1521 13.1947 16.7314 13.3691 16.2292 13.3691H6.36425ZM3.77057 16C3.26832 16 2.84764 15.8256 2.50853 15.4768C2.16943 15.128 1.99988 14.6952 1.99988 14.1786V7.04276C1.99988 6.82351 2.0757 6.63593 2.22733 6.48C2.37898 6.32407 2.5614 6.2461 2.77461 6.2461C2.98782 6.2461 3.17016 6.32407 3.32164 6.48C3.47312 6.63593 3.54886 6.82351 3.54886 7.04276V14.1786C3.54886 14.2356 3.57196 14.2879 3.61816 14.3354C3.66434 14.3829 3.71514 14.4067 3.77057 14.4067H15.0058C15.2189 14.4067 15.4013 14.4847 15.5529 14.6406C15.7045 14.7966 15.7803 14.9843 15.7803 15.2036C15.7803 15.4229 15.7045 15.6104 15.5529 15.7663C15.4013 15.9221 15.2189 16 15.0058 16H3.77057ZM6.14256 7.15533C6.56131 7.15533 6.91909 7.00238 7.21589 6.6965C7.51269 6.3906 7.66109 6.02288 7.66109 5.59334H6.36425C6.30421 5.59334 6.25225 5.6159 6.20837 5.66104C6.1645 5.70617 6.14256 5.75962 6.14256 5.82137V7.15533ZM16.4509 7.15533V5.82137C16.4509 5.75962 16.429 5.70617 16.3851 5.66104C16.3412 5.6159 16.2892 5.59334 16.2292 5.59334H14.9324C14.9324 6.02469 15.0811 6.39286 15.3784 6.69785C15.6758 7.00284 16.0333 7.15533 16.4509 7.15533ZM6.36425 11.7758H7.66109C7.66109 11.3451 7.5124 10.9771 7.21502 10.6718C6.91763 10.3664 6.56015 10.2138 6.14256 10.2138V11.5478C6.14256 11.6095 6.1645 11.663 6.20837 11.7081C6.25225 11.7532 6.30421 11.7758 6.36425 11.7758ZM14.9324 11.7758H16.2292C16.2892 11.7758 16.3412 11.7532 16.3851 11.7081C16.429 11.663 16.4509 11.6095 16.4509 11.5478V10.2138C16.0315 10.2138 15.6736 10.3667 15.3771 10.6726C15.0806 10.9785 14.9324 11.3463 14.9324 11.7758Z" fill="#6265AD"/>
</svg>
