<svg viewBox="0 0 20 20" fill="none" xmlns="http://www.w3.org/2000/svg">
<path d="M3.61202 17.1879C3.40674 16.9798 3.30411 16.7363 3.30411 16.4574C3.30411 16.1785 3.40674 15.9324 3.61202 15.7191L8.08583 11.2209C8.18243 11.123 8.28809 11.0496 8.4028 11.0006C8.51751 10.9517 8.63525 10.9272 8.756 10.9272C8.87675 10.9272 8.99448 10.9517 9.10919 11.0006C9.22391 11.0496 9.32956 11.123 9.42616 11.2209L11.6902 13.5159L16.3452 8.28335C16.5263 8.07528 16.7527 7.96818 17.0244 7.96206C17.2961 7.95594 17.5285 8.0508 17.7217 8.24663C17.8988 8.42616 17.9914 8.64239 17.9995 8.89534C18.0075 9.14831 17.927 9.3727 17.758 9.56854L12.3604 15.7007C12.2638 15.7987 12.1581 15.8752 12.0434 15.9302C11.9287 15.9853 11.805 16.0129 11.6721 16.0129C11.5393 16.0129 11.4155 15.9914 11.3008 15.9486C11.1861 15.9058 11.0804 15.8354 10.9838 15.7375L8.756 13.4792L5.06103 17.1879C4.85061 17.396 4.60782 17.5 4.33267 17.5C4.05751 17.5 3.8173 17.396 3.61202 17.1879ZM4.37275 11.9186C4.29225 11.9186 4.21175 11.8977 4.13125 11.856C4.05075 11.8143 3.98635 11.7434 3.93805 11.6432L3.40905 10.4903L2.27169 9.9541C2.17289 9.90514 2.10292 9.83986 2.06176 9.75826C2.02059 9.67667 2 9.59507 2 9.51346C2 9.43186 2.02059 9.35026 2.06176 9.26867C2.1029 9.18707 2.17288 9.12179 2.27169 9.07283L3.40905 8.53661L3.93805 7.38372C3.98635 7.28357 4.05075 7.21264 4.13125 7.17091C4.21175 7.12919 4.29225 7.10832 4.37275 7.10832C4.45325 7.10832 4.53375 7.12919 4.61424 7.17091C4.69475 7.21264 4.75915 7.28357 4.80745 7.38372L5.33645 8.53661L6.47381 9.07283C6.65494 9.15377 6.7455 9.29946 6.7455 9.5099C6.7455 9.72036 6.65494 9.86842 6.47381 9.9541L5.33645 10.4903L4.80745 11.6432C4.75915 11.7434 4.69475 11.8143 4.61424 11.856C4.53375 11.8977 4.45325 11.9186 4.37275 11.9186ZM12.3423 10.4498C12.2618 10.4498 12.1813 10.429 12.1008 10.3872C12.0203 10.3455 11.9559 10.2746 11.9076 10.1744L11.3786 9.02153L10.2412 8.48531C10.1424 8.43635 10.0725 8.37107 10.0313 8.28947C9.99012 8.20788 9.96954 8.12628 9.96954 8.04468C9.96954 7.96307 9.99012 7.88147 10.0313 7.79988C10.0725 7.71828 10.1424 7.653 10.2412 7.60404L11.3786 7.06782L11.9076 5.91493C11.9559 5.81479 12.0203 5.74385 12.1008 5.70212C12.1813 5.6604 12.2618 5.63954 12.3423 5.63954C12.4228 5.63954 12.5033 5.6604 12.5838 5.70212C12.6643 5.74385 12.7287 5.81479 12.777 5.91493L13.306 7.06782L14.4434 7.60404C14.5421 7.653 14.6121 7.71828 14.6533 7.79988C14.6945 7.88147 14.715 7.96307 14.715 8.04468C14.715 8.12628 14.6945 8.20788 14.6533 8.28947C14.6121 8.37107 14.5421 8.43635 14.4434 8.48531L13.306 9.02153L12.777 10.1744C12.7287 10.2746 12.6643 10.3455 12.5838 10.3872C12.5033 10.429 12.4228 10.4498 12.3423 10.4498ZM7.6149 7.8978C7.5183 7.8978 7.43285 7.87332 7.35854 7.82436C7.28423 7.7754 7.22478 7.70196 7.1802 7.60404L6.58249 6.24541L5.24098 5.63638C5.14516 5.58952 5.0731 5.52938 5.0248 5.45594C4.9765 5.3825 4.95235 5.29682 4.95235 5.1989C4.95235 5.10098 4.9765 5.01436 5.0248 4.93903C5.0731 4.86371 5.14555 4.80345 5.24215 4.75826L6.58249 4.15239L7.18332 2.79256C7.22954 2.69544 7.28888 2.6224 7.36133 2.57344C7.43378 2.52448 7.5183 2.5 7.6149 2.5C7.7115 2.5 7.79696 2.52448 7.87127 2.57344C7.94558 2.6224 8.00502 2.69584 8.04961 2.79376L8.64732 4.15239L9.98883 4.76142C10.0846 4.80827 10.1567 4.86842 10.205 4.94186C10.2533 5.0153 10.2775 5.10098 10.2775 5.1989C10.2775 5.29682 10.2533 5.38344 10.205 5.45876C10.1567 5.53409 10.0843 5.59435 9.98765 5.63954L8.64732 6.24541L8.04649 7.60523C8.00027 7.70236 7.94093 7.7754 7.86848 7.82436C7.79603 7.87332 7.7115 7.8978 7.6149 7.8978Z" fill="#6265AD"/>
</svg>
