<svg viewBox="0 0 20 20" fill="none" xmlns="http://www.w3.org/2000/svg">
<path fill-rule="evenodd" clip-rule="evenodd" d="M3 4C3 2.89543 3.89543 2 5 2H15C16.1046 2 17 2.89543 17 4V16C17 17.1046 16.1046 18 15 18H5C3.89543 18 3 17.1046 3 16V4ZM6 15.5C6 15.2239 6.22386 15 6.5 15H13.5C13.7761 15 14 15.2239 14 15.5C14 15.7761 13.7761 16 13.5 16H6.5C6.22386 16 6 15.7761 6 15.5ZM9.41 13.43C9.45667 13.4767 9.51667 13.5 9.59 13.5H10.42C10.4867 13.5 10.5433 13.4767 10.59 13.43C10.6433 13.3833 10.67 13.3233 10.67 13.25V12.55C11.1433 12.49 11.5567 12.3667 11.91 12.18C12.2633 11.9933 12.5367 11.75 12.73 11.45C12.93 11.15 13.03 10.8033 13.03 10.41C13.03 10.0033 12.9433 9.66667 12.77 9.4C12.5967 9.12667 12.3233 8.90667 11.95 8.74C11.5767 8.56667 11.0867 8.42333 10.48 8.31C10.1133 8.23 9.82333 8.15333 9.61 8.08C9.39667 8.00667 9.24333 7.92 9.15 7.82C9.06333 7.72 9.02 7.60333 9.02 7.47C9.02 7.25667 9.10333 7.1 9.27 7C9.43667 6.89333 9.66333 6.84 9.95 6.84C10.2233 6.84 10.4467 6.89667 10.62 7.01C10.7933 7.11667 10.9 7.24333 10.94 7.39C10.98 7.45 11.0267 7.49333 11.08 7.52C11.1333 7.54667 11.1967 7.56 11.27 7.56H12.59C12.65 7.56 12.7 7.54 12.74 7.5C12.78 7.45333 12.8 7.40333 12.8 7.35C12.7933 7.11 12.7067 6.86 12.54 6.6C12.38 6.34 12.1433 6.10667 11.83 5.9C11.5167 5.69333 11.13 5.55 10.67 5.47V4.75C10.67 4.67667 10.6433 4.61667 10.59 4.57C10.5433 4.52333 10.4867 4.5 10.42 4.5H9.59C9.51667 4.5 9.45667 4.52333 9.41 4.57C9.36333 4.61667 9.34 4.67667 9.34 4.75V5.45C8.66667 5.54333 8.13667 5.77667 7.75 6.15C7.37 6.52333 7.18 6.97667 7.18 7.51C7.18 7.92333 7.27333 8.27 7.46 8.55C7.64667 8.82333 7.91667 9.04667 8.27 9.22C8.63 9.38667 9.06333 9.52333 9.57 9.63C9.96333 9.71 10.2767 9.79 10.51 9.87C10.75 9.94333 10.9233 10.03 11.03 10.13C11.1367 10.2233 11.19 10.3433 11.19 10.49C11.19 10.6967 11.09 10.86 10.89 10.98C10.6967 11.1 10.4067 11.16 10.02 11.16C9.78667 11.16 9.59 11.1333 9.43 11.08C9.27667 11.02 9.15 10.9433 9.05 10.85C8.95667 10.7567 8.88333 10.66 8.83 10.56C8.78333 10.5067 8.73667 10.4633 8.69 10.43C8.64333 10.3967 8.57333 10.38 8.48 10.38H7.22C7.16 10.38 7.10667 10.4033 7.06 10.45C7.02 10.49 7 10.5367 7 10.59C7.01333 10.8967 7.10667 11.19 7.28 11.47C7.45333 11.7433 7.71 11.9767 8.05 12.17C8.39667 12.3633 8.82667 12.4933 9.34 12.56V13.25C9.34 13.3233 9.36333 13.3833 9.41 13.43Z" fill="#6265AD"/>
</svg>
