<svg viewBox="0 0 20 20" fill="none" xmlns="http://www.w3.org/2000/svg">
<path d="M14.9999 6.07481L14.9089 13.8832C14.9071 14.0333 14.8788 14.1679 14.824 14.2871C14.7692 14.4063 14.6958 14.5119 14.6039 14.6039C14.5119 14.6959 14.4063 14.7693 14.2871 14.8241C14.1679 14.8789 14.0332 14.9071 13.8832 14.9089L6.03389 15.0004C5.77171 15.0035 5.56094 14.9184 5.40158 14.7453C5.24224 14.5721 5.1641 14.3545 5.16714 14.0923C5.17404 13.8263 5.266 13.6066 5.44303 13.4333C5.62006 13.2601 5.83966 13.1719 6.10183 13.1688L11.8167 13.1022L5.25521 6.54073C5.08222 6.36774 4.99717 6.15698 5.00007 5.90845C5.00297 5.65992 5.09296 5.44712 5.27003 5.27004C5.4471 5.09297 5.65991 5.00298 5.90843 5.00008C6.15696 4.99719 6.36772 5.08223 6.54072 5.25523L13.1022 11.8167L13.1693 6.06092C13.1724 5.79876 13.2614 5.58692 13.4364 5.4254C13.6114 5.26388 13.8319 5.17967 14.0979 5.17278C14.3638 5.17347 14.5814 5.25844 14.7506 5.42768C14.9199 5.59694 15.003 5.81264 14.9999 6.07481Z" fill="#6265AD"/>
</svg>
