<svg viewBox="0 0 20 20" fill="none" xmlns="http://www.w3.org/2000/svg">
<path d="M5.10531 13.9746C5.83023 13.4459 6.6012 13.0396 7.41823 12.7558C8.23525 12.472 9.09584 12.3301 10 12.3301C10.9042 12.3301 11.7647 12.472 12.5818 12.7558C13.3988 13.0396 14.1698 13.4459 14.8947 13.9746C15.3776 13.3792 15.7376 12.7551 15.9746 12.1023C16.2116 11.4496 16.3301 10.7488 16.3301 10C16.3301 8.26537 15.7088 6.77669 14.466 5.53397C13.2233 4.29125 11.7346 3.66989 10 3.66989C8.26537 3.66989 6.77669 4.29125 5.53397 5.53397C4.29125 6.77669 3.66989 8.26537 3.66989 10C3.66989 10.7488 3.78839 11.4496 4.02538 12.1023C4.26238 12.7551 4.62236 13.3792 5.10531 13.9746ZM10.0016 11.0485C9.16208 11.0485 8.45358 10.7603 7.87603 10.1838C7.29849 9.60727 7.00972 8.89928 7.00972 8.0598C7.00972 7.22033 7.29797 6.51182 7.87448 5.93428C8.45097 5.35674 9.15896 5.06797 9.99845 5.06797C10.8379 5.06797 11.5464 5.35622 12.124 5.93273C12.7015 6.50922 12.9903 7.21721 12.9903 8.05669C12.9903 8.89617 12.702 9.60467 12.1255 10.1822C11.549 10.7598 10.841 11.0485 10.0016 11.0485ZM10 18C8.91062 18 7.87803 17.7894 6.90223 17.3683C5.92642 16.9472 5.07753 16.3739 4.35556 15.6484C3.63359 14.9229 3.06051 14.0724 2.63631 13.0971C2.2121 12.1217 2 11.0861 2 9.99029C2 8.89444 2.2121 7.86209 2.63631 6.89322C3.06051 5.92433 3.63359 5.07714 4.35556 4.35164C5.07753 3.62615 5.92642 3.05284 6.90223 2.63171C7.87803 2.21057 8.91386 2 10.0097 2C11.1056 2 12.1379 2.2121 13.1068 2.63631C14.0757 3.06051 14.9213 3.63382 15.6438 4.35624C16.3662 5.07867 16.9395 5.92381 17.3637 6.89164C17.7879 7.85948 18 8.8956 18 10C18 11.0894 17.7894 12.122 17.3683 13.0978C16.9472 14.0736 16.3739 14.9225 15.6484 15.6444C14.9229 16.3664 14.0762 16.9395 13.1084 17.3637C12.1405 17.7879 11.1044 18 10 18Z" fill="#6265AD"/>
</svg>
