<svg viewBox="0 0 20 20" fill="none" xmlns="http://www.w3.org/2000/svg">
<path d="M7.18607 13.2323C7.63907 13.2323 8.02365 13.0732 8.3398 12.7549C8.65596 12.4367 8.81404 12.0511 8.81404 11.5981C8.81404 11.1451 8.65493 10.7605 8.33671 10.4444C8.0185 10.1282 7.63289 9.97014 7.17988 9.97014C6.72688 9.97014 6.3423 10.1292 6.02614 10.4475C5.70999 10.7657 5.55191 11.1513 5.55191 11.6043C5.55191 12.0573 5.71102 12.4419 6.02923 12.758C6.34746 13.0742 6.73307 13.2323 7.18607 13.2323ZM12.8201 13.2323C13.2731 13.2323 13.6577 13.0732 13.9739 12.7549C14.29 12.4367 14.4481 12.0511 14.4481 11.5981C14.4481 11.1451 14.289 10.7605 13.9708 10.4444C13.6525 10.1282 13.2669 9.97014 12.8139 9.97014C12.3609 9.97014 11.9764 10.1292 11.6602 10.4475C11.344 10.7657 11.186 11.1513 11.186 11.6043C11.186 12.0573 11.3451 12.4419 11.6633 12.758C11.9815 13.0742 12.3671 13.2323 12.8201 13.2323ZM10.0031 8.84091C10.4561 8.84091 10.8407 8.6818 11.1568 8.36359C11.473 8.04537 11.6311 7.65977 11.6311 7.20677C11.6311 6.75376 11.4719 6.36917 11.1537 6.05302C10.8355 5.73688 10.4499 5.5788 9.99691 5.5788C9.5439 5.5788 9.15932 5.73791 8.84318 6.05613C8.52703 6.37434 8.36895 6.75995 8.36895 7.21294C8.36895 7.66594 8.52805 8.05052 8.84627 8.36668C9.16448 8.68283 9.55009 8.84091 10.0031 8.84091ZM10.0013 18C8.89481 18 7.85478 17.79 6.88122 17.3701C5.90763 16.9502 5.06076 16.3803 4.34059 15.6604C3.62041 14.9405 3.05026 14.094 2.63016 13.1208C2.21005 12.1476 2 11.1078 2 10.0013C2 8.8915 2.21035 7.84835 2.63105 6.87186C3.05175 5.89538 3.62269 5.04596 4.34387 4.32362C5.06506 3.60129 5.91159 3.03343 6.88345 2.62006C7.8553 2.20669 8.89371 2 9.9987 2C11.1084 2 12.1514 2.2066 13.1278 2.61981C14.1042 3.03301 14.9536 3.60072 15.6761 4.32292C16.3986 5.04513 16.9666 5.8944 17.3799 6.87073C17.7933 7.84706 18 8.89025 18 10.0003C18 11.1104 17.7934 12.15 17.3802 13.1192C16.967 14.0884 16.3994 14.9337 15.6773 15.6552C14.9553 16.3766 14.1062 16.9478 13.1301 17.3687C12.1541 17.7896 11.1111 18 10.0013 18Z" fill="#6265AD"/>
</svg>
