<svg viewBox="0 0 20 20" fill="none" xmlns="http://www.w3.org/2000/svg">
<path d="M10 11.3704L12.0185 13.3889C12.2037 13.5741 12.4321 13.6667 12.7037 13.6667C12.9753 13.6667 13.2037 13.5741 13.3889 13.3889C13.5741 13.2037 13.6667 12.9753 13.6667 12.7037C13.6667 12.4321 13.5741 12.2037 13.3889 12.0185L11.3704 10L13.3889 7.98148C13.5741 7.7963 13.6667 7.5679 13.6667 7.2963C13.6667 7.02469 13.5741 6.7963 13.3889 6.61111C13.2037 6.42593 12.9753 6.33333 12.7037 6.33333C12.4321 6.33333 12.2037 6.42593 12.0185 6.61111L10 8.62963L7.98148 6.61111C7.7963 6.42593 7.5679 6.33333 7.2963 6.33333C7.02469 6.33333 6.7963 6.42593 6.61111 6.61111C6.42593 6.7963 6.33333 7.02469 6.33333 7.2963C6.33333 7.5679 6.42593 7.7963 6.61111 7.98148L8.62963 10L6.61111 12.0185C6.42593 12.2037 6.33333 12.4321 6.33333 12.7037C6.33333 12.9753 6.42593 13.2037 6.61111 13.3889C6.7963 13.5741 7.02469 13.6667 7.2963 13.6667C7.5679 13.6667 7.7963 13.5741 7.98148 13.3889L10 11.3704ZM10 18C8.88889 18 7.84877 17.7901 6.87963 17.3704C5.91049 16.9506 5.06481 16.3796 4.34259 15.6574C3.62037 14.9352 3.04938 14.0895 2.62963 13.1204C2.20988 12.1512 2 11.1111 2 10C2 8.88889 2.20988 7.84568 2.62963 6.87037C3.04938 5.89506 3.62037 5.0463 4.34259 4.32407C5.06481 3.60185 5.91049 3.03395 6.87963 2.62037C7.84877 2.20679 8.88889 2 10 2C11.1111 2 12.1543 2.20679 13.1296 2.62037C14.1049 3.03395 14.9537 3.60185 15.6759 4.32407C16.3981 5.0463 16.966 5.89506 17.3796 6.87037C17.7932 7.84568 18 8.88889 18 10C18 11.1111 17.7932 12.1512 17.3796 13.1204C16.966 14.0895 16.3981 14.9352 15.6759 15.6574C14.9537 16.3796 14.1049 16.9506 13.1296 17.3704C12.1543 17.7901 11.1111 18 10 18Z" fill="#6265AD"/>
</svg>
