<svg viewBox="0 0 20 20" fill="none" xmlns="http://www.w3.org/2000/svg">
<path d="M10.0287 14.9821C10.3017 14.9821 10.5346 14.8866 10.7273 14.6955C10.92 14.5044 11.0163 14.2723 11.0163 13.9993C11.0163 13.7263 10.9208 13.4934 10.7297 13.3007C10.5386 13.108 10.3065 13.0117 10.0335 13.0117C9.76046 13.0117 9.52759 13.1072 9.33491 13.2983C9.14221 13.4894 9.04586 13.7215 9.04586 13.9945C9.04586 14.2675 9.1414 14.5004 9.33248 14.6931C9.52358 14.8858 9.75564 14.9821 10.0287 14.9821ZM9.21678 11.8259H10.819C10.8293 11.3117 10.8741 10.9412 10.9534 10.7145C11.0326 10.4879 11.2499 10.1984 11.6053 9.84616C12.0818 9.41 12.4113 9.02178 12.5936 8.68151C12.776 8.34124 12.8671 7.97023 12.8671 7.56848C12.8671 6.80877 12.6047 6.1896 12.08 5.71096C11.5552 5.23233 10.8889 4.99302 10.0808 4.99302C9.36598 4.99302 8.74386 5.17976 8.21446 5.55324C7.68507 5.92671 7.31937 6.43823 7.11735 7.08779L8.53923 7.68607C8.65112 7.29654 8.83294 6.99481 9.08468 6.78088C9.33644 6.56694 9.64984 6.45997 10.0249 6.45997C10.4082 6.45997 10.7242 6.57057 10.9728 6.79177C11.2215 7.01296 11.3458 7.29397 11.3458 7.63482C11.3458 7.94976 11.2373 8.22456 11.0202 8.45921C10.8032 8.69386 10.5667 8.93085 10.3108 9.17018C9.82079 9.62187 9.51594 9.99354 9.39628 10.2852C9.27662 10.5768 9.21678 11.0904 9.21678 11.8259ZM10.0014 18C8.90403 18 7.86912 17.7916 6.89662 17.3749C5.9241 16.9582 5.07331 16.3855 4.34425 15.6568C3.61517 14.928 3.04219 14.0776 2.62531 13.1055C2.20844 12.1334 2 11.0987 2 10.0014C2 8.88711 2.20875 7.84559 2.62624 6.87678C3.04374 5.90798 3.61755 5.05792 4.34766 4.32659C5.07779 3.59528 5.92822 3.02468 6.89894 2.61481C7.86965 2.20494 8.90289 2 9.99865 2C11.1128 2 12.1542 2.20485 13.1229 2.61455C14.0915 3.02425 14.9416 3.59468 15.6731 4.32586C16.4046 5.05706 16.9753 5.90697 17.3852 6.87561C17.7951 7.84424 18 8.88582 18 10.0003C18 11.1014 17.7951 12.1359 17.3855 13.1038C16.9758 14.0717 16.4054 14.9209 15.6744 15.6513C14.9434 16.3818 14.0937 16.9558 13.1253 17.3735C12.1569 17.7912 11.1156 18 10.0014 18Z" fill="#6265AD"/>
</svg>
