<svg viewBox="0 0 20 20" fill="none" xmlns="http://www.w3.org/2000/svg">
<path d="M3 16.3717V14.543C3 14.0744 3.15404 13.6858 3.46213 13.3774C3.77021 13.069 4.15833 12.9148 4.62648 12.9148H5.23009V11.0606C5.23009 10.5284 5.40797 10.0842 5.76371 9.72802C6.11945 9.37188 6.56316 9.19382 7.09485 9.19382H9.19471V7.08524H8.5911C8.12294 7.08524 7.73482 6.93103 7.42674 6.62261C7.11866 6.31418 6.96461 5.92563 6.96461 5.45696V3.62828C6.96461 3.15961 7.11883 2.77106 7.42728 2.46264C7.73572 2.15421 8.12426 2 8.59289 2H11.4144C11.883 2 12.2703 2.15421 12.5764 2.46264C12.8824 2.77106 13.0354 3.15961 13.0354 3.62828V5.45696C13.0354 5.92563 12.8813 6.31418 12.5733 6.62261C12.2652 6.93103 11.8771 7.08524 11.4089 7.08524H10.8053V9.19382H12.9052C13.4368 9.19382 13.8806 9.37188 14.2363 9.72802C14.592 10.0842 14.7699 10.5284 14.7699 11.0606V12.9148H15.3769C15.8469 12.9148 16.235 13.069 16.541 13.3774C16.847 13.6858 17 14.0744 17 14.543V16.3717C17 16.8404 16.8458 17.2289 16.5373 17.5374C16.2289 17.8458 15.8404 18 15.3717 18H12.5503C12.0816 18 11.6943 17.8458 11.3883 17.5374C11.0822 17.2289 10.9292 16.8404 10.9292 16.3717V14.543C10.9292 14.0744 11.0833 13.6858 11.3914 13.3774C11.6994 13.069 12.0876 12.9148 12.5557 12.9148H13.1593V11.0606C13.1593 10.9864 13.1355 10.9255 13.0878 10.8777C13.0402 10.83 12.9793 10.8062 12.9052 10.8062H7.09485C7.02072 10.8062 6.95982 10.83 6.91216 10.8777C6.86451 10.9255 6.84068 10.9864 6.84068 11.0606V12.9148H7.4477C7.91771 12.9148 8.30573 13.069 8.61174 13.3774C8.91776 13.6858 9.07077 14.0744 9.07077 14.543V16.3717C9.07077 16.8404 8.91655 17.2289 8.60811 17.5374C8.29967 17.8458 7.91113 18 7.44249 18H4.62103C4.15238 18 3.76505 17.8458 3.45903 17.5374C3.15301 17.2289 3 16.8404 3 16.3717Z" fill="#6265AD"/>
</svg>
