<svg viewBox="0 0 20 20" fill="none" xmlns="http://www.w3.org/2000/svg">
<path d="M13.1817 12.0915C12.5205 12.0915 11.9551 11.859 11.4855 11.3939C11.0159 10.9287 10.7811 10.3687 10.7811 9.71373C10.7811 9.05878 11.0159 8.49873 11.4855 8.0336C11.9551 7.56848 12.5205 7.33592 13.1817 7.33592C13.843 7.33592 14.4084 7.56848 14.878 8.0336C15.3475 8.49873 15.5823 9.05878 15.5823 9.71373C15.5823 10.3687 15.3475 10.9287 14.878 11.3939C14.4084 11.859 13.843 12.0915 13.1817 12.0915ZM6.60285 15.4825V15.8494H3.81813C3.29622 15.8494 2.86273 15.6772 2.51764 15.3327C2.17255 14.9883 2 14.5598 2 14.0472V3.80218C2 3.28962 2.17388 2.86112 2.52163 2.51668C2.86937 2.17223 3.30198 2 3.81946 2H14.203C14.7205 2 15.1531 2.17223 15.5008 2.51668C15.8486 2.86112 16.0225 3.28962 16.0225 3.80218V6.79246C15.7094 6.42302 15.2837 6.1306 14.7454 5.91518C14.2071 5.69976 13.6926 5.59205 13.2019 5.59205C13.1657 5.59205 13.1321 5.59333 13.1011 5.5959C13.0701 5.59846 13.0365 5.6023 13.0004 5.60742V5.48461C12.9332 5.32829 12.8249 5.1994 12.6755 5.09796C12.5261 4.99652 12.3725 4.95245 12.2146 4.96575H5.80782C5.59224 4.95245 5.4074 5.02176 5.25328 5.17367C5.09916 5.32558 5.02209 5.50774 5.02209 5.72015C5.02209 5.93256 5.09916 6.11603 5.25328 6.27055C5.4074 6.42508 5.59224 6.50234 5.80782 6.50234H10.6928C10.3777 6.6886 10.1088 6.92295 9.88609 7.20541C9.66343 7.48787 9.49218 7.80154 9.37233 8.14643H5.80782C5.59224 8.14643 5.4074 8.22238 5.25328 8.37429C5.09916 8.52619 5.02209 8.70835 5.02209 8.92076C5.02209 9.13317 5.09916 9.31664 5.25328 9.47117C5.4074 9.62569 5.59224 9.70296 5.80782 9.70296H9.05928C9.0603 9.96801 9.08535 10.2303 9.13443 10.4897C9.18351 10.7491 9.26178 10.9965 9.36923 11.2319C9.32273 11.2524 9.27753 11.2716 9.23362 11.2895C9.1897 11.3074 9.14707 11.3266 9.10574 11.347H5.80782C5.59224 11.347 5.4074 11.423 5.25328 11.5749C5.09916 11.7268 5.02209 11.909 5.02209 12.1214C5.02209 12.3338 5.09916 12.5173 5.25328 12.6718C5.4074 12.8263 5.59224 12.9036 5.80782 12.9036H7.82099C7.40977 13.2229 7.10394 13.612 6.9035 14.071C6.70307 14.53 6.60285 15.0005 6.60285 15.4825ZM9.27317 18C9.02245 18 8.80815 17.9119 8.63027 17.7357C8.45238 17.5595 8.36344 17.3472 8.36344 17.0989V15.4825C8.36344 15.1982 8.43247 14.9376 8.57053 14.7007C8.70861 14.4639 8.89787 14.2716 9.13832 14.124C9.57742 13.8866 9.93155 13.7172 10.2007 13.6159C10.4698 13.5146 10.8488 13.4193 11.3375 13.33C11.5264 13.3046 11.7098 13.3102 11.8879 13.3466C12.0659 13.383 12.2187 13.4728 12.3464 13.6159L13.1817 14.692L14.0171 13.6159C14.1411 13.4931 14.2927 13.4084 14.4719 13.3618C14.6512 13.3153 14.8365 13.3046 15.0278 13.33C15.5204 13.4193 15.9029 13.511 16.1753 13.6051C16.4476 13.6992 16.8068 13.8722 17.253 14.124C17.4937 14.258 17.6771 14.443 17.8032 14.6789C17.9292 14.9148 17.9948 15.1668 18 15.4349V17.0989C18 17.3472 17.9111 17.5595 17.7332 17.7357C17.5553 17.9119 17.341 18 17.0903 18H9.27317Z" fill="#6265AD"/>
</svg>
