<svg viewBox="0 0 20 20" fill="none" xmlns="http://www.w3.org/2000/svg">
<path d="M8.89769 11.3563L7.22926 9.68784C7.06994 9.52852 6.87652 9.44761 6.64898 9.44512C6.42145 9.44263 6.22553 9.52353 6.06123 9.68784C5.89693 9.85214 5.81479 10.0468 5.81479 10.2718C5.81479 10.4969 5.89693 10.6915 6.06123 10.8558L8.23151 13.0261C8.42134 13.2183 8.64281 13.3144 8.89592 13.3144C9.14902 13.3144 9.37166 13.2183 9.56384 13.0261L13.9627 8.62732C14.122 8.468 14.2029 8.27458 14.2054 8.04704C14.2079 7.81951 14.127 7.62359 13.9627 7.45929C13.7984 7.295 13.6037 7.21285 13.3786 7.21285C13.1536 7.21285 12.9589 7.295 12.7946 7.45929L8.89769 11.3563ZM10.0013 18C8.89481 18 7.85478 17.79 6.88122 17.3701C5.90763 16.9502 5.06076 16.3803 4.34059 15.6604C3.62041 14.9405 3.05026 14.094 2.63016 13.1208C2.21005 12.1476 2 11.1078 2 10.0013C2 8.8915 2.21035 7.84835 2.63105 6.87186C3.05175 5.89538 3.62269 5.04596 4.34387 4.32362C5.06506 3.60129 5.91159 3.03343 6.88345 2.62006C7.8553 2.20669 8.89371 2 9.9987 2C11.1084 2 12.1514 2.2066 13.1278 2.61981C14.1042 3.03301 14.9536 3.60072 15.6761 4.32292C16.3986 5.04513 16.9666 5.8944 17.3799 6.87073C17.7933 7.84706 18 8.89025 18 10.0003C18 11.1104 17.7934 12.15 17.3802 13.1192C16.967 14.0884 16.3994 14.9337 15.6773 15.6552C14.9553 16.3766 14.1062 16.9478 13.1301 17.3687C12.1541 17.7896 11.1111 18 10.0013 18Z" fill="#6265AD"/>
</svg>
