<svg viewBox="0 0 20 20" fill="none" xmlns="http://www.w3.org/2000/svg">
<path fill-rule="evenodd" clip-rule="evenodd" d="M2.53033 4.53039C2.23744 4.2375 2.23744 3.76262 2.53033 3.46973C2.82322 3.17684 3.2981 3.17684 3.59099 3.46973L15.9654 15.8441C16.2583 16.137 16.2583 16.6119 15.9654 16.9048C15.6725 17.1977 15.1976 17.1977 14.9047 16.9048L13.8916 15.8917L12.9774 17.5262C12.8654 17.7264 12.7035 17.8662 12.4917 17.9459C12.2798 18.0256 12.0657 18.0173 11.8492 17.9211L9.99999 17.0935L8.15082 17.9211C7.93432 18.0173 7.72015 18.0256 7.50831 17.9459C7.29646 17.8662 7.13455 17.7264 7.02256 17.5262L6.01609 15.7267L4.07593 15.2633C3.85195 15.205 3.67604 15.0809 3.5482 14.891C3.42035 14.7011 3.36622 14.4895 3.38582 14.2564L3.572 12.1799L2.24076 10.6193C2.08025 10.4445 2 10.238 2 10C2 9.76205 2.08025 9.55562 2.24076 9.38076L3.572 7.82015L3.38582 5.74371C3.37606 5.6276 3.38459 5.51685 3.4114 5.41146L2.53033 4.53039ZM7.08696 9.43032C7.14695 9.36786 7.21026 9.31674 7.2769 9.27696L10.0053 12.0054L9.85999 12.1566C9.67988 12.3441 9.47178 12.4378 9.23568 12.4378C8.99958 12.4378 8.79148 12.3441 8.61137 12.1566L7.08696 10.5887C6.92084 10.4158 6.83778 10.2227 6.83778 10.0095C6.83778 9.7963 6.92084 9.60323 7.08696 9.43032Z" fill="#6265AD"/>
<path d="M16.6177 14.375C16.6187 14.3361 16.6175 14.2966 16.6142 14.2564L16.428 12.1799L17.7592 10.6193C17.9197 10.4445 18 10.238 18 10C18 9.76205 17.9197 9.55562 17.7592 9.38076L16.428 7.82015L16.6142 5.74371C16.6338 5.51056 16.5796 5.29903 16.4518 5.10911C16.3239 4.91919 16.148 4.79509 15.924 4.73681L13.9839 4.27344L12.9774 2.47385C12.8654 2.27374 12.7035 2.13385 12.4917 2.05419C12.2798 1.97454 12.0657 1.9828 11.8492 2.07896L9.99999 2.90662L8.15082 2.07896C7.93432 1.9828 7.72015 1.97454 7.50831 2.05419C7.29646 2.13385 7.13455 2.27374 7.02256 2.47385L6.19545 3.95273L10.9561 8.71337L11.8436 7.78954C12.005 7.62149 12.1893 7.53625 12.3965 7.53381C12.6037 7.53139 12.788 7.61421 12.9494 7.78227C13.1155 7.95032 13.1963 8.1446 13.1916 8.36511C13.1869 8.58563 13.1062 8.77749 12.9494 8.94067L12.0841 9.8414L16.6177 14.375Z" fill="#6265AD"/>
</svg>
