<svg viewBox="0 0 20 20" fill="none" xmlns="http://www.w3.org/2000/svg">
<path d="M2.23712 15.7656C2.39521 15.9219 2.59109 16 2.82478 16H12.4967C12.7304 16 12.9263 15.9216 13.0844 15.7647C13.2424 15.6078 13.3215 15.4168 13.3215 15.1916V13.9692C13.3215 13.541 13.2179 13.1654 13.0106 12.8423C12.8034 12.5191 12.5268 12.2684 12.1809 12.0902C11.4841 11.7415 10.7726 11.4733 10.0465 11.2857C9.3204 11.0982 8.528 11.0044 7.66931 11.0044C6.80674 11.0044 6.0105 11.0982 5.2806 11.2857C4.55072 11.4733 3.83739 11.7415 3.14061 12.0902C2.79468 12.2684 2.5181 12.5191 2.31087 12.8423C2.10362 13.1654 2 13.541 2 13.9692V15.1845C2 15.4156 2.07904 15.6093 2.23712 15.7656Z" fill="#6265AD"/>
<path d="M14.6559 15.7342C14.575 15.8631 14.4868 15.9517 14.3913 16H17.1752C17.4089 16 17.6048 15.9224 17.7629 15.7672C17.921 15.612 18 15.4196 18 15.1902V13.8181C18 13.5068 17.886 13.1985 17.658 12.8929C17.43 12.5874 17.1057 12.32 16.6851 12.0908C16.2187 11.8407 15.7192 11.6333 15.1864 11.4688C14.6537 11.3042 14.0892 11.188 13.4928 11.1203C13.943 11.4765 14.2696 11.9097 14.4727 12.4198C14.6758 12.9299 14.7773 13.396 14.7773 13.8181V15.1911C14.7773 15.4243 14.7369 15.6053 14.6559 15.7342Z" fill="#6265AD"/>
<path d="M5.61998 8.85424C6.18348 9.41138 6.86088 9.68995 7.65218 9.68995C8.44348 9.68995 9.12088 9.41138 9.68438 8.85424C10.2479 8.2971 10.5296 7.62734 10.5296 6.84498C10.5296 6.06261 10.2479 5.39285 9.68438 4.83572C9.12088 4.27857 8.44348 4 7.65218 4C6.86088 4 6.18348 4.27857 5.61998 4.83572C5.05647 5.39285 4.77471 6.06261 4.77471 6.84498C4.77471 7.62734 5.05647 8.2971 5.61998 8.85424Z" fill="#6265AD"/>
<path d="M14.1784 8.85424C14.7419 8.2971 15.0237 7.62734 15.0237 6.84498C15.0237 6.06261 14.7419 5.39285 14.1784 4.83572C13.6149 4.27857 12.9375 4 12.1462 4C11.9793 4 11.8068 4.01086 11.6284 4.03257C11.4501 4.05428 11.2776 4.09379 11.1107 4.15111C11.3979 4.54538 11.6155 4.96962 11.7635 5.42385C11.9115 5.87809 11.9855 6.35153 11.9855 6.84417C11.9855 7.33682 11.9129 7.81187 11.7679 8.26933C11.6228 8.72678 11.4037 9.14996 11.1107 9.53886C11.2336 9.58228 11.4062 9.61831 11.6284 9.64697C11.8507 9.67562 12.0233 9.68995 12.1462 9.68995C12.9375 9.68995 13.6149 9.41138 14.1784 8.85424Z" fill="#6265AD"/>
</svg>
