<svg viewBox="0 0 20 20" fill="none" xmlns="http://www.w3.org/2000/svg">
<path d="M3.68799 17C3.21662 17 2.81745 16.8344 2.49047 16.5032C2.16349 16.1719 2 15.7675 2 15.2901V8.50126C2 8.29867 2.07114 8.12495 2.21342 7.9801C2.3557 7.83525 2.52632 7.76282 2.72527 7.76282C2.92423 7.76282 3.09607 7.83525 3.24079 7.9801C3.38554 8.12495 3.45791 8.29867 3.45791 8.50126V15.2901C3.45791 15.358 3.47948 15.4139 3.52262 15.4576C3.56576 15.5013 3.62088 15.5231 3.68799 15.5231H15.3271C15.5271 15.5231 15.6986 15.5952 15.8416 15.7393C15.9846 15.8835 16.0561 16.0563 16.0561 16.2578C16.0561 16.4594 15.9846 16.6334 15.8416 16.7801C15.6986 16.9267 15.5271 17 15.3271 17H3.68799ZM6.4917 14.1598C6.02033 14.1598 5.62116 13.9942 5.29418 13.663C4.9672 13.3317 4.80371 12.9274 4.80371 12.4499V4.70996C4.80371 4.22363 4.9672 3.81705 5.29418 3.49024C5.62116 3.16341 6.02033 3 6.4917 3H9.18905C9.41155 3 9.62652 3.04176 9.83399 3.12527C10.0415 3.20877 10.2315 3.33792 10.404 3.5127L11.6923 4.81773H16.312C16.7921 4.81773 17.1934 4.98115 17.5161 5.30797C17.8387 5.63479 18 6.04136 18 6.52769V12.4499C18 12.9274 17.8387 13.3317 17.5161 13.663C17.1934 13.9942 16.7921 14.1598 16.312 14.1598H6.4917Z" fill="#6265AD"/>
</svg>
