<svg viewBox="0 0 20 20" fill="none" xmlns="http://www.w3.org/2000/svg">
<path fill-rule="evenodd" clip-rule="evenodd" d="M18 13.5556V6.44444C18 5.46667 17.28 4.66667 16.4 4.66667H3.6C2.72 4.66667 2 5.46667 2 6.44444V13.5556C2 14.5333 2.72 15.3333 3.6 15.3333H16.4C17.28 15.3333 18 14.5333 18 13.5556ZM9.15812 12.5752L12.3802 10.5145C12.5712 10.3907 12.6667 10.2189 12.6667 9.99892C12.6667 9.77896 12.5712 9.60782 12.3802 9.48552L9.15812 7.42484C8.94766 7.30253 8.73906 7.30283 8.53232 7.42573C8.32559 7.54865 8.22222 7.72582 8.22222 7.95725V12.0428C8.22222 12.2742 8.32559 12.4514 8.53232 12.5743C8.73906 12.6972 8.94766 12.6975 9.15812 12.5752Z" fill="#6265AD"/>
<path d="M4.66667 3.77778H15.3333C15.8243 3.77778 16.2222 3.37981 16.2222 2.88889C16.2222 2.39797 15.8243 2 15.3333 2H4.66667C4.17575 2 3.77778 2.39797 3.77778 2.88889C3.77778 3.37981 4.17575 3.77778 4.66667 3.77778Z" fill="#6265AD"/>
<path d="M4.66667 18H15.3333C15.8243 18 16.2222 17.602 16.2222 17.1111C16.2222 16.6202 15.8243 16.2222 15.3333 16.2222H4.66667C4.17575 16.2222 3.77778 16.6202 3.77778 17.1111C3.77778 17.602 4.17575 18 4.66667 18Z" fill="#6265AD"/>
</svg>
