<svg viewBox="0 0 20 20" fill="none" xmlns="http://www.w3.org/2000/svg">
<path d="M6.07708 14.071C6.32302 14.071 6.53457 13.984 6.71173 13.8101C6.88887 13.6361 6.97745 13.4267 6.97745 13.1819C6.97745 12.937 6.89011 12.7264 6.71543 12.55C6.54075 12.3736 6.33044 12.2854 6.08452 12.2854C5.83857 12.2854 5.62703 12.3723 5.44987 12.5463C5.27272 12.7202 5.18415 12.9296 5.18415 13.1745C5.18415 13.4193 5.27149 13.63 5.44617 13.8064C5.62085 13.9828 5.83115 14.071 6.07708 14.071ZM6.02417 6.01725C5.80914 6.01725 5.62341 6.09419 5.46698 6.24807C5.31055 6.40194 5.23233 6.58648 5.23233 6.80172V10.7319C5.23233 10.9471 5.30922 11.1317 5.463 11.2856C5.61678 11.4394 5.80118 11.5164 6.01621 11.5164C6.23124 11.5164 6.41697 11.4394 6.5734 11.2856C6.72984 11.1317 6.80805 10.9471 6.80805 10.7319V6.80172C6.80805 6.58648 6.73116 6.40194 6.57738 6.24807C6.42361 6.09419 6.2392 6.01725 6.02417 6.01725ZM14.1818 13.9827C14.398 13.9827 14.5833 13.9062 14.7379 13.7531C14.8924 13.6 14.9697 13.4164 14.9697 13.2022C14.9697 12.9881 14.8924 12.8032 14.7379 12.6475C14.5833 12.4917 14.398 12.4138 14.1818 12.4138H10.2222C10.0061 12.4138 9.82071 12.4904 9.66618 12.6435C9.51163 12.7966 9.43436 12.9802 9.43436 13.1943C9.43436 13.4084 9.51163 13.5934 9.66618 13.7491C9.82071 13.9049 10.0061 13.9827 10.2222 13.9827H14.1818ZM14.1818 10.7643C14.398 10.7643 14.5833 10.6878 14.7379 10.5347C14.8924 10.3816 14.9697 10.198 14.9697 9.98385C14.9697 9.76974 14.8924 9.58481 14.7379 9.42906C14.5833 9.2733 14.398 9.19542 14.1818 9.19542H10.2222C10.0061 9.19542 9.82071 9.27198 9.66618 9.42509C9.51163 9.57821 9.43436 9.76182 9.43436 9.97592C9.43436 10.19 9.51163 10.375 9.66618 10.5307C9.82071 10.6865 10.0061 10.7643 10.2222 10.7643H14.1818ZM14.1818 7.58618C14.398 7.58618 14.5833 7.50962 14.7379 7.35651C14.8924 7.20339 14.9697 7.01978 14.9697 6.80568C14.9697 6.59157 14.8924 6.40664 14.7379 6.25089C14.5833 6.09513 14.398 6.01725 14.1818 6.01725H10.2222C10.0061 6.01725 9.82071 6.09381 9.66618 6.24692C9.51163 6.40004 9.43436 6.58365 9.43436 6.79775C9.43436 7.01186 9.51163 7.19679 9.66618 7.35254C9.82071 7.5083 10.0061 7.58618 10.2222 7.58618H14.1818ZM3.82441 17C3.31252 17 2.88047 16.8247 2.52828 16.474C2.17609 16.1233 2 15.6931 2 15.1835V4.81655C2 4.30686 2.17609 3.87668 2.52828 3.52601C2.88047 3.17534 3.31252 3 3.82441 3H16.1756C16.6875 3 17.1195 3.17534 17.4717 3.52601C17.8239 3.87668 18 4.30686 18 4.81655V15.1835C18 15.6931 17.8239 16.1233 17.4717 16.474C17.1195 16.8247 16.6875 17 16.1756 17H3.82441Z" fill="#6265AD"/>
</svg>
