<svg viewBox="0 0 20 20" fill="none" xmlns="http://www.w3.org/2000/svg">
<path d="M12.7747 16C12.0669 16 11.461 15.756 10.957 15.2681C10.4529 14.7802 10.2009 14.1933 10.2009 13.5074C10.2009 12.8215 10.4527 12.2278 10.9563 11.7263C11.46 11.2248 12.0658 10.974 12.7738 10.974C12.9273 10.974 13.076 10.9963 13.2198 11.0407C13.3636 11.0852 13.5098 11.1519 13.6582 11.2408V4.81816C13.6582 4.58764 13.7394 4.39365 13.9019 4.23618C14.0644 4.07873 14.2645 4 14.5024 4H17.0273C17.2912 4 17.5193 4.09203 17.7115 4.2761C17.9038 4.46016 17.9999 4.68231 17.9999 4.94255C17.9999 5.19829 17.9038 5.41932 17.7115 5.60563C17.5193 5.79194 17.2912 5.8851 17.0273 5.8851H15.3868V13.5065C15.3868 14.1926 15.1284 14.7798 14.6115 15.2679C14.0947 15.756 13.4824 16 12.7747 16ZM2.86418 5.67529C2.62633 5.67529 2.42281 5.59329 2.25365 5.42929C2.08447 5.26528 1.99988 5.06798 1.99988 4.83739C1.99988 4.60679 2.08447 4.40958 2.25365 4.24575C2.42281 4.08192 2.62633 4 2.86418 4H10.7436C10.9815 4 11.185 4.082 11.3542 4.246C11.5233 4.41001 11.6079 4.60731 11.6079 4.8379C11.6079 5.0685 11.5233 5.26571 11.3542 5.42954C11.185 5.59338 10.9815 5.67529 10.7436 5.67529H2.86418ZM2.86418 9.1818C2.62633 9.1818 2.42281 9.09979 2.25365 8.93579C2.08447 8.77178 1.99988 8.57448 1.99988 8.3439C1.99988 8.1133 2.08447 7.91608 2.25365 7.75225C2.42281 7.58842 2.62633 7.5065 2.86418 7.5065H10.7436C10.9815 7.5065 11.185 7.58851 11.3542 7.75251C11.5233 7.91652 11.6079 8.11382 11.6079 8.3444C11.6079 8.575 11.5233 8.77222 11.3542 8.93605C11.185 9.09988 10.9815 9.1818 10.7436 9.1818H2.86418ZM2.86418 12.6493C2.62633 12.6493 2.42281 12.5673 2.25365 12.4033C2.08447 12.2393 1.99988 12.042 1.99988 11.8114C1.99988 11.5808 2.08447 11.3836 2.25365 11.2198C2.42281 11.056 2.62633 10.974 2.86418 10.974H7.52751C7.76537 10.974 7.96888 11.056 8.13804 11.22C8.30722 11.3841 8.39181 11.5814 8.39181 11.8119C8.39181 12.0425 8.30722 12.2398 8.13804 12.4036C7.96888 12.5674 7.76537 12.6493 7.52751 12.6493H2.86418Z" fill="#6265AD"/>
</svg>
