<svg viewBox="0 0 20 20" fill="none" xmlns="http://www.w3.org/2000/svg">
<path d="M7.9489 12.4265C7.88865 12.6095 8.09636 12.7635 8.2539 12.6527L9.94196 11.4658C9.97672 11.4414 10.0231 11.4416 10.0577 11.4663L11.702 12.6435C11.8593 12.7561 12.0689 12.602 12.0084 12.4183L11.3827 10.5188C11.3691 10.4778 11.3835 10.4327 11.4183 10.407L13.1099 9.16103C13.2653 9.04652 13.1843 8.8 12.9913 8.8H10.9513C10.9086 8.8 10.8707 8.77294 10.8567 8.73262L10.1891 6.79784C10.1271 6.61817 9.87295 6.61817 9.81094 6.79784L9.14325 8.73262C9.12934 8.77294 9.09138 8.8 9.04872 8.8H7C6.8078 8.8 6.72624 9.04468 6.88 9.16L8.54255 10.4069C8.57688 10.4327 8.59096 10.4774 8.57753 10.5182L7.9489 12.4265ZM3.6 16C3.16 16 2.78333 15.8531 2.47 15.5594C2.15667 15.2656 2 14.9125 2 14.5V11.5C2.44 11.5 2.81667 11.3531 3.13 11.0594C3.44333 10.7656 3.6 10.4125 3.6 10C3.6 9.5875 3.44333 9.23438 3.13 8.94063C2.81667 8.64687 2.44 8.5 2 8.5V5.5C2 5.0875 2.15667 4.73438 2.47 4.44063C2.78333 4.14688 3.16 4 3.6 4H16.4C16.84 4 17.2167 4.14688 17.53 4.44063C17.8433 4.73438 18 5.0875 18 5.5V8.5C17.56 8.5 17.1833 8.64687 16.87 8.94063C16.5567 9.23438 16.4 9.5875 16.4 10C16.4 10.4125 16.5567 10.7656 16.87 11.0594C17.1833 11.3531 17.56 11.5 18 11.5V14.5C18 14.9125 17.8433 15.2656 17.53 15.5594C17.2167 15.8531 16.84 16 16.4 16H3.6Z" fill="#6265AD"/>
</svg>
