<svg viewBox="0 0 20 20" fill="none" xmlns="http://www.w3.org/2000/svg">
<path d="M10.0467 14.8963L12.371 9.42478C12.4483 9.26701 12.4454 9.12678 12.3625 9.00408C12.2795 8.88137 12.1572 8.82002 11.9955 8.82002H10.4272V5.107C10.4272 4.97905 10.3682 4.90521 10.2502 4.88548C10.1322 4.86574 10.0526 4.90423 10.0116 5.00094L7.68722 10.4672C7.60997 10.6253 7.61284 10.7657 7.6958 10.8884C7.77875 11.0111 7.90108 11.0724 8.06277 11.0724H9.63109V14.7905C9.63109 14.9181 9.69008 14.9917 9.80808 15.0114C9.92607 15.0312 10.0056 14.9928 10.0467 14.8963ZM10.0013 18C8.89481 18 7.85478 17.79 6.88122 17.3701C5.90763 16.9502 5.06076 16.3803 4.34059 15.6604C3.62041 14.9405 3.05026 14.094 2.63016 13.1208C2.21005 12.1476 2 11.1078 2 10.0013C2 8.8915 2.21035 7.84835 2.63105 6.87186C3.05175 5.89538 3.62269 5.04596 4.34387 4.32362C5.06506 3.60129 5.91159 3.03343 6.88345 2.62006C7.8553 2.20669 8.89371 2 9.9987 2C11.1084 2 12.1514 2.2066 13.1278 2.61981C14.1042 3.03301 14.9536 3.60072 15.6761 4.32292C16.3986 5.04513 16.9666 5.8944 17.3799 6.87073C17.7933 7.84706 18 8.89025 18 10.0003C18 11.1104 17.7934 12.15 17.3802 13.1192C16.967 14.0884 16.3994 14.9337 15.6773 15.6552C14.9553 16.3766 14.1062 16.9478 13.1301 17.3687C12.1541 17.7896 11.1111 18 10.0013 18Z" fill="#6265AD"/>
</svg>
