<svg viewBox="0 0 20 20" fill="none" xmlns="http://www.w3.org/2000/svg">
<path d="M3.75642 15.0833C3.23235 15.0833 2.78776 14.9007 2.42267 14.5354C2.05756 14.1701 1.875 13.7253 1.875 13.201V4.6255C1.875 4.10121 2.05756 3.65756 2.42267 3.29454C2.78776 2.93151 3.23235 2.75 3.75642 2.75H16.2435C16.7676 2.75 17.2122 2.93264 17.5773 3.29792C17.9424 3.66318 18.125 4.10796 18.125 4.63225V13.2078C18.125 13.7321 17.9424 14.1757 17.5773 14.5387C17.2122 14.9018 16.7676 15.0833 16.2435 15.0833H13.1666V16.3092C13.1666 16.5698 13.0751 16.7917 12.8919 16.975C12.7088 17.1583 12.4871 17.25 12.2268 17.25H7.77994C7.5196 17.25 7.29676 17.1583 7.1114 16.975C6.92602 16.7917 6.83333 16.5698 6.83333 16.3092V15.0833H3.75642ZM3.75642 13.4583H16.2435C16.3077 13.4583 16.3664 13.4316 16.4199 13.3782C16.4733 13.3248 16.5 13.266 16.5 13.2019V4.63142C16.5 4.56731 16.4733 4.50854 16.4199 4.4551C16.3664 4.40169 16.3077 4.37498 16.2435 4.37498H3.75642C3.69231 4.37498 3.63353 4.40169 3.5801 4.4551C3.52669 4.50854 3.49998 4.56731 3.49998 4.63142V13.2019C3.49998 13.266 3.52669 13.3248 3.5801 13.3782C3.63353 13.4316 3.69231 13.4583 3.75642 13.4583Z" fill="#6265AD"/>
</svg>
