<svg viewBox="0 0 20 20" fill="none" xmlns="http://www.w3.org/2000/svg">
<path fill-rule="evenodd" clip-rule="evenodd" d="M6.88122 17.3701C7.85478 17.79 8.89481 18 10.0013 18C11.1111 18 12.1541 17.7896 13.1301 17.3687C14.1062 16.9478 14.9553 16.3767 15.6773 15.6552C16.3994 14.9337 16.967 14.0884 17.3802 13.1192C17.7934 12.15 18 11.1104 18 10.0003C18 8.89025 17.7933 7.84706 17.3799 6.87073C16.9666 5.8944 16.3986 5.04513 15.6761 4.32292C14.9536 3.60072 14.1042 3.03301 13.1278 2.61981C12.1514 2.2066 11.1084 2 9.9987 2C8.89371 2 7.8553 2.20669 6.88345 2.62006C5.91159 3.03343 5.06506 3.60129 4.34387 4.32362C3.62269 5.04596 3.05175 5.89537 2.63105 6.87186C2.21035 7.84835 2 8.8915 2 10.0013C2 11.1078 2.21005 12.1476 2.63016 13.1208C3.05026 14.094 3.62041 14.9405 4.34059 15.6604C5.06076 16.3803 5.90763 16.9502 6.88122 17.3701ZM7.19518 14.3333C7.65864 14.7778 8.21139 15 8.85345 15C9.4955 15 10.0483 14.7778 10.5117 14.3333C10.9752 13.8888 11.2069 13.3587 11.2069 12.7429V7.26745H12.3179C12.6538 7.26745 12.9348 7.15876 13.1609 6.94138C13.387 6.72401 13.5 6.45439 13.5 6.13253C13.5 5.81068 13.387 5.54145 13.1609 5.32487C12.9348 5.10829 12.6538 5 12.3179 5H11.3793C10.9887 5 10.6615 5.12647 10.3978 5.37941C10.134 5.63236 10.0022 5.94615 10.0022 6.32079V10.7462C9.82615 10.6504 9.6444 10.5831 9.4569 10.5441C9.2694 10.5052 9.06824 10.4858 8.85345 10.4858C8.21139 10.4858 7.65864 10.708 7.19518 11.1525C6.73173 11.597 6.5 12.1271 6.5 12.7429C6.5 13.3587 6.73173 13.8888 7.19518 14.3333Z" fill="#6265AD"/>
</svg>
