<svg viewBox="0 0 20 20" fill="none" xmlns="http://www.w3.org/2000/svg">
<path d="M5.80753 8.63011C6.36357 9.21221 7.04129 9.50326 7.8407 9.50326C8.6401 9.50326 9.31783 9.21221 9.87388 8.63011C10.4299 8.048 10.7079 7.33851 10.7079 6.50164C10.7079 5.66476 10.4299 4.95527 9.87388 4.37317C9.31783 3.79106 8.6401 3.5 7.8407 3.5C7.04129 3.5 6.36357 3.79106 5.80753 4.37317C5.25148 4.95527 4.97346 5.66476 4.97346 6.50164C4.97346 7.33851 5.25148 8.048 5.80753 8.63011Z" fill="#6265AD"/>
<path d="M2.24503 16.2435C2.40838 16.4145 2.6108 16.5 2.85229 16.5H12.8291C13.0706 16.5 13.273 16.4142 13.4364 16.2425C13.5997 16.0709 13.6814 15.8619 13.6814 15.6155V14.278C13.6814 13.8286 13.5743 13.4223 13.3602 13.0592C13.146 12.6962 12.8601 12.4173 12.5024 12.2227C11.7554 11.8265 10.9905 11.5293 10.2076 11.3312C9.42477 11.1331 8.63525 11.0341 7.83906 11.0341C7.04288 11.0341 6.25391 11.1331 5.47215 11.3312C4.6904 11.5293 3.92603 11.8265 3.17903 12.2227C2.82131 12.4173 2.53537 12.6962 2.32122 13.0592C2.10707 13.4223 2 13.8286 2 14.278V15.6078C2 15.8606 2.08168 16.0725 2.24503 16.2435Z" fill="#6265AD"/>
<path d="M12.5959 10.9666C12.9931 11.3222 13.4669 11.5 14.0172 11.5C14.5676 11.5 15.0414 11.3222 15.4386 10.9666C15.8358 10.611 16.0345 10.1869 16.0345 9.69431V5.31396H16.9868C17.2747 5.31396 17.5156 5.22701 17.7093 5.05311C17.9031 4.87921 18 4.66351 18 4.40603C18 4.14854 17.9031 3.93316 17.7093 3.75989C17.5156 3.58663 17.2747 3.5 16.9868 3.5H16.1823C15.8474 3.5 15.567 3.60118 15.3409 3.80353C15.1149 4.00589 15.0018 4.25692 15.0018 4.55663V8.09696C14.851 8.02035 14.6952 7.96646 14.5345 7.93532C14.3738 7.90418 14.2014 7.88861 14.0172 7.88861C13.4669 7.88861 12.9931 8.0664 12.5959 8.42199C12.1986 8.77757 12 9.20168 12 9.69431C12 10.1869 12.1986 10.611 12.5959 10.9666Z" fill="#6265AD"/>
</svg>
