<svg viewBox="0 0 20 20" fill="none" xmlns="http://www.w3.org/2000/svg">
<path d="M2.5 15.25V4.75C2.5 4.14583 2.65737 3.61979 2.9721 3.17188C3.28683 2.72396 3.66518 2.5 4.10714 2.5H15.8929C16.3348 2.5 16.7132 2.72396 17.0279 3.17188C17.3426 3.61979 17.5 4.14583 17.5 4.75V15.25C17.5 15.8542 17.3426 16.3802 17.0279 16.8281C16.7132 17.276 16.3348 17.5 15.8929 17.5H4.10714C3.66518 17.5 3.28683 17.276 2.9721 16.8281C2.65737 16.3802 2.5 15.8542 2.5 15.25ZM8.57143 15.9375H11.4286V4.0625H8.57143V15.9375ZM13.0357 15.9375H15.8929V4.0625H13.0357V15.9375Z" fill="#6265AD"/>
</svg>
