<svg viewBox="0 0 20 20" fill="none" xmlns="http://www.w3.org/2000/svg">
<path d="M4.81209 13.4378L6.4486 15.0618C6.62228 15.2342 6.71048 15.432 6.71321 15.6551C6.71592 15.8783 6.62771 16.0738 6.4486 16.2414C6.27962 16.4138 6.08757 16.5 5.87244 16.5C5.65733 16.5 5.46293 16.4138 5.28925 16.2414L2.30125 13.2973C2.20789 13.199 2.13435 13.0936 2.08061 12.9812C2.02687 12.8687 2 12.7465 2 12.6144C2 12.4823 2.02687 12.36 2.08061 12.2476C2.13435 12.1351 2.20789 12.0325 2.30125 11.9399L5.25993 9.0248C5.42819 8.85782 5.62495 8.77164 5.85019 8.76624C6.07544 8.76087 6.27828 8.84435 6.45872 9.01671C6.63109 9.18906 6.71592 9.38216 6.71321 9.596C6.71048 9.80983 6.62228 10.0029 6.4486 10.1753L4.81209 11.7993H10.0244C10.2512 11.7993 10.4455 11.8792 10.6073 12.0389C10.7691 12.1986 10.85 12.3904 10.85 12.6142C10.85 12.8379 10.7691 13.0312 10.6073 13.1938C10.4455 13.3565 10.2512 13.4378 10.0244 13.4378H4.81209ZM15.1879 8.20067H9.97557C9.74882 8.20067 9.55453 8.12081 9.39272 7.96109C9.23093 7.80137 9.15003 7.60962 9.15003 7.38584C9.15003 7.16204 9.23093 6.96882 9.39272 6.80615C9.55453 6.64349 9.74882 6.56216 9.97557 6.56216H15.1879L13.5514 4.93813C13.3777 4.76578 13.2895 4.56801 13.2868 4.34484C13.2841 4.12166 13.3723 3.92622 13.5514 3.75853C13.7204 3.58618 13.9124 3.5 14.1276 3.5C14.3427 3.5 14.5371 3.58618 14.7108 3.75853L17.6988 6.70273C17.7921 6.80098 17.8657 6.90633 17.9194 7.0188C17.9731 7.13128 18 7.25354 18 7.38561C18 7.51768 17.9731 7.63996 17.9194 7.75243C17.8657 7.86489 17.7921 7.96744 17.6988 8.0601L14.7401 10.9752C14.5769 11.1422 14.385 11.2249 14.1642 11.2232C13.9435 11.2216 13.7429 11.1346 13.5625 10.9623C13.3901 10.7899 13.3053 10.5968 13.308 10.383C13.3107 10.1691 13.3989 9.97605 13.5726 9.80369L15.1879 8.20067Z" fill="#6265AD"/>
</svg>
