<svg viewBox="0 0 20 20" fill="none" xmlns="http://www.w3.org/2000/svg">
<path d="M7.63145 13.6299C7.44798 13.4553 7.3596 13.2424 7.3663 12.9914C7.373 12.7404 7.46808 12.5223 7.65155 12.3373L9.12497 10.8513H3.36424C3.12615 10.8513 2.92258 10.7661 2.75355 10.5956C2.58452 10.4252 2.5 10.2199 2.5 9.97974C2.5 9.73962 2.58452 9.53432 2.75355 9.36385C2.92258 9.19336 3.12615 9.10812 3.36424 9.10812H9.12497L7.60361 7.57382C7.43046 7.39918 7.34724 7.19649 7.35394 6.96573C7.36064 6.73496 7.45314 6.52965 7.63145 6.34982C7.81491 6.16999 8.0244 6.08008 8.25993 6.08008C8.49543 6.08008 8.70493 6.17259 8.8884 6.35762L11.8105 9.30458C11.9125 9.4075 11.9857 9.51794 12.03 9.63591C12.0743 9.7539 12.0965 9.87527 12.0965 10C12.0965 10.1247 12.0743 10.2461 12.03 10.3641C11.9857 10.4821 11.9125 10.5925 11.8105 10.6954L8.88066 13.6502C8.7075 13.8248 8.50188 13.9114 8.26378 13.9098C8.02569 13.9082 7.81491 13.8149 7.63145 13.6299ZM10.872 17.5C10.6339 17.5 10.4303 17.4148 10.2613 17.2443C10.0922 17.0738 10.0077 16.8685 10.0077 16.6284C10.0077 16.3883 10.0922 16.183 10.2613 16.0125C10.4303 15.842 10.6339 15.7568 10.872 15.7568H15.5241C15.586 15.7568 15.6427 15.7308 15.6942 15.6788C15.7457 15.6268 15.7715 15.5697 15.7715 15.5073V4.49273C15.7715 4.43035 15.7457 4.37317 15.6942 4.32118C15.6427 4.26921 15.586 4.24323 15.5241 4.24323H10.872C10.6339 4.24323 10.4303 4.15799 10.2613 3.98752C10.0922 3.81704 10.0077 3.61174 10.0077 3.37162C10.0077 3.1315 10.0922 2.9262 10.2613 2.75573C10.4303 2.58524 10.6339 2.5 10.872 2.5H15.5241C16.0776 2.5 16.5453 2.69257 16.9272 3.0777C17.3091 3.46284 17.5 3.93452 17.5 4.49273V15.5073C17.5 16.0655 17.3091 16.5372 16.9272 16.9223C16.5453 17.3074 16.0776 17.5 15.5241 17.5H10.872Z" fill="#6265AD"/>
</svg>
