<svg viewBox="0 0 20 20" fill="none" xmlns="http://www.w3.org/2000/svg">
<path d="M12.9115 13.6299C12.723 13.4553 12.6322 13.2424 12.6391 12.9914C12.6459 12.7404 12.7437 12.5223 12.9322 12.3373L14.4463 10.8513H8.52636C8.28168 10.8513 8.07249 10.7661 7.89879 10.5956C7.72508 10.4252 7.63823 10.2199 7.63823 9.97974C7.63823 9.73962 7.72508 9.53432 7.89879 9.36385C8.07249 9.19336 8.28168 9.10812 8.52636 9.10812H14.4463L12.8829 7.57382C12.705 7.39918 12.6195 7.19649 12.6263 6.96573C12.6332 6.73496 12.7283 6.52965 12.9115 6.34982C13.1001 6.16999 13.3154 6.08008 13.5574 6.08008C13.7994 6.08008 14.0147 6.17259 14.2032 6.35762L17.2061 9.30458C17.3109 9.4075 17.3861 9.51794 17.4317 9.63591C17.4772 9.7539 17.5 9.87527 17.5 10C17.5 10.1247 17.4772 10.2461 17.4317 10.3641C17.3861 10.4821 17.3109 10.5925 17.2061 10.6954L14.1953 13.6502C14.0226 13.8196 13.8127 13.9049 13.5653 13.9059C13.318 13.9069 13.1001 13.8149 12.9115 13.6299ZM4.5305 17.5C3.96171 17.5 3.4811 17.3074 3.08866 16.9223C2.69622 16.5372 2.5 16.0655 2.5 15.5073V4.49273C2.5 3.93452 2.69622 3.46284 3.08866 3.0777C3.4811 2.69257 3.96171 2.5 4.5305 2.5H9.31126C9.55593 2.5 9.76513 2.58524 9.93885 2.75573C10.1126 2.9262 10.1994 3.1315 10.1994 3.37162C10.1994 3.61174 10.1126 3.81704 9.93885 3.98752C9.76513 4.15799 9.55593 4.24323 9.31126 4.24323H4.5305C4.46694 4.24323 4.40868 4.26921 4.35572 4.32118C4.30275 4.37317 4.27626 4.43035 4.27626 4.49273V15.5073C4.27626 15.5697 4.30275 15.6268 4.35572 15.6788C4.40868 15.7308 4.46694 15.7568 4.5305 15.7568H9.31126C9.55593 15.7568 9.76513 15.842 9.93885 16.0125C10.1126 16.183 10.1994 16.3883 10.1994 16.6284C10.1994 16.8685 10.1126 17.0738 9.93885 17.2443C9.76513 17.4148 9.55593 17.5 9.31126 17.5H4.5305Z" fill="#6265AD"/>
</svg>
