<svg viewBox="0 0 20 20" fill="none" xmlns="http://www.w3.org/2000/svg">
<path d="M9.99973 16C9.75052 16 9.53739 15.9114 9.36033 15.7342C9.18328 15.557 9.09475 15.3439 9.09475 15.0948V10.9052H4.90525C4.65612 10.9052 4.44297 10.8166 4.26579 10.6394C4.0886 10.4621 4 10.2489 4 9.99973C4 9.75052 4.0886 9.53739 4.26579 9.36033C4.44297 9.18328 4.65612 9.09475 4.90525 9.09475H9.09475V4.90525C9.09475 4.65612 9.18337 4.44296 9.36061 4.26577C9.53786 4.08859 9.75108 4 10.0003 4C10.2495 4 10.4626 4.08859 10.6397 4.26577C10.8167 4.44296 10.9052 4.65612 10.9052 4.90525V9.09475H15.0948C15.3439 9.09475 15.557 9.18337 15.7342 9.36061C15.9114 9.53786 16 9.75108 16 10.0003C16 10.2495 15.9114 10.4626 15.7342 10.6397C15.557 10.8167 15.3439 10.9052 15.0948 10.9052H10.9052V15.0948C10.9052 15.3439 10.8166 15.557 10.6394 15.7342C10.4621 15.9114 10.2489 16 9.99973 16Z" fill="#6265AD"/>
</svg>
