<svg viewBox="0 0 20 20" fill="none" xmlns="http://www.w3.org/2000/svg">
<path d="M16.48 17.2364L11.8625 12.6022C11.4486 12.9313 10.9417 13.1893 10.3416 13.3762C9.74155 13.5631 9.14706 13.6565 8.55814 13.6565C7.00471 13.6565 5.69 13.1168 4.61399 12.0373C3.538 10.9579 3 9.63891 3 8.08047C3 6.52203 3.53779 5.20233 4.61337 4.12139C5.68893 3.04046 7.00313 2.5 8.55594 2.5C10.1088 2.5 11.4237 3.03994 12.5007 4.11983C13.5778 5.19974 14.1163 6.51922 14.1163 8.07827C14.1163 8.6853 14.0274 9.27262 13.8497 9.84025C13.6719 10.4079 13.4175 10.9052 13.0865 11.3323L17.7453 16.008C17.9151 16.1704 18 16.3696 18 16.6058C18 16.842 17.9064 17.054 17.7193 17.2418C17.5478 17.4139 17.3421 17.5 17.1023 17.5C16.8625 17.5 16.6551 17.4121 16.48 17.2364ZM8.55814 11.8706C9.62457 11.8706 10.521 11.5061 11.2473 10.7772C11.9736 10.0482 12.3368 9.14856 12.3368 8.07827C12.3368 7.00797 11.9736 6.10834 11.2473 5.37937C10.521 4.65039 9.62457 4.28591 8.55814 4.28591C7.4917 4.28591 6.59532 4.65039 5.86897 5.37937C5.14265 6.10834 4.77948 7.00797 4.77948 8.07827C4.77948 9.14856 5.14265 10.0482 5.86897 10.7772C6.59532 11.5061 7.4917 11.8706 8.55814 11.8706Z" fill="#6265AD"/>
</svg>
