<svg viewBox="0 0 20 20" fill="none" xmlns="http://www.w3.org/2000/svg">
<path d="M16.3765 12.4322C16.7832 12.4322 17.1555 12.2581 17.4933 11.9099C17.8311 11.5617 18 11.168 18 10.7286V9.8221C18 9.72408 17.9892 9.63248 17.9675 9.54729C17.9458 9.46209 17.9133 9.37458 17.87 9.28473L15.6837 3.86197C15.5684 3.59496 15.3998 3.38455 15.1778 3.23073C14.9558 3.07691 14.7054 3 14.4266 3H7.16646C6.69997 3 6.31276 3.15842 6.00484 3.47525C5.69691 3.79207 5.54294 4.20152 5.54294 4.70361V11.7168C5.54294 11.9531 5.58443 12.1793 5.6674 12.3954C5.75037 12.6114 5.86885 12.8002 6.02282 12.9618L9.14399 16.3052C9.4307 16.636 9.76996 16.8493 10.1618 16.9451C10.5536 17.0409 10.8776 17.0114 11.1339 16.8566C11.4502 16.6766 11.6465 16.3782 11.723 15.9612C11.7996 15.5443 11.7908 15.1099 11.6968 14.6582L11.2819 12.4322H16.3765ZM3.22357 3C2.89188 3 2.60504 3.12808 2.36304 3.38423C2.12101 3.64037 2 3.94182 2 4.28859V11.1436C2 11.4903 2.12249 11.7918 2.36746 12.0479C2.61244 12.3041 2.90077 12.4322 3.23245 12.4322H3.38459C3.71628 12.4322 4.00312 12.3041 4.24513 12.0479C4.48713 11.7918 4.60813 11.4903 4.60813 11.1436V4.28133C4.60813 3.93456 4.48564 3.63432 4.24067 3.38059C3.99569 3.12686 3.70736 3 3.37568 3H3.22357Z" fill="#6265AD"/>
</svg>
