<svg viewBox="0 0 20 20" fill="none" xmlns="http://www.w3.org/2000/svg">
<path d="M9.89278 18C8.79467 18 7.76782 17.7902 6.81223 17.3705C5.85664 16.9509 5.02139 16.3791 4.30646 15.6551C3.59153 14.9311 3.02839 14.0829 2.61703 13.1105C2.20568 12.1381 2 11.1014 2 10.0005C2 8.89952 2.20568 7.8627 2.61703 6.88999C3.02839 5.91729 3.59153 5.06893 4.30646 4.34491C5.02139 3.62091 5.85664 3.04909 6.81223 2.62946C7.76782 2.20982 8.79467 2 9.89278 2C11.1291 2 12.3007 2.25614 13.4077 2.76841C14.5148 3.28068 15.4307 4.03475 16.1555 5.03061V3.87426C16.1555 3.61978 16.2458 3.40204 16.4264 3.22104C16.6069 3.04003 16.8242 2.94953 17.078 2.94953C17.3319 2.94953 17.549 3.04003 17.7294 3.22104C17.9098 3.40204 18 3.61978 18 3.87426V7.33494C18 7.62691 17.8971 7.87608 17.6913 8.08245C17.4855 8.28883 17.2369 8.39202 16.9458 8.39202H13.4943C13.2405 8.39202 13.0234 8.30149 12.8429 8.12042C12.6623 7.93936 12.5721 7.72156 12.5721 7.467C12.5721 7.21244 12.6623 6.99472 12.8429 6.81386C13.0234 6.633 13.2405 6.54257 13.4943 6.54257H15.0303C14.4529 5.69669 13.7116 5.03637 12.8064 4.5616C11.9012 4.08683 10.93 3.84945 9.89278 3.84945C8.20555 3.84945 6.7757 4.4516 5.60322 5.6559C4.43073 6.86021 3.84449 8.30824 3.84449 10C3.84449 11.7061 4.43788 13.1577 5.62466 14.3548C6.81144 15.552 8.24845 16.1506 9.93568 16.1506C11.3501 16.1506 12.5977 15.7312 13.6783 14.8925C14.759 14.0538 15.4769 12.9771 15.8322 11.6625C15.9015 11.4254 16.0414 11.2462 16.252 11.1249C16.4627 11.0036 16.6915 10.9617 16.9384 10.9992C17.2106 11.0367 17.419 11.1629 17.5636 11.378C17.7083 11.593 17.7503 11.829 17.6899 12.086C17.2477 13.8318 16.3081 15.2539 14.8711 16.3523C13.4341 17.4508 11.7747 18 9.89278 18Z" fill="#6265AD"/>
<path d="M10.3826 9.60474L12.7205 11.9489C12.8965 12.1253 12.9894 12.336 12.9993 12.5808C13.0092 12.8256 12.9163 13.0462 12.7205 13.2425C12.539 13.4244 12.324 13.5154 12.0754 13.5154C11.8268 13.5154 11.6118 13.4244 11.4303 13.2425L8.85657 10.7048C8.74769 10.5956 8.6674 10.4792 8.61571 10.3556C8.56401 10.232 8.53816 10.0981 8.53816 9.95379V6.27469C8.53816 6.02022 8.62844 5.80249 8.80902 5.62148C8.9896 5.44048 9.20682 5.34998 9.46069 5.34998C9.71458 5.34998 9.93171 5.44048 10.1121 5.62148C10.2925 5.80249 10.3826 6.02022 10.3826 6.27469V9.60474Z" fill="#6265AD"/>
</svg>
