<svg viewBox="0 0 20 20" fill="none" xmlns="http://www.w3.org/2000/svg">
<path d="M13.6299 12.3686C13.4553 12.552 13.2424 12.6404 12.9914 12.6337C12.7404 12.627 12.5223 12.5319 12.3373 12.3485L10.8513 10.875V16.6358C10.8513 16.8739 10.7661 17.0774 10.5956 17.2465C10.4252 17.4155 10.2199 17.5 9.97974 17.5C9.73962 17.5 9.53432 17.4155 9.36385 17.2465C9.19336 17.0774 9.10812 16.8739 9.10812 16.6358V10.875L7.57382 12.3964C7.39918 12.5695 7.19649 12.6528 6.96573 12.6461C6.73496 12.6394 6.52965 12.5469 6.34982 12.3686C6.16999 12.1851 6.08008 11.9756 6.08008 11.7401C6.08008 11.5046 6.17259 11.2951 6.35762 11.1116L9.30458 8.18954C9.4075 8.0875 9.51794 8.01432 9.63591 7.97C9.7539 7.92568 9.87527 7.90353 10 7.90353C10.1247 7.90353 10.2461 7.92568 10.3641 7.97C10.4821 8.01432 10.5925 8.0875 10.6954 8.18954L13.6502 11.1193C13.8248 11.2925 13.9114 11.4981 13.9098 11.7362C13.9082 11.9743 13.8149 12.1851 13.6299 12.3686ZM17.5 9.12802C17.5 9.36612 17.4148 9.56969 17.2443 9.73873C17.0738 9.90776 16.8685 9.99228 16.6284 9.99228C16.3883 9.99228 16.183 9.90776 16.0125 9.73873C15.842 9.56969 15.7568 9.36612 15.7568 9.12802V4.47588C15.7568 4.41403 15.7308 4.35733 15.6788 4.3058C15.6268 4.25425 15.5697 4.22848 15.5073 4.22848H4.49273C4.43035 4.22848 4.37317 4.25425 4.32118 4.3058C4.26921 4.35733 4.24323 4.41403 4.24323 4.47588V9.12802C4.24323 9.36612 4.15799 9.56969 3.98752 9.73873C3.81704 9.90776 3.61174 9.99228 3.37162 9.99228C3.1315 9.99228 2.9262 9.90776 2.75573 9.73873C2.58524 9.56969 2.5 9.36612 2.5 9.12802V4.47588C2.5 3.92239 2.69257 3.4547 3.0777 3.07282C3.46284 2.69094 3.93452 2.5 4.49273 2.5H15.5073C16.0655 2.5 16.5372 2.69094 16.9223 3.07282C17.3074 3.4547 17.5 3.92239 17.5 4.47588V9.12802Z" fill="#6265AD"/>
</svg>
