<svg viewBox="0 0 20 20" fill="none" xmlns="http://www.w3.org/2000/svg">
<path d="M7.98578 15C7.86013 15 7.73789 14.9759 7.61906 14.9277C7.50021 14.8796 7.38896 14.8 7.28531 14.6891L3.75302 10.9092C3.58026 10.7244 3.49597 10.5031 3.50015 10.2454C3.50434 9.9877 3.59282 9.76641 3.76558 9.58154C3.93834 9.39666 4.14304 9.30421 4.37969 9.30421C4.61632 9.30421 4.82101 9.39666 4.99377 9.58154L7.98578 12.7832L15.0001 5.27733C15.1729 5.09244 15.3797 5 15.6205 5C15.8613 5 16.0681 5.09244 16.2409 5.27733C16.4136 5.4622 16.5 5.68348 16.5 5.94118C16.5 6.19888 16.4136 6.42016 16.2409 6.60503L8.68626 14.6891C8.5826 14.8 8.47135 14.8796 8.35251 14.9277C8.23368 14.9759 8.11143 15 7.98578 15Z" fill="#6265AD"/>
</svg>
