<svg viewBox="0 0 20 20" fill="none" xmlns="http://www.w3.org/2000/svg">
<path d="M11.4893 11.9891C11.7043 11.9891 11.8881 11.9127 12.0409 11.7599C12.1936 11.607 12.27 11.4231 12.27 11.2083V9.7736H13.7046C13.9195 9.7736 14.1034 9.69716 14.2562 9.54428C14.4091 9.39139 14.4855 9.20746 14.4855 8.99251C14.4855 8.77755 14.4091 8.5937 14.2562 8.44098C14.1034 8.28825 13.9195 8.21189 13.7046 8.21189H12.27V6.77724C12.27 6.56235 12.1935 6.37848 12.0406 6.22563C11.8877 6.0728 11.7038 5.99638 11.4889 5.99638C11.2739 5.99638 11.09 6.0728 10.9373 6.22563C10.7846 6.37848 10.7082 6.56235 10.7082 6.77724V8.21189H9.27359C9.05871 8.21189 8.87484 8.28833 8.722 8.44121C8.56915 8.59411 8.49273 8.77803 8.49273 8.99298C8.49273 9.20795 8.56915 9.39179 8.722 9.54452C8.87484 9.69724 9.05871 9.7736 9.27359 9.7736H10.7082V11.2083C10.7082 11.4231 10.7847 11.607 10.9376 11.7599C11.0905 11.9127 11.2744 11.9891 11.4893 11.9891ZM7.29977 14.9855C6.803 14.9855 6.38127 14.8121 6.03457 14.4654C5.68787 14.1187 5.51452 13.697 5.51452 13.2002V4.78526C5.51452 4.28849 5.68787 3.86676 6.03457 3.52006C6.38127 3.17335 6.803 3 7.29977 3H15.7148C16.2115 3 16.6332 3.17335 16.9799 3.52006C17.3266 3.86676 17.5 4.28849 17.5 4.78526V13.2002C17.5 13.697 17.3266 14.1187 16.9799 14.4654C16.6332 14.8121 16.2115 14.9855 15.7148 14.9855H7.29977ZM4.28524 18C3.78849 18 3.36675 17.8267 3.02004 17.48C2.67335 17.1332 2.5 16.7115 2.5 16.2148V7.01891C2.5 6.80402 2.57645 6.62015 2.72934 6.46731C2.88224 6.31447 3.06616 6.23805 3.28111 6.23805C3.49606 6.23805 3.67991 6.31447 3.83265 6.46731C3.98537 6.62015 4.06173 6.80402 4.06173 7.01891V16.2148C4.06173 16.2706 4.08501 16.3219 4.13158 16.3684C4.17815 16.415 4.22937 16.4383 4.28524 16.4383H13.4811C13.696 16.4383 13.8798 16.5147 14.0327 16.6676C14.1855 16.8205 14.262 17.0044 14.262 17.2194C14.262 17.4343 14.1855 17.6182 14.0327 17.7709C13.8798 17.9236 13.696 18 13.4811 18H4.28524Z" fill="#6265AD"/>
</svg>
