<svg viewBox="0 0 20 20" fill="none" xmlns="http://www.w3.org/2000/svg">
<path d="M6.07895 17.5C5.51857 17.5 5.04506 17.3088 4.65844 16.9265C4.27181 16.5441 4.07849 16.0758 4.07849 15.5217V5.93703H3.875C3.63421 5.93703 3.42817 5.85231 3.2569 5.68288C3.08563 5.51346 3 5.30965 3 5.07144C3 4.83324 3.08563 4.62951 3.2569 4.46027C3.42817 4.29102 3.63421 4.20639 3.875 4.20639H7.49709C7.49709 3.96388 7.5957 2.92441 7.79292 2.75465C7.99015 2.58488 8.21817 2.5 8.47697 2.5H11.523C11.7818 2.5 12.0098 2.58501 12.2071 2.75503C12.4043 2.92505 12.5029 3.96439 12.5029 4.20639H16.125C16.3658 4.20639 16.5718 4.2911 16.7431 4.46053C16.9144 4.62996 17 4.83378 17 5.07198C17 5.31019 16.9144 5.51392 16.7431 5.68316C16.5718 5.8524 16.3658 5.93703 16.125 5.93703H15.9215V15.5217C15.9215 16.0758 15.7282 16.5441 15.3416 16.9265C14.9549 17.3088 14.4814 17.5 13.921 17.5H6.07895ZM7.43919 12.4407C7.43919 12.6788 7.52485 12.8826 7.69618 13.0519C7.86749 13.2213 8.07358 13.306 8.31446 13.306C8.55532 13.306 8.76132 13.2213 8.93246 13.0519C9.1036 12.8826 9.18918 12.6788 9.18918 12.4407V8.43237C9.18918 8.19425 9.10352 7.9905 8.93219 7.82113C8.76087 7.65175 8.55477 7.56706 8.31391 7.56706C8.07303 7.56706 7.86703 7.65175 7.69589 7.82113C7.52476 7.9905 7.43919 8.19425 7.43919 8.43237V12.4407ZM10.8108 12.4407C10.8108 12.6788 10.8965 12.8826 11.0678 13.0519C11.2391 13.2213 11.4452 13.306 11.6861 13.306C11.927 13.306 12.133 13.2213 12.3041 13.0519C12.4752 12.8826 12.5608 12.6788 12.5608 12.4407V8.43237C12.5608 8.19425 12.4751 7.9905 12.3038 7.82113C12.1325 7.65175 11.9264 7.56706 11.6855 7.56706C11.4447 7.56706 11.2387 7.65175 11.0675 7.82113C10.8964 7.9905 10.8108 8.19425 10.8108 8.43237V12.4407Z" fill="#6265AD"/>
</svg>
