<svg viewBox="0 0 20 20" fill="none" xmlns="http://www.w3.org/2000/svg">
<path d="M6.37009 7.63145C6.54472 7.44798 6.75755 7.3596 7.00858 7.3663C7.25962 7.373 7.47766 7.46808 7.66268 7.65155L9.14866 9.12497V3.36424C9.14866 3.12615 9.23389 2.92258 9.40437 2.75355C9.57484 2.58452 9.78014 2.5 10.0203 2.5C10.2604 2.5 10.4657 2.58452 10.6362 2.75355C10.8066 2.92258 10.8919 3.12615 10.8919 3.36424V9.12497L12.4262 7.60361C12.6008 7.43046 12.8035 7.34724 13.0343 7.35394C13.265 7.36064 13.4703 7.45314 13.6502 7.63145C13.83 7.81491 13.9199 8.0244 13.9199 8.25993C13.9199 8.49543 13.8274 8.70493 13.6424 8.8884L10.6954 11.8105C10.5925 11.9125 10.4821 11.9857 10.3641 12.03C10.2461 12.0743 10.1247 12.0965 9.99999 12.0965C9.87526 12.0965 9.7539 12.0743 9.63592 12.03C9.51793 11.9857 9.40748 11.9125 9.30458 11.8105L6.34982 8.88066C6.17518 8.7075 6.08864 8.50188 6.0902 8.26378C6.09176 8.02569 6.18506 7.81491 6.37009 7.63145ZM2.5 10.872C2.5 10.6339 2.58524 10.4303 2.75571 10.2613C2.92618 10.0922 3.13148 10.0077 3.3716 10.0077C3.61172 10.0077 3.81702 10.0922 3.9875 10.2613C4.15798 10.4303 4.24323 10.6339 4.24323 10.872V15.5241C4.24323 15.586 4.26921 15.6427 4.32118 15.6942C4.37316 15.7457 4.43033 15.7715 4.49271 15.7715H15.5073C15.5696 15.7715 15.6268 15.7457 15.6788 15.6942C15.7308 15.6427 15.7568 15.586 15.7568 15.5241V10.872C15.7568 10.6339 15.842 10.4303 16.0125 10.2613C16.183 10.0922 16.3883 10.0077 16.6284 10.0077C16.8685 10.0077 17.0738 10.0922 17.2443 10.2613C17.4148 10.4303 17.5 10.6339 17.5 10.872V15.5241C17.5 16.0776 17.3074 16.5453 16.9223 16.9272C16.5372 17.3091 16.0655 17.5 15.5073 17.5H4.49271C3.93451 17.5 3.46284 17.3091 3.0777 16.9272C2.69257 16.5453 2.5 16.0776 2.5 15.5241V10.872Z" fill="#6265AD"/>
</svg>
