<svg viewBox="0 0 20 20" fill="none" xmlns="http://www.w3.org/2000/svg">
<path d="M5.26469 17C4.9027 17 4.60142 16.8776 4.36085 16.6328C4.12028 16.388 4 16.0814 4 15.7131C4 15.3486 4.12123 15.043 4.36368 14.7963C4.60614 14.5496 4.90648 14.4262 5.26469 14.4262H14.7353C15.0973 14.4262 15.3986 14.5486 15.6391 14.7934C15.8797 15.0382 16 15.3448 16 15.7131C16 16.0776 15.8788 16.3832 15.6363 16.6299C15.3939 16.8766 15.0935 17 14.7353 17H5.26469ZM6.17875 12.9298C5.97815 12.9298 5.80998 12.8607 5.67424 12.7226C5.53848 12.5845 5.4706 12.4133 5.4706 12.2092V10.8314C5.4706 10.7293 5.48588 10.6382 5.51643 10.558C5.54697 10.4778 5.59957 10.3998 5.67424 10.3238L10.7704 5.14967L13.1165 7.53698L8.03166 12.7226C7.95701 12.7986 7.88027 12.8521 7.80146 12.8832C7.72265 12.9143 7.6331 12.9298 7.53279 12.9298H6.17875ZM13.9457 6.71857L11.5996 4.31284L12.7308 3.1917C12.8484 3.06584 12.9887 3.00196 13.1516 3.00004C13.3145 2.99813 13.4548 3.06201 13.5724 3.1917L15.0656 4.71109C15.1832 4.83081 15.2439 4.97201 15.2477 5.1347C15.2515 5.29738 15.1945 5.44165 15.0769 5.5675L13.9457 6.71857Z" fill="#6265AD"/>
</svg>
