<svg viewBox="0 0 20 20" fill="none" xmlns="http://www.w3.org/2000/svg">
<path d="M5.78742 18C5.29005 18 4.86781 17.8146 4.52069 17.4439C4.17356 17.0732 4 16.6223 4 16.0911V3.9089C4 3.37772 4.17356 2.92679 4.52069 2.55608C4.86781 2.18536 5.29005 2 5.78742 2H10.6741C10.9173 2 11.1491 2.04986 11.3694 2.14957C11.5898 2.24928 11.7823 2.38762 11.9469 2.5646L15.4713 6.30916C15.637 6.48494 15.7666 6.6905 15.8599 6.92584C15.9533 7.16118 16 7.40869 16 7.66838V16.0911C16 16.6223 15.8264 17.0732 15.4793 17.4439C15.1322 17.8146 14.7099 18 14.2126 18H5.78742ZM10.6546 6.75725C10.6546 7.02004 10.7415 7.24431 10.9155 7.43007C11.0894 7.61583 11.2994 7.70871 11.5455 7.70871H14.4364L10.6546 3.66989V6.75725Z" fill="#6265AD"/>
</svg>
