<svg viewBox="0 0 20 20" fill="none" xmlns="http://www.w3.org/2000/svg">
<path d="M10 11.3831L11.649 12.6247C11.7381 12.6876 11.8292 12.6876 11.9223 12.6247C12.0155 12.5619 12.0419 12.4812 12.0015 12.3827L11.3478 10.3395L13.0481 9.00826C13.1558 8.95063 13.1881 8.86785 13.1452 8.75992C13.1022 8.652 13.0186 8.59804 12.8944 8.59804H10.8804L10.2189 6.57998C10.1786 6.48148 10.1056 6.43223 10 6.43223C9.89441 6.43223 9.82143 6.48148 9.78106 6.57998L9.11957 8.59804H7.10561C6.98139 8.59804 6.90245 8.652 6.86881 8.75992C6.83516 8.86785 6.87217 8.95063 6.97983 9.00826L8.65217 10.3395L7.99846 12.3701C7.95809 12.4686 7.98448 12.5527 8.07765 12.6224C8.17082 12.6921 8.26192 12.6955 8.35095 12.6326L10 11.3831ZM10 18C9.91615 18 9.82039 17.9932 9.71273 17.9796C9.60507 17.9659 9.50672 17.9455 9.4177 17.9183C7.6206 17.3189 6.18505 16.2014 5.11104 14.5658C4.03701 12.9302 3.5 11.1678 3.5 9.27858V5.6998C3.5 5.30897 3.60533 4.95508 3.816 4.63812C4.02666 4.32114 4.3116 4.09298 4.67081 3.95363L9.34784 2.13516C9.56109 2.04505 9.77847 2 10 2C10.2215 2 10.4389 2.04505 10.6522 2.13516L15.3292 3.95363C15.6884 4.09298 15.9733 4.32114 16.184 4.63812C16.3947 4.95508 16.5 5.30897 16.5 5.6998V9.27858C16.5 11.1678 15.963 12.9302 14.889 14.5658C13.815 16.2014 12.3794 17.3189 10.5823 17.9183C10.4933 17.9455 10.3949 17.9659 10.2873 17.9796C10.1796 17.9932 10.0839 18 10 18Z" fill="#6265AD"/>
</svg>
