<svg viewBox="0 0 20 20" fill="none" xmlns="http://www.w3.org/2000/svg">
<path d="M9.02565 12.9013L12.6262 10.5796C12.8397 10.4402 12.9464 10.2466 12.9464 9.99879C12.9464 9.75096 12.8397 9.55815 12.6262 9.42036L9.02565 7.0987C8.79047 6.96091 8.55737 6.96124 8.32634 7.09971C8.09532 7.23819 7.97981 7.4378 7.97981 7.69854V12.3015C7.97981 12.5622 8.09532 12.7618 8.32634 12.9003C8.55737 13.0388 8.79047 13.0391 9.02565 12.9013ZM10.0069 18C8.90589 18 7.86912 17.7916 6.89662 17.3749C5.9241 16.9582 5.07331 16.3855 4.34425 15.6568C3.61517 14.928 3.04219 14.0778 2.62531 13.1063C2.20844 12.1348 2 11.0967 2 9.9921C2 8.88403 2.20875 7.84559 2.62624 6.87678C3.04374 5.90798 3.61755 5.05792 4.34766 4.32659C5.07779 3.59528 5.92794 3.02468 6.89809 2.61481C7.86825 2.20494 8.90485 2 10.0079 2C11.1158 2 12.1542 2.20485 13.1229 2.61455C14.0915 3.02425 14.9416 3.59468 15.6731 4.32586C16.4046 5.05706 16.9753 5.90849 17.3852 6.88015C17.7951 7.85181 18 8.89001 18 9.99477C18 11.0995 17.7951 12.1359 17.3855 13.1038C16.9758 14.0717 16.4054 14.9209 15.6744 15.6513C14.9434 16.3818 14.0922 16.9558 13.1208 17.3735C12.1493 17.7912 11.1114 18 10.0069 18Z" fill="#6265AD"/>
</svg>
