<svg viewBox="0 0 20 20" fill="none" xmlns="http://www.w3.org/2000/svg">
<path d="M13.4157 8.77183H7.70511C7.08234 8.77183 6.57535 9.02887 6.18414 9.54295C5.79294 10.057 5.59733 10.6538 5.59733 11.3333C5.59733 12.0128 5.79294 12.6109 6.18414 13.1276C6.57535 13.6443 7.08234 13.9026 7.70511 13.9026H13.3794C13.5947 13.9026 13.7816 13.9819 13.9402 14.1405C14.0988 14.2991 14.1781 14.486 14.1781 14.7013C14.1781 14.9166 14.0988 15.1035 13.9402 15.2621C13.7816 15.4207 13.5947 15.5 13.3794 15.5H7.70511C6.65701 15.5 5.77747 15.0818 5.06647 14.2453C4.35549 13.4088 4 12.4381 4 11.3333C4 10.2285 4.35549 9.25915 5.06647 8.42528C5.77747 7.59142 6.65701 7.17449 7.70511 7.17449H13.4157L12.1208 5.87956C11.9527 5.71152 11.864 5.52458 11.8545 5.31875C11.8451 5.11291 11.9338 4.92335 12.1208 4.75007C12.294 4.57679 12.4823 4.49356 12.6855 4.50039C12.8887 4.50721 13.0769 4.59727 13.2502 4.77055L15.7912 7.31152C15.8815 7.40185 15.9527 7.50319 16.0047 7.61555C16.0567 7.72793 16.0827 7.84713 16.0827 7.97316C16.0827 8.09919 16.0567 8.21497 16.0047 8.32051C15.9527 8.42605 15.8815 8.52399 15.7912 8.6143L13.2298 11.1758C13.0617 11.3438 12.885 11.4257 12.6997 11.4215C12.5143 11.4173 12.335 11.3286 12.1617 11.1553C11.9748 10.982 11.8813 10.7972 11.8813 10.6008C11.8813 10.4044 11.968 10.2196 12.1412 10.0463L13.4157 8.77183Z" fill="#6265AD"/>
</svg>
