<svg viewBox="0 0 20 20" fill="none" xmlns="http://www.w3.org/2000/svg">
<path d="M5.1939 10.0553C5.1939 10.2539 5.2083 10.4511 5.2371 10.6469C5.26588 10.8427 5.31159 11.0361 5.37421 11.2272C5.43785 11.4579 5.44315 11.6875 5.39013 11.9159C5.33709 12.1443 5.21916 12.3441 5.03635 12.5153C4.87473 12.6666 4.69038 12.7312 4.48332 12.709C4.27625 12.6867 4.13029 12.5924 4.04545 12.4259C3.86363 12.0609 3.72727 11.6781 3.63636 11.2775C3.54545 10.877 3.5 10.4696 3.5 10.0553C3.5 8.45977 4.06995 7.07726 5.20984 5.90779C6.34975 4.73832 7.76263 4.08596 9.44848 3.95071H10.0243L9.39546 3.36192C9.22072 3.19831 9.13537 3.01459 9.1394 2.81077C9.14344 2.60696 9.23536 2.42089 9.41516 2.25254C9.59495 2.08418 9.79571 2 10.0174 2C10.2391 2 10.4399 2.08418 10.6197 2.25254L12.6045 4.11102C12.7995 4.29356 12.897 4.50446 12.897 4.74374C12.897 4.98302 12.7995 5.19393 12.6045 5.37647L10.5803 7.27183C10.4187 7.42316 10.229 7.50001 10.0114 7.50237C9.79369 7.50474 9.59495 7.4279 9.41516 7.27183C9.23536 7.11578 9.14546 6.93088 9.14546 6.71714C9.14546 6.5034 9.23536 6.31236 9.41516 6.14401L10.044 5.55522H9.46818C8.29646 5.65358 7.29115 6.12624 6.45225 6.9732C5.61335 7.82017 5.1939 8.84754 5.1939 10.0553ZM14.8061 9.94466C14.8061 9.74604 14.7917 9.54884 14.7629 9.35307C14.7341 9.15729 14.6884 8.96387 14.6258 8.77281C14.5622 8.54204 14.5568 8.31246 14.6099 8.08406C14.6629 7.85565 14.7808 7.65585 14.9637 7.48466C15.1253 7.33335 15.3096 7.2688 15.5167 7.29101C15.7238 7.31324 15.8697 7.40759 15.9545 7.57404C16.1364 7.93911 16.2727 8.32192 16.3636 8.72246C16.4545 9.12301 16.5 9.53041 16.5 9.94466C16.5 11.5402 15.9301 12.9227 14.7902 14.0922C13.6503 15.2617 12.2374 15.914 10.5515 16.0493H9.97571L10.6045 16.6381C10.7793 16.8017 10.8646 16.9854 10.8606 17.1892C10.8566 17.393 10.7646 17.5791 10.5848 17.7474C10.405 17.9158 10.2043 18 9.98257 18C9.76086 18 9.56011 17.9158 9.38031 17.7474L7.39546 15.889C7.20051 15.7064 7.10304 15.4955 7.10304 15.2562C7.10304 15.017 7.20051 14.8061 7.39546 14.6235L9.41971 12.7281C9.58131 12.5768 9.77096 12.5 9.98863 12.4976C10.2063 12.4952 10.405 12.5721 10.5848 12.7281C10.7646 12.8842 10.8545 13.0691 10.8545 13.2828C10.8545 13.4966 10.7646 13.6876 10.5848 13.856L9.95602 14.4448H10.5318C11.7035 14.3464 12.7089 13.8737 13.5477 13.0268C14.3866 12.1798 14.8061 11.1524 14.8061 9.94466Z" fill="#6265AD"/>
</svg>
