<svg viewBox="0 0 20 20" fill="none" xmlns="http://www.w3.org/2000/svg">
<path d="M13.1878 17.3705C12.2322 17.7902 11.2053 18 10.1072 18C8.22531 18 6.56586 17.4508 5.12887 16.3523C3.69187 15.2539 2.75229 13.8318 2.31014 12.086C2.24965 11.829 2.29173 11.593 2.43636 11.378C2.58099 11.1629 2.7894 11.0367 3.0616 10.9992C3.30854 10.9617 3.53732 11.0036 3.74796 11.1249C3.95857 11.2462 4.09853 11.4254 4.16782 11.6625C4.52308 12.9771 5.24103 14.0538 6.32167 14.8925C7.40232 15.7312 8.64987 16.1506 10.0643 16.1506C11.7516 16.1506 13.1886 15.552 14.3753 14.3548C15.5621 13.1577 16.1555 11.7061 16.1555 10C16.1555 8.30824 15.5693 6.86021 14.3968 5.6559C13.2243 4.4516 11.7944 3.84945 10.1072 3.84945C9.07003 3.84945 8.09883 4.08683 7.19364 4.5616C6.28842 5.03637 5.5471 5.69669 4.96967 6.54257H6.50565C6.75945 6.54257 6.97661 6.633 7.15713 6.81386C7.33765 6.99472 7.42791 7.21244 7.42791 7.467C7.42791 7.72156 7.33765 7.93936 7.15713 8.12042C6.97661 8.30149 6.75945 8.39202 6.50565 8.39202H3.05425C2.76306 8.39202 2.51455 8.28883 2.30872 8.08245C2.10291 7.87608 2 7.62691 2 7.33494V3.87426C2 3.61978 2.09019 3.40204 2.27056 3.22104C2.45095 3.04003 2.66809 2.94953 2.92196 2.94953C3.17583 2.94953 3.39305 3.04003 3.57363 3.22104C3.7542 3.40204 3.84449 3.61978 3.84449 3.87426V5.03061C4.56931 4.03475 5.48524 3.28068 6.59228 2.76841C7.6993 2.25614 8.87095 2 10.1072 2C11.2053 2 12.2322 2.20982 13.1878 2.62946C14.1434 3.04909 14.9786 3.62091 15.6935 4.34491C16.4085 5.06893 16.9716 5.91729 17.383 6.88999C17.7943 7.8627 18 8.89952 18 10.0005C18 11.1014 17.7943 12.1381 17.383 13.1105C16.9716 14.0829 16.4085 14.9311 15.6935 15.6551C14.9786 16.3791 14.1434 16.9509 13.1878 17.3705Z" fill="#6265AD"/>
<path d="M13.2593 11.9537L10.9215 9.60959V6.27954C10.9215 6.02507 10.8313 5.80734 10.6509 5.62633C10.4706 5.44533 10.2534 5.35483 9.99953 5.35483C9.74566 5.35483 9.52844 5.44533 9.34786 5.62633C9.16729 5.80734 9.077 6.02507 9.077 6.27954V9.95865C9.077 10.1029 9.10285 10.2369 9.15455 10.3605C9.20624 10.4841 9.28653 10.6005 9.39541 10.7097L11.9692 13.2473C12.1507 13.4293 12.3657 13.5203 12.6142 13.5203C12.8628 13.5203 13.0778 13.4293 13.2593 13.2473C13.4551 13.051 13.548 12.8305 13.5381 12.5856C13.5282 12.3408 13.4353 12.1302 13.2593 11.9537Z" fill="#6265AD"/>
</svg>
