<svg viewBox="0 0 20 20" fill="none" xmlns="http://www.w3.org/2000/svg">
<path d="M8.46619 12.4251C8.22254 12.4251 8.01351 12.3393 7.83908 12.1676C7.66465 11.9959 7.57743 11.788 7.57743 11.544V10.445C7.57743 10.2071 7.62123 9.97857 7.70883 9.75956C7.79643 9.54056 7.92733 9.3446 8.10156 9.17168L14.3483 2.92805C14.5092 2.76728 14.6767 2.65574 14.851 2.59344C15.0253 2.53115 15.2053 2.5 15.3912 2.5C15.5823 2.5 15.774 2.53441 15.9661 2.60324C16.1582 2.67207 16.3344 2.78294 16.4945 2.93585L17.0491 3.47065C17.215 3.63142 17.3316 3.80704 17.399 3.99752C17.4663 4.188 17.5 4.38124 17.5 4.57725C17.5 4.77357 17.4647 4.96414 17.3942 5.14897C17.3237 5.33379 17.2072 5.50485 17.0446 5.66214L10.7948 11.9284C10.6183 12.1048 10.4214 12.2317 10.204 12.3091C9.98672 12.3864 9.75988 12.4251 9.52353 12.4251H8.46619ZM15.0133 5.5461L15.9438 4.58146L15.41 3.98611L14.4448 4.97787L15.0133 5.5461ZM4.2704 17.5C3.77725 17.5 3.3589 17.3283 3.01535 16.9849C2.67178 16.6415 2.5 16.2234 2.5 15.7305V5.63204C2.5 5.13376 2.6708 4.71101 3.01241 4.36379C3.354 4.01656 3.77333 3.84947 4.2704 3.86253H11.2343L6.56555 8.52895C6.38687 8.70632 6.25373 8.90437 6.16614 9.1231C6.07855 9.34185 6.03475 9.57018 6.03475 9.80809V12.2261C6.03475 12.7286 6.20333 13.1476 6.54048 13.4832C6.87764 13.8188 7.2982 13.9866 7.80217 13.9866H10.1639C10.4025 13.9866 10.6314 13.9428 10.8505 13.8553C11.0697 13.7678 11.268 13.6347 11.4454 13.4561L16.1443 8.75953V15.7305C16.1443 16.2234 15.9725 16.6415 15.629 16.9849C15.2854 17.3283 14.8671 17.5 14.3739 17.5H4.2704Z" fill="#6265AD"/>
</svg>
