<svg viewBox="0 0 20 20" fill="none" xmlns="http://www.w3.org/2000/svg">
<path d="M14.4756 18C13.7744 18 13.1768 17.7552 12.683 17.2656C12.1891 16.7761 11.9422 16.1816 11.9422 15.4822C11.9422 15.3741 11.9503 15.2761 11.9663 15.1883C11.9824 15.1004 12.0065 15.0001 12.0387 14.8871L7.14583 11.918C6.9456 12.145 6.70329 12.3017 6.4189 12.3881C6.13453 12.4745 5.8446 12.5177 5.54912 12.5177C4.84103 12.5177 4.23915 12.2728 3.7435 11.783C3.24783 11.2931 3 10.6983 3 9.99853C3 9.29874 3.24783 8.70441 3.7435 8.21554C4.23915 7.72667 4.84103 7.48224 5.54912 7.48224C5.84065 7.48224 6.1296 7.52883 6.41595 7.62202C6.7023 7.71522 6.9456 7.86854 7.14583 8.082L12.0387 5.11239C12.0065 4.99764 11.9824 4.89519 11.9663 4.80504C11.9503 4.7149 11.9422 4.61914 11.9422 4.51775C11.9422 3.81838 12.1876 3.22391 12.6785 2.73434C13.1694 2.24478 13.7654 2 14.4666 2C15.1678 2 15.7654 2.24492 16.2592 2.73476C16.7531 3.22462 17 3.81943 17 4.51921C17 5.219 16.7522 5.81333 16.2565 6.3022C15.7609 6.79107 15.159 7.0355 14.4509 7.0355C14.1554 7.0355 13.8655 6.99229 13.5811 6.90587C13.2967 6.81944 13.0544 6.66273 12.8542 6.43574L7.96129 9.4049C7.99346 9.51781 8.01758 9.618 8.03366 9.70547C8.04974 9.79293 8.05778 9.89056 8.05778 9.99837C8.05778 10.1062 8.04974 10.2044 8.03366 10.2929C8.01758 10.3814 7.99346 10.4822 7.96129 10.5951L12.8542 13.5642C13.0544 13.3237 13.2967 13.1636 13.5811 13.084C13.8655 13.0043 14.1554 12.9645 14.4509 12.9645C15.159 12.9645 15.7609 13.2094 16.2565 13.6992C16.7522 14.1891 17 14.7839 17 15.4837C17 16.1835 16.7546 16.7778 16.2637 17.2667C15.7729 17.7555 15.1768 18 14.4756 18Z" fill="#454E96"/>
</svg>
