<svg viewBox="0 0 20 20" fill="none" xmlns="http://www.w3.org/2000/svg">
<path d="M8.02888 7.07089C7.16777 7.07089 6.68904 6.17334 7.22697 5.56745L9.19808 3.34729C9.6092 2.88423 10.3908 2.88424 10.8019 3.34729L12.773 5.56745C13.311 6.17335 12.8322 7.07089 11.9711 7.07089H8.02888Z" fill="#6265AD"/>
<path fill-rule="evenodd" clip-rule="evenodd" d="M2.56699 16.9319C2.61909 16.9773 2.67491 17 2.73445 17H4.10768C4.23421 17 4.32353 16.9735 4.37563 16.9206C4.42773 16.86 4.46123 16.8071 4.47611 16.7617L4.90036 15.6043H7.88128L8.31669 16.7617C8.33158 16.8071 8.36507 16.86 8.41717 16.9206C8.47671 16.9735 8.56231 17 8.67395 17H10.0472C10.1142 17 10.17 16.9773 10.2147 16.9319C10.2668 16.879 10.2928 16.8222 10.2928 16.7617C10.2928 16.7239 10.2854 16.6898 10.2705 16.6596L7.65799 9.37453C7.63566 9.29132 7.58728 9.21945 7.51285 9.15893C7.44586 9.09085 7.3491 9.05681 7.22257 9.05681H5.57023C5.4437 9.05681 5.34322 9.09085 5.26879 9.15893C5.2018 9.21945 5.15714 9.29132 5.13482 9.37453L2.51116 16.6596C2.50372 16.6898 2.5 16.7239 2.5 16.7617C2.5 16.8222 2.52233 16.879 2.56699 16.9319ZM7.4347 13.9702H5.3581L6.38524 10.9745L7.4347 13.9702Z" fill="#6265AD"/>
<path d="M11.0693 16.7163C11.0693 16.792 11.0953 16.86 11.1474 16.9206C11.1995 16.9735 11.2665 17 11.3484 17H17.2097C17.2916 17 17.3586 16.9735 17.4107 16.9206C17.4702 16.8676 17.5 16.7995 17.5 16.7163V15.5816C17.5 15.4984 17.4702 15.4303 17.4107 15.3773C17.3586 15.3168 17.2916 15.2865 17.2097 15.2865H13.7264L17.2209 10.827C17.2655 10.774 17.299 10.7173 17.3214 10.6568C17.3511 10.5963 17.366 10.5244 17.366 10.4412V9.34049C17.366 9.25728 17.3363 9.18919 17.2767 9.13624C17.2246 9.08328 17.1576 9.05681 17.0757 9.05681H11.4489C11.3744 9.05681 11.3074 9.08328 11.2479 9.13624C11.1958 9.18919 11.1697 9.25728 11.1697 9.34049V10.4639C11.1697 10.5471 11.1958 10.6152 11.2479 10.6681C11.3074 10.7211 11.3744 10.7476 11.4489 10.7476H14.8317L11.2367 15.1958C11.207 15.226 11.1697 15.2752 11.1251 15.3433C11.0879 15.4114 11.0693 15.4984 11.0693 15.6043V16.7163Z" fill="#6265AD"/>
</svg>
