<svg viewBox="0 0 20 20" fill="none" xmlns="http://www.w3.org/2000/svg">
<path fill-rule="evenodd" clip-rule="evenodd" d="M2.56699 10.8752C2.61909 10.9206 2.67491 10.9433 2.73445 10.9433H4.10768C4.23421 10.9433 4.32353 10.9168 4.37563 10.8638C4.42773 10.8033 4.46123 10.7504 4.47611 10.705L4.90036 9.54752H7.88128L8.31669 10.705C8.33158 10.7504 8.36507 10.8033 8.41717 10.8638C8.47671 10.9168 8.56231 10.9433 8.67395 10.9433H10.0472C10.1142 10.9433 10.17 10.9206 10.2147 10.8752C10.2668 10.8222 10.2928 10.7655 10.2928 10.705C10.2928 10.6671 10.2854 10.6331 10.2705 10.6028L7.65799 3.31773C7.63566 3.23452 7.58728 3.16265 7.51285 3.10213C7.44586 3.03404 7.3491 3 7.22257 3H5.57023C5.4437 3 5.34322 3.03404 5.26879 3.10213C5.2018 3.16265 5.15714 3.23452 5.13482 3.31773L2.51116 10.6028C2.50372 10.6331 2.5 10.6671 2.5 10.705C2.5 10.7655 2.52233 10.8222 2.56699 10.8752ZM7.4347 7.91348H5.3581L6.38524 4.91773L7.4347 7.91348Z" fill="#6265AD"/>
<path d="M11.0693 10.6596C11.0693 10.7352 11.0953 10.8033 11.1474 10.8638C11.1995 10.9168 11.2665 10.9433 11.3484 10.9433H17.2097C17.2916 10.9433 17.3586 10.9168 17.4107 10.8638C17.4702 10.8109 17.5 10.7428 17.5 10.6596V9.52482C17.5 9.44161 17.4702 9.37352 17.4107 9.32057C17.3586 9.26005 17.2916 9.22979 17.2097 9.22979H13.7264L17.2209 4.77021C17.2655 4.71726 17.299 4.66052 17.3214 4.6C17.3511 4.53948 17.366 4.46761 17.366 4.3844V3.28369C17.366 3.20047 17.3363 3.13239 17.2767 3.07943C17.2246 3.02648 17.1576 3 17.0757 3H11.4489C11.3744 3 11.3074 3.02648 11.2479 3.07943C11.1958 3.13239 11.1697 3.20047 11.1697 3.28369V4.40709C11.1697 4.49031 11.1958 4.55839 11.2479 4.61135C11.3074 4.6643 11.3744 4.69078 11.4489 4.69078H14.8317L11.2367 9.13901C11.207 9.16927 11.1697 9.21844 11.1251 9.28652C11.0879 9.35461 11.0693 9.44161 11.0693 9.54752V10.6596Z" fill="#6265AD"/>
<path d="M8.02888 12.9291C7.16777 12.9291 6.68904 13.8266 7.22697 14.4325L9.19808 16.6527C9.6092 17.1158 10.3908 17.1158 10.8019 16.6527L12.773 14.4325C13.311 13.8266 12.8322 12.9291 11.9711 12.9291H8.02888Z" fill="#6265AD"/>
</svg>
