<svg viewBox="0 0 20 20" fill="none" xmlns="http://www.w3.org/2000/svg">
<path d="M16.3765 7.56784C16.7832 7.56784 17.1555 7.74192 17.4933 8.0901C17.8311 8.43826 18 8.83204 18 9.27144V10.1779C18 10.2759 17.9892 10.3675 17.9675 10.4527C17.9458 10.5379 17.9133 10.6254 17.87 10.7153L15.6837 16.138C15.5684 16.405 15.3998 16.6154 15.1778 16.7693C14.9558 16.9231 14.7054 17 14.4266 17H7.16646C6.69997 17 6.31276 16.8416 6.00484 16.5247C5.69691 16.2079 5.54294 15.7985 5.54294 15.2964V8.28323C5.54294 8.04687 5.58443 7.82066 5.6674 7.6046C5.75037 7.38856 5.86885 7.19976 6.02282 7.0382L9.14399 3.69484C9.4307 3.364 9.76996 3.15069 10.1618 3.05491C10.5536 2.95914 10.8776 2.98865 11.1339 3.14344C11.4502 3.32337 11.6465 3.62181 11.723 4.03876C11.7996 4.4557 11.7908 4.89006 11.6968 5.34184L11.2819 7.56784H16.3765ZM3.22357 17C2.89188 17 2.60504 16.8719 2.36304 16.6158C2.12101 16.3596 2 16.0582 2 15.7114V8.85643C2 8.50966 2.12249 8.20821 2.36746 7.95207C2.61244 7.69591 2.90077 7.56784 3.23245 7.56784H3.38459C3.71628 7.56784 4.00312 7.69591 4.24513 7.95207C4.48713 8.20821 4.60813 8.50966 4.60813 8.85643V15.7187C4.60813 16.0654 4.48564 16.3657 4.24067 16.6194C3.99569 16.8731 3.70736 17 3.37568 17H3.22357Z" fill="#6265AD"/>
</svg>
