<svg viewBox="0 0 20 20" fill="none" xmlns="http://www.w3.org/2000/svg">
<path d="M6.68473 15.5C6.47092 15.5 6.28526 15.4206 6.12777 15.2617C5.97028 15.1028 5.89153 14.9155 5.89153 14.6998C5.89153 14.4841 5.97028 14.2968 6.12777 14.138C6.28526 13.9791 6.47092 13.8997 6.68473 13.8997H12.3202C12.9387 13.8997 13.4423 13.6408 13.8308 13.1232C14.2193 12.6055 14.4136 12.0063 14.4136 11.3255C14.4136 10.6448 14.2193 10.0469 13.8308 9.53183C13.4423 9.01679 12.9387 8.75927 12.3202 8.75927H6.64871L7.91445 10.0566C8.08655 10.2302 8.1726 10.4154 8.1726 10.6122C8.1726 10.8089 8.07977 10.9941 7.89411 11.1677C7.72202 11.3413 7.54392 11.4268 7.35983 11.4242C7.17575 11.4215 7.00026 11.336 6.83337 11.1677L4.28945 8.60146C4.19975 8.51097 4.12909 8.41286 4.07745 8.30711C4.02582 8.20138 4 8.08538 4 7.95912C4 7.83286 4.02582 7.71343 4.07745 7.60085C4.12909 7.48827 4.19975 7.38674 4.28945 7.29625L6.79269 4.77105C6.9648 4.59745 7.15177 4.50723 7.35358 4.50039C7.5554 4.49355 7.74236 4.57693 7.91445 4.75054C8.10011 4.92414 8.19163 5.11064 8.18903 5.31002C8.18643 5.5094 8.10168 5.69326 7.93479 5.86161L6.64871 7.15896H12.3202C13.3612 7.15896 14.2347 7.57667 14.9408 8.41208C15.6469 9.24751 16 10.2187 16 11.3255C16 12.4324 15.6469 13.4049 14.9408 14.2429C14.2347 15.081 13.3612 15.5 12.3202 15.5H6.68473Z" fill="#6265AD"/>
</svg>
